<?xml version="1.0" encoding="utf-8"?>
<!-- Generator: Adobe Illustrator 18.1.0, SVG Export Plug-In . SVG Version: 6.00 Build 0)  -->
<svg version="1.1" xmlns="http://www.w3.org/2000/svg" xmlns:xlink="http://www.w3.org/1999/xlink" x="0px" y="0px"
	 viewBox="0 0 347.8 291.7" enable-background="new 0 0 347.8 291.7" xml:space="preserve">
<g id="Layer_16">
</g>
<g id="Layer_17">
</g>
<g id="Layer_12">
</g>
<g id="Layer_18">
</g>
<g id="Layer_10">
</g>
<g id="Layer_11">
</g>
<g id="_x2D_----">
</g>
<g id="Layer_13">
</g>
<g id="Layer_23">
</g>
<g id="Layer_15">
</g>
<g id="Layer_14">
</g>
<g id="Layer_21">
</g>
<g id="Layer_19">
</g>
<g id="Layer_22">
</g>
<g id="Layer_25">
</g>
<g id="Layer_20">
</g>
<g id="Layer_24">
</g>
<g id="_x2D_----_1_">
</g>
<g id="Layer_26">
</g>
<g id="Layer_29">
</g>
<g id="Layer_30">
</g>
<g id="Layer_27">
</g>
<g id="Layer_31">
</g>
<g id="Layer_28">
</g>
<g id="_x2D_----_2_">
</g>
<g id="Layer_32">
	<path fill="#E2E2E2" d="M330.8,227.6c-7.7,4.1-14.8,9.2-22.3,13.7c-7.5,4.5-15.6,8.4-23.7,11.8c-8.1,3.5-16.8,6.4-25.7,7.3
		c-9.4,1-18.9,0.3-28.2-0.8c-39.8-4.5-79.5-10.2-119.3-15.3c-4.1-0.5-8.2-1.1-12.3-1.6c-0.6-0.6-1.3-1.2-2.1-1.6
		c-14-7.9-28.9-14.1-44.4-18.6c2.2-3.2,0.7-8.6-4.1-8.3c-13.1,0.8-25.2,5.3-35.6,13.3c-6.5,5-11,12.2-13,20.3
		c-0.9,3.8,0.6,7.4,3.4,9.4c5.7,11,22.8,11,33.4,12.1c17.2,1.8,34.5,3.5,51.8,5.3c34.2,3.5,68.3,6.9,102.5,10.2
		c17.3,1.7,34.5,3.3,51.8,5c13,1.3,28,4.2,40.2-2.1c10.7-5.5,20.3-13.9,29.7-21.3c10.4-8.2,22.1-15.8,30-26.6
		C348.7,232.2,338,223.8,330.8,227.6z"/>
</g>
<g id="Layer_55">
</g>
<g id="Layer_53">
</g>
<g id="Layer_54">
</g>
<g id="Layer_38">
</g>
<g id="Layer_36">
</g>
<g id="Layer_35">
</g>
<g id="Layer_34">
</g>
<g id="_x2D_----_3_">
</g>
<g id="Layer_43">
</g>
<g id="Layer_44">
</g>
<g id="Layer_45">
</g>
<g id="Layer_41">
</g>
<g id="Layer_49">
</g>
<g id="Layer_48">
</g>
<g id="Layer_42">
</g>
<g id="Layer_47">
</g>
<g id="Layer_9">
</g>
<g id="Layer_46">
	<g>
		<path fill="#5B4F3E" d="M56.7,15.6c-2.4,11.4-11.9,47.5-12.9,52.3c-1.1,5.1-0.3,144.2,0.5,158.7c0,0,219.1,30,225.3,29.9
			c0.7-15.9,0.3-172.4,0.6-175.1c0.5-4.6,7.8-47.4,9-54C256.3,25.9,56.7,15.6,56.7,15.6z"/>
	</g>
	<g>
		<g>
			<path fill="#C9C9C9" d="M39.4,226.9C39.4,226.9,39.4,226.9,39.4,226.9C39.4,226.9,39.4,226.9,39.4,226.9z"/>
		</g>
		<g>
			<path fill="#C9C9C9" d="M52.1,16c-0.2,0-0.3,0-0.3,0S51.9,16,52.1,16z"/>
		</g>
		<g>
			<path fill="#C9C9C9" d="M268.1,27.3c-2.5,14.1-7.2,40.7-9.6,54.9c-0.4,2.2-208.9-12-207.7-14.6c0,0,11.8-46.8,13-51
				C56.2,16.2,53.3,16,52.3,16c0.8,0,2.9,0.1,7.3,0.4C59,18.7,49.1,52.5,46.3,68.5c-0.9,5.3,0.4,157.6,0.6,159.4
				c38.6,5.3,212.2,28.9,217.8,28.8c0.7-15.9,0.3-172.4,0.6-175.1c0.5-4.6,7.8-47.4,9-54C273.3,27.5,268.1,27.3,268.1,27.3z"/>
		</g>
	</g>
	<g>
		<g>
			<path fill="#B5944C" d="M318.1,6c-62.4-1.1-211.6-6-211.6-6C89.6,1.7,48.3,5.1,46.3,6.6c-1.7,1.4-13.9,49.6-15.7,61.5
				c-2,12.7-0.7,120,1,170.5c32.6,8.3,233.8,35.7,241.8,35c6.3-0.6,69.8-34.9,70.7-36.4c1.9-3.2,1.7-104.1,3.7-230.5
				C340.5,4.6,325.7,6.1,318.1,6z M265.2,81.6c-0.3,2.8,0.1,159.3-0.6,175.1c-6.2,0.2-225.3-29.9-225.3-29.9
				c-0.8-14.4-1.6-153.5-0.5-158.7c1-4.8,10.5-40.9,12.9-52.3c0,0,199.6,10.4,222.4,11.6C273.1,34.2,265.7,77.1,265.2,81.6z"/>
		</g>
	</g>
	<g>
		<path fill="#E0BF6E" d="M292.1,17c9.2,0.5,50.7,0.5,55.5,2.2c0.1-4.4,0.1-8.6,0.2-12.6C340.5,4.6,106.5,0,106.5,0
			C94.2,1.2,59.9,4.9,46.3,6.6C54.5,7.3,271.1,16,292.1,17z"/>
	</g>
	<g>
		<path fill="#CDAA53" d="M292.1,17c-3.2,10.6-10.9,54.7-12.6,65.8c0.2,0.6,0.2,188.6,0.2,188.6c11.9-5.2,63.5-32.7,64.4-34.2
			c2.5-4.1,2-184.3,3.7-230.5C341,4.8,297.2,16.1,292.1,17z"/>
	</g>
	<g>
		<path fill="#AA8945" d="M279.5,85.4c-2.2,0-7.2-0.3-14.3-0.7c-0.2,22.4,0.1,157.4-0.5,172c-6.2,0.2-225.3-29.9-225.3-29.9
			c-0.8-14.4-1.6-153.5-0.5-158.7c0,0,0,0,0,0c-5.3-0.3-8.3-0.4-8.3-0.2c-0.4,13.5-0.3,120.8,1,170.6c32.6,8.3,233.8,35.7,241.8,35
			c1.3-0.1,3.9-1.1,7.2-2.6L279.5,85.4z"/>
	</g>
	<g>
		<path fill="#896F3A" d="M46.3,68.5c2.7-16,12.6-49.8,13.2-52.1C53.2,16,51.8,16,51.8,16c-2.4,11.4-11.9,47.5-12.9,52.3
			c-1.1,5.1-0.3,144.2,0.5,158.7c0,0,2.2,0.3,7.6,1C46.8,226.1,45.4,73.8,46.3,68.5z"/>
	</g>
	<g opacity="0.3">
		<path fill="#231E16" d="M49.4,26.5c0.5,6.4,1.3,12.8,2.1,19.1c3.6-14,7.6-27.8,8-29.3C53.2,16,51.8,16,51.8,16
			c-0.5,2.5-1.4,6.1-2.4,10.3C49.4,26.4,49.4,26.4,49.4,26.5z"/>
	</g>
	<g opacity="0.3">
		<g>
			<path fill="#E7168E" stroke="#EEE7DC" stroke-width="4" stroke-miterlimit="10" d="M302,217.9l4.8,7.7l0.2-0.3
				c0.6-1,1.1-2.1,1.6-3.1c0.5-1,1.7-3.3,2.2-4.4l1.5,4.6c-0.3,0.8-0.8,1.7-1.3,2.8c-0.5,1.1-1.2,2.4-1.9,3.8l4.1,6.8l-4.6,2.2
				l-2.4-3.6c-2.6,4.9-5.4,8.2-8.3,9.6c-2.8,1.4-5.2,1.4-7.3-0.1c-2.1-1.6-3.2-4.3-3.2-8.3c0-4.7,1.8-9.4,5.3-13.6l2.3-2.8
				c0,0,0.1-0.1,0.2-0.2c0.1-0.1,0.2-0.2,0.3-0.4c-2.2-2.8-3.4-5.9-3.3-9.3c0-3.5,0.9-6.4,2.4-8.8c1.6-2.4,3.6-3.6,6-3.9
				c2.2-0.2,3.9,0.6,5.2,2.3c1.2,1.7,1.8,4,1.7,6.8c-0.1,2-0.5,3.8-1.2,5.5C305.3,213,303.9,215.2,302,217.9z M298.2,222.9l-0.3,0.4
				c-2,2.6-3.5,4.7-4.2,6.1c-0.8,1.4-1.1,2.9-1.2,4.2c0,1.9,0.5,3.4,1.6,4.4c1.1,1,2.3,1.1,3.6,0.6c1.8-0.8,3.8-3.2,6.1-7.4
				L298.2,222.9z M299.4,213.8l0.4-0.5c0.7-0.9,1.3-1.7,1.7-2.3c0.4-0.7,0.8-1.2,1-1.6c0.4-0.8,0.6-1.8,0.7-2.9
				c0-1.2-0.2-2.2-0.7-2.9c-0.5-0.7-1.3-0.9-2.2-0.8c-0.9,0.1-1.6,0.7-2.3,1.6c-0.6,0.9-1,2-1,3.2c0,1.4,0.4,2.7,1.1,4l1.2,1.8
				C299.2,213.5,299.3,213.6,299.4,213.8z"/>
		</g>
	</g>
	<g>
		<g>
			<path fill="#E7168E" d="M302,217.9l4.8,7.7l0.2-0.3c0.6-1,1.1-2.1,1.6-3.1c0.5-1,1.7-3.3,2.2-4.4l1.5,4.6
				c-0.3,0.8-0.8,1.7-1.3,2.8c-0.5,1.1-1.2,2.4-1.9,3.8l4.1,6.8l-4.6,2.2l-2.4-3.6c-2.6,4.9-5.4,8.2-8.3,9.6
				c-2.8,1.4-5.2,1.4-7.3-0.1c-2.1-1.6-3.2-4.3-3.2-8.3c0-4.7,1.8-9.4,5.3-13.6l2.3-2.8c0,0,0.1-0.1,0.2-0.2
				c0.1-0.1,0.2-0.2,0.3-0.4c-2.2-2.8-3.4-5.9-3.3-9.3c0-3.5,0.9-6.4,2.4-8.8c1.6-2.4,3.6-3.6,6-3.9c2.2-0.2,3.9,0.6,5.2,2.3
				c1.2,1.7,1.8,4,1.7,6.8c-0.1,2-0.5,3.8-1.2,5.5C305.3,213,303.9,215.2,302,217.9z M298.2,222.9l-0.3,0.4c-2,2.6-3.5,4.7-4.2,6.1
				c-0.8,1.4-1.1,2.9-1.2,4.2c0,1.9,0.5,3.4,1.6,4.4c1.1,1,2.3,1.1,3.6,0.6c1.8-0.8,3.8-3.2,6.1-7.4L298.2,222.9z M299.4,213.8
				l0.4-0.5c0.7-0.9,1.3-1.7,1.7-2.3c0.4-0.7,0.8-1.2,1-1.6c0.4-0.8,0.6-1.8,0.7-2.9c0-1.2-0.2-2.2-0.7-2.9
				c-0.5-0.7-1.3-0.9-2.2-0.8c-0.9,0.1-1.6,0.7-2.3,1.6c-0.6,0.9-1,2-1,3.2c0,1.4,0.4,2.7,1.1,4l1.2,1.8
				C299.2,213.5,299.3,213.6,299.4,213.8z"/>
		</g>
	</g>
</g>
<g id="Layer_50">
	<defs>
		<path id="SVGID_9_" d="M268.1,27.3c-2.5,14.1-7.2,40.7-9.6,54.9c-0.4,2.2-208.9-12-207.7-14.6l13-51l-4.3-0.2
			c0,0-10.5,36.1-13.2,52.1c-0.9,5.3,0.4,157.6,0.6,159.4c38.6,5.3,212.2,28.9,217.8,28.8c0.7-15.9,0.3-172.4,0.6-175.1
			c0.5-4.6,7.8-47.4,9-54C273.3,27.5,268.1,27.3,268.1,27.3z"/>
	</defs>
	<clipPath id="SVGID_2_">
		<use xlink:href="#SVGID_9_"  overflow="visible"/>
	</clipPath>
	<g clip-path="url(#SVGID_2_)">
		<g>
			<path fill="#A5A4A4" d="M40.8,205.8c4.7,3.6,7.7,9.5,11.5,14c4.1,5,8.6,9.7,13.4,14c0.5,0.5,1.3-0.3,0.8-0.8
				c-5-4.6-9.7-9.4-14-14.6c-3.6-4.3-6.5-10-11.2-13.2C40.9,205,40.5,205.6,40.8,205.8L40.8,205.8z"/>
		</g>
	</g>
	<g clip-path="url(#SVGID_2_)">
		<g>
			<path fill="#A5A4A4" d="M42.5,216c3.9,5.5,8,11,12.1,16.3c0.4,0.5,1.3,0,0.9-0.5c-4-5.5-8.1-10.9-12.4-16.3
				C42.9,215.2,42.3,215.6,42.5,216L42.5,216z"/>
		</g>
	</g>
	<g clip-path="url(#SVGID_2_)">
		<g>
			<path fill="#A5A4A4" d="M44.1,212.1c5.3,7.5,10.8,14.8,16.3,22.2c0.4,0.5,1.3,0,0.9-0.5c-5.5-7.4-10.9-14.8-16.5-22
				C44.5,211.3,43.8,211.7,44.1,212.1L44.1,212.1z"/>
		</g>
	</g>
	<g clip-path="url(#SVGID_2_)">
		<g>
			<path fill="#A5A4A4" d="M44.3,221.7c1.9,2.2,3.4,4.6,4.7,7.2c0.3,0.5,1,0.1,0.8-0.5c-1.2-2.7-2.9-5.2-5-7.3
				C44.5,220.7,44,221.3,44.3,221.7L44.3,221.7z"/>
		</g>
	</g>
	<g clip-path="url(#SVGID_2_)">
		<g>
			<path fill="#A5A4A4" d="M43.2,199.3c6.3,12.9,15.2,24.4,26.2,33.6c0.5,0.5,1.3-0.3,0.8-0.8c-10.9-9.4-19.6-20.5-26.3-33.3
				C43.7,198.5,43,198.9,43.2,199.3L43.2,199.3z"/>
		</g>
	</g>
	<g clip-path="url(#SVGID_2_)">
		<g>
			<path fill="#A5A4A4" d="M43.2,195.5c9.1,13.5,20,26,31.3,37.7c0.5,0.5,1.3-0.3,0.8-0.8c-11.4-11.8-21.5-24.4-31.5-37.3
				C43.6,194.8,43,195.1,43.2,195.5L43.2,195.5z"/>
		</g>
	</g>
	<g clip-path="url(#SVGID_2_)">
		<g>
			<path fill="#A5A4A4" d="M45.2,191.9c11.2,15.3,24.2,29.6,36.3,44.2c0.5,0.6,1.3-0.2,0.8-0.8c-12-14.6-23.5-30.2-36.5-43.8
				C45.5,191.2,45,191.5,45.2,191.9L45.2,191.9z"/>
		</g>
	</g>
	<g clip-path="url(#SVGID_2_)">
		<g>
			<path fill="#A5A4A4" d="M44.5,184.6c13.9,17.6,28.5,34.7,42.8,52.1c0.5,0.5,1.2-0.2,0.8-0.8c-14-17.6-28.6-34.6-43.1-51.8
				C44.7,183.7,44.2,184.2,44.5,184.6L44.5,184.6z"/>
		</g>
	</g>
	<g clip-path="url(#SVGID_2_)">
		<g>
			<path fill="#A5A4A4" d="M44.5,178.2c5.5,10.6,15,19.3,22.8,28.1c9,10.1,18,20.1,27,30.3c0.5,0.6,1.4-0.3,0.9-0.9
				c-8.6-9.6-17.2-19.2-25.8-28.7c-8.3-9.3-18.1-18.3-24.4-29.1C44.9,177.4,44.3,177.8,44.5,178.2L44.5,178.2z"/>
		</g>
	</g>
	<g clip-path="url(#SVGID_2_)">
		<g>
			<path fill="#A5A4A4" d="M45.1,172.3c6.7,12.1,16.2,21.8,25.8,31.5c10.4,10.7,20.2,22,29.2,33.9c0.5,0.6,1.5,0,1.1-0.6
				c-8.4-11-17.3-21.5-26.8-31.5c-10.4-10.8-20.3-21.1-28.5-33.7C45.5,171.5,44.9,171.9,45.1,172.3L45.1,172.3z"/>
		</g>
	</g>
	<g clip-path="url(#SVGID_2_)">
		<g>
			<path fill="#A5A4A4" d="M44.8,166.2c19.2,26.4,42.8,49.2,65.4,72.6c0.6,0.6,1.5-0.3,0.9-0.9C88,214.8,66,191,45.3,165.7
				C45.1,165.4,44.5,165.8,44.8,166.2L44.8,166.2z"/>
		</g>
	</g>
	<g clip-path="url(#SVGID_2_)">
		<g>
			<path fill="#A5A4A4" d="M44.8,159.5c11.4,14.6,24.3,28.2,36.9,41.8c12.6,13.6,25.4,27.1,38.8,40c0.5,0.5,1.3-0.3,0.8-0.8
				c-13.1-13.2-26.2-26.3-38.8-39.9c-12.6-13.6-24.5-27.9-37.2-41.5C44.9,158.7,44.5,159.2,44.8,159.5L44.8,159.5z"/>
		</g>
	</g>
	<g clip-path="url(#SVGID_2_)">
		<g>
			<path fill="#A5A4A4" d="M43.6,152.4c25.3,31.4,53.3,60.8,82.3,88.8c0.6,0.6,1.5-0.3,0.9-0.9c-29.2-28-56.3-57.8-82.7-88.4
				C43.8,151.6,43.3,152.1,43.6,152.4L43.6,152.4z"/>
		</g>
	</g>
	<g clip-path="url(#SVGID_2_)">
		<g>
			<path fill="#A5A4A4" d="M43.4,146.6c28.5,33.9,59.3,65.8,91.3,96.3c0.6,0.6,1.6-0.3,0.9-0.9c-32.1-30.5-62.4-62.7-91.7-96
				C43.7,145.7,43.1,146.2,43.4,146.6L43.4,146.6z"/>
		</g>
	</g>
	<g clip-path="url(#SVGID_2_)">
		<g>
			<path fill="#A5A4A4" d="M46.3,142.5c-0.8-1.4-0.9-1-0.1,0.3c0.7,1.2,2,2.4,2.9,3.4c1.7,2.1,3.5,4.1,5.2,6.2
				c3.8,4.5,7.9,8.7,11.9,12.9c8.7,9.1,17.3,18.2,26,27.3c16.8,17.5,33.7,35,50.9,52.1c0.5,0.5,1.4-0.3,0.8-0.8
				c-17.1-16.8-33.7-34-50.2-51.4c-8.2-8.6-16.5-17.3-24.7-25.9C60.6,158.1,53,149,45,140.2c-0.3-0.3-0.8,0.1-0.6,0.5
				c0.5,0.7,0.9,1.5,1.4,2.2C45.9,143.2,46.5,142.9,46.3,142.5L46.3,142.5z"/>
		</g>
	</g>
	<g clip-path="url(#SVGID_2_)">
		<g>
			<path fill="#A5A4A4" d="M44.2,134.1c29.2,32.4,59,64.4,89.2,95.8c5.2,5.4,10.4,11.1,16.1,16c0.6,0.5,1.4-0.3,0.8-0.8
				c-13.1-11.1-24.5-24.6-36.3-37.1c-17.1-18.1-34-36.4-50.9-54.7c-6.1-6.6-12.2-13.3-18.4-19.8C44.4,133.2,43.9,133.7,44.2,134.1
				L44.2,134.1z"/>
		</g>
	</g>
	<g clip-path="url(#SVGID_2_)">
		<g>
			<path fill="#A5A4A4" d="M44.6,117c4.7,3.3,8.5,9,12.4,13.1c9.2,9.9,18.4,19.8,27.6,29.6c21,22.6,42.1,45.3,63.2,67.8
				c5.8,6.1,11.3,12.6,17.5,18.3c0.5,0.5,1.3-0.3,0.8-0.8c-5.3-4.9-10.1-10.4-15-15.6c-9.7-10.3-19.3-20.6-28.9-30.9
				c-20.7-22.2-41.4-44.5-62.2-66.7c-3.5-3.7-7-7.4-10.5-11.1c-1.4-1.4-2.8-3.3-4.4-4.4C44.6,116.2,44.2,116.8,44.6,117L44.6,117z"
				/>
		</g>
	</g>
	<g clip-path="url(#SVGID_2_)">
		<g>
			<path fill="#A5A4A4" d="M44.1,122.1c3.8,5,8.5,9.5,12.8,14.2c9.1,9.9,18.3,19.7,27.4,29.5c20.9,22.4,41.9,44.7,62.7,67.2
				c5.5,5.9,11.7,11.7,16.6,18.2c0.4,0.5,1.3,0,0.9-0.5c-3.8-5-8.6-9.5-12.9-14.2c-9.1-9.9-18.3-19.7-27.5-29.5
				c-20.9-22.4-41.9-44.7-62.8-67.1c-5.5-5.9-11.7-11.7-16.7-18.1C44.5,121.4,43.8,121.8,44.1,122.1L44.1,122.1z"/>
		</g>
	</g>
	<g clip-path="url(#SVGID_2_)">
		<g>
			<path fill="#A5A4A4" d="M44.2,128.9c31.7,34.7,64.5,68.5,96.4,103c3.4,3.7,6.9,7.4,10.3,11.2c1.3,1.5,3.3,3.1,4.2,4.8
				c0.3,0.5,1.1,0.1,0.8-0.5c-2.5-4.6-7.7-8.7-11.1-12.5c-8.7-9.5-17.6-18.9-26.4-28.3c-19.7-21-39.4-42-59.1-62.9
				c-4.8-5.1-9.7-10.2-14.5-15.3C44.4,128,43.8,128.5,44.2,128.9L44.2,128.9z"/>
		</g>
	</g>
	<g clip-path="url(#SVGID_2_)">
		<g>
			<path fill="#A5A4A4" d="M45.3,112.2c15.4,15.7,30.1,32.1,45,48.1c21,22.6,41.9,45.2,62.7,68c5.9,6.5,12.1,12.8,17.5,19.7
				c0.4,0.6,1.2-0.2,0.8-0.8c-13.1-16.6-28.5-31.8-42.9-47.3c-21-22.8-42.1-45.5-63.4-68.1c-6.3-6.7-12.6-13.6-19.1-20.1
				C45.5,111.3,44.9,111.8,45.3,112.2L45.3,112.2z"/>
		</g>
	</g>
	<g clip-path="url(#SVGID_2_)">
		<g>
			<path fill="#A5A4A4" d="M45.3,106.9c38,39.8,75.4,80.4,113.1,120.5c6.5,6.9,12.9,13.8,19.5,20.6c0.5,0.5,1.3-0.3,0.8-0.8
				c-37.9-39.1-74.5-79.5-111.9-119c-6.9-7.3-13.7-14.8-20.9-21.8C45.5,106.1,44.9,106.6,45.3,106.9L45.3,106.9z"/>
		</g>
	</g>
	<g clip-path="url(#SVGID_2_)">
		<g>
			<path fill="#A5A4A4" d="M45.7,102.8c5,6.6,11.2,12.5,16.9,18.5c10.5,11,21,22,31.6,32.9c23,23.8,46.1,47.5,69,71.5
				c7,7.4,14.3,14.6,20.8,22.4c0.5,0.6,1.3-0.2,0.8-0.8c-14.9-18-32.2-34.4-48.4-51.2c-23-23.8-46.1-47.6-69-71.5
				c-7-7.4-14.1-14.8-21-22.2C46,102.1,45.5,102.5,45.7,102.8L45.7,102.8z"/>
		</g>
	</g>
	<g clip-path="url(#SVGID_2_)">
		<g>
			<path fill="#A5A4A4" d="M44.8,95.2c16.1,19.8,34.9,37.7,52.6,56c23.9,24.7,48,49.3,71.7,74.3c7.6,8,15.5,16,22.6,24.5
				c0.5,0.5,1.2-0.2,0.8-0.8c-5.8-7.3-12.6-14-19-20.8c-10.8-11.4-21.8-22.8-32.7-34.1c-24-24.8-48.2-49.5-72-74.5
				c-7.9-8.2-16-16.4-23.3-25.2C45,94.4,44.5,94.9,44.8,95.2L44.8,95.2z"/>
		</g>
	</g>
	<g clip-path="url(#SVGID_2_)">
		<g>
			<path fill="#A5A4A4" d="M45.1,90.9c1,1.8,2.8,3.4,4.1,4.9c3.4,3.8,6.9,7.4,10.4,11.1C71,118.8,82.5,130.5,94,142.3
				c26.7,27.2,53.5,54.3,80.1,81.6c8.1,8.3,16.4,16.4,24.1,25c0.5,0.6,1.4-0.3,0.9-0.9c-18-20-37.6-38.8-56.5-57.9
				c-26-26.4-52-52.8-77.9-79.3c-4.5-4.6-8.9-9.2-13.3-13.8c-1.8-1.9-4.3-4-5.7-6.3C45.5,90.2,44.9,90.5,45.1,90.9L45.1,90.9z"/>
		</g>
	</g>
	<g clip-path="url(#SVGID_2_)">
		<g>
			<path fill="#A5A4A4" d="M45.2,84.2c4,6.6,11.1,12.3,16.4,17.8c12.3,12.8,24.7,25.5,37.2,38.2c28.7,29.3,57.5,58.5,86.1,88
				c8,8.3,16.9,16.4,23.9,25.5c0.5,0.6,1.5,0,1.1-0.6c-5.6-7.3-12.6-13.8-19-20.4c-12.8-13.3-25.6-26.4-38.5-39.6
				c-28.4-29-56.9-57.8-85.1-86.8c-5-5.1-10-10.2-14.9-15.4c-2.1-2.2-4.8-4.5-6.5-7.1C45.6,83.4,45,83.8,45.2,84.2L45.2,84.2z"/>
		</g>
	</g>
	<g clip-path="url(#SVGID_2_)">
		<g>
			<path fill="#A5A4A4" d="M45.8,77.8c19.3,22.4,40.5,43.2,61.1,64.4c27.2,27.9,54.6,55.7,81.9,83.5c9.3,9.4,18.6,18.8,27.8,28.2
				c0.6,0.6,1.5-0.3,0.9-0.9c-20.6-20.6-40.9-41.4-61.4-62.2c-27.4-27.9-54.8-55.8-82-84c-9.4-9.7-18.9-19.4-27.9-29.4
				C46,77,45.5,77.5,45.8,77.8L45.8,77.8z"/>
		</g>
	</g>
	<g clip-path="url(#SVGID_2_)">
		<g>
			<path fill="#A5A4A4" d="M44.8,68.2c19.5,23.7,41.8,45.3,63.1,67.2c28.1,29,56.4,57.9,84.8,86.6c9.9,10,19.8,20.2,29.9,30
				c0.5,0.5,1.3-0.3,0.8-0.8c-21.7-21.8-43.4-43.6-65-65.5c-28.3-28.8-56.6-57.7-84.4-87c-9.7-10.2-19.5-20.4-28.8-31
				C45,67.4,44.6,67.9,44.8,68.2L44.8,68.2z"/>
		</g>
	</g>
	<g clip-path="url(#SVGID_2_)">
		<g>
			<path fill="#A5A4A4" d="M46.7,62.8c20.6,25,43.9,48,66.4,71.3c29.6,30.7,59.5,61.2,89.5,91.5c10.6,10.6,21.1,21.3,31.9,31.7
				c0.6,0.6,1.5-0.3,0.9-0.9c-23.4-22.5-46.1-45.8-68.9-69c-29.9-30.4-59.7-61-89-92C67.3,84.5,56.9,73.7,47.2,62.3
				C46.9,61.9,46.4,62.4,46.7,62.8L46.7,62.8z"/>
		</g>
	</g>
	<g clip-path="url(#SVGID_2_)">
		<g>
			<path fill="#A5A4A4" d="M46.1,56.5c21.9,25.8,46,49.8,69.5,74.1c30.3,31.3,60.7,62.4,91.5,93.2c11.2,11.2,22.4,22.5,33.9,33.4
				c0.6,0.6,1.6-0.3,0.9-0.9c-24.6-23.3-48.2-47.6-72-71.8c-30.6-31-61-62.2-91-93.7C68,79.3,57,67.8,46.6,55.9
				C46.3,55.5,45.7,56.1,46.1,56.5L46.1,56.5z"/>
		</g>
	</g>
	<g clip-path="url(#SVGID_2_)">
		<g>
			<path fill="#A5A4A4" d="M62.1,66.3c18.1,20.8,37.7,40.4,56.7,60.4c31.1,32.7,62.4,65.4,94.3,97.3c11.3,11.3,22.4,22.9,34.6,33.2
				c0.6,0.5,1.4-0.4,0.8-0.8c-10.3-8.6-19.8-18.3-29.4-27.8C204,213.4,189,198,174,182.6c-30-31-59.8-62.2-89.5-93.5
				c-7.3-7.7-15-15.3-22-23.3C62.3,65.5,61.9,66,62.1,66.3L62.1,66.3z"/>
		</g>
	</g>
	<g clip-path="url(#SVGID_2_)">
		<g>
			<path fill="#A5A4A4" d="M67.2,66.3c21.7,23.8,44.5,46.7,66.9,69.9c31.3,32.5,62.7,65,94.4,97.2c8.5,8.7,16.8,18,26.1,25.9
				c0.6,0.5,1.4-0.3,0.8-0.8c-7.7-6.5-14.6-14.1-21.6-21.3c-14.2-14.3-28.2-28.7-42.3-43.2c-31.9-32.8-63.6-65.6-95.3-98.6
				c-9.5-9.9-19-19.7-28.4-29.7C67.4,65.4,66.9,65.9,67.2,66.3L67.2,66.3z"/>
		</g>
	</g>
	<g clip-path="url(#SVGID_2_)">
		<g>
			<path fill="#A5A4A4" d="M275.8,159.8c-11.4-14.6-24.3-28.2-36.9-41.8c-12.6-13.6-25.4-27.1-38.8-40c-0.5-0.5-1.3,0.3-0.8,0.8
				c13.1,13.2,26.2,26.3,38.8,39.9c12.6,13.6,24.5,27.9,37.2,41.5C275.6,160.5,276,160.1,275.8,159.8L275.8,159.8z"/>
		</g>
	</g>
	<g clip-path="url(#SVGID_2_)">
		<g>
			<path fill="#A5A4A4" d="M277,166.8c-25.3-31.4-53.3-60.8-82.3-88.8c-0.6-0.6-1.5,0.3-0.9,0.9c29.2,28,56.3,57.8,82.7,88.4
				C276.8,167.7,277.2,167.2,277,166.8L277,166.8z"/>
		</g>
	</g>
	<g clip-path="url(#SVGID_2_)">
		<g>
			<path fill="#A5A4A4" d="M277.1,172.6c-28.5-33.9-59.3-65.8-91.3-96.3c-0.6-0.6-1.6,0.3-0.9,0.9c32.1,30.5,62.4,62.7,91.7,96
				C276.9,173.6,277.4,173,277.1,172.6L277.1,172.6z"/>
		</g>
	</g>
	<g clip-path="url(#SVGID_2_)">
		<g>
			<path fill="#A5A4A4" d="M274.3,176.7c0.8,1.4,0.9,1,0.1-0.3c-0.7-1.2-2-2.4-2.9-3.4c-1.7-2.1-3.5-4.1-5.2-6.2
				c-3.8-4.5-7.9-8.7-11.9-12.9c-8.7-9.1-17.3-18.2-26-27.3c-16.8-17.5-33.7-35-50.9-52.1c-0.5-0.5-1.4,0.3-0.8,0.8
				c17.1,16.8,33.7,34,50.2,51.4c8.2,8.6,16.5,17.3,24.7,25.9c8.3,8.6,15.9,17.7,23.9,26.5c0.3,0.3,0.8-0.1,0.6-0.5
				c-0.5-0.7-0.9-1.5-1.4-2.2C274.6,176,274,176.3,274.3,176.7L274.3,176.7z"/>
		</g>
	</g>
	<g clip-path="url(#SVGID_2_)">
		<g>
			<path fill="#A5A4A4" d="M276.3,185.2c-29.2-32.4-59-64.4-89.2-95.8c-5.2-5.4-10.4-11.1-16.1-16c-0.6-0.5-1.4,0.3-0.8,0.8
				c13.1,11.1,24.5,24.6,36.3,37.1c17.1,18.1,34,36.4,50.9,54.7c6.1,6.6,12.2,13.3,18.4,19.8C276.1,186.1,276.6,185.5,276.3,185.2
				L276.3,185.2z"/>
		</g>
	</g>
	<g clip-path="url(#SVGID_2_)">
		<g>
			<path fill="#A5A4A4" d="M276,202.2c-4.7-3.3-8.5-9-12.4-13.1c-9.2-9.9-18.4-19.8-27.6-29.6c-21-22.6-42.1-45.3-63.2-67.8
				c-5.8-6.1-11.3-12.6-17.5-18.3c-0.5-0.5-1.3,0.3-0.8,0.8c5.3,4.9,10.1,10.4,15,15.6c9.7,10.3,19.3,20.6,28.9,30.9
				c20.7,22.2,41.4,44.5,62.2,66.7c3.5,3.7,7,7.4,10.5,11.1c1.4,1.4,2.8,3.3,4.4,4.4C276,203,276.3,202.4,276,202.2L276,202.2z"/>
		</g>
	</g>
	<g clip-path="url(#SVGID_2_)">
		<g>
			<path fill="#A5A4A4" d="M276.4,197.1c-3.8-5-8.5-9.5-12.8-14.2c-9.1-9.9-18.3-19.7-27.4-29.5c-20.9-22.4-41.9-44.7-62.7-67.2
				c-5.5-5.9-11.7-11.7-16.6-18.2c-0.4-0.5-1.3,0-0.9,0.5c3.8,5,8.6,9.5,12.9,14.2c9.1,9.9,18.3,19.7,27.5,29.5
				c20.9,22.4,41.9,44.7,62.8,67.1c5.5,5.9,11.7,11.7,16.7,18.1C276.1,197.8,276.7,197.5,276.4,197.1L276.4,197.1z"/>
		</g>
	</g>
	<g clip-path="url(#SVGID_2_)">
		<g>
			<path fill="#A5A4A4" d="M276.4,190.3c-31.7-34.7-64.5-68.5-96.4-103c-3.4-3.7-6.9-7.4-10.3-11.2c-1.3-1.5-3.3-3.1-4.2-4.8
				c-0.3-0.5-1.1-0.1-0.8,0.5c2.5,4.6,7.7,8.7,11.1,12.5c8.7,9.5,17.6,18.9,26.4,28.3c19.7,21,39.4,42,59.1,62.9
				c4.8,5.1,9.7,10.2,14.5,15.3C276.2,191.3,276.7,190.7,276.4,190.3L276.4,190.3z"/>
		</g>
	</g>
	<g clip-path="url(#SVGID_2_)">
		<g>
			<path fill="#A5A4A4" d="M275.3,207c-15.4-15.7-30.1-32.1-45-48.1c-21-22.6-41.9-45.2-62.7-68c-5.9-6.5-12.1-12.8-17.5-19.7
				c-0.4-0.6-1.2,0.2-0.8,0.8c13.1,16.6,28.5,31.8,42.9,47.3c21,22.8,42.1,45.5,63.4,68.1c6.3,6.7,12.6,13.6,19.1,20.1
				C275.1,207.9,275.6,207.4,275.3,207L275.3,207z"/>
		</g>
	</g>
	<g clip-path="url(#SVGID_2_)">
		<g>
			<path fill="#A5A4A4" d="M275.3,212.3c-38-39.8-75.4-80.4-113.1-120.5c-6.5-6.9-12.9-13.8-19.5-20.6c-0.5-0.5-1.3,0.3-0.8,0.8
				c37.9,39.1,74.5,79.5,111.9,119c6.9,7.3,13.7,14.8,20.9,21.8C275.1,213.2,275.6,212.7,275.3,212.3L275.3,212.3z"/>
		</g>
	</g>
	<g clip-path="url(#SVGID_2_)">
		<g>
			<path fill="#A5A4A4" d="M274.8,216.4c-5-6.6-11.2-12.5-16.9-18.5c-10.5-11-21-22-31.6-32.9c-23-23.8-46.1-47.5-69-71.5
				c-7-7.4-14.3-14.6-20.8-22.4c-0.5-0.6-1.3,0.2-0.8,0.8c14.9,18,32.2,34.4,48.4,51.2c23,23.8,46.1,47.6,69,71.5
				c7,7.4,14.1,14.8,21,22.2C274.5,217.2,275.1,216.8,274.8,216.4L274.8,216.4z"/>
		</g>
	</g>
	<g clip-path="url(#SVGID_2_)">
		<g>
			<path fill="#A5A4A4" d="M275.7,224c-16.1-19.8-34.9-37.7-52.6-56c-23.9-24.7-48-49.3-71.7-74.3c-7.6-8-15.5-16-22.6-24.5
				c-0.5-0.5-1.2,0.2-0.8,0.8c5.8,7.3,12.6,14,19,20.8c10.8,11.4,21.8,22.8,32.7,34.1c24,24.8,48.2,49.5,72,74.5
				c7.9,8.2,16,16.4,23.3,25.2C275.5,224.9,276,224.4,275.7,224L275.7,224z"/>
		</g>
	</g>
	<g clip-path="url(#SVGID_2_)">
		<g>
			<path fill="#A5A4A4" d="M275.4,228.3c-1-1.8-2.8-3.4-4.1-4.9c-3.4-3.8-6.9-7.4-10.4-11.1c-11.3-11.9-22.8-23.7-34.3-35.4
				c-26.7-27.2-53.5-54.3-80.1-81.6c-8.1-8.3-16.4-16.4-24.1-25c-0.5-0.6-1.4,0.3-0.9,0.9c18,20,37.6,38.8,56.5,57.9
				c26,26.4,52,52.8,77.9,79.3c4.5,4.6,8.9,9.2,13.3,13.8c1.8,1.9,4.3,4,5.7,6.3C275,229,275.6,228.7,275.4,228.3L275.4,228.3z"/>
		</g>
	</g>
	<g clip-path="url(#SVGID_2_)">
		<g>
			<path fill="#A5A4A4" d="M281.3,241c-4-6.6-11.1-12.3-16.4-17.8c-12.3-12.8-24.7-25.5-37.2-38.2c-28.7-29.3-57.5-58.5-86.1-88
				c-8-8.3-16.9-16.4-23.9-25.5c-0.5-0.6-1.5,0-1.1,0.6c5.6,7.3,12.6,13.8,19,20.4c12.8,13.3,25.6,26.4,38.5,39.6
				c28.4,29,56.9,57.8,85.1,86.8c5,5.1,10,10.2,14.9,15.4c2.1,2.2,4.8,4.5,6.5,7.1C280.9,241.8,281.6,241.4,281.3,241L281.3,241z"/>
		</g>
	</g>
	<g clip-path="url(#SVGID_2_)">
		<g>
			<path fill="#A5A4A4" d="M280.7,247.4c-19.3-22.4-40.5-43.2-61.1-64.4c-27.2-27.9-54.6-55.7-81.9-83.5
				c-9.3-9.4-18.6-18.8-27.8-28.2c-0.6-0.6-1.5,0.3-0.9,0.9c20.6,20.6,40.9,41.4,61.4,62.2c27.4,27.9,54.8,55.8,82,84
				c9.4,9.7,18.9,19.4,27.9,29.4C280.6,248.2,281,247.7,280.7,247.4L280.7,247.4z"/>
		</g>
	</g>
	<g clip-path="url(#SVGID_2_)">
		<g>
			<path fill="#A5A4A4" d="M281.7,257c-19.5-23.7-41.8-45.3-63.1-67.2c-28.1-29-56.4-57.9-84.8-86.6c-9.9-10-19.8-20.2-29.9-30
				c-0.5-0.5-1.3,0.3-0.8,0.8c21.7,21.8,43.4,43.6,65,65.5c28.3,28.8,56.6,57.7,84.4,87c9.7,10.2,19.5,20.4,28.8,31
				C281.5,257.8,282,257.3,281.7,257L281.7,257z"/>
		</g>
	</g>
	<g clip-path="url(#SVGID_2_)">
		<g>
			<path fill="#A5A4A4" d="M279.8,262.5c-20.6-25-43.9-48-66.4-71.3c-29.6-30.7-59.5-61.2-89.5-91.5C113.3,89,102.8,78.4,92,68
				c-0.6-0.6-1.5,0.3-0.9,0.9c23.4,22.5,46.1,45.8,68.9,69c29.9,30.4,59.7,61,89,92c10.3,10.9,20.7,21.7,30.3,33.1
				C279.6,263.3,280.1,262.8,279.8,262.5L279.8,262.5z"/>
		</g>
	</g>
	<g clip-path="url(#SVGID_2_)">
		<g>
			<path fill="#A5A4A4" d="M270.2,258.9c-20.8-24.4-43.5-47.3-65.7-70.4c-28.6-29.7-57.3-59.2-86.4-88.4
				C107.3,89.3,96.6,78.5,85.6,68c-0.6-0.6-1.6,0.3-0.9,0.9c23.3,22.1,45.7,45.2,68.2,68.1c28.9,29.4,57.6,58.9,85.9,88.9
				c10.4,11.1,20.9,22.1,30.9,33.6C269.9,259.9,270.5,259.3,270.2,258.9L270.2,258.9z"/>
		</g>
	</g>
	<g clip-path="url(#SVGID_2_)">
		<g>
			<path fill="#A5A4A4" d="M264.4,259c-18.1-20.8-37.7-40.4-56.7-60.4c-31.1-32.7-62.4-65.4-94.3-97.3C102.2,89.9,91,78.3,78.8,68
				c-0.6-0.5-1.4,0.4-0.8,0.8c10.3,8.6,19.8,18.3,29.4,27.8c15.2,15.2,30.3,30.5,45.2,46c30,31,59.8,62.2,89.5,93.5
				c7.3,7.7,15,15.3,22,23.3C264.2,259.7,264.7,259.3,264.4,259L264.4,259z"/>
		</g>
	</g>
	<g clip-path="url(#SVGID_2_)">
		<g>
			<path fill="#A5A4A4" d="M259.3,258.9c-21.7-23.8-44.5-46.7-66.9-69.9c-31.3-32.5-62.7-65-94.4-97.2c-8.5-8.7-16.8-18-26.1-25.9
				c-0.6-0.5-1.4,0.3-0.8,0.8c7.7,6.5,14.6,14.1,21.6,21.3c14.2,14.3,28.2,28.7,42.3,43.2c31.9,32.8,63.6,65.6,95.3,98.6
				c9.5,9.9,19,19.7,28.4,29.7C259.1,259.8,259.6,259.3,259.3,258.9L259.3,258.9z"/>
		</g>
	</g>
	<g clip-path="url(#SVGID_2_)">
		<g>
			<path fill="#A5A4A4" d="M287.5,102.4c-5.4-4.2-9.5-11.7-14.1-17c-4.6-5.3-9.3-10.4-14.5-15c-0.5-0.5-1.3,0.3-0.8,0.8
				c5.5,5.1,10.7,10.5,15.6,16.2c4.3,5,7.9,11.9,13.4,15.6C287.5,103.3,287.8,102.7,287.5,102.4L287.5,102.4z"/>
		</g>
	</g>
	<g clip-path="url(#SVGID_2_)">
		<g>
			<path fill="#A5A4A4" d="M285.2,108.9C278.9,96,270,84.5,259,75.3c-0.5-0.5-1.3,0.3-0.8,0.8c10.9,9.4,19.6,20.5,26.3,33.3
				C284.7,109.8,285.4,109.4,285.2,108.9L285.2,108.9z"/>
		</g>
	</g>
	<g clip-path="url(#SVGID_2_)">
		<g>
			<path fill="#A5A4A4" d="M285.1,112.7c-9.1-13.5-20-26-31.3-37.7c-0.5-0.5-1.3,0.3-0.8,0.8c11.4,11.8,21.5,24.4,31.5,37.3
				C284.7,113.5,285.4,113.1,285.1,112.7L285.1,112.7z"/>
		</g>
	</g>
	<g clip-path="url(#SVGID_2_)">
		<g>
			<path fill="#A5A4A4" d="M283.1,116.4c-11.2-15.3-24.2-29.6-36.3-44.2c-0.5-0.6-1.3,0.2-0.8,0.8c12,14.6,23.5,30.2,36.5,43.8
				C282.8,117.1,283.4,116.7,283.1,116.4L283.1,116.4z"/>
		</g>
	</g>
	<g clip-path="url(#SVGID_2_)">
		<g>
			<path fill="#A5A4A4" d="M283.9,123.7c-13.9-17.6-28.5-34.7-42.8-52.1c-0.5-0.5-1.2,0.2-0.8,0.8c14,17.6,28.6,34.6,43.1,51.8
				C283.6,124.5,284.1,124,283.9,123.7L283.9,123.7z"/>
		</g>
	</g>
	<g clip-path="url(#SVGID_2_)">
		<g>
			<path fill="#A5A4A4" d="M283.9,130.1c-5.5-10.6-15-19.3-22.8-28.1c-9-10.1-18-20.1-27-30.3c-0.5-0.6-1.4,0.3-0.9,0.9
				c8.6,9.6,17.2,19.2,25.8,28.7c8.3,9.3,18.1,18.3,24.4,29.1C283.5,130.8,284.1,130.5,283.9,130.1L283.9,130.1z"/>
		</g>
	</g>
	<g clip-path="url(#SVGID_2_)">
		<g>
			<path fill="#A5A4A4" d="M283.2,136c-6.7-12.1-16.2-21.8-25.8-31.5c-10.4-10.7-20.2-22-29.2-33.9c-0.5-0.6-1.5,0-1.1,0.6
				c8.4,11,17.3,21.5,26.8,31.5c10.4,10.8,20.3,21.1,28.5,33.7C282.9,136.7,283.5,136.4,283.2,136L283.2,136z"/>
		</g>
	</g>
	<g clip-path="url(#SVGID_2_)">
		<g>
			<path fill="#A5A4A4" d="M283.6,142.1c-19.2-26.4-42.8-49.2-65.4-72.6c-0.6-0.6-1.5,0.3-0.9,0.9c23.1,23,45.1,46.9,65.8,72.1
				C283.3,142.8,283.8,142.4,283.6,142.1L283.6,142.1z"/>
		</g>
	</g>
	<g clip-path="url(#SVGID_2_)">
		<g>
			<path fill="#A5A4A4" d="M283.6,148.8c-11.4-14.6-24.3-28.2-36.9-41.8c-12.6-13.6-25.4-27.1-38.8-40c-0.5-0.5-1.3,0.3-0.8,0.8
				c13.1,13.2,26.2,26.3,38.8,39.9c12.6,13.6,24.5,27.9,37.2,41.5C283.4,149.6,283.8,149.1,283.6,148.8L283.6,148.8z"/>
		</g>
	</g>
	<g clip-path="url(#SVGID_2_)">
		<g>
			<path fill="#A5A4A4" d="M284.8,155.8C259.5,124.4,231.5,95,202.4,67c-0.6-0.6-1.5,0.3-0.9,0.9c29.2,28,56.3,57.8,82.7,88.4
				C284.6,156.7,285.1,156.2,284.8,155.8L284.8,155.8z"/>
		</g>
	</g>
	<g clip-path="url(#SVGID_2_)">
		<g>
			<path fill="#A5A4A4" d="M284.9,161.6c-28.5-33.9-59.3-65.8-91.3-96.3c-0.6-0.6-1.6,0.3-0.9,0.9c32.1,30.5,62.4,62.7,91.7,96
				C284.7,162.6,285.2,162,284.9,161.6L284.9,161.6z"/>
		</g>
	</g>
	<g clip-path="url(#SVGID_2_)">
		<g>
			<path fill="#A5A4A4" d="M96,68.3c-3.2,4.3-9.2,7.7-13.5,11.1C77.2,83.5,72,87.7,66.9,92c-8.9,7.3-18.4,14.5-26.2,23
				c-0.5,0.5,0.3,1.3,0.8,0.8c8.1-8.7,17.9-16.2,27.1-23.8c5.1-4.2,10.2-8.4,15.3-12.5c4.2-3.4,9.6-6.4,12.7-10.8
				C96.8,68.3,96.2,67.9,96,68.3L96,68.3z"/>
		</g>
	</g>
	<g clip-path="url(#SVGID_2_)">
		<g>
			<path fill="#A5A4A4" d="M85.9,70C72.1,80,58,89.7,44.3,100c-0.5,0.4,0,1.3,0.5,0.9C58.6,90.8,72.7,81,86.2,70.6
				C86.6,70.3,86.3,69.7,85.9,70L85.9,70z"/>
		</g>
	</g>
	<g clip-path="url(#SVGID_2_)">
		<g>
			<path fill="#A5A4A4" d="M89.7,71.5c-15.2,11-30.3,22.2-45.4,33.3c-0.5,0.4,0,1.3,0.5,0.9c15.1-11.2,30.3-22.2,45.3-33.6
				C90.5,71.9,90.1,71.2,89.7,71.5L89.7,71.5z"/>
		</g>
	</g>
	<g clip-path="url(#SVGID_2_)">
		<g>
			<path fill="#A5A4A4" d="M80.2,69.7c-5.7,4.9-12.5,8.8-18.7,13c-5.9,4-11.8,8.7-18.2,12c-0.5,0.3-0.1,1.1,0.5,0.8
				c6.7-3.3,12.9-8.4,19.1-12.6c5.9-4.1,12.5-7.9,17.9-12.7C81.1,69.9,80.6,69.3,80.2,69.7L80.2,69.7z"/>
		</g>
	</g>
	<g clip-path="url(#SVGID_2_)">
		<g>
			<path fill="#A5A4A4" d="M102.5,70.6C91.7,76,82.2,85.1,73.1,92.9c-10,8.6-19.7,17.5-29.9,25.9c-0.6,0.5,0.2,1.2,0.8,0.8
				c10-8,19.3-16.7,28.9-25.1c9.4-8.1,19-17.4,30.1-23.2C103.4,71.1,103,70.4,102.5,70.6L102.5,70.6z"/>
		</g>
	</g>
	<g clip-path="url(#SVGID_2_)">
		<g>
			<path fill="#A5A4A4" d="M106.3,70.7c-11.5,7.7-21.8,17.6-32.1,26.7c-10.7,9.5-21.4,19.1-31.7,29c-0.5,0.5,0.3,1.3,0.8,0.8
				c20.2-19.5,41.3-38.7,63.5-56C107.1,71,106.6,70.4,106.3,70.7L106.3,70.7z"/>
		</g>
	</g>
	<g clip-path="url(#SVGID_2_)">
		<g>
			<path fill="#A5A4A4" d="M109.9,72.7c-5.1,3.4-9.6,7.9-14.1,11.9c-6.4,5.6-12.8,11.3-19.2,16.9c-11.3,10-22.5,20.1-34.2,29.8
				c-0.6,0.5,0.2,1.3,0.8,0.8c11.5-9.5,22.5-19.5,33.7-29.3c6.3-5.5,12.5-11.1,18.8-16.6c4.9-4.3,10.2-8.3,14.7-13
				C110.7,72.9,110.3,72.4,109.9,72.7L109.9,72.7z"/>
		</g>
	</g>
	<g clip-path="url(#SVGID_2_)">
		<g>
			<path fill="#A5A4A4" d="M117.2,71.9C91,93,68.1,117.9,42.5,139.7c-0.5,0.5,0.2,1.2,0.8,0.8C56.3,130.4,68,118.3,80,107
				c12.4-11.7,24.7-23.6,37.7-34.6C118.1,72.1,117.6,71.7,117.2,71.9L117.2,71.9z"/>
		</g>
	</g>
	<g clip-path="url(#SVGID_2_)">
		<g>
			<path fill="#A5A4A4" d="M168.7,29.3c-9.2,4.9-16.7,12.8-24.3,19.9c-8.2,7.7-16.3,15.5-24.4,23.3c-19,18.2-37.9,36.5-56.9,54.7
				c-6.6,6.3-13.1,12.6-19.8,18.7c-0.6,0.5,0.3,1.4,0.9,0.9c33.4-30.1,65-62.4,97.6-93.5c8.5-8.1,17.1-17.6,27.4-23.4
				C169.5,29.7,169.1,29.1,168.7,29.3L168.7,29.3z"/>
		</g>
	</g>
	<g clip-path="url(#SVGID_2_)">
		<g>
			<path fill="#A5A4A4" d="M174.6,29.9c-13.7,8-24.5,19-35.8,30c-6.9,6.7-13.8,13.4-20.7,20.1c-19,18.4-38,36.7-57.3,54.7
				c-6.5,6.1-13,12.6-20.1,18c-0.6,0.5,0,1.5,0.6,1.1c15.4-11.8,29-26.4,42.9-39.7c17.6-16.8,35-33.7,52.4-50.6
				c12.1-11.8,23.7-24,38.3-33C175.4,30.3,175,29.7,174.6,29.9L174.6,29.9z"/>
		</g>
	</g>
	<g clip-path="url(#SVGID_2_)">
		<g>
			<path fill="#A5A4A4" d="M180.8,29.6c-18.2,13.7-34.7,30-51.3,45.6c-21.3,20.1-42.3,40.4-63.3,60.8c-7.9,7.7-15.8,15.5-23.8,23.2
				c-0.6,0.6,0.3,1.5,0.9,0.9C80.3,123.2,118,86.9,156.6,51.7c8-7.3,16.1-14.7,24.6-21.5C181.5,29.9,181.1,29.4,180.8,29.6
				L180.8,29.6z"/>
		</g>
	</g>
	<g clip-path="url(#SVGID_2_)">
		<g>
			<path fill="#A5A4A4" d="M187.4,29.6c-19.1,15.6-36.9,33.1-54.8,50C110.2,100.7,88,122,65.9,143.4c-8.5,8.2-17,16.4-25.3,24.9
				c-0.5,0.5,0.3,1.3,0.8,0.8C80.8,130,120.9,91.6,161.6,53.9c8.7-8,17.4-16,26.3-23.8C188.2,29.8,187.8,29.4,187.4,29.6L187.4,29.6
				z"/>
		</g>
	</g>
	<g clip-path="url(#SVGID_2_)">
		<g>
			<path fill="#A5A4A4" d="M194.5,28.4c-20,16.4-38.6,34.6-57.2,52.4c-22.7,21.6-45.2,43.4-67.7,65.1c-9,8.7-18,17.4-27.1,25.9
				c-0.6,0.6,0.3,1.5,0.9,0.9c41.6-39,81.8-79.5,123.5-118.3c9.3-8.6,18.5-17.3,28.2-25.5C195.4,28.6,194.8,28.1,194.5,28.4
				L194.5,28.4z"/>
		</g>
	</g>
	<g clip-path="url(#SVGID_2_)">
		<g>
			<path fill="#A5A4A4" d="M200.3,28.3c-20.2,17.1-39.1,35.7-58.2,53.9c-23.1,22.1-46.1,44.4-69.2,66.5
				c-9.9,9.4-19.7,18.9-29.8,28.1c-0.6,0.6,0.3,1.5,0.9,0.9c43.4-40,84.8-81.9,127.8-122.3c9.6-9,19.1-18,29-26.6
				C201.3,28.5,200.7,27.9,200.3,28.3L200.3,28.3z"/>
		</g>
	</g>
	<g clip-path="url(#SVGID_2_)">
		<g>
			<path fill="#A5A4A4" d="M204.4,31.1c2.4-1.4,0.3-0.5-0.3-0.1c-1.2,0.8-2.3,1.9-3.4,2.9c-1.8,1.5-3.7,3.1-5.5,4.6
				c-3.4,2.9-6.8,6-10,9.1c-3.9,3.7-7.8,7.4-11.7,11.1c-10.5,9.8-21,19.6-31.4,29.4c-23.3,21.7-46.6,43.5-69.7,65.5
				c-9.4,9-18.9,18-28.1,27.2c-0.5,0.5,0.3,1.4,0.8,0.8c40.2-40.9,83.4-79.1,125.1-118.4c12-11.3,24.4-22.2,36.5-33.4
				c0.3-0.3-0.1-0.7-0.4-0.5c-0.7,0.4-1.5,0.9-2.2,1.3C203.7,30.8,204,31.3,204.4,31.1L204.4,31.1z"/>
		</g>
	</g>
	<g clip-path="url(#SVGID_2_)">
		<g>
			<path fill="#A5A4A4" d="M212.8,29.1c-21,19.2-42,38.4-62.9,57.7c-28.8,26.5-57.5,53-86,79.8c-7.8,7.4-16.3,14.5-23.3,22.7
				c-0.5,0.6,0.3,1.4,0.8,0.8c5.8-6.8,12.9-12.9,19.4-19.1c12.6-12,25.3-23.8,38.1-35.7c29.1-27,58.2-53.8,87.4-80.7
				c9-8.3,18.1-16.6,27.1-25C213.7,29.3,213.2,28.7,212.8,29.1L212.8,29.1z"/>
		</g>
	</g>
	<g clip-path="url(#SVGID_2_)">
		<g>
			<path fill="#A5A4A4" d="M229.9,29.4c-1.3,1.8-3.6,3.5-5.3,5.1c-4.4,4.2-8.9,8.3-13.3,12.5c-14.2,13.2-28.4,26.4-42.6,39.6
				c-32.5,30.1-64.9,60.2-97.5,90.2c-8.7,8-17.2,16.1-26.1,23.9c-0.5,0.5,0.2,1.2,0.8,0.8c22.5-19.8,44.1-40.6,66-60.9
				c32.2-29.9,64.4-59.8,96.5-89.8c5.3-5,10.6-9.9,15.8-15c2-1.9,4.6-3.8,6.2-6.1C230.7,29.4,230.1,29.1,229.9,29.4L229.9,29.4z"/>
		</g>
	</g>
	<g clip-path="url(#SVGID_2_)">
		<g>
			<path fill="#A5A4A4" d="M224.8,29c-6.8,5.2-12.8,11.6-19.1,17.3c-14.1,13-28.1,26-42.1,39c-31.6,29.5-63.2,59-95,88.4
				c-8,7.4-15.8,15.8-24.5,22.4c-0.5,0.4,0,1.3,0.5,0.9c6.8-5.2,12.8-11.6,19.1-17.4c14-13,28-26,42-39.1
				c31.6-29.5,63.2-59,94.9-88.4c8-7.5,15.8-15.8,24.5-22.5C225.5,29.3,225.1,28.7,224.8,29L224.8,29z"/>
		</g>
	</g>
	<g clip-path="url(#SVGID_2_)">
		<g>
			<path fill="#A5A4A4" d="M218,29c-19.9,18.2-39.5,36.7-59.2,55.1c-31.1,28.9-62.1,57.8-93.3,86.5c-5.3,4.9-10.7,9.8-16,14.7
				c-2.1,1.9-4.3,4.7-6.8,6c-0.5,0.3-0.1,1.1,0.5,0.8c1.9-1,3.6-3,5.2-4.5c4.3-3.9,8.6-7.9,12.9-11.8c13.9-12.7,27.7-25.6,41.5-38.4
				c31.2-28.9,62.3-57.9,93.4-87c7.5-7,14.9-14,22.4-20.9C218.9,29.2,218.4,28.7,218,29L218,29z"/>
		</g>
	</g>
	<g clip-path="url(#SVGID_2_)">
		<g>
			<path fill="#A5A4A4" d="M234.7,30.1c-21.7,21.3-44.3,41.7-66.5,62.4c-32.5,30.3-65,60.6-97.7,90.7c-8.6,7.9-17,16.4-26.2,23.7
				c-0.6,0.4,0.2,1.2,0.8,0.8c7.7-6.1,14.7-13.1,21.9-19.7c14.7-13.5,29.2-27,43.8-40.5c32.7-30.4,65.3-60.8,97.8-91.4
				c8.9-8.4,18-16.7,26.7-25.3C235.6,30.3,235.1,29.7,234.7,30.1L234.7,30.1z"/>
		</g>
	</g>
	<g clip-path="url(#SVGID_2_)">
		<g>
			<path fill="#A5A4A4" d="M240,30.1c-23,22.2-46.4,44-69.6,66c-33.2,31.4-66.4,62.9-99.6,94.3c-9.2,8.7-18.4,17.3-27.5,26.1
				c-0.5,0.5,0.3,1.3,0.8,0.8c22.3-21.6,45.1-42.8,67.6-64.2c33.4-31.6,66.8-63.2,100-94.9c9.6-9.1,19.3-18.2,28.7-27.6
				C240.9,30.3,240.3,29.8,240,30.1L240,30.1z"/>
		</g>
	</g>
	<g clip-path="url(#SVGID_2_)">
		<g>
			<path fill="#A5A4A4" d="M244,30.6c-8.8,6.9-16.6,15.2-24.7,22.9c-15.7,15-31.4,30.1-47,45.2c-34.6,33.4-69.1,66.9-103.9,100.2
				c-9.7,9.3-19.2,19.1-29.5,27.7c-0.6,0.5,0.2,1.3,0.8,0.8c8.6-7.1,16.5-15.2,24.6-22.9c15.7-15,31.4-30.1,47-45.2
				C146,125.8,180.5,92.3,215.2,59c9.7-9.3,19.3-18.8,29.4-27.9C244.9,30.8,244.4,30.3,244,30.6L244,30.6z"/>
		</g>
	</g>
	<g clip-path="url(#SVGID_2_)">
		<g>
			<path fill="#A5A4A4" d="M251.7,29.7c-9.3,7.6-17.9,16.2-26.6,24.5c-15.9,15-31.6,30.2-47.3,45.4
				c-34.5,33.4-68.9,66.9-103.6,100.1c-10.1,9.6-19.9,19.8-30.7,28.6c-0.5,0.4,0.2,1.2,0.8,0.8c9.1-7.4,17.4-15.9,25.9-24
				c15.7-15,31.3-30.1,46.9-45.2c34.6-33.5,69-67.1,103.8-100.4c10.3-9.9,20.4-20.2,31.4-29.3C252.6,29.9,252.1,29.4,251.7,29.7
				L251.7,29.7z"/>
		</g>
	</g>
	<g clip-path="url(#SVGID_2_)">
		<g>
			<path fill="#A5A4A4" d="M256,30c-2.3,1.3-4.3,3.7-6.2,5.5c-5,4.6-9.8,9.3-14.7,14c-15.6,15-31,30.1-46.5,45.2
				c-35.8,35.2-71.5,70.4-107.4,105.6c-10.1,9.9-20.1,20.2-30.6,29.6c-0.6,0.5,0.3,1.4,0.9,0.9c8.8-7.9,17.1-16.4,25.5-24.7
				c16.3-16,32.6-32,48.8-48c34.8-34.3,69.6-68.6,104.5-102.7c6-5.9,12-11.7,18.1-17.5c2.4-2.3,5-5.6,7.9-7.3
				C256.7,30.3,256.4,29.7,256,30L256,30z"/>
		</g>
	</g>
	<g clip-path="url(#SVGID_2_)">
		<g>
			<path fill="#A5A4A4" d="M262.7,30.1c-2.4,1.5-4.5,3.8-6.5,5.7c-5,4.7-10,9.5-14.9,14.3c-15.7,15.2-31.3,30.6-46.8,45.9
				c-35.6,35.1-71.1,70.4-106.9,105.4c-9.6,9.4-19,20.1-29.8,28.3c-0.6,0.5,0,1.5,0.6,1.1c8.7-6.6,16.2-15.1,24-22.7
				c16.1-15.7,32.1-31.5,48.2-47.3c35.3-34.8,70.4-69.7,105.8-104.4c6.1-6,12.3-12,18.5-18c2.6-2.5,5.2-5.8,8.3-7.8
				C263.5,30.4,263.1,29.8,262.7,30.1L262.7,30.1z"/>
		</g>
	</g>
	<g clip-path="url(#SVGID_2_)">
		<g>
			<path fill="#A5A4A4" d="M275.8,24.9C249,48.2,224.3,74.1,199,99c-34.5,34-68.8,68.2-103.2,102.4c-10.8,10.8-21.6,21.5-32.5,32.2
				c-0.6,0.6,0.3,1.5,0.9,0.9c25-24.6,49.8-49.5,74.7-74.3c34.5-34.2,69-68.4,103.7-102.4c11.1-10.9,22.2-22,33.7-32.4
				C276.7,25.1,276.2,24.6,275.8,24.9L275.8,24.9z"/>
		</g>
	</g>
	<g clip-path="url(#SVGID_2_)">
		<g>
			<path fill="#A5A4A4" d="M278.7,29.7c-10.2,8.4-19.6,17.7-29.1,26.9c-15.5,14.9-30.9,30-46.3,45.1c-33.2,32.6-66.2,65.5-99.1,98.4
				c-11,11-22.1,21.9-33,33.1c-0.5,0.5,0.3,1.3,0.8,0.8c24.6-24.6,49-49.3,73.7-73.8c33-32.8,66-65.6,99.5-97.9
				c11.2-10.8,22.3-21.7,34-32C279.5,29.9,279,29.4,278.7,29.7L278.7,29.7z"/>
		</g>
	</g>
	<g clip-path="url(#SVGID_2_)">
		<g>
			<path fill="#A5A4A4" d="M284.1,31.6c-26.6,21.9-50.9,47.1-75.6,71.2c-32.8,32.1-65.4,64.4-97.8,96.9
				c-11.2,11.2-22.4,22.5-33.4,33.9c-0.6,0.6,0.3,1.5,0.9,0.9c24-25,48.6-49.3,73.2-73.8c32.5-32.4,65.2-64.6,98.3-96.3
				c11.4-11,22.8-22.1,34.9-32.3C285,31.8,284.5,31.3,284.1,31.6L284.1,31.6z"/>
		</g>
	</g>
	<g clip-path="url(#SVGID_2_)">
		<g>
			<path fill="#A5A4A4" d="M290.4,30.9c-26.8,22.8-51.7,48.1-76.9,72.7c-32.8,31.9-65.3,64.1-97.6,96.6
				c-11.6,11.6-23.2,23.2-34.4,35.1c-0.6,0.6,0.3,1.6,0.9,0.9c24.3-25.6,49.5-50.3,74.5-75.2c32.5-32.2,65.1-64.4,98.2-96
				c11.8-11.3,23.6-22.7,35.9-33.5C291.4,31.1,290.8,30.6,290.4,30.9L290.4,30.9z"/>
		</g>
	</g>
	<g clip-path="url(#SVGID_2_)">
		<g>
			<path fill="#A5A4A4" d="M280.6,47c-20.8,18.1-40.4,37.7-60.4,56.7c-32.7,31.1-65.4,62.4-97.3,94.3
				c-11.3,11.3-22.9,22.4-33.2,34.6c-0.5,0.6,0.4,1.4,0.8,0.8c8.6-10.3,18.3-19.8,27.8-29.4c15.2-15.2,30.5-30.3,46-45.2
				c31-30,62.2-59.8,93.5-89.5c7.7-7.3,15.3-15,23.3-22C281.4,47.2,281,46.7,280.6,47L280.6,47z"/>
		</g>
	</g>
	<g clip-path="url(#SVGID_2_)">
		<g>
			<path fill="#A5A4A4" d="M280.6,52.1c-23.8,21.7-46.7,44.5-69.9,66.9c-32.5,31.3-65,62.7-97.2,94.4c-8.7,8.5-18,16.8-25.9,26.1
				c-0.5,0.6,0.3,1.4,0.8,0.8c6.5-7.7,14.1-14.6,21.3-21.6c14.3-14.2,28.7-28.2,43.2-42.3c32.8-31.9,65.6-63.6,98.6-95.3
				c9.9-9.5,19.7-19,29.7-28.4C281.5,52.3,281,51.7,280.6,52.1L280.6,52.1z"/>
		</g>
	</g>
	<g clip-path="url(#SVGID_2_)">
		<g>
			<path fill="#A5A4A4" d="M187.2,260.6c14.6-11.4,28.2-24.3,41.8-36.9c13.6-12.6,27.1-25.4,40-38.8c0.5-0.5-0.3-1.3-0.8-0.8
				c-13.2,13.1-26.3,26.2-39.9,38.8c-13.6,12.6-27.9,24.5-41.5,37.2C186.4,260.4,186.8,260.9,187.2,260.6L187.2,260.6z"/>
		</g>
	</g>
	<g clip-path="url(#SVGID_2_)">
		<g>
			<path fill="#A5A4A4" d="M180.1,261.8c31.4-25.3,60.8-53.3,88.8-82.3c0.6-0.6-0.3-1.5-0.9-0.9c-28,29.2-57.8,56.3-88.4,82.7
				C179.2,261.6,179.7,262.1,180.1,261.8L180.1,261.8z"/>
		</g>
	</g>
	<g clip-path="url(#SVGID_2_)">
		<g>
			<path fill="#A5A4A4" d="M174.3,261.9c33.9-28.5,65.8-59.3,96.3-91.3c0.6-0.6-0.3-1.6-0.9-0.9c-30.5,32.1-62.7,62.4-96,91.7
				C173.3,261.7,173.9,262.3,174.3,261.9L174.3,261.9z"/>
		</g>
	</g>
	<g clip-path="url(#SVGID_2_)">
		<g>
			<path fill="#A5A4A4" d="M170.2,259.1c-1.4,0.8-1,0.9,0.3,0.1c1.2-0.7,2.4-2,3.4-2.9c2.1-1.7,4.1-3.5,6.2-5.2
				c4.5-3.8,8.7-7.9,12.9-11.9c9.1-8.7,18.2-17.3,27.3-26c17.5-16.8,35-33.7,52.1-50.9c0.5-0.5-0.3-1.4-0.8-0.8
				c-16.8,17.1-34,33.7-51.4,50.2c-8.6,8.2-17.3,16.5-25.9,24.7c-8.6,8.3-17.7,15.9-26.5,23.9c-0.3,0.3,0.1,0.8,0.5,0.6
				c0.7-0.5,1.5-0.9,2.2-1.4C170.9,259.5,170.6,258.9,170.2,259.1L170.2,259.1z"/>
		</g>
	</g>
	<g clip-path="url(#SVGID_2_)">
		<g>
			<path fill="#A5A4A4" d="M161.8,261.1c32.4-29.2,64.4-59,95.8-89.2c5.4-5.2,11.1-10.4,16-16.1c0.5-0.6-0.3-1.4-0.8-0.8
				c-11.1,13.1-24.6,24.5-37.1,36.3c-18.1,17.1-36.4,34-54.7,50.9c-6.6,6.1-13.3,12.2-19.8,18.4
				C160.8,260.9,161.4,261.5,161.8,261.1L161.8,261.1z"/>
		</g>
	</g>
	<g clip-path="url(#SVGID_2_)">
		<g>
			<path fill="#A5A4A4" d="M144.7,260.8c3.3-4.7,9-8.5,13.1-12.4c9.9-9.2,19.8-18.4,29.6-27.6c22.6-21,45.3-42.1,67.8-63.2
				c6.1-5.8,12.6-11.3,18.3-17.5c0.5-0.5-0.3-1.3-0.8-0.8c-4.9,5.3-10.4,10.1-15.6,15c-10.3,9.7-20.6,19.3-30.9,28.9
				c-22.2,20.7-44.5,41.4-66.7,62.2c-3.7,3.5-7.4,7-11.1,10.5c-1.4,1.4-3.3,2.8-4.4,4.4C143.9,260.8,144.5,261.2,144.7,260.8
				L144.7,260.8z"/>
		</g>
	</g>
	<g clip-path="url(#SVGID_2_)">
		<g>
			<path fill="#A5A4A4" d="M149.8,261.2c5-3.8,9.5-8.5,14.2-12.8c9.9-9.1,19.7-18.3,29.5-27.4c22.4-20.9,44.7-41.9,67.2-62.7
				c5.9-5.5,11.7-11.7,18.2-16.6c0.5-0.4,0-1.3-0.5-0.9c-5,3.8-9.5,8.6-14.2,12.9c-9.9,9.1-19.7,18.3-29.5,27.5
				c-22.4,20.9-44.7,41.9-67.1,62.8c-5.9,5.5-11.7,11.7-18.1,16.7C149.1,260.9,149.4,261.5,149.8,261.2L149.8,261.2z"/>
		</g>
	</g>
	<g clip-path="url(#SVGID_2_)">
		<g>
			<path fill="#A5A4A4" d="M156.6,261.2c34.7-31.7,68.5-64.5,103-96.4c3.7-3.4,7.4-6.9,11.2-10.3c1.5-1.3,3.1-3.3,4.8-4.2
				c0.5-0.3,0.1-1.1-0.5-0.8c-4.6,2.5-8.7,7.7-12.5,11.1c-9.5,8.7-18.9,17.6-28.3,26.4c-21,19.7-42,39.4-62.9,59.1
				c-5.1,4.8-10.2,9.7-15.3,14.5C155.6,261,156.2,261.5,156.6,261.2L156.6,261.2z"/>
		</g>
	</g>
	<g clip-path="url(#SVGID_2_)">
		<g>
			<path fill="#A5A4A4" d="M139.9,260.1c15.7-15.4,32.1-30.1,48.1-45c22.6-21,45.2-41.9,68-62.7c6.5-5.9,12.8-12.1,19.7-17.5
				c0.6-0.4-0.2-1.2-0.8-0.8c-16.6,13.1-31.8,28.5-47.3,42.9c-22.8,21-45.5,42.1-68.1,63.4c-6.7,6.3-13.6,12.6-20.1,19.1
				C139,259.9,139.5,260.5,139.9,260.1L139.9,260.1z"/>
		</g>
	</g>
	<g clip-path="url(#SVGID_2_)">
		<g>
			<path fill="#A5A4A4" d="M134.6,260.1c39.8-38,80.4-75.4,120.5-113.1c6.9-6.5,13.8-12.9,20.6-19.5c0.5-0.5-0.3-1.3-0.8-0.8
				c-39.1,37.9-79.5,74.5-119,111.9c-7.3,6.9-14.8,13.7-21.8,20.9C133.7,259.9,134.3,260.4,134.6,260.1L134.6,260.1z"/>
		</g>
	</g>
	<g clip-path="url(#SVGID_2_)">
		<g>
			<path fill="#A5A4A4" d="M130.5,259.7c6.6-5,12.5-11.2,18.5-16.9c11-10.5,22-21,32.9-31.6c23.8-23,47.5-46.1,71.5-69
				c7.4-7,14.6-14.3,22.4-20.8c0.6-0.5-0.2-1.3-0.8-0.8c-18,14.9-34.4,32.2-51.2,48.4c-23.8,23-47.6,46.1-71.5,69
				c-7.4,7-14.8,14.1-22.2,21C129.8,259.4,130.2,259.9,130.5,259.7L130.5,259.7z"/>
		</g>
	</g>
	<g clip-path="url(#SVGID_2_)">
		<g>
			<path fill="#A5A4A4" d="M122.9,260.6c19.8-16.1,37.7-34.9,56-52.6c24.7-23.9,49.3-48,74.3-71.7c8-7.6,16-15.5,24.5-22.6
				c0.5-0.5-0.2-1.2-0.8-0.8c-7.3,5.8-14,12.6-20.8,19c-11.4,10.8-22.8,21.8-34.1,32.7c-24.8,24-49.5,48.2-74.5,72
				c-8.2,7.9-16.4,16-25.2,23.3C122,260.4,122.5,260.8,122.9,260.6L122.9,260.6z"/>
		</g>
	</g>
	<g clip-path="url(#SVGID_2_)">
		<g>
			<path fill="#A5A4A4" d="M118.6,260.3c1.8-1,3.4-2.8,4.9-4.1c3.8-3.4,7.4-6.9,11.1-10.4c11.9-11.3,23.7-22.8,35.4-34.3
				c27.2-26.7,54.3-53.5,81.6-80.1c8.3-8.1,16.4-16.4,25-24.1c0.6-0.5-0.3-1.4-0.9-0.9c-20,18-38.8,37.6-57.9,56.5
				c-26.4,26-52.8,52-79.3,77.9c-4.6,4.5-9.2,8.9-13.8,13.3c-1.9,1.8-4,4.3-6.3,5.7C117.9,259.9,118.2,260.5,118.6,260.3
				L118.6,260.3z"/>
		</g>
	</g>
	<g clip-path="url(#SVGID_2_)">
		<g>
			<path fill="#A5A4A4" d="M105.9,266.2c6.6-4,12.3-11.1,17.8-16.4c12.8-12.3,25.5-24.7,38.2-37.2c29.3-28.7,58.5-57.5,88-86.1
				c8.3-8,16.4-16.9,25.5-23.9c0.6-0.5,0-1.5-0.6-1.1c-7.3,5.6-13.8,12.6-20.4,19c-13.3,12.8-26.4,25.6-39.6,38.5
				c-29,28.4-57.8,56.9-86.8,85.1c-5.1,5-10.2,10-15.4,14.9c-2.2,2.1-4.5,4.8-7.1,6.5C105.1,265.8,105.5,266.4,105.9,266.2
				L105.9,266.2z"/>
		</g>
	</g>
	<g clip-path="url(#SVGID_2_)">
		<g>
			<path fill="#A5A4A4" d="M99.5,265.6c22.4-19.3,43.2-40.5,64.4-61.1c27.9-27.2,55.7-54.6,83.5-81.9c9.4-9.3,18.8-18.6,28.2-27.8
				c0.6-0.6-0.3-1.5-0.9-0.9c-20.6,20.6-41.4,40.9-62.2,61.4c-27.9,27.4-55.8,54.8-84,82c-9.7,9.4-19.4,18.9-29.4,27.9
				C98.7,265.4,99.2,265.9,99.5,265.6L99.5,265.6z"/>
		</g>
	</g>
	<g clip-path="url(#SVGID_2_)">
		<g>
			<path fill="#A5A4A4" d="M89.9,266.5c23.7-19.5,45.3-41.8,67.2-63.1c29-28.1,57.9-56.4,86.6-84.8c10-9.9,20.2-19.8,30-29.9
				c0.5-0.5-0.3-1.3-0.8-0.8c-21.8,21.7-43.6,43.4-65.5,65c-28.8,28.3-57.7,56.6-87,84.4c-10.2,9.7-20.4,19.5-31,28.8
				C89.1,266.4,89.6,266.8,89.9,266.5L89.9,266.5z"/>
		</g>
	</g>
	<g clip-path="url(#SVGID_2_)">
		<g>
			<path fill="#A5A4A4" d="M84.4,264.6c25-20.6,48-43.9,71.3-66.4c30.7-29.6,61.2-59.5,91.5-89.5c10.6-10.6,21.3-21.1,31.7-31.9
				c0.6-0.6-0.3-1.5-0.9-0.9c-22.5,23.4-45.8,46.1-69,68.9c-30.4,29.9-61,59.7-92,89c-10.9,10.3-21.7,20.7-33.1,30.3
				C83.6,264.4,84.1,264.9,84.4,264.6L84.4,264.6z"/>
		</g>
	</g>
	<g clip-path="url(#SVGID_2_)">
		<g>
			<path fill="#A5A4A4" d="M88,255c24.4-20.8,47.3-43.5,70.4-65.7c29.7-28.6,59.2-57.3,88.4-86.4c10.8-10.7,21.6-21.5,32.1-32.5
				c0.6-0.6-0.3-1.6-0.9-0.9c-22.1,23.3-45.2,45.7-68.1,68.2c-29.4,28.9-58.9,57.6-88.9,85.9c-11.1,10.4-22.1,20.9-33.6,30.9
				C87,254.8,87.6,255.4,88,255L88,255z"/>
		</g>
	</g>
	<g clip-path="url(#SVGID_2_)">
		<g>
			<path fill="#A5A4A4" d="M88,249.2c20.8-18.1,40.4-37.7,60.4-56.7c32.7-31.1,65.4-62.4,97.3-94.3C257,87,268.6,75.8,278.9,63.6
				c0.5-0.6-0.4-1.4-0.8-0.8c-8.6,10.3-18.3,19.8-27.8,29.4c-15.2,15.2-30.5,30.3-46,45.2c-31,30-62.2,59.8-93.5,89.5
				c-7.7,7.3-15.3,15-23.3,22C87.2,249.1,87.6,249.5,88,249.2L88,249.2z"/>
		</g>
	</g>
	<g clip-path="url(#SVGID_2_)">
		<g>
			<path fill="#A5A4A4" d="M88,244.1c23.8-21.7,46.7-44.5,69.9-66.9c32.5-31.3,65-62.7,97.2-94.4c8.7-8.5,18-16.8,25.9-26.1
				c0.5-0.6-0.3-1.4-0.8-0.8c-6.5,7.7-14.1,14.6-21.3,21.6c-14.3,14.2-28.7,28.2-43.2,42.3c-32.8,31.9-65.6,63.6-98.6,95.3
				c-9.9,9.5-19.7,19-29.7,28.4C87.1,243.9,87.6,244.5,88,244.1L88,244.1z"/>
		</g>
	</g>
	<g clip-path="url(#SVGID_2_)">
		<g>
			<path fill="#A5A4A4" d="M244.5,272.3c4.2-5.4,11.7-9.5,17-14.1c5.3-4.6,10.4-9.3,15-14.5c0.5-0.5-0.3-1.3-0.8-0.8
				c-5.1,5.5-10.5,10.7-16.2,15.6c-5,4.3-11.9,7.9-15.6,13.4C243.6,272.4,244.2,272.7,244.5,272.3L244.5,272.3z"/>
		</g>
	</g>
	<g clip-path="url(#SVGID_2_)">
		<g>
			<path fill="#A5A4A4" d="M238,270c12.9-6.3,24.4-15.2,33.6-26.2c0.5-0.5-0.3-1.3-0.8-0.8c-9.4,10.9-20.5,19.6-33.3,26.3
				C237.1,269.5,237.5,270.2,238,270L238,270z"/>
		</g>
	</g>
	<g clip-path="url(#SVGID_2_)">
		<g>
			<path fill="#A5A4A4" d="M234.2,269.9c13.5-9.1,26-20,37.7-31.3c0.5-0.5-0.3-1.3-0.8-0.8c-11.8,11.4-24.4,21.5-37.3,31.5
				C233.4,269.6,233.8,270.2,234.2,269.9L234.2,269.9z"/>
		</g>
	</g>
	<g clip-path="url(#SVGID_2_)">
		<g>
			<path fill="#A5A4A4" d="M230.5,268c15.3-11.2,29.6-24.2,44.2-36.3c0.6-0.5-0.2-1.3-0.8-0.8c-14.6,12-30.2,23.5-43.8,36.5
				C229.8,267.7,230.2,268.2,230.5,268L230.5,268z"/>
		</g>
	</g>
	<g clip-path="url(#SVGID_2_)">
		<g>
			<path fill="#A5A4A4" d="M223.3,268.7c17.6-13.9,34.7-28.5,52.1-42.8c0.5-0.5-0.2-1.2-0.8-0.8c-17.6,14-34.6,28.6-51.8,43.1
				C222.4,268.5,222.9,269,223.3,268.7L223.3,268.7z"/>
		</g>
	</g>
	<g clip-path="url(#SVGID_2_)">
		<g>
			<path fill="#A5A4A4" d="M216.8,268.7c10.6-5.5,19.3-15,28.1-22.8c10.1-9,20.1-18,30.3-27c0.6-0.5-0.3-1.4-0.9-0.9
				c-9.6,8.6-19.2,17.2-28.7,25.8c-9.3,8.3-18.3,18.1-29.1,24.4C216.1,268.3,216.4,268.9,216.8,268.7L216.8,268.7z"/>
		</g>
	</g>
	<g clip-path="url(#SVGID_2_)">
		<g>
			<path fill="#A5A4A4" d="M210.9,268.1c12.1-6.7,21.8-16.2,31.5-25.8c10.7-10.4,22-20.2,33.9-29.2c0.6-0.5,0-1.5-0.6-1.1
				c-11,8.4-21.5,17.3-31.5,26.8c-10.8,10.4-21.1,20.3-33.7,28.5C210.2,267.7,210.5,268.3,210.9,268.1L210.9,268.1z"/>
		</g>
	</g>
	<g clip-path="url(#SVGID_2_)">
		<g>
			<path fill="#A5A4A4" d="M204.8,268.4c26.4-19.2,49.2-42.8,72.6-65.4c0.6-0.6-0.3-1.5-0.9-0.9c-23,23.1-46.9,45.1-72.1,65.8
				C204.1,268.1,204.5,268.7,204.8,268.4L204.8,268.4z"/>
		</g>
	</g>
	<g clip-path="url(#SVGID_2_)">
		<g>
			<path fill="#A5A4A4" d="M198.1,268.4c14.6-11.4,28.2-24.3,41.8-36.9c13.6-12.6,27.1-25.4,40-38.8c0.5-0.5-0.3-1.3-0.8-0.8
				c-13.2,13.1-26.3,26.2-39.9,38.8c-13.6,12.6-27.9,24.5-41.5,37.2C197.3,268.2,197.8,268.7,198.1,268.4L198.1,268.4z"/>
		</g>
	</g>
	<g clip-path="url(#SVGID_2_)">
		<g>
			<path fill="#A5A4A4" d="M191.1,269.6c31.4-25.3,60.8-53.3,88.8-82.3c0.6-0.6-0.3-1.5-0.9-0.9c-28,29.2-57.8,56.3-88.4,82.7
				C190.2,269.4,190.7,269.9,191.1,269.6L191.1,269.6z"/>
		</g>
	</g>
	<g clip-path="url(#SVGID_2_)">
		<g>
			<path fill="#A5A4A4" d="M185.3,269.7c33.9-28.5,65.8-59.3,96.3-91.3c0.6-0.6-0.3-1.6-0.9-0.9c-30.5,32.1-62.7,62.4-96,91.7
				C184.3,269.5,184.9,270.1,185.3,269.7L185.3,269.7z"/>
		</g>
	</g>
	<g clip-path="url(#SVGID_2_)">
		<g>
			<path fill="#A5A4A4" d="M259.7,66.3c2.8,2.5,5.6,5.3,8.2,8c0.5,0.5,1.2-0.3,0.7-0.7c-1.5-1.5-3-3.1-4.5-4.6
				c-1.2-1.1-2.5-2.8-4-3.3C259.7,65.6,259.5,66.1,259.7,66.3L259.7,66.3z"/>
		</g>
	</g>
	<g clip-path="url(#SVGID_2_)">
		<g>
			<path fill="#A5A4A4" d="M260.3,61.3c1,0.2,1.6,1.4,2.2,2.1c0.7,0.8,1.3,1.6,2,2.3c1.3,1.4,2.7,2.8,4.2,4.1
				c0.5,0.5,1.3-0.3,0.8-0.8c-1.9-1.6-3.7-3.3-5.3-5.1c-1-1.1-2.1-3.3-3.8-3.3C260,60.6,259.9,61.2,260.3,61.3L260.3,61.3z"/>
		</g>
	</g>
	<g clip-path="url(#SVGID_2_)">
		<g>
			<path fill="#A5A4A4" d="M260.9,56.5c2.7,2.8,5.9,5.2,8.9,7.6c0.5,0.4,1.2-0.3,0.7-0.7c-3-2.5-5.9-5.3-9.1-7.5
				C261,55.7,260.7,56.2,260.9,56.5L260.9,56.5z"/>
		</g>
	</g>
	<g clip-path="url(#SVGID_2_)">
		<g>
			<path fill="#A5A4A4" d="M262.5,51.3c2.2,3.4,5.4,6.2,8.6,8.5c0.4,0.3,0.9-0.4,0.4-0.7c-3.2-2.4-5.8-5.3-8.5-8.2
				C262.8,50.6,262.2,51,262.5,51.3L262.5,51.3z"/>
		</g>
	</g>
	<g clip-path="url(#SVGID_2_)">
		<g>
			<path fill="#A5A4A4" d="M263,46.9c0.8,0,1.7,1.4,2.2,1.9c0.7,0.7,1.4,1.4,2.2,2.1c1.3,1.2,2.6,2.3,4,3.4c0.4,0.3,1-0.4,0.6-0.8
				c-1.9-1.5-3.7-3.1-5.5-4.7c-0.9-0.9-2.1-2.8-3.6-2.6C262.5,46.2,262.6,46.9,263,46.9L263,46.9z"/>
		</g>
	</g>
	<g clip-path="url(#SVGID_2_)">
		<g>
			<path fill="#A5A4A4" d="M263.8,41.8c2.6,3,5.5,5.5,8.7,7.8c0.5,0.4,1-0.5,0.5-0.8c-3.2-2.2-6-4.8-8.6-7.5
				C264,40.9,263.4,41.4,263.8,41.8L263.8,41.8z"/>
		</g>
	</g>
	<g clip-path="url(#SVGID_2_)">
		<g>
			<path fill="#A5A4A4" d="M264.8,37c1.5,0.9,2.9,2.4,4.3,3.5c1.4,1.1,2.7,2.2,4.1,3.4c0.4,0.4,1.1-0.3,0.6-0.6
				c-1.5-1.2-3.1-2.5-4.6-3.8c-1.3-1-2.6-2.4-4-3.1C264.7,36.2,264.4,36.8,264.8,37L264.8,37z"/>
		</g>
	</g>
	<g clip-path="url(#SVGID_2_)">
		<g>
			<path fill="#A5A4A4" d="M266.2,31.4c2,2.9,4.7,5.3,7.5,7.3c0.5,0.4,1-0.5,0.5-0.8c-2.8-2-5.1-4.4-7.4-7
				C266.5,30.7,265.9,31.1,266.2,31.4L266.2,31.4z"/>
		</g>
	</g>
	<g clip-path="url(#SVGID_2_)">
		<g>
			<path fill="#A5A4A4" d="M267.3,26.2c2.4,2.9,5.1,5.7,7.9,8.3c0.5,0.5,1.2-0.3,0.7-0.7c-2.8-2.6-5.4-5.3-8.1-8.1
				C267.5,25.3,267,25.8,267.3,26.2L267.3,26.2z"/>
		</g>
	</g>
	<g clip-path="url(#SVGID_2_)">
		<g>
			<path fill="#A5A4A4" d="M48.2,51.2c2.2,2.7,4.4,5.3,6.7,7.9c0.5,0.5,1.3-0.3,0.8-0.8c-2.3-2.6-4.6-5.1-7-7.6
				C48.3,50.4,47.9,50.8,48.2,51.2L48.2,51.2z"/>
		</g>
	</g>
	<g clip-path="url(#SVGID_2_)">
		<g>
			<path fill="#A5A4A4" d="M49.6,45c2.2,2.5,4.5,5,6.8,7.4c0.5,0.5,1.2-0.3,0.7-0.7c-2.3-2.4-4.6-4.9-6.9-7.3
				C49.9,44,49.3,44.6,49.6,45L49.6,45z"/>
		</g>
	</g>
	<g clip-path="url(#SVGID_2_)">
		<g>
			<path fill="#A5A4A4" d="M51.6,39.7c0.9,1.1,2.1,2,3.1,3.1c1.1,1.2,2.2,2.5,3.2,3.8c0.4,0.5,1.2-0.2,0.7-0.7c-1.9-2.4-4-5-6.6-6.7
				C51.7,38.9,51.4,39.4,51.6,39.7L51.6,39.7z"/>
		</g>
	</g>
	<g clip-path="url(#SVGID_2_)">
		<g>
			<path fill="#A5A4A4" d="M52.9,33.1c-0.1,0.1,5.5,6.7,6.1,7.3c0.4,0.5,1.1-0.2,0.7-0.7c-1.2-1.6-2.6-3.1-4-4.6
				c-0.7-0.8-1.9-2.7-3-2.7c-0.1,0-0.3,0.1-0.3,0.2c0,0,0,0.1-0.1,0.1C52.1,33,52.6,33.4,52.9,33.1L52.9,33.1z"/>
		</g>
	</g>
	<g clip-path="url(#SVGID_2_)">
		<g>
			<path fill="#A5A4A4" d="M55,26.9c2,2.6,4.1,5.1,6.4,7.4c0.5,0.5,1.2-0.3,0.7-0.7c-2.3-2.3-4.5-4.7-6.5-7.3
				C55.4,26,54.7,26.5,55,26.9L55,26.9z"/>
		</g>
	</g>
	<g clip-path="url(#SVGID_2_)">
		<g>
			<path fill="#A5A4A4" d="M56.6,22.1c1.9,2.3,4,4.5,6,6.8c0.4,0.5,1.2-0.2,0.7-0.7c-2-2.2-4-4.5-6.1-6.7
				C56.8,21.1,56.3,21.7,56.6,22.1L56.6,22.1z"/>
		</g>
	</g>
	<g clip-path="url(#SVGID_2_)">
		<g>
			<path fill="#A5A4A4" d="M58.8,16.9c-0.3,0.2,5.3,5.7,6,6.2c0.5,0.4,1.2-0.3,0.7-0.7c-1.6-1.5-3.2-2.9-4.7-4.5
				c-0.5-0.5-1.7-2.5-2.5-1.7C57.9,16.5,58.4,17.2,58.8,16.9L58.8,16.9z"/>
		</g>
	</g>
	<g clip-path="url(#SVGID_2_)">
		<g>
			<path fill="#A5A4A4" d="M43.8,90.6c6-3.2,11.9-6.9,17.3-11c5.1-3.8,10.6-7.4,15.5-11.5c0.5-0.5-0.2-1.2-0.8-0.8
				C65.8,75.7,54.4,82.7,43.5,90C43.1,90.2,43.4,90.8,43.8,90.6L43.8,90.6z"/>
		</g>
	</g>
	<g clip-path="url(#SVGID_2_)">
		<g>
			<path fill="#A5A4A4" d="M44.2,86.6c8.8-5.3,17.2-11.7,25-18.5c0.5-0.4-0.2-1.2-0.7-0.7C60.5,74,52.2,80,43.8,85.9
				C43.4,86.2,43.7,86.9,44.2,86.6L44.2,86.6z"/>
		</g>
	</g>
	<g clip-path="url(#SVGID_2_)">
		<g>
			<path fill="#A5A4A4" d="M44.6,81.1c6.5-4.4,12.9-9.1,19.2-13.8c0.5-0.4,0-1.1-0.5-0.8c-6.5,4.5-12.9,9.2-19.2,14
				C43.9,80.8,44.3,81.4,44.6,81.1L44.6,81.1z"/>
		</g>
	</g>
	<g clip-path="url(#SVGID_2_)">
		<g>
			<path fill="#A5A4A4" d="M43.7,77.3C49,74,54.3,70.6,59.5,67.2c0.5-0.3,0-1-0.4-0.7c-5.3,3.4-10.6,6.8-15.8,10.3
				C42.9,76.9,43.3,77.6,43.7,77.3L43.7,77.3z"/>
		</g>
	</g>
	<g clip-path="url(#SVGID_2_)">
		<g>
			<path fill="#A5A4A4" d="M44.4,72.7c3.3-2.3,6.5-4.7,9.6-7.2c0.4-0.4-0.2-1.2-0.6-0.8c-3.1,2.4-6.3,4.9-9.5,7.3
				C43.5,72.3,44,73,44.4,72.7L44.4,72.7z"/>
		</g>
	</g>
	<g clip-path="url(#SVGID_2_)">
		<g>
			<path fill="#A5A4A4" d="M43.8,68.1c3.7-2.6,7.5-5,11.3-7.5c0.5-0.3,0-1.1-0.5-0.8c-3.8,2.4-7.6,5-11.1,7.7
				C43.2,67.8,43.5,68.3,43.8,68.1L43.8,68.1z"/>
		</g>
	</g>
	<g clip-path="url(#SVGID_2_)">
		<g>
			<path fill="#A5A4A4" d="M46,61.2c3.6-2,7.1-4.3,10.5-6.6c0.5-0.3,0-1.1-0.5-0.8c-3.4,2.3-7,4.5-10.4,6.8
				C45.2,60.9,45.6,61.5,46,61.2L46,61.2z"/>
		</g>
	</g>
	<g clip-path="url(#SVGID_2_)">
		<g>
			<path fill="#A5A4A4" d="M47.5,56.4c3.3-2.5,6.8-4.8,10.3-7c0.5-0.3,0-1.2-0.5-0.8c-3.6,2.2-7,4.6-10.2,7.3
				C46.8,56.1,47.2,56.7,47.5,56.4L47.5,56.4z"/>
		</g>
	</g>
	<g clip-path="url(#SVGID_2_)">
		<g>
			<path fill="#A5A4A4" d="M48.4,50.9c3.8-2.3,7.5-4.6,11.1-7.2c0.6-0.4,0-1.3-0.5-0.9c-3.7,2.4-7.3,4.9-11,7.4
				C47.5,50.5,47.9,51.2,48.4,50.9L48.4,50.9z"/>
		</g>
	</g>
	<g clip-path="url(#SVGID_2_)">
		<g>
			<path fill="#A5A4A4" d="M48.4,46c4.1-2.5,8.2-5.1,12.1-7.9c0.5-0.4,0.1-1.2-0.5-0.9c-4.1,2.5-8.1,5.3-12,8.2
				C47.6,45.6,47.9,46.3,48.4,46L48.4,46z"/>
		</g>
	</g>
	<g clip-path="url(#SVGID_2_)">
		<g>
			<path fill="#A5A4A4" d="M50.8,39.2c4.2-2.6,8.4-5.2,12.6-7.8c0.5-0.3,0-1.2-0.5-0.9c-4.2,2.6-8.3,5.3-12.5,8
				C50,38.8,50.4,39.5,50.8,39.2L50.8,39.2z"/>
		</g>
	</g>
	<g clip-path="url(#SVGID_2_)">
		<g>
			<path fill="#A5A4A4" d="M53,33.4c3.8-2.2,7.5-4.6,11.2-7.1c0.5-0.3,0-1.1-0.5-0.8c-3.6,2.5-7.3,4.9-11,7.3
				C52.3,33.1,52.6,33.6,53,33.4L53,33.4z"/>
		</g>
	</g>
	<g clip-path="url(#SVGID_2_)">
		<g>
			<path fill="#A5A4A4" d="M54.4,29.6c3.7-2.4,7.5-4.7,11.3-7.1c0.5-0.3,0-1-0.4-0.8c-3.8,2.2-7.6,4.7-11.2,7.3
				C53.8,29.3,54.1,29.8,54.4,29.6L54.4,29.6z"/>
		</g>
	</g>
	<g clip-path="url(#SVGID_2_)">
		<g>
			<path fill="#A5A4A4" d="M55,24.7c3.7-1.9,7.4-3.8,11-5.8c0.5-0.3,0.1-1.1-0.5-0.8c-3.7,2-7.3,4-10.9,6C54.3,24.4,54.7,25,55,24.7
				L55,24.7z"/>
		</g>
	</g>
	<g clip-path="url(#SVGID_2_)">
		<g>
			<path fill="#A5A4A4" d="M57.3,20.5c2.2-1.1,4.5-2.2,6.5-3.6c0.5-0.3,0.1-1.1-0.5-0.8c-2.1,1.3-4.3,2.6-6.5,3.7
				C56.5,20,56.9,20.7,57.3,20.5L57.3,20.5z"/>
		</g>
	</g>
	<g clip-path="url(#SVGID_2_)">
		<path fill="#C9C9C9" d="M51.8,16c0,0,0.1,0,0.3,0C51.9,16,51.8,16,51.8,16z"/>
		<g>
			<path fill="#A5A4A4" d="M51.8,18.5c0.1,0,0.2,0,0.3,0c0-1.7,0-3.3,0-5c-0.1,0-0.2,0-0.3,0c-1.3-0.1-2.6,1.2-2.5,2.5
				C49.4,17.4,50.4,18.4,51.8,18.5c0.1,0,0.2,0,0.3,0c1.3,0.1,2.6-1.2,2.5-2.5c-0.1-1.4-1.1-2.4-2.5-2.5c-0.1,0-0.2,0-0.3,0
				c-1.3-0.1-2.6,1.2-2.5,2.5C49.4,17.4,50.4,18.4,51.8,18.5z"/>
		</g>
	</g>
</g>
<g id="Layer_51">
	<path opacity="0.4" fill="#231E16" d="M188.9,51.8c-1.5-5.1-6.8-8.1-12-6.7c-0.6,0.2-1.2,0.4-1.7,0.7l0,0l-0.1,0c0,0-0.1,0-0.1,0.1
		l-3,1.6c-4.7,1.7-7.4,6.8-6,11.7c1.5,5.1,6.8,7.9,12,6.7c4.8-1.1,12-10.2,12-10.2l0.4-3.6C190.5,52.1,190.2,56.3,188.9,51.8z"/>
	<path opacity="0.4" fill="#231E16" d="M157.9,49.1c-1.5-5.1-6.8-8.1-12-6.7c-0.6,0.2-1.2,0.4-1.7,0.7l0,0l-0.1,0c0,0-0.1,0-0.1,0.1
		l-3,1.6c-4.7,1.7-7.4,6.8-6,11.7c1.5,5.1,6.8,7.9,12,6.7c4.8-1.1,12-10.2,12-10.2l0.4-3.6C159.5,49.4,159.2,53.6,157.9,49.1z"/>
	<path opacity="0.4" fill="#231E16" d="M100.9,44.9c-1.5-5.1-6.8-8.1-12-6.7c-0.6,0.2-1.2,0.4-1.7,0.7l0,0l-0.1,0c0,0-0.1,0-0.1,0.1
		l-3,1.6c-4.7,1.7-7.4,6.8-6,11.7c1.5,5.1,6.8,7.9,12,6.7c4.8-1.1,12-10.2,12-10.2l0.4-3.6C102.5,45.1,102.2,49.4,100.9,44.9z"/>
	<path opacity="0.4" fill="#231E16" d="M129,47c-1.5-5.1-6.8-8.1-12-6.7c-0.6,0.2-1.2,0.4-1.7,0.7l0,0l-0.1,0c0,0-0.1,0-0.1,0.1
		l-3,1.6c-4.7,1.7-7.4,6.8-6,11.7c1.5,5.1,6.8,7.9,12,6.7c4.8-1.1,12-10.2,12-10.2l0.4-3.6C130.6,47.2,130.3,51.5,129,47z"/>
	<circle fill="#231E16" cx="67.5" cy="43.2" r="4.8"/>
	<circle fill="#231E16" cx="232.3" cy="44.8" r="5.6"/>
	<circle fill="#231E16" cx="229" cy="60.9" r="5.6"/>
	<g>
		<path fill="#231E16" d="M246.8,44c-0.5,3.2-4,18.7-3.7,18.9c0.1,0.1,10,0.9,10.7,0.1c0.2-0.2,2.3-11.1,3.8-18.8
			C257.6,43.9,246.8,44,246.8,44z"/>
	</g>
	<path fill="#937241" d="M104,43c0-5.3-4.3-9.7-9.7-9.7c-0.6,0-1.2,0.1-1.8,0.2l0,0l-0.1,0c0,0-0.1,0-0.1,0l-3.4,0.8V35
		c-2.6,1.7-4.2,4.7-4.2,8c0,4.7,3.4,8.7,7.9,9.5v0.7l3.7-0.7c0,0,0,0,0.1,0l0,0l0,0C100.7,51.5,104,47.6,104,43z"/>
	<circle fill="#D2BE90" cx="89.7" cy="43.9" r="9.7"/>
	<path fill="#F4E08B" d="M97.9,49c-1.7,2.8-4.8,4.6-8.3,4.6c-3.9,0-7.2-2.2-8.7-5.5c-0.6-1.3,8.7-4.2,8.7-4.2S98.8,47.5,97.9,49z"/>
	<path fill="#C1A56C" d="M89.7,43.9l-9.5-1.8c0.3-1.8,1.1-3.4,2.4-4.7L89.7,43.9z"/>
	<path fill="#C1A56C" d="M89.7,43.9L82,49.9c-1.1-1.4-1.8-3.1-2-4.9L89.7,43.9z"/>
	<path fill="#C1A56C" d="M89.7,43.9l9.4,2.5c-0.5,1.7-1.4,3.3-2.7,4.5L89.7,43.9z"/>
	<path fill="#C1A56C" d="M89.7,43.9l8.1-5.4c1,1.5,1.6,3.2,1.6,5L89.7,43.9z"/>
	<path fill="#937241" d="M132.1,44.9c0-5.3-4.3-9.7-9.7-9.7c-0.6,0-1.2,0.1-1.8,0.2l0,0l-0.1,0c0,0-0.1,0-0.1,0l-3.4,0.8v0.7
		c-2.6,1.7-4.2,4.7-4.2,8c0,4.7,3.4,8.7,7.9,9.5v0.7l3.7-0.7c0,0,0,0,0.1,0l0,0l0,0C128.8,53.4,132.1,49.6,132.1,44.9z"/>
	<circle fill="#D2BE90" cx="117.7" cy="45.8" r="9.7"/>
	<path fill="#F4E08B" d="M126,50.9c-1.7,2.8-4.8,4.6-8.3,4.6c-3.9,0-7.2-2.2-8.7-5.5c-0.6-1.3,8.7-4.2,8.7-4.2S126.9,49.4,126,50.9z
		"/>
	<path fill="#C1A56C" d="M117.7,45.8l-9.5-1.8c0.3-1.8,1.1-3.4,2.4-4.7L117.7,45.8z"/>
	<path fill="#C1A56C" d="M117.7,45.8l-7.6,5.9c-1.1-1.4-1.8-3.1-2-4.9L117.7,45.8z"/>
	<path fill="#C1A56C" d="M117.8,45.8l9.4,2.5c-0.5,1.7-1.4,3.3-2.7,4.5L117.8,45.8z"/>
	<path fill="#C1A56C" d="M117.8,45.8l8.1-5.4c1,1.5,1.6,3.2,1.6,5L117.8,45.8z"/>
	<path fill="#937241" d="M161.4,46.7c0-5.3-4.3-9.7-9.7-9.7c-0.6,0-1.2,0.1-1.8,0.2l0,0l-0.1,0c0,0-0.1,0-0.1,0l-3.4,0.8v0.7
		c-2.6,1.7-4.2,4.7-4.2,8c0,4.7,3.4,8.7,7.9,9.5v0.7l3.7-0.7c0,0,0,0,0.1,0l0,0l0,0C158.1,55.3,161.4,51.4,161.4,46.7z"/>
	<circle fill="#D2BE90" cx="147.1" cy="47.7" r="9.7"/>
	<path fill="#F4E08B" d="M155.3,52.7c-1.7,2.8-4.8,4.6-8.3,4.6c-3.9,0-7.2-2.2-8.7-5.5c-0.6-1.3,8.7-4.2,8.7-4.2
		S156.2,51.3,155.3,52.7z"/>
	<path fill="#C1A56C" d="M147.1,47.7l-9.5-1.8c0.3-1.8,1.1-3.4,2.4-4.7L147.1,47.7z"/>
	<path fill="#C1A56C" d="M147.1,47.7l-7.6,5.9c-1.1-1.4-1.8-3.1-2-4.9L147.1,47.7z"/>
	<path fill="#C1A56C" d="M147.1,47.7l9.4,2.5c-0.5,1.7-1.4,3.3-2.7,4.5L147.1,47.7z"/>
	<path fill="#C1A56C" d="M147.1,47.7l8.1-5.4c1,1.5,1.6,3.2,1.6,5L147.1,47.7z"/>
	<path fill="#937241" d="M192.9,48.9c0-5.3-4.3-9.7-9.7-9.7c-0.6,0-1.2,0.1-1.8,0.2l0,0l-0.1,0c0,0-0.1,0-0.1,0l-3.4,0.8v0.7
		c-2.6,1.7-4.2,4.7-4.2,8c0,4.7,3.4,8.7,7.9,9.5v0.7l3.7-0.7c0,0,0,0,0.1,0l0,0l0,0C189.6,57.4,192.9,53.5,192.9,48.9z"/>
	<circle fill="#D2BE90" cx="178.5" cy="49.8" r="9.7"/>
	<path fill="#F4E08B" d="M186.8,54.9c-1.7,2.8-4.8,4.6-8.2,4.6c-3.9,0-7.2-2.2-8.7-5.5c-0.6-1.3,8.7-4.2,8.7-4.2
		S187.7,53.4,186.8,54.9z"/>
	<path fill="#C1A56C" d="M178.5,49.8L169,48c0.3-1.8,1.1-3.4,2.4-4.7L178.5,49.8z"/>
	<path fill="#C1A56C" d="M178.5,49.8l-7.6,5.9c-1.1-1.4-1.8-3.1-2-4.9L178.5,49.8z"/>
	<path fill="#C1A56C" d="M178.6,49.8l9.4,2.5c-0.5,1.7-1.4,3.3-2.7,4.5L178.6,49.8z"/>
	<path fill="#C1A56C" d="M178.6,49.8l8.1-5.4c1,1.5,1.6,3.2,1.6,5L178.6,49.8z"/>
	<circle fill="#231E16" cx="206.4" cy="51.2" r="4.8"/>
	<g>
		<g>
			<path fill="#606161" d="M65.3,42.4c0.6-0.8,1.9-1.4,2.9-1.3c1,0.2,1.5,1,1.7,1.9c0.2,0.8,1.4,0.5,1.2-0.3c-0.3-1.5-1.5-2.7-3-2.8
				c-1.2-0.1-3.4,0.9-3.5,2.3C64.5,42.6,65.1,42.7,65.3,42.4L65.3,42.4z"/>
		</g>
	</g>
	<g>
		<g>
			<path fill="#606161" d="M204.2,50c0.9-0.7,1.7-1.4,2.9-0.8c1,0.5,1.7,1.4,1.4,2.5c-0.2,0.7,0.8,0.9,1,0.3c0.5-1.6-0.5-3-1.9-3.7
				c-1.6-0.8-2.9-0.2-3.9,1.2C203.5,49.8,203.9,50.2,204.2,50L204.2,50z"/>
		</g>
	</g>
	<g>
		<g>
			<path fill="#606161" d="M229.4,43.3c0.9-1.1,2.3-1.8,3.8-1.4c1.5,0.5,2.2,1.9,1.9,3.4c-0.1,0.7,0.9,1,1.1,0.3
				c1.3-4.5-5.2-6.5-7.4-2.8C228.6,43.2,229.1,43.7,229.4,43.3L229.4,43.3z"/>
		</g>
	</g>
	<g>
		<g>
			<path fill="#606161" d="M226.2,59.2c0.9-0.9,2.1-1.8,3.5-1.5c1.7,0.5,2.3,2.3,1.9,3.9c-0.2,0.7,1,1,1.1,0.3
				c0.4-2-0.2-4.2-2.2-5.1c-1.9-0.8-3.8,0.3-4.9,1.9C225.3,59.1,225.9,59.5,226.2,59.2L226.2,59.2z"/>
		</g>
	</g>
	<g>
		<g>
			<path fill="#606161" d="M248.1,47.9c0.6-1.6,0.1-1.6,2-1.5c1.6,0.1,3.2,0.1,4.8,0.2c-0.2-0.2-0.4-0.5-0.6-0.7
				c-0.9,5.3-1.9,10.5-3,15.7c-0.2,0.7,1,1.1,1.1,0.3c1.1-5.2,2.1-10.5,2.9-15.7c0.1-0.4-0.2-0.7-0.6-0.7c-2.2-0.1-4.7-0.3-6.9,0
				c-0.2,0-0.3,0.2-0.3,0.3c-0.2,0.7-0.2,1.4-0.3,2.1C247.4,48.2,247.9,48.2,248.1,47.9L248.1,47.9z"/>
		</g>
	</g>
	<circle fill="#BD3B3B" stroke="#282521" stroke-width="0.5" stroke-miterlimit="10" cx="212.8" cy="59" r="2.7"/>
	<g opacity="0.4">
		<path fill="#231E16" d="M50.8,20.5c0,0,11.3,1,21,1.5c10.6,0.5,21.2,1,31.8,1.5c21.2,1,42.4,2.1,63.5,3.4
			c20.9,1.3,41.8,2.7,62.6,3.9c10.4,0.6,20.9,1.1,31.3,1.5c4.1,0.2,12.3,0.5,12.3,0.5l0.8-5.1L51.8,16L50.8,20.5z"/>
	</g>
	<g opacity="0.4">
		<polygon fill="#231E16" points="63.8,16.6 50.8,67.5 53.4,68.2 66.6,16.5 		"/>
	</g>
	<g>
		<g>
			<path fill="#F9F8F7" d="M212.9,58.6C213,58.6,213,58.7,212.9,58.6c0.8,0.8,1.9-0.3,1.2-1c0,0-0.1-0.1-0.1-0.1
				C213.3,56.9,212.2,57.9,212.9,58.6L212.9,58.6z"/>
		</g>
	</g>
	<line fill="none" stroke="#302C26" stroke-miterlimit="10" x1="89.7" y1="34.2" x2="89.7" y2="39.1"/>
	<line fill="none" stroke="#302C26" stroke-miterlimit="10" x1="122.8" y1="37.6" x2="120.4" y2="41.6"/>
	<line fill="none" stroke="#302C26" stroke-miterlimit="10" x1="147.1" y1="38" x2="147.1" y2="42.9"/>
	<line fill="none" stroke="#302C26" stroke-miterlimit="10" x1="172.7" y1="42.1" x2="175.6" y2="45.9"/>
</g>
</svg>
