<?xml version="1.0" encoding="utf-8"?>
<!-- Generator: Adobe Illustrator 17.1.0, SVG Export Plug-In . SVG Version: 6.00 Build 0)  -->
<!DOCTYPE svg PUBLIC "-//W3C//DTD SVG 1.1//EN" "http://www.w3.org/Graphics/SVG/1.1/DTD/svg11.dtd">
<svg version="1.1" xmlns="http://www.w3.org/2000/svg" xmlns:xlink="http://www.w3.org/1999/xlink" x="0px" y="0px"
	 viewBox="0 0 376 314.3" enable-background="new 0 0 376 314.3" xml:space="preserve">
<g id="Layer_16">
</g>
<g id="Layer_17">
</g>
<g id="Layer_12">
</g>
<g id="Layer_18">
</g>
<g id="Layer_10">
</g>
<g id="Layer_11">
</g>
<g id="_x2D_----">
</g>
<g id="Layer_13">
</g>
<g id="Layer_23">
</g>
<g id="Layer_15">
</g>
<g id="Layer_14">
</g>
<g id="Layer_21">
</g>
<g id="Layer_19">
</g>
<g id="Layer_22">
</g>
<g id="Layer_25">
</g>
<g id="Layer_20">
</g>
<g id="Layer_24">
</g>
<g id="_x2D_----_1_">
</g>
<g id="Layer_26">
	<path fill="#C9B17D" d="M363.2,215.9c-37.9-7.8-76.6-10.4-115.3-10.4c-18.6-2.4-37.2-4.9-55.9-6.4c-14.6-1.2-29.1-0.5-43.5,1.9
		c-8.1,1.4-16.1,2.9-24.2,4.4c-0.5,0.1-1,0.2-1.3,0.2c-1.6,0.3-3.3,0.5-4.9,0.8c-3.8,0.6-7.7,1.2-11.5,1.7
		c-28.2,3.8-56.7,5.3-85,6.9c-8.3,0.5-20.1,5.9-21.4,15.3c-0.8,5.9,3,9.1,7.7,10.6c2.7,5.4,11.1,6.9,16.8,6.8
		c-2.4,2.8-3.8,6.2-2.8,10c2,7.3,11.1,9,17.5,8.5c3.2-0.2,6.3-0.5,9.5-0.7c-0.2,3.3,1.1,6.4,4.5,8.3c1,0.5,2,1.1,3,1.6
		c-3.5,3.9-5.1,8.9-2.1,14.2c7.7,13.4,23.9,19.7,38.7,20.8c9.9,0.7,19.7-0.7,29.5-1.8c1.9-0.2,3.8-0.4,5.7-0.5
		c1.2-0.1,2.4-0.1,3.6-0.1c0.3,0,0.5,0,0.9,0c4.4,0.2,8.9,0.7,13.3,1.3c8.8,1.2,17.6,2.9,26.5,3.9c10.1,1.2,20.4,1.3,30.5,1.1
		c18.5-0.3,36.8-3,55-5.5c5.3-0.7,10.5-2.3,14.8-5.4c0.1,0,0.3-0.1,0.4-0.1c0.8-0.2,1.7-0.4,2.5-0.5c-1.2,0.3,3.3-0.5,3.6-0.5
		c3.2-0.4,6.4-0.6,9.5-0.7c0.5,0,1,0,1.3,0c1.7,0.1,3.5,0.2,5.2,0.3c3.8,0.3,7.6,0.9,11.4,1.6c7.8,1.5,17.7-2.4,22.9-8.3
		c5.6-6.3,4-15.8-4.8-18c-2.3-0.6-4.6-1.1-6.9-1.6c3.1-1.2,6.1-2.6,9.1-4c0.9-0.4,1.7-0.9,2.6-1.4c6.4,0.3,13.1-1.8,18-5.4
		c3.1-2.3,5.5-5.5,6.4-8.7c1.9-0.8,3.8-1.7,5.7-2.8c4.5-2.6,7.8-8.4,7.1-13.6c3.4-1.9,6.3-4.5,8.1-8.1
		C379.3,222.4,370.7,217.5,363.2,215.9z"/>
	<path opacity="0.15" d="M146.2,254.6c-1.3,0-2.5,0-3.8,0c-0.1-0.6-0.4-1.1-1-1.5c-1-0.8-2-1.5-3-2.1c-0.1-0.8-0.6-1.5-1.6-1.8
		c-1.1-0.3-2.1-0.7-3.2-1c-1.8-2.8-3.9-5.3-6.3-7.7c-0.4-0.4-0.9-0.6-1.4-0.6c0.4-0.2,0.8-0.3,1-0.4c2.2-0.9,2.2-5-0.6-4.6
		c-0.2,0-0.4,0.1-0.6,0.1c0,0,0,0,0,0c0,0,0,0,0,0c-2.2,0.4-5.4,1.2-7.6,2.8c-2,0.9-3.8,2-5.1,3.5c-2.4,2.8-0.6,7.2,2,9.1
		c8.7,6.7,20.6,8.5,31.3,7.2C148,257.3,148.1,254.5,146.2,254.6z M119.2,247.7C119.2,247.7,119.2,247.8,119.2,247.7
		c-0.1-0.1-0.3-0.2-0.5-0.3C118.9,247.6,119.1,247.6,119.2,247.7z"/>
	<path opacity="0.15" d="M199.4,226.9c-3.6,0.7-7.3,1.6-11,2.3c-12.5-2.5-25.9-2.7-38,1.8c-1.7,0.6-1,2.9,0.7,2.6
		c3.6-0.5,7.2-0.9,10.8-1.2c-0.4,1.5,0.9,3.4,2.9,3c1.8-0.4,3.7-0.7,5.5-0.9c4.5-0.3,9,0.4,13.5,0.2c1.5-0.1,3-0.2,4.5-0.5
		c0.9,0.1,1.9,0.2,2.8,0.3c1,0.1,1.7-0.4,2-1.2c2.5-0.6,5-1.2,7.5-1.7C203.8,230.9,202.5,226.2,199.4,226.9z"/>
	<path opacity="0.15" d="M266.1,248.9c-1.5-2.8-5.5-2.5-8.3-2.9c-4.9-0.7-9.8-1.5-14.7-2.2c-5.8-1.7-11.8-2.9-18-3.4
		c-1-0.1-1.8,0.5-2.2,1.3c-0.8,0.2-1.3,0.8-1.6,1.5c-1.3,0.9-1.5,3-0.5,4.1c0,0-0.1,0-0.1,0c-1.1-0.4-1.8-0.3-1.9,0.2
		c-0.3-0.4-0.9-0.6-1.4-0.5c-0.2,0-0.4,0.1-0.5,0.1c-0.5,0.1-0.9,0.6-1.1,1.1c-0.1,0.2-0.1,0.4-0.2,0.6c-0.2,0.6,0,1.4,0.5,1.8
		c1.8,1.6,4.2,1.2,6.5,1.3c5.2,0.1,10.3,0.5,15.5,1c5.2,0.6,10.2,1.9,15.3,2.5c2.3,0.3,4.1-0.2,5.4-2.3c0.2-0.4,0.3-0.9,0.3-1.4
		c1.2,0.4,2.8,0.9,2.3-0.1C263.1,254.7,267.8,252,266.1,248.9z"/>
	<path opacity="0.1" d="M87.6,276.9c1.2-0.5,2-1.7,1.6-3c0.9-0.9,1.1-2.3,0-3.4c-3.1-2.9-6.3-6.2-9.7-9.2c1.9-1,3.8-2,5.4-3.4
		c1.4-1.2,0.7-3.9-1.1-4.3c-4.1-0.8-7.5,0.3-10.9,2.5c-3.4-2.2-7-3.9-11-4.5c-2.1-0.3-3.5,1.5-2.6,3.4c1.2,2.8,0.3,6.1,1.6,8.9
		c0.1,0.2,0.2,0.4,0.3,0.6c-0.7,0.6-1.4,1.2-2.1,1.8c-0.5,0.5-0.5,1.1-0.2,1.6c0,0.2,0,0.4,0,0.5c0,0.4,0.1,0.8,0.1,1.2
		c0.1,1,0.9,1.9,1.8,2.2c0.2,0.3,0.5,0.5,0.8,0.8c0.8,0.8,2.3,1.1,3.2,0.4c1-0.7,2-1.5,3-2.3c4.2,3.4,8.3,7.2,12.9,10.3
		c1.4,1,2.9,1.9,4.5,2.7c1.6,0.8,3.2-0.5,3.4-1.8c1-0.6,1.6-1.9,0.6-3.2C88.6,278.3,88.1,277.6,87.6,276.9z"/>
	<g>
		<g>
			<path fill="#876242" d="M21.2,236.9c0.8,0,2-1.2,0.7-1.2C21.1,235.6,19.9,236.9,21.2,236.9L21.2,236.9z"/>
		</g>
	</g>
	<g>
		<g>
			<path fill="#876242" d="M44,232.5c0.8,0,2-1.2,0.7-1.2C44,231.3,42.7,232.5,44,232.5L44,232.5z"/>
		</g>
	</g>
	<g>
		<g>
			<path fill="#876242" d="M43.3,248.3c-0.2,0-0.3,0-0.5,0c-0.4,0-1,0.2-1.3,0.5c-0.3,0.4,0.2,0.5,0.5,0.5c0.2,0,0.3,0,0.5,0
				c0.4,0,1-0.2,1.3-0.5C44.1,248.5,43.6,248.3,43.3,248.3L43.3,248.3z"/>
		</g>
	</g>
	<g>
		<g>
			<path fill="#876242" d="M68.1,241.8c0,0.2,0,0.3,0,0.5c0,0.5,1.9,0.1,1.9-0.5c0-0.2,0-0.3,0-0.5C70,240.9,68.1,241.2,68.1,241.8
				L68.1,241.8z"/>
		</g>
	</g>
	<g>
		<g>
			<path fill="#876242" d="M97.5,234.2c0.4,0,2.2-0.8,1.2-0.8C98.3,233.4,96.6,234.2,97.5,234.2L97.5,234.2z"/>
		</g>
	</g>
	<g>
		<g>
			<path fill="#876242" d="M121.5,262.5c0.7,0,2.1-1.1,0.7-1.1C121.5,261.4,120.2,262.5,121.5,262.5L121.5,262.5z"/>
		</g>
	</g>
	<g>
		<g>
			<path fill="#876242" d="M109.3,242.5c0-0.2,0-0.3,0-0.5c0-1-1.9-0.6-1.9,0.2c0,0.2,0,0.3,0,0.5
				C107.3,243.6,109.3,243.3,109.3,242.5L109.3,242.5z"/>
		</g>
	</g>
	<g>
		<g>
			<path fill="#876242" d="M112,269.1c0.4,0,2.2-0.8,1.2-0.8C112.9,268.3,111.1,269.1,112,269.1L112,269.1z"/>
		</g>
	</g>
	<g>
		<g>
			<path fill="#876242" d="M73,291.1c0.7,0,2.1-1.1,0.8-1.1C73.1,290,71.7,291.1,73,291.1L73,291.1z"/>
		</g>
	</g>
	<g>
		<g>
			<path fill="#876242" d="M75.3,270.3c1.1,0,1.5-1.3,0.2-1.3C74.4,269,74,270.3,75.3,270.3L75.3,270.3z"/>
		</g>
	</g>
	<g>
		<g>
			<path fill="#876242" d="M92.9,298.4c-0.3,0-0.6,0-1,0c-0.5,0-1,0.1-1.4,0.4c-0.3,0.2-0.3,0.4,0.1,0.4c0.3,0,0.6,0,1,0
				c0.5,0,1-0.1,1.4-0.4C93.4,298.6,93.3,298.4,92.9,298.4L92.9,298.4z"/>
		</g>
	</g>
	<g>
		<g>
			<path fill="#876242" d="M119.9,282c-0.2-1.2-2.6-0.6-2.8,0.4c-0.1,0.8,1.8,0.5,1.9-0.2c-0.4,0.1-0.7,0.2-1.1,0.3
				c-0.1-0.1-0.1-0.1,0,0C118,283.3,120,282.8,119.9,282L119.9,282z"/>
		</g>
	</g>
	<g>
		<g>
			<path fill="#876242" d="M130.9,292.3c0.6,0.3,1.9-0.1,1.9-0.8c0-0.9-1.6-0.3-1.9,0c-0.3,0.3-0.3,0.5,0.2,0.6
				c0.4,0.1,1-0.1,1.4-0.4c0,0,0,0,0,0c-0.2,0.1-0.4,0.2-0.7,0.3c0,0,0,0,0,0c-0.3,0-0.6,0-0.9,0c-0.2-0.1,0,0-0.1,0.1
				c0.1-0.1,0.1-0.2,0.2-0.2c0,0,0,0,0,0c0.4-0.1,0.8-0.3,1.2-0.4c0.1,0,0.2,0,0.3,0c-0.4-0.2-1,0-1.4,0.2
				C130.8,291.8,130.5,292.1,130.9,292.3L130.9,292.3z"/>
		</g>
	</g>
	<g>
		<g>
			<path fill="#876242" d="M138.4,271.9c-0.3,0-0.6,0-1,0c-0.4,0-1,0.3-1.1,0.8c-0.1,0.5,0.5,0.7,0.9,0.7c0.3,0,0.6,0,1,0
				c0.4,0,1-0.3,1.1-0.8C139.4,272,138.8,271.9,138.4,271.9L138.4,271.9z"/>
		</g>
	</g>
	<g>
		<g>
			<path fill="#876242" d="M165.4,280.8c-0.3,0-0.6,0-1,0c-0.4,0-1,0.2-1.3,0.5c-0.3,0.4,0.2,0.5,0.5,0.5c0.3,0,0.6,0,1,0
				c0.4,0,1-0.2,1.3-0.5C166.2,280.9,165.7,280.8,165.4,280.8L165.4,280.8z"/>
		</g>
	</g>
	<g>
		<g>
			<path fill="#876242" d="M151,272.9c-0.2,0-0.3,0-0.5,0c-0.4,0-1,0.3-1.1,0.8c-0.1,0.5,0.5,0.6,0.9,0.6c0.2,0,0.3,0,0.5,0
				c0.4,0,1-0.3,1.1-0.8C152,273,151.4,272.9,151,272.9L151,272.9z"/>
		</g>
	</g>
	<g>
		<g>
			<path fill="#876242" d="M187.4,265.4c-0.5,0-1,0-1.5,0c-0.5,0-1,0.1-1.4,0.4c-0.3,0.2-0.3,0.4,0.1,0.4c0.5,0,1,0,1.5,0
				c0.5,0,1-0.1,1.4-0.4C187.8,265.6,187.8,265.4,187.4,265.4L187.4,265.4z"/>
		</g>
	</g>
	<g>
		<g>
			<path fill="#876242" d="M203.1,289.2c-0.3,0.2-0.6,0.3-1,0.5c-0.3,0.1-0.6,0.6-0.2,0.8c0.4,0.2,1,0,1.4-0.2
				c0.3-0.2,0.6-0.3,1-0.5c0.3-0.1,0.6-0.6,0.2-0.8C204,288.8,203.5,289,203.1,289.2L203.1,289.2z"/>
		</g>
	</g>
	<g>
		<g>
			<path fill="#876242" d="M174.8,306.1c0.8,0,2-1.2,0.7-1.2C174.8,304.9,173.5,306.1,174.8,306.1L174.8,306.1z"/>
		</g>
	</g>
	<g>
		<g>
			<path fill="#876242" d="M215.7,297.2c-0.2,0-0.3,0-0.4-0.1c0,0-0.1-0.1-0.1-0.1c-0.1,0.1-0.2,0.3-0.4,0.4
				c-0.5-0.5-0.8-0.5-0.9-0.2c-0.1,0.5,0.6,0.6,0.9,0.5c0.4,0,0.9-0.3,1.1-0.7c0.1-0.5-0.4-0.8-0.8-0.8c-0.5,0-1.2,0.1-1.6,0.5
				c-0.3,0.4-0.4,0.8,0,1.2c0.4,0.4,1,0.5,1.5,0.5c0.4,0,1-0.1,1.3-0.6C216.4,297.5,216,297.3,215.7,297.2L215.7,297.2z"/>
		</g>
	</g>
	<g>
		<g>
			<path fill="#876242" d="M239.6,299.1c-0.3,0.2-0.6,0.3-1,0.5c-0.3,0.1-0.8,0.5-0.5,0.9c0.3,0.3,1,0.3,1.3,0.1
				c0.3-0.2,0.6-0.3,1-0.5c0.3-0.1,0.8-0.5,0.5-0.9C240.6,298.9,240,299,239.6,299.1L239.6,299.1z"/>
		</g>
	</g>
	<g>
		<g>
			<path fill="#876242" d="M240.5,271.3c-0.2-0.2-0.3-0.3-0.5-0.5c-0.4-0.4-2.2,0.3-1.8,0.7c0.2,0.2,0.3,0.3,0.5,0.5
				C239.1,272.4,240.9,271.7,240.5,271.3L240.5,271.3z"/>
		</g>
	</g>
	<g>
		<g>
			<path fill="#876242" d="M252.7,261.9c-0.3-0.1-0.7-0.2-1-0.4c-0.4-0.2-1.1,0-1.4,0.4c-0.3,0.3-0.2,0.7,0.2,0.8
				c0.3,0.1,0.7,0.2,1,0.4c0.4,0.2,1.1,0,1.4-0.4C253.3,262.4,253.1,262.1,252.7,261.9L252.7,261.9z"/>
		</g>
	</g>
	<g>
		<g>
			<path fill="#876242" d="M231.3,258.6c-0.2,0-0.3,0-0.5,0c-0.4,0-1,0.2-1.3,0.5c-0.3,0.4,0.3,0.4,0.5,0.4c0.2,0,0.3,0,0.5,0
				c0.4,0,1-0.2,1.3-0.5C232.1,258.7,231.5,258.6,231.3,258.6L231.3,258.6z"/>
		</g>
	</g>
	<g>
		<g>
			<path fill="#876242" d="M244.5,281.6c0,0.2,0,0.3,0,0.5c0,0.5,1.9,0.2,1.9-0.5c0-0.2,0-0.3,0-0.5
				C246.4,280.5,244.5,280.9,244.5,281.6L244.5,281.6z"/>
		</g>
	</g>
	<g>
		<g>
			<path fill="#876242" d="M264.1,280.3C264.1,280.3,264.1,280.4,264.1,280.3c0.1,0,0.2-0.1,0.4-0.2c0,0-0.1,0-0.1,0
				c0.2,0,0.3,0,0.5,0c0.1,0.1,0.2,0.2,0.3,0.3c-0.1,0.1-0.1,0.3-0.2,0.4c-0.1,0-0.1,0.1-0.2,0.1c-0.2,0-0.3,0.1-0.5,0.1
				c0,0,0,0-0.1,0c-0.1-0.1-0.3-0.1-0.4-0.2c0,0,0.1,0,0.1,0.1c0.4,0.3,1,0.2,1.4-0.1c0.3-0.3,0.5-0.8,0.1-1.1
				c-0.8-0.5-2-0.1-2.2,0.8c-0.1,0.4,0.3,0.8,0.7,0.9c0.5,0.2,1,0,1.5-0.3c0.4-0.2,0.5-0.8,0.1-1.1
				C265.1,279.9,264.5,280,264.1,280.3L264.1,280.3z"/>
		</g>
	</g>
	<g>
		<g>
			<path fill="#876242" d="M285.2,264.8c0-0.2,0-0.3,0-0.5c0-1-2-0.7-2,0.2c0,0.2,0,0.3,0,0.5C283.2,265.9,285.2,265.6,285.2,264.8
				L285.2,264.8z"/>
		</g>
	</g>
	<g>
		<g>
			<path fill="#876242" d="M289.4,278.2c1.1,0,1.5-1.5,0.2-1.5C288.5,276.7,288.1,278.2,289.4,278.2L289.4,278.2z"/>
		</g>
	</g>
	<g>
		<g>
			<path fill="#876242" d="M285.3,290.2c0.8,0,2-1.2,0.7-1.2C285.2,288.9,284,290.2,285.3,290.2L285.3,290.2z"/>
		</g>
	</g>
	<g>
		<g>
			<path fill="#876242" d="M310.8,283.5c0-0.2,0-0.3,0-0.5c0-0.3-1.9,0-1.9,0.5c0,0.2,0,0.3,0,0.5
				C308.9,284.3,310.8,284,310.8,283.5L310.8,283.5z"/>
		</g>
	</g>
	<g>
		<g>
			<path fill="#876242" d="M319.2,288.1c0.6,0,2.1-0.9,0.8-0.9C319.3,287.2,317.9,288.1,319.2,288.1L319.2,288.1z"/>
		</g>
	</g>
	<g>
		<g>
			<path fill="#876242" d="M320.9,250.9c-0.2-0.2-0.3-0.3-0.5-0.5c-0.5-0.5-2.3,0.2-1.8,0.8c0.2,0.2,0.3,0.3,0.5,0.5
				C319.6,252.2,321.5,251.4,320.9,250.9L320.9,250.9z"/>
		</g>
	</g>
	<g>
		<g>
			<path fill="#876242" d="M306.3,234.2c0.4,0,2.2-0.8,1.2-0.8C307.1,233.4,305.4,234.2,306.3,234.2L306.3,234.2z"/>
		</g>
	</g>
	<g>
		<g>
			<path fill="#876242" d="M302.7,252.2c0.6,0,2.1-0.9,0.8-0.9C302.9,251.3,301.4,252.2,302.7,252.2L302.7,252.2z"/>
		</g>
	</g>
	<g>
		<g>
			<path fill="#876242" d="M329.6,240.5c-0.3,0-0.4-0.4-0.4-0.6c-0.1-0.6-2-0.2-1.9,0.5c0.1,0.8,0.9,1.2,1.6,1.2
				c0.4,0,1-0.2,1.3-0.5C330.4,240.7,329.9,240.5,329.6,240.5L329.6,240.5z"/>
		</g>
	</g>
	<g>
		<g>
			<path fill="#876242" d="M340.2,232.3c0.4,0,2.2-0.8,1.3-0.8C341.1,231.5,339.3,232.3,340.2,232.3L340.2,232.3z"/>
		</g>
	</g>
	<g>
		<g>
			<path fill="#876242" d="M352.4,228.4c0.4,0,2.2-0.8,1.2-0.8C353.2,227.6,351.4,228.4,352.4,228.4L352.4,228.4z"/>
		</g>
	</g>
	<g>
		<g>
			<path fill="#876242" d="M342.2,256.3c1.1,0,1.5-1.4,0.2-1.4C341.3,254.9,340.9,256.3,342.2,256.3L342.2,256.3z"/>
		</g>
	</g>
	<g>
		<g>
			<path fill="#876242" d="M366.4,235.6c0.2-0.2,0.3-0.3,0.5-0.5c0.3-0.3,0.1-0.8-0.3-1c-0.5-0.2-1,0-1.4,0.4
				c-0.2,0.2-0.3,0.3-0.5,0.5c-0.3,0.3-0.1,0.8,0.3,1C365.5,236.1,366,235.9,366.4,235.6L366.4,235.6z"/>
		</g>
	</g>
	<g>
		<g>
			<path fill="#876242" d="M189.4,221.5c-0.2,0.2-0.3,0.3-0.5,0.5c-0.3,0.3-0.2,0.7,0.2,0.8c0.5,0.1,1,0,1.4-0.4
				c0.2-0.2,0.3-0.3,0.5-0.5c0.3-0.3,0.2-0.7-0.2-0.8C190.3,221,189.7,221.2,189.4,221.5L189.4,221.5z"/>
		</g>
	</g>
	<g>
		<g>
			<path fill="#876242" d="M165.4,222.8c-0.2-0.2-0.3-0.3-0.5-0.5c-0.5-0.5-2.3,0.3-1.8,0.7c0.2,0.2,0.3,0.3,0.5,0.5
				C164.1,224,165.9,223.3,165.4,222.8L165.4,222.8z"/>
		</g>
	</g>
	<g>
		<g>
			<path fill="#876242" d="M235.4,259.6c-0.2,0-0.3,0-0.5,0c-0.5,0-1,0.1-1.4,0.4c-0.3,0.2-0.3,0.4,0.1,0.4c0.2,0,0.3,0,0.5,0
				c0.5,0,1-0.1,1.4-0.4C235.8,259.8,235.8,259.6,235.4,259.6L235.4,259.6z"/>
		</g>
	</g>
	<g>
		<g>
			<path fill="#876242" d="M287,230.4c-0.2,0-0.3,0-0.5,0c-0.4,0-1,0.1-1.3,0.5c-0.3,0.4,0.2,0.5,0.5,0.5c0.2,0,0.3,0,0.5,0
				c0.4,0,1-0.1,1.3-0.5C287.8,230.6,287.3,230.4,287,230.4L287,230.4z"/>
		</g>
	</g>
	<g>
		<g>
			<path fill="#876242" d="M54.2,242.3c-0.2,0.2-0.3,0.3-0.5,0.5c-0.3,0.3-0.1,0.8,0.3,0.9c0.5,0.2,1,0,1.4-0.4
				c0.2-0.2,0.3-0.3,0.5-0.5c0.3-0.3,0.1-0.8-0.3-0.9C55.1,241.7,54.6,241.9,54.2,242.3L54.2,242.3z"/>
		</g>
	</g>
	<g>
		<g>
			<path fill="#876242" d="M65.5,232.3c0.4,0,2.2-0.8,1.3-0.8C66.4,231.5,64.6,232.3,65.5,232.3L65.5,232.3z"/>
		</g>
	</g>
</g>
<g id="Layer_29">
	<path fill="#B1C98D" d="M362.2,220.8c-1.6-1.4-2.9-3-4-4.8c1-0.2,1.8-0.2,2.8,0c0.3,0.1,0.5-0.2,0.4-0.5c-1.4-2.7-2.8-5.3-4.2-8
		c0.5-0.1,0.9-0.2,1.4-0.3c0.2,0,0.3-0.3,0.2-0.5c-0.9-1.4-1.7-3-2.2-4.6c0.8,0.1,1.5,0.2,2.3,0.3c0.3,0,0.4-0.3,0.3-0.5
		c-1.6-2.2-2.9-4.6-3.9-7.2c1.3,0.1,2.5,0.1,3.8,0.2c0.3,0,0.5-0.3,0.3-0.5c-0.8-1.2-1.6-2.4-2.4-3.6c-0.3-0.5-0.7-1-1-1.6
		c-0.1-0.2-1.2-2.1-1.2-2.1c0.4,0.1,0.6-0.3,0.4-0.6c-0.4-0.4-0.6-0.8-0.9-1.3c0.1,0,0.2,0,0.3,0.1c0.3,0.1,0.6-0.2,0.4-0.5
		c-1.1-1.6-2.1-3.3-3.2-4.9c1.1,0.1,2.1,0.2,3.2,0.4c0.4,0,0.4-0.4,0.3-0.6c-2.3-2.9-4.2-6.1-5.6-9.5c0.2,0.1,0.4,0.1,0.6,0.2
		c0.3,0.2,0.6-0.2,0.5-0.5c-0.6-1.3-1.2-2.7-1.8-4c0.3,0.1,0.5,0.4,0.8,0.6c0,0,0,0,0,0l0,0c0,0,0,0,0.1,0.1
		c0.3,0.3,0.7-0.1,0.5-0.4c-1.6-3.3-2.5-6.8-2.8-10.5c0-0.2-0.2-0.3-0.4-0.3c-0.1-0.4-0.7-0.4-0.7,0.1c-0.1,2.5-0.2,5.2-1.4,7.4
		c-1.3,2.4-3.6,3.3-5.7,5c-0.2,0.2-0.1,0.5,0.1,0.6c0.8,0.6,1.5,0.9,2.4,1c-0.7,1.1-1.4,2.2-2.1,3.4c-0.2,0.3,0.1,0.6,0.3,0.6
		c0.6,0.1,1.3,0.1,1.9,0c-0.9,2.1-2.6,3.7-4.8,4.6c-0.3,0.1-0.2,0.7,0.1,0.8c1.1,0.2,2.3,0.2,3.4,0.1c-1.4,2.7-3.2,5.1-5.5,7.1
		c-0.3,0.3,0,0.8,0.4,0.7c0.7-0.1,1.4-0.2,2.2-0.3c-0.6,1.3-1.4,2.6-2.2,3.8c0,0,0,0,0,0.1c-2.6-2.6-4.8-5.5-6.6-8.7
		c0.8,0.1,1.6,0.1,2.6,0c0.8-0.1,1.4-1,0.7-1.7c-1.1-1-1.9-2.1-2.6-3.3c2.1,0.2,5.4,0.2,4.9-1.9c-0.4-1.6-2.3-2.8-3.4-4
		c-1.7-1.7-3.4-3.4-5-5.1c0.7-0.1,1.3-0.2,2-0.3c1,0.2,1.6-0.8,0.9-1.6c-4.1-5-7-10.7-9.1-16.8c-0.3-0.8-1.2-0.9-1.7-0.2
		c-1.1,1.6-1.7,3.1-2.2,4.9c0,0,0,0,0,0c-1.5,6.1-3.8,11.8-7.1,17.1c-2.4-2.6-4.4-5.6-6-8.8c0.9,0.1,1.8,0.1,2.7,0.2
		c0.6,0,0.9-0.7,0.7-1.1c-1.7-3.4-3.4-6.8-5.1-10.2c1,0.1,1.9,0,2.9-0.2c0.5-0.1,0.8-0.9,0.4-1.3c-1-0.8-1.7-1.8-2.1-2.9
		c1.1,0.1,2.1,0.1,3.2,0.2c0.7,0,1-0.8,0.6-1.3c-4-4.3-7.5-9-10.4-14.1c-1.4-2.4-2.6-5-3.7-7.6c-0.8-1.9-0.8-3.9-2.8-4.6
		c-0.5-0.2-0.9,0.3-1,0.7c-0.6,7.9-4.7,15.3-9.3,21.5c-0.3,0.4,0,1,0.4,1.1c0.6,0.3,1.2,0.4,1.8,0.3c-1.1,2.7-2.6,5.2-4.7,7.3
		c-0.6,0.7,0.4,1.8,1.1,1.1c1.3,0.6,1.5,1.5,0.6,2.5c-0.3,0.7-0.8,1.4-1.2,2c-2.4-1.9-3.9-4.1-4.8-7.2c0.2,0,0.3,0,0.5,0
		c0.8-0.2,0.5-0.8,1.7-0.9c0.4,0,0.8-0.5,0.5-0.9c-0.6-0.9-1.4-1.5-2.2-2.2c-0.8-0.7-0.3-2.2-0.8-3.1c-0.7-1.3-2.1-2.5-3.1-3.7
		c-1.1-1.4-2.3-2.8-3.4-4.1c1.3-0.6,2.6-1.1,3.8-1.7c0.4-0.2,0.3-0.8,0-1c-3.1-1.9-5-5-5.6-8.5c0.7,0,1.4,0,2.1,0.1
		c0.3,0,0.6-0.3,0.6-0.6c0-0.4-0.1-0.8-0.1-1.2c1.5,0.9,3.3,0.9,4.9-0.1c0.4-0.2,0.3-0.7,0-1c-5.3-3.9-11.2-9-10.9-16.1
		c1.1,0.4,2.2,0.5,3.4,0.3c0.6-0.1,0.8-0.9,0.2-1.1c-5.4-1.8-8.9-7-9.3-12.5c0-0.3-0.2-0.5-0.4-0.5c0.1-0.4-0.6-0.6-0.7-0.2
		c0,0.1-0.1,0.2-0.1,0.3l-0.1-0.2c-0.7,2.2-1.6,4.3-2.6,6.3c-2,3.5-4.5,6.7-7.5,9.4c-0.1,0.1-0.1,0.2-0.1,0.3c0,0,0,0,0,0
		c0,0,0,0,0,0c0,0.3,0.3,0.5,0.6,0.5c0.8-0.2,1.5-0.4,2.3-0.6c-0.7,1.2-1.4,2.4-2.1,3.6c0,0.1-0.1,0.2-0.1,0.2c0,0,0,0,0,0
		c0,0,0,0,0,0c0,0.3,0.2,0.5,0.5,0.5c0.8,0,1.5-0.1,2.3-0.1c-3.4,8-7.8,15.6-13.1,22.6c-0.3,0.3,0.1,0.7,0.4,0.8
		c1.4,0.1,2.8,0.3,4.3,0.4c-0.6,0.7-1.1,1.5-1.7,2.2c-0.4,0.6,0.5,1,0.9,0.5c0.3,0.8,0.1,1.4-0.6,1.8c-0.3,0.3-0.1,0.8,0.2,0.9
		c0.7,0.2,1.4,0.4,2,0.6c-0.6,1.2-1.5,2.9-1.7,4.4c-0.1,0.1-0.1,0.3-0.2,0.4c0,0.3,0.1,0.6,0.2,0.9c0.2,0.6,0.5,1,1.3,1.4
		c-1.8,4.4-4.2,8.6-7.1,12.4c-0.2,0.3,0,0.7,0.3,0.8c1.7,0.5,3.3,0.4,4.9-0.2c-1.1,4-2.8,7.8-5,11.3c-0.3,0.4-0.8,0.9-0.9,1.4
		c0,0.1,0,0.2,0,0.3c-1-0.8-1.9-1.6-2.8-2.4c0.1,0,0.2,0.1,0.3,0.1c0.5,0.2,0.9-0.5,0.5-0.9c-2.5-2.7-4.2-5.9-5-9.4
		c1.5,0.8,3.1,1.2,4.8,1.3c0.4,0,0.6-0.5,0.5-0.8c-1-2.1-2.3-4-3.9-5.7c1.1-0.2,2.1-0.5,3.2-0.8c0.4-0.1,0.5-0.7,0.1-0.9
		c-1.8-1.1-3.7-2.3-5.5-3.4c0.3,0,0.5,0,0.8,0.1c0.3,0.1,0.7-0.2,0.6-0.6c-0.7-2.1-2.8-2.9-4.4-4.3c-2.2-2-2.5-5.6-2.8-8.3
		c0-0.4-0.5-0.6-0.8-0.3c-0.2,0.1-0.4,0.3-0.6,0.4c-0.2,0.2-0.2,0.4-0.1,0.6c-1.3,5.4-3.9,10.3-7.7,14.3c-0.4,0.4,0.1,0.9,0.6,0.7
		c0.5-0.2,0.9-0.5,1.4-0.7c-1,2.5-2.6,4.8-3.6,7.2c-0.2,0.5,0.2,0.8,0.6,0.6c0.9-0.4,2.1-1.2,3.2-1.4c-1.8,7-4.4,13.8-7.9,20.2
		c-0.2,0.4,0.1,0.8,0.5,0.7c0.9-0.3,1.8-0.7,2.6-1.1c-0.2,0.4-0.4,0.8-0.7,1.1c-0.3,0.4,0,0.9,0.5,0.8c0.5-0.1,0.9-0.2,1.3-0.4
		c-1,2.7-2.5,5.3-4.3,7.5c-0.3,0.3-0.1,0.8,0.3,0.8c1.3,0,2.6,0,3.8-0.1c-0.3,1.5-0.8,2.9-1.4,4.3c-2.7-1.5-4.8-3.7-6.1-6.5
		c0.2,0.1,0.4,0.2,0.5,0.3c0.5,0.3,1.1-0.1,1.1-0.6c0-0.9-0.1-1.6-0.4-2.4c0.2,0,0.3,0.1,0.5,0.1c0.6,0.3,1.4-0.4,1-1
		c-1.7-2.2-3.1-4.5-4.2-7c0.9,0.2,1.7,0.1,2.7-0.1c0.5-0.1,0.7-0.9,0.3-1.2c-5.1-4.8-7.9-11.1-8.3-18.1c0-0.8-1.2-1-1.4-0.2
		c-0.4,1-0.6,1.9-0.6,2.9c-0.1,0.1-0.2,0.2-0.2,0.3c-0.8,3.6-2,6.9-3.8,9.9c-1.5-2.1-2.6-4.5-3.2-7c1.4,0.8,2.9,1.2,4.5,1.2
		c0.4,0,0.6-0.4,0.4-0.7c-0.9-2-2.1-3.7-3.6-5.3c1-0.2,2-0.4,3-0.7c0.4-0.1,0.5-0.6,0.1-0.9c-1.7-1.1-3.4-2.1-5.2-3.2
		c0.3,0,0.5,0,0.8,0.1c0.3,0.1,0.7-0.2,0.6-0.6c-0.6-2-2.6-2.7-4.1-4c-2.1-1.9-2.4-5.2-2.6-7.8c0-0.4-0.4-0.6-0.8-0.3
		c-0.2,0.1-0.3,0.3-0.5,0.4c-0.2,0.2-0.2,0.4-0.1,0.5c-1.2,5-3.7,9.6-7.2,13.4c-0.3,0.4,0.1,0.9,0.5,0.7c0.4-0.2,0.8-0.4,1.3-0.6
		c-0.8,2.2-2.2,4.2-3.2,6.3c-0.8-1.5-1.4-3.1-1.9-4.8c0.7,0.1,1.4,0.3,2.1,0.4c0.6,0.1,1.3-0.5,0.8-1.1c-0.9-1.1-1.7-2.3-2.6-3.4
		c-0.4-0.6-1.1-2.1-1.7-2.5c0.8,0.6,1.5-0.6,1-1.2c-0.1-0.1-0.1-0.3-0.2-0.4c0.6,0.1,1.3,0.1,2,0.1c0.6,0,1.2-0.9,0.6-1.4
		c-6.7-5.3-11.6-12.6-14-20.8c-0.1-0.3-0.3-0.4-0.5-0.4c-0.4-0.2-0.8-0.2-1.1,0.3c-2.5,4.7-5.8,8.8-9.6,12.5c-0.3,0.3-0.3,1,0.2,1.2
		c0.7,0.3,1.3,0.5,2,0.6c-0.2,0.5-0.4,1.1-0.5,1.7c-0.1,0.7,0.5,1.2,1.2,0.9c0.4-0.2,0.8-0.3,1.2-0.5c-1.3,2.4-2.9,4.6-4.6,6.6
		c0-0.3,0-0.5-0.2-0.7c-3.9-3.6-7.2-7.8-9.6-12.5c-0.3-0.5-0.7-0.5-1.1-0.3c-0.2,0-0.4,0.1-0.5,0.4c-2.4,8.2-7.3,15.5-14,20.8
		c-0.6,0.5-0.1,1.4,0.6,1.4c0.7,0,1.3,0,2-0.1c-0.1,0.1-0.1,0.3-0.2,0.4c-0.5,0.6,0.2,1.8,1,1.2c-0.6,0.4-1.2,1.9-1.7,2.5
		c-0.9,1.1-1.7,2.3-2.6,3.4c-0.4,0.6,0.3,1.2,0.8,1.1c0.7-0.1,1.4-0.3,2.1-0.4c-1.2,3.7-3,7.2-5.4,10.3c-0.4-0.3-0.7-0.6-1.1-0.9
		c0.1,0,0.2,0.1,0.3,0.1c0.5,0.2,0.8-0.5,0.5-0.8c-2.3-2.5-3.9-5.5-4.7-8.8c1.4,0.8,2.9,1.2,4.5,1.2c0.4,0,0.6-0.4,0.4-0.7
		c-0.9-2-2.1-3.7-3.6-5.3c1-0.2,2-0.4,3-0.7c0.4-0.1,0.5-0.6,0.1-0.9c-1.7-1.1-3.4-2.1-5.2-3.2c0.3,0,0.5,0,0.8,0.1
		c0.3,0.1,0.7-0.2,0.6-0.6c-0.6-2-2.6-2.7-4.1-4c-2.1-1.9-2.4-5.2-2.6-7.8c0-0.4-0.4-0.6-0.8-0.3c-0.2,0.1-0.3,0.3-0.5,0.4
		c-0.2,0.2-0.2,0.4-0.1,0.5c-1.2,5-3.7,9.6-7.2,13.4c-0.3,0.4,0.1,0.9,0.5,0.7c0.4-0.2,0.8-0.4,1.3-0.6c-0.9,2.4-2.4,4.4-3.4,6.8
		c-0.2,0.4,0.2,0.8,0.6,0.6c0.8-0.4,2-1.2,3-1.3c-0.4,1.7-0.9,3.4-1.5,5.1c-1.5-1.1-3.1-2.1-4.7-3.1c0.5-0.3,0.9-0.7,1.4-1
		c0.3-0.2,0.5-0.7,0.3-1c-1.6-2.1-2.9-4.4-4-6.8c1.3,0.2,2.6,0.4,3.9,0.6c0.7,0.1,1.4-0.7,0.7-1.3c-4.1-3.7-7.3-8-9.8-12.8
		c2,0.2,4,0.2,6.1-0.1c0.6-0.1,0.8-1.1,0.2-1.4c-3.9-1.7-6.9-4.5-8.6-8.3c1.1,0.1,2.2,0.1,3.4,0c0.5,0,0.9-0.6,0.6-1.1
		c-1.2-2-2.5-4-3.7-6c1.6-0.3,2.9-0.8,4.3-1.9c0.3-0.2,0.5-0.7,0.1-1c-3.7-3-7.9-4.6-10.2-9c-2.1-4-2.3-8.9-2.5-13.4
		c0-0.8-1.2-0.9-1.3-0.2c-0.3-0.1-0.7,0.1-0.7,0.5c-0.4,6.6-2.1,12.9-5,18.8c-0.3,0.6,0.5,1.3,1,0.7c0,0,0.1-0.1,0.1-0.1l0,0
		c0,0,0,0,0,0c0.4-0.5,0.8-0.9,1.4-1.1c-1.1,2.4-2.1,4.8-3.2,7.3c-0.2,0.5,0.3,1.2,0.8,0.8c0.4-0.1,0.7-0.3,1.1-0.4
		c-2.5,6.2-5.9,11.9-10.1,17.1c-0.3,0.4-0.2,1.2,0.5,1.1c1.9-0.2,3.9-0.4,5.8-0.6c-1.9,2.9-3.8,5.9-5.7,8.8c-0.3,0.5,0.2,1.1,0.7,1
		c0.2,0,0.4-0.1,0.5-0.1c-0.4,0.9-0.9,1.6-1.6,2.4c-0.4,0.5,0,1.2,0.6,1.1c0.1,0-1.9,3.4-2.1,3.7c-0.6,0.9-1.3,1.9-1.9,2.8
		c-1.5,2.2-2.9,4.4-4.4,6.6c-0.3,0.4,0.1,1,0.6,1c2.3-0.1,4.5-0.2,6.8-0.3c-1.8,4.6-4.1,8.9-6.9,13c-0.3,0.4,0.1,1,0.5,1
		c1.4-0.2,2.8-0.3,4.2-0.5c-0.9,2.7-2.1,5.3-3.6,7.7c-3-1.5-5.3-3.8-6.7-6.8c0.2,0.1,0.4,0.2,0.5,0.3c0.5,0.3,1.1-0.1,1.1-0.6
		c0-0.9-0.1-1.6-0.4-2.4c0.2,0,0.3,0.1,0.5,0.1c0.6,0.3,1.4-0.4,1-1c-1.7-2.2-3.1-4.5-4.2-7c0.9,0.2,1.7,0.1,2.7-0.1
		c0.5-0.1,0.7-0.9,0.3-1.2c-5.1-4.8-7.9-11.1-8.3-18.1c0-0.8-1.2-1-1.4-0.2c-0.4,1-0.6,1.9-0.6,2.9c-0.1,0.1-0.2,0.2-0.2,0.3
		c-1,4.8-3,9.1-5.9,13c-0.2,0.3,0,0.9,0.4,0.9c0.5,0.1,1,0.1,1.5,0c-0.8,3.1-2.1,6-3.8,8.7c-0.2,0.4,0.1,1,0.6,1
		c0.6-0.1,1.1-0.2,1.5-0.3c-0.6,2.4-1.8,4.4-3.6,6.1c-0.3,0.3-0.2,0.7,0,0.9c0.5,0.6,1,0.9,1.7,1.1c-0.2,0.7-0.5,1.4-1.1,2
		c-0.2,0.2-0.3,0.7,0,0.9c0.5,0.4,0.9,0.7,1.5,0.9c-1.9,3.6-3.9,7.1-6.2,10.4c-0.4,0.5,0.2,1.1,0.8,1c1.5-0.3,3-0.6,4.4-0.9
		c-2,4.5-5.7,8.1-10.3,10c-0.6,0.2-0.7,1.1,0,1.3c1.4,0.5,2.7,0.7,4,0.8c-0.6,0.8-1.3,1.4-2.2,2c-0.5,0.3-0.4,1,0.2,1.2
		c0.4,0.1,0.8,0.2,1.2,0.3c-1,0.9-2.1,1.7-3.3,2.3c-0.6,0.3-0.3,1.1,0.3,1.2c4.2,0.4,8.2-0.3,11.9-2.1c0.1,0.4,0.2,0.9,0.3,1.3
		c0.1,0.5,0.9,0.6,1.2,0.2c0.3-0.5,0.6-1,0.9-1.5c0.3,0.7,0.6,1.4,0.9,2.1c0.2,0.5,0.9,0.7,1.2,0.2c0.4-0.8,0.7-1.6,1.1-2.4
		c0.9,1,2,1.7,3.5,2.1c0.4,0.1,0.8-0.1,0.9-0.5c0.2-1,0.4-2,0.4-3c3.7,1.3,7.5,2.4,11.3,3.3c0.7,0.2,1.2-0.7,0.7-1.2
		c-0.8-0.9-1.6-1.8-2.3-2.7c0.9-0.2,1.8-0.5,2.7-0.8c0.2,0,0.3,0,0.5,0c-0.1,0.2-0.2,0.5-0.3,0.7c-0.3,0.7,0.7,1,1.1,0.6
		c0.2-0.2,1.1-0.8,2-1.3c0.8,0,1.7,0,2.5,0c0.5,1,1.1,2,1.8,3c0.2,0.3,0.8,0.5,1,0.1c0.3-0.5,0.7-0.8,1.1-1c0.2,1.3,0.6,2.5,1.2,3.7
		c0.3,0.5,0.9,0.4,1.2,0c0.6-0.8,1.1-1.6,1.7-2.4c0.5,2.4,1.1,4.8,1.6,7.1c0.1,0.4,0.6,0.6,1,0.4c1.6-1,2.8-2.2,3.7-3.7
		c0.3,0.5,0.5,1,0.8,1.5c0.2,0.5,1,0.5,1.2,0c0.5-1.2,1.1-2.4,1.6-3.6c0.8,0.7,1.6,1.4,2.3,2.1c0.4,0.3,0.8,0.2,1.1-0.1
		c0.9-1.2,1.6-2.5,2.1-3.9c1.5,1.1,3.1,2,5,2.5c0.5,0.2,1-0.4,0.9-0.9c-0.7-2.9,2.2-4.9,4.5-3.3c-1.3,1.9-3,3.6-4.9,4.9
		c-0.5,0.3-0.2,0.9,0.4,0.9c1.7-0.3,3.2-0.8,4.7-1.6c-0.1,0.4-0.2,0.9-0.2,1.3c-0.1,0.4,0.5,0.8,0.8,0.5c0.7-0.8,1.4-1.3,2.3-1.8
		c0.2,0.6,0.3,1.3,0.5,1.9c0.1,0.3,0.5,0.5,0.8,0.2c0.6-0.6,1.3-1.2,2-1.7c0.5-0.4,1.1-0.6,1.8-0.6c0.3,0,1.7,0.2,1.7,0.4
		c0,0.3,0.4,0.6,0.7,0.4c1.3-0.9,3.3,2.1,4.1,2.9c0.2,0.2,0.6,0.2,0.8-0.1c0.4-0.8,0.9-1.5,1.5-2.2c0.9,0.5,2,1.1,3,0.8
		c0.8-0.3,1.4-0.7,1.7-1.5c1.5,0.4,3,0.5,4.6,0.4c0,0.3,0,0.5,0,0.8c0,0.6,0.9,1.1,1.3,0.5c0.4-0.5,0.8-0.9,1.2-1.3
		c1.1-1.1,1.7,0.5,2.2,1.1c0.2,0.3,0.8,0.3,1,0c0.5-0.6,1.1-1.2,1.6-1.9c1.4,2.2,3.3,3.9,5.7,5.1c0.4,0.2,0.9,0,1.1-0.4
		c0.4-1.3,1-2.4,1.7-3.4c0.6,0.8,1.2,1.6,1.8,2.4c0.3,0.4,0.9,0.5,1.2,0c0.3-0.5,0.6-0.9,0.9-1.4c1.7,0.7,3.3,1,5.2,0.8
		c0.4,0,0.8-0.3,0.7-0.7c-0.2-1.4-0.4-2.7-0.8-4c3.6,0.8,7.3,1,11,0.8c0.8-0.1,1.1-1,0.4-1.4c-0.5-0.3-1-0.7-1.4-1.1
		c0.9,0.1,1.8-0.2,2.5-0.8c0.4-0.3,0.9-0.5,1.3-0.6c0.2,0.3,0.6,0.5,1,0.3c0.2-0.1,0.4-0.2,0.6-0.4c0.4,0,0.8,0,1.2-0.1
		c1.8-0.2,3.4-0.9,4.9-1.8c0.6-0.4,0.5-1.3-0.2-1.5c-0.5-0.1-1-0.3-1.5-0.5c0.2-0.3,0.4-0.6,0.6-0.9c0.5,0.6,1.1,1.2,1.6,1.9
		c0.2,0.3,0.8,0.3,1,0c0.5-0.7,1.2-2.2,2.2-1.1c0,0,0.1,0.1,0.1,0.1c-1.4,2.4-3.3,4.5-5.7,6.1c-0.5,0.3-0.2,0.9,0.4,0.9
		c1.7-0.3,3.2-0.8,4.7-1.6c-0.1,0.4-0.2,0.9-0.2,1.3c-0.1,0.4,0.5,0.8,0.8,0.5c0.7-0.8,1.4-1.3,2.3-1.8c0.2,0.6,0.3,1.3,0.5,1.9
		c0.1,0.3,0.5,0.5,0.8,0.2c0.6-0.6,1.3-1.2,2-1.7c0.5-0.4,1.1-0.6,1.8-0.6c0.2,0,0.9,0.1,1.3,0.2c-0.8,0.6-1.7,1.2-2.6,1.7
		c-0.6,0.3-0.3,1.1,0.3,1.2c2.3,0.2,4.5,0.1,6.6-0.3c0.3,0.4,0.6,0.8,0.8,1c0.2,0.2,0.6,0.2,0.8-0.1c0.3-0.6,0.7-1.1,1.1-1.6
		c0.3-0.1,0.5-0.2,0.8-0.3c0.7,0.4,1.5,0.7,2.2,0.7c0.2,0.4,0.9,0.5,1.1,0c0.2-0.3,0.3-0.6,0.5-0.9c0.2-0.2,0.3-0.4,0.4-0.6
		c0.3,0.7,0.6,1.4,0.9,2.1c0.2,0.5,0.9,0.7,1.2,0.2c0.3-0.6,0.6-1.3,0.9-1.9c0.2,0,0.5,0,0.7,0c0.8,0.7,1.8,1.3,3,1.6
		c0.4,0.1,0.8-0.1,0.9-0.5c0.2-1,0.4-2,0.4-3c2.5,0.9,5.1,1.7,7.6,2.4c-0.8,0.7-1.6,1.4-2.5,2c-0.5,0.3-0.2,1,0.4,0.9
		c1.8-0.3,3.4-0.9,5-1.7c-0.1,0.5-0.2,0.9-0.3,1.4c-0.1,0.5,0.5,0.9,0.8,0.5c0.7-0.8,1.5-1.4,2.5-1.9c0.2,0.7,0.3,1.3,0.5,2
		c0.1,0.4,0.6,0.5,0.8,0.2c0.7-0.7,1.4-1.3,2.2-1.9c0.6-0.4,1.2-0.6,1.9-0.7c0.3,0,1.9,0.2,1.9,0.4c0,0.4,0.4,0.7,0.8,0.4
		c1.4-0.9,3.5,2.2,4.4,3.2c0.2,0.2,0.7,0.2,0.8-0.1c0.4-0.9,1-1.6,1.6-2.3c0.8,0.5,1.8,1,2.7,0.9c-0.8,0.8-1.9,1.4-3.1,1.6
		c-0.7,0.1-0.4,1,0.1,1.1c5.1,0.6,10.1-0.4,14.6-2.9c0,0.6,0,1.2,0,1.8c0,0.5,0.6,0.7,0.9,0.4c0.9-0.9,1.8-1.9,2.7-2.8
		c1.3,1.3,2.5,2.6,3.8,3.9c0.2,0.2,0.5,0.2,0.7,0.1c0.5-0.4,1-0.7,1.4-1.1c0.6,0.5,1.2,1,1.7,1.6c0.4,0.3,0.9,0.1,0.9-0.4
		c0.1-3.3,4.9-0.2,5.9,0.3c1.2,0.5,2.4,0.4,3.4-0.3c2.3-1.7,1.4-5.4,3.3-7.2c1,1.2,2.1,2.2,3.2,3.2c-0.7,0.7-1.5,1.3-2.3,1.8
		c-0.8,0.5-0.3,1.6,0.6,1.4c1.8-0.2,3.7-0.5,5.5-0.7c0.2,0.1,0.4,0.2,0.5,0.3c0.3,0.2,0.9,0,0.9-0.5c0,0,0,0,0,0
		c2.1-0.3,4.2-0.6,6.3-0.9c0.7,1.1,1.5,2.3,2.2,3.4c0.3,0.5,1.3,0.6,1.4-0.2c0.4-2,1.4-3.6,2.9-4.7c0.7,1.8,2.2,3,4.2,3.4
		c0.5,0.1,1-0.2,1-0.7c0-1.4,0.4-2.5,1-3.6c1,0.6,2.1,1.2,3.1,1.8c0.3,0.2,0.7,0.1,1-0.1c0.3-0.3,0.7-0.5,1-0.8
		c0.5,1,1.1,2.1,1.6,3.1c0.2,0.4,0.8,0.4,1,0c0.4-0.8,0.9-1.7,1.3-2.5c0.2,0.3,0.7,0.5,1.1,0.3c0.2-0.1,0.4-0.2,0.7-0.3
		c0.1,0.4,0.2,0.8,0.2,1.2c0.1,0.7,1,0.9,1.2,0.2c0.2-0.7,0.4-1.4,0.6-2.1c1.6-0.2,2.4,1.1,2.5,4c-0.4,0.7,0.4,1.6,1.1,1.1
		c0.4-0.2,0.8-0.5,1.2-0.7c0.1,0.2,0.3,0.4,0.4,0.5c0.1,0.1,0.2,0.2,0.3,0.3c0.1,0.4,0.6,0.8,1,0.6c1.1-0.5,1.3-0.8,2.4-0.1
		c0.4,0.2,0.9,0.1,1.2-0.3c2.8-4.2,8-2.8,11.9-1.6c0.5,0.2,1.2-0.3,1.1-0.9c0.1-0.6,0.3-1.2,0.4-1.7c2,0.7,4.1,1.1,6.2,1.5
		c0.8,0.1,1.3-0.4,1.1-1.1c0-0.4,0-0.8,0-1.2c2,0,4-0.1,6-0.4c0.3,0.4,0.4,0.9,0.3,1.5c-0.1,0.3,0.2,0.6,0.5,0.5
		c1-0.3,1.9-0.8,2.8-1.4c0.3,0.8,0.6,1.5,1.1,2.2c0.2,0.2,0.4,0.3,0.6,0.1c0.4-0.4,0.9-0.8,1.3-1.2c0.3,0.7,0.6,1.3,0.9,2
		c0.1,0.3,0.6,0.3,0.7,0c0.1-0.3,0.3-0.6,0.4-0.8c0.5,0.9,1.2,1.5,2.1,2.1c0.2,0.1,0.5,0,0.6-0.2c0.3-1.3,0.6-2.6,0.9-4
		c0.3,0.4,0.6,0.9,0.9,1.3c0.2,0.2,0.5,0.3,0.6,0c0.4-0.7,0.6-1.3,0.7-2c0.3,0.1,0.5,0.3,0.6,0.6c0.2,0.2,0.5,0.1,0.6-0.1
		c0.4-0.6,0.7-1.1,1-1.7c0.4-0.8,2.2,0.6,2.5,0.8c0.3,0.2,0.8,0,0.6-0.4c-0.1-0.2-0.1-0.4-0.2-0.5c1.3,0.5,2.6,0.8,3.9,0.8
		C362.2,221.4,362.4,221,362.2,220.8z M45.9,194.7c0.4,0.1,0.9-0.5,0.7-0.9c-0.1-0.3-0.3-0.7-0.4-1c1,0,1.8-0.3,2.7-1
		c0.5,0.1,0.9,0.2,1.4,0.3c-0.9,1.7-1.8,3.4-2.7,5.1c-0.7-0.9-1.5-1.7-2.3-2.5C45.6,194.7,45.7,194.7,45.9,194.7z M203.2,217
		c-0.4-0.5-0.8-0.9-1.2-1.4c0.7,0.1,1.4,0.1,2,0.2C203.8,216.2,203.5,216.6,203.2,217z M169.5,157.4c-0.3,1.4-0.7,2.7-1.1,4.1
		c-0.6-0.9-1.2-1.9-1.7-2.8C167.5,158.2,168.6,157.5,169.5,157.4z M140.3,151c-0.3,0.8-0.6,1.6-1,2.4c-0.5-0.6-1-1.3-1.4-1.9
		C138.7,151.4,139.5,151.2,140.3,151z M139.8,146c-0.5,0.5-1,1-1.5,1.5c-0.1-0.3-0.2-0.7-0.3-1C138.6,146.4,139.1,146.3,139.8,146z
		 M136.7,148.9c-0.1,0.1-0.2,0.2-0.3,0.2c-0.1-0.2-0.2-0.3-0.3-0.5C136.3,148.7,136.5,148.8,136.7,148.9z M110,179.7
		c0.2,0.1,0.4,0.1,0.5,0.2c-0.2,0.3-0.4,0.6-0.6,0.8c-0.2-0.3-0.4-0.6-0.6-0.9C109.5,179.7,109.8,179.7,110,179.7z M110.7,197.1
		c-0.1,0.1-0.2,0.2-0.3,0.3c-0.1-0.1-0.2-0.2-0.2-0.3C110.3,197.1,110.5,197.1,110.7,197.1z M110.9,182.1c0.4-0.1,0.8-0.2,1.3-0.3
		c-0.2,0.4-0.4,0.9-0.6,1.3C111.3,182.8,111.1,182.5,110.9,182.1z M272.1,149.7c0,0,0,0.1,0.1,0.1
		C272.1,149.8,272.1,149.7,272.1,149.7z M272.5,150.4c0,0,0,0.1,0.1,0.1C272.5,150.4,272.5,150.4,272.5,150.4z M271.3,144.9
		C271.3,144.9,271.3,144.9,271.3,144.9c0-0.1,0.1-0.1,0.6,0C271.7,145,271.5,145,271.3,144.9z M232.3,179.9c-0.5,1-1,1.9-1.5,2.9
		c-0.7-0.9-1.4-1.9-2-2.8C230,179.9,231.1,179.9,232.3,179.9z M229.3,194.3c-0.3,0.6-0.6,1.2-0.9,1.8c0,0,0,0,0,0.1
		c-0.7-0.8-1.4-1.6-1.9-2.6C227.5,193.8,228.4,194,229.3,194.3z M259.5,219c-0.5,0.9-0.9,2.1-1.2,3.3
		C258.6,221.1,258.9,219.9,259.5,219z M272,144.9c-0.2-0.5,0.2-0.3,0.5-0.2C272.4,144.8,272.2,144.8,272,144.9z M273.1,144.4
		C273.1,144.4,273.1,144.4,273.1,144.4c-0.1,0-0.1,0-0.1,0c-0.2,0-0.3-0.2-0.5-0.5C272.7,144,272.9,144.2,273.1,144.4z M229.4,174.2
		c-0.1,0.2-0.1,0.3-0.2,0.5c-0.1-0.2-0.2-0.3-0.3-0.5C229.1,174.2,229.3,174.2,229.4,174.2z M228.1,176.5c-0.3,0.4-0.6,0.7-0.9,1
		c-0.4-0.6-0.8-1.1-1.1-1.7C226.7,176,227.4,176.3,228.1,176.5z"/>
	<path opacity="0.1" d="M363.4,220.8c-1.6-1.4-2.9-3-4-4.8c1-0.2,1.8-0.2,2.8,0c0.3,0.1,0.5-0.2,0.4-0.5c-0.7-1.3-1.4-2.6-2.1-3.9
		c-0.9-0.2-1.7-0.1-2.1,0.7c-0.3,0.6-1.1,0.6-1.6,0.2c-0.9-0.8-1.5-1.6-2-2.5c-0.1,0.1-0.2,0.1-0.3,0.2c-0.6,0.4-1.2,0-1.5-0.6
		c-0.5-1.2-0.9-2.5-1.3-3.7c-0.4,0.3-0.8,0.5-1.2,0.8c-0.5,0.4-1.3,0-1.5-0.6c-0.4-1.6-0.5-3.3-0.7-4.9c-0.5,0.4-0.9,0.7-1.4,1.1
		c-0.8,0.7-1.8,0-1.7-1c0.3-1.9,1.1-4,0.9-6c-0.4,0.2-0.8,0.4-1.2,0.6c-0.8,0.5-1.6-0.3-1.5-1.1c0.5-3.2,2.3-5.9,2.5-9.1
		c-0.1,0-0.2,0.1-0.2,0.1c-0.5,0.1-1.2-0.2-1.2-0.7c-0.5-3.5,1.3-6.4,1.7-9.8c-0.5,0-0.9-0.5-0.9-1c0-2.8,0.8-5.4,1.3-8
		c-0.5-0.1-0.9-0.7-0.7-1.2c0.9-3.1,2-6.2,2.9-9.3c0-0.1,0-0.2,0-0.2c0-0.2-0.2-0.3-0.4-0.3c-0.1-0.4-0.7-0.4-0.7,0.1
		c-0.1,2.5-0.2,5.2-1.4,7.4c-1.3,2.4-3.6,3.3-5.7,5c-0.2,0.2-0.1,0.5,0.1,0.6c0.8,0.6,1.5,0.9,2.4,1c-0.7,1.1-1.4,2.2-2.1,3.4
		c-0.2,0.3,0.1,0.6,0.3,0.6c0.6,0.1,1.3,0.1,1.9,0c-0.9,2.1-2.6,3.7-4.8,4.6c-0.3,0.1-0.2,0.7,0.1,0.8c1.1,0.2,2.3,0.2,3.4,0.1
		c-1.4,2.7-3.2,5.1-5.5,7.1c-0.3,0.3,0,0.8,0.4,0.7c0.7-0.1,1.4-0.2,2.2-0.3c-0.6,1.3-1.4,2.6-2.2,3.8c0,0,0,0,0,0.1
		c-0.1-0.1-0.2-0.2-0.3-0.3c-0.1,1-0.3,2-0.6,3c-0.1,0.3-0.3,0.5-0.6,0.6c0,3.2,1,6.4,1.4,9.6c0.1,0.5-0.4,0.9-0.9,1
		c0.5,3.3,1,6.7-1.4,9.2c-0.4,0.5-1.3,0.4-1.6-0.2c-0.6-1-0.4-1.7-1.4-1.3c-0.5,0.2-1.1-0.2-1.2-0.7c-0.3-1.3-0.5-2.6-0.9-3.9
		l-0.6,0.3c-0.8,0.4-1.7-0.3-1.5-1.1c0.5-2.4,1.5-4.6,2.1-6.9c-0.4,0.1-0.7,0.2-1.1,0.3c-0.6,0.2-1.3-0.3-1.3-1
		c0.1-1.9,2-7.6-1.5-6.3c-0.7,0.3-1.4-0.5-1.2-1.2c0.5-1.6,1.2-3.1,1.7-4.7c-0.7,0.2-1.3,0.5-2,0.7c-0.8,0.2-1.3-0.5-1.2-1.2
		c0.3-2.1,3-8.3-0.3-8c-0.7,0.1-1-0.7-1-1.3c0.2-1.4,2.4-8.5-0.5-8.2c-0.5,0-1-0.5-1-1c0.1-0.8,1.3-6.5,0-6.3
		c-0.6,0.1-1.3-0.3-1.3-1c0.5-4.5,0.4-9,0.7-13.5c-1,1.5-1.7,3-2.1,4.8c0,0,0,0,0,0c-1.5,6-3.7,11.6-6.9,16.8c0.1,0.3,0.1,0.5,0,0.8
		c1.9,3.3,3.9,6.6,5.5,10.1c0.3,0.6,0,1.5-0.9,1.5c-0.7,0-1.4-0.1-2.1-0.2c0.4,0.6,0.8,1.1,1.2,1.7c0.5,0.7-0.2,1.6-1,1.5
		c0.2,0.4,0.3,0.8,0.5,1.3c0.3,0.5,0.1,1-0.4,1.3c0.6,1.8,1.5,3.4,2.4,5.2c0.4,0.7-0.2,1.8-1.1,1.5c1.5,3.3,3.6,6.3,5.3,9.5
		c0.4,0.7-0.1,1.4-0.9,1.5c-0.7,0.1-1.4,0.1-2.1,0.1c0.7,1,1.4,1.8,2.3,2.7c0.7,0.7,0,2-1,1.7c-0.3-0.2-0.7-0.3-1-0.4
		c0.2,0.8,0.4,1.6,0.8,2.4c0.2,0.6-0.4,1.3-1,1.3c-1.7,0-1.4,0-1.3,1.8c0.1,0.7-0.9,1.3-1.5,0.9c-1.6-1.2-3.3-2.3-5-3.4
		c-0.1,0.6-0.2,1.2-0.3,1.8c-0.1,1.2-1.5,1.3-2,0.3c-0.2-0.3-0.3-0.6-0.5-0.9c-0.3,0.3-0.6,0.7-0.8,1.1c-0.4,0.6-1.6,0.3-1.7-0.4
		c0-0.3-0.1-0.7-0.1-1c-1.1,1-2.3,1.8-3.9,2.4c-0.6,0.2-1.3-0.4-1.3-1c0.1-1.2,0.3-2.3,0.6-3.4c-1.9,1.4-4,2.5-6.4,3.1
		c-0.7,0.2-1.5-0.5-1.2-1.2c0.7-1.9,1.4-3.7,2.3-5.4c-0.9,0.4-1.8,0.8-2.8,1.2c-0.8,0.3-1.6-0.8-1.1-1.5c1.9-2.8,4.3-5.7,5.7-8.9
		c-0.4-0.2-0.6-0.5-0.6-0.9c0.1-3.8,0.9-7.5,1-11.3c0-0.7,0.5-1,1-1c-0.9-3.6-2.1-7-3.2-10.5c-0.2-0.6,0.1-1,0.6-1.1
		c-0.8-1.9-1.6-3.7-2.3-5.6c-0.3-0.9,0.8-1.5,1.5-1.1c1.2,0.7,2.4,1.5,3.5,2.3c-1-4.3-2.2-8.6-3.1-12.9c-2.4,1.9-4.7,3.9-7.3,5.6
		c-0.7,0.5-1.7-0.3-1.5-1.1c1.1-3.3,2.2-6.6,3.1-9.9c-0.2,0.2-0.4,0.4-0.7,0.6c-0.7,0.6-2,0-1.7-1c1.4-4.6,4.8-8.8,5.2-13.6
		c-0.5,0.7-1.9,0.3-1.8-0.6c0.6-4.7,3-9.6,2.8-14.4c0-1-0.4-2-0.8-3.1c-0.3-0.2-0.6-0.5-1-0.6c-0.5-0.2-0.9,0.3-1,0.7
		c-0.6,7.9-4.7,15.3-9.3,21.5c-0.3,0.4,0,1,0.4,1.1c0.6,0.3,1.2,0.4,1.8,0.3c-1.1,2.7-2.6,5.2-4.7,7.3c-0.6,0.7,0.4,1.8,1.1,1.1
		c1.3,0.6,1.5,1.5,0.6,2.5c-0.1,0.2-0.2,0.4-0.4,0.6c-0.4,3.3-0.5,6.6-1.8,9.8c-0.9,2.1-1.8,4.1-2.7,6.1c0.5-0.4,1-0.8,1.5-1.2
		c0.8-0.7,2.2,0.2,1.6,1.2c-1.6,2.5-3.5,4.7-5.3,7c0.4-0.2,0.8-0.4,1.1-0.6c0.9-0.5,1.8,0.5,1.4,1.4c-1.6,3.5-3.9,6.7-5.1,10.4
		c-2,6.1,7.2,1.5,9.7,0.2c0.7-0.4,1.8,0.2,1.5,1.1c-0.6,1.5-1.2,3.1-1.8,4.6c1.1-0.4,2.2-0.7,3.3-1.1c0.9-0.3,1.5,0.7,1.1,1.5
		c-3,6.6-4.9,13.6-9.7,19.2c-0.5,0.6-1.8,0.1-1.7-0.7c0-0.3,0.1-0.6,0.1-0.8c-0.5,0.4-1.1,0.9-1.6,1.3c-0.6,0.5-1.4,0.3-1.7-0.4
		c-0.5-1.2-0.8-2.4-1.2-3.5c-0.6,0.6-1.2,1.3-1.9,2c-0.5,0.6-1.5,0.3-1.7-0.4c-0.3-1.2-0.5-2.4-0.8-3.6c-0.9,0.9-1.8,1.6-3.3,1.8
		c-0.7,0.1-1.2-0.3-1.3-1c-0.1-2.3,1.4-7.3-3-4.4c-0.6,0.4-1.5-0.1-1.5-0.9c0-0.9,0.1-1.8,0.2-2.6c-0.9,0.4-1.8-0.4-1.4-1.4
		c0.5-1.2,1-2.3,1.5-3.5c-0.7,0.6-1.9-0.1-1.6-1c0.9-2.4,2.2-4.8,2.5-7.4c-1.1,0.7-2.1,1.5-3.2,2.3c-0.8,0.5-1.6-0.3-1.5-1.1
		c0.4-2.6,1.5-5.3,1.2-7.9c-1.2,0.7-2.4,1.3-3.8,1.7c-0.6,0.2-1.2-0.3-1.3-1c0-1.9,0.5-3.5,0.9-5.3c-0.7,0.5-2,0-1.6-1
		c0.6-2,1.5-3.8,2.2-5.8c-0.7,0.3-1.4,0.5-2.2,0.7c-0.7,0.2-1.5-0.5-1.2-1.2c1.3-3.7,3.4-6.8,5.6-10c0.4-0.6,6-10.1,4.4-10.2
		c-3-0.2-3-3.5-2.7-6.1c-1,0.3-1.9,0.6-3,0.7c-0.5,0.1-1.1-0.1-1.2-0.7c-0.7-3.8,2.2-6.1,3-9.5c-1.8,0.3-3.4,0.5-5.3,0.5
		c-0.8,0-1.2-0.8-0.9-1.5c0.8-1.7,8.2-17.1,5.8-18c-0.5-0.2-0.8-0.6-0.7-1.2c1.1-5.3,3.9-10.6,4-16c0-2.2-0.1-4.3-0.2-6.4
		c-0.6,1.9-1.4,3.8-2.4,5.5c-2,3.5-4.5,6.7-7.5,9.4c-0.1,0.1-0.1,0.2-0.1,0.3c0,0,0,0,0,0l0,0c0,0.3,0.3,0.5,0.6,0.5
		c0.8-0.2,1.5-0.4,2.3-0.6c-0.7,1.2-1.4,2.4-2.1,3.6c0,0.1-0.1,0.2-0.1,0.2c0,0,0,0,0,0c0,0,0,0,0,0c0,0.3,0.2,0.5,0.5,0.5
		c0.8,0,1.5-0.1,2.3-0.1c-3.4,8-7.8,15.6-13.1,22.6c-0.3,0.3,0.1,0.7,0.4,0.8c1.4,0.1,2.8,0.3,4.3,0.4c-0.6,0.7-1.1,1.5-1.7,2.2
		c-0.4,0.6,0.5,1,0.9,0.5c0.3,0.8,0.1,1.4-0.6,1.8c-0.3,0.3-0.1,0.8,0.2,0.9c0.7,0.2,1.4,0.4,2,0.6c-0.6,1.2-1.5,2.9-1.7,4.4
		c-0.1,0.1-0.1,0.3-0.2,0.4c0,0.3,0.1,0.6,0.2,0.9c0.2,0.6,0.5,1,1.3,1.4c-1.8,4.4-4.2,8.6-7.1,12.4c-0.2,0.3,0,0.7,0.3,0.8
		c1.7,0.5,3.3,0.4,4.9-0.2c-1.1,4-2.8,7.8-5,11.3c-0.2,0.3-0.5,0.6-0.7,1c-0.7,6.4-2,12.8-5.9,17.9c-0.5,0.7-1.6,0.7-1.8-0.2
		c-0.4-1.5-0.1-1.7-1-1.3c-0.6,0.2-1.3-0.4-1.3-1c0.1-1.4,0.4-2.7,0.6-4.1c-0.3-0.2-0.6-0.5-0.6-0.9c0.1-4.6-2.9-10.7-4.9-14.9
		c-0.5-1.1-0.3-2.6-0.1-3.8c0.5-2.6,0.8-5,0.3-7.7c-0.7-4.1,0.1-8.2-0.4-12.3c-0.2-1.9-0.3-3.9-0.3-5.8c-1.3,5.2-3.9,9.9-7.5,13.8
		c-0.4,0.4,0.1,0.9,0.6,0.7c0.5-0.2,0.9-0.5,1.4-0.7c-1,2.5-2.6,4.8-3.6,7.2c-0.2,0.5,0.2,0.8,0.6,0.6c0.9-0.4,2.1-1.2,3.2-1.4
		c-1.8,7-4.4,13.8-7.9,20.2c-0.2,0.4,0.1,0.8,0.5,0.7c0.9-0.3,1.8-0.7,2.6-1.1c-0.2,0.4-0.4,0.8-0.7,1.1c-0.3,0.4,0,0.9,0.5,0.8
		c0.5-0.1,0.9-0.2,1.3-0.4c-1,2.7-2.5,5.3-4.3,7.5c-0.3,0.3-0.1,0.8,0.3,0.8c1.3,0,2.6,0,3.8-0.1c-0.3,1.5-0.8,2.9-1.4,4.3
		c-0.2-0.1-0.5-0.3-0.7-0.4c-1,2.5-1.5,5.2-2.2,7.8c0.6-0.4,1.6,0,1.6,0.8c-0.3,4.2-0.1,8.4-0.2,12.6c0,0.8-1.1,1.4-1.7,0.7
		c-0.3-0.3-0.6-0.6-0.9-0.9c0,0.3-0.1,0.6-0.1,1c-0.1,0.7-1.2,1-1.7,0.4c-0.6-0.6-1-1.3-1.4-1.9c-0.1,1.2-0.3,2.5-0.9,3.6
		c-0.4,0.7-1.3,0.6-1.7,0c-0.5-0.8-0.9-1.6-1.3-2.4c0,0,0,0.1,0,0.1c-0.1,0.6-1,0.9-1.5,0.6c-1.9-1.3-3.1-3-4.4-4.7
		c-0.3,1.7-0.4,3.5-0.6,5.2c-0.1,0.7-1.2,1-1.7,0.4c-1.2-1.5-2-3.1-2.9-4.8c-0.4,0.4-0.7,0.8-0.9,1.5c-0.3,0.8-1.4,1-1.8,0.2
		c-0.2-0.3-0.3-0.7-0.5-1c-0.3,0.5-1.1,0.9-1.6,0.3c-1-1.2-1.6-2.3-2.1-3.6l-0.5,0.4c-0.5,0.5-1.5,0.3-1.7-0.4c-0.7-2.9,0-5.2,1-7.7
		c-0.2,0.1-0.5,0.2-0.8,0.2c-0.8,0.3-1.3-0.5-1.2-1.2c0.5-3,2-5.6,2.8-8.5c-0.1,0-0.2,0.1-0.4,0.1c-0.7,0.2-1.5-0.5-1.2-1.2
		c0.5-1.4,1.1-2.7,1.8-4c0.9-1.7,3.1-4-1.1-3.4c-0.7,0.1-1.5-0.4-1.2-1.2c0.3-0.9,3.9-7.6,1.2-7.1c-0.8,0.1-1.4-0.4-1.2-1.2
		c1.8-10.3,3.3-20.7,2.7-31.2c-0.1-0.2-0.2-0.3-0.2-0.6c0-0.3-0.1-0.7-0.1-1c-0.1,0.1-0.3,0.2-0.4,0.3c-0.2,0.2-0.2,0.4-0.1,0.5
		c-1.2,5-3.7,9.6-7.2,13.4c-0.3,0.4,0.1,0.9,0.5,0.7c0.4-0.2,0.8-0.4,1.3-0.6c-0.6,1.6-1.5,3.1-2.4,4.7c0.1,0.2,0.1,0.3,0,0.5
		c0,0,0,0,0,0.1c0.1,0.7,0,1.4-0.2,2c0.8-0.4,1.8-1.1,2.7-1.2c-0.3,1.4-0.7,2.7-1.1,4.1c-0.1-0.2-0.2-0.3-0.3-0.5
		c-3.5,5-5.4,10.7-7.2,16.5c0.3-0.3,0.6-0.6,0.9-1c0.7-0.7,1.9,0,1.7,1c-1,3.5-2.2,6.8-3.9,9.9c0.8-0.6,1.5-1.2,2.2-1.8
		c0.7-0.6,2-0.1,1.7,1c-0.5,1.7-1.1,3.4-1.7,5.1c0.3,0.2,0.5,0.5,0.5,0.8c0.4,5,1.5,9.8,1.5,14.8c0,1-1.4,1.4-1.9,0.5
		c-0.2-0.4-0.5-0.8-0.7-1.2c-0.1,0.1-0.2,0.3-0.3,0.4c-0.4,0.5-1.4,0.8-1.7,0c-0.1-0.3-0.3-0.6-0.4-0.9c-0.6,1.2-1.1,2.3-1.8,3.4
		c-0.4,0.7-1.6,0.7-1.8-0.2c-0.2-1.1-0.3-2.1-0.2-3.1c-1.4,0.8-2.5,1.8-3.8,2.8c-0.6,0.5-1.8,0.3-1.7-0.7c0.1-1.9,0.4-3.7,0.8-5.6
		c0,0,0,0,0,0c-0.7,0.4-1.5-0.1-1.5-0.9c0-1.7,0.2-3.3,0.6-4.9c-0.6,0-1.2-0.5-1-1.2c0.3-1.6,0.9-2.9,1.5-4.3c-0.5,0-1,0.1-1.5,0.1
		c-0.8,0.1-1.2-0.9-0.9-1.5c1.6-2.7,4.2-4.8,5.6-7.7c-0.7,0.3-1.3,0.5-2,0.8c-0.9,0.3-1.5-0.7-1.1-1.5c0.9-1.9,4.2-5.1,4.9-7.4
		c-0.1-0.2-0.2-0.5-0.1-0.8c2.8-7.7,2.8-14.8,0.7-22.6c-1.2-4.6-3.1-9.2-3.7-13.9c-0.5-4.2-1.3-9.9-0.7-14.9
		c-0.2,0.1-0.3,0.2-0.4,0.4c-2.5,4.7-5.8,8.8-9.6,12.5c-0.3,0.3-0.3,1,0.2,1.2c0.7,0.3,1.3,0.5,2,0.6c-0.2,0.5-0.4,1.1-0.5,1.7
		c-0.1,0.7,0.5,1.2,1.2,0.9c0.4-0.2,0.8-0.3,1.2-0.5c-0.8,1.4-1.7,2.8-2.6,4c0.1,1,0.2,2-0.1,3c-0.7,2.8-2.3,5.5-2.4,8.4
		c-0.2,3.6-0.7,5.7-4.1,7.5c-0.7,0.4-1.4-0.1-1.5-0.9c-0.2-2.6-4.2-1.7-4.5-4.6c-0.2-1.9,2.9-8.4,0.5-9.2c-0.6-0.2-0.8-0.7-0.7-1.2
		c0.3-1.6,2.6-7.1,1.2-8c-0.9-0.6-1.3-1.1-1.7-2.1c-0.3-0.8-0.5-1.6-0.5-2.5c-2.5,7.8-7.3,14.7-13.7,19.8c-0.6,0.5-0.1,1.4,0.6,1.4
		c0.7,0,1.3,0,2-0.1c-0.1,0.1-0.1,0.3-0.2,0.4c-0.5,0.6,0.2,1.8,1,1.2c-0.6,0.4-1.2,1.9-1.7,2.5c-0.9,1.1-1.7,2.3-2.6,3.4
		c-0.4,0.6,0.3,1.2,0.8,1.1c0.7-0.1,1.4-0.3,2.1-0.4c-1.2,3.7-3,7.2-5.4,10.3c0,0-0.1-0.1-0.1-0.1c-0.1,1.3-0.2,2.7,0.1,4.1
		c0.6,2.6,1.1,5.1,1.4,7.8c0.1,0.1,0.1,0.3,0.1,0.5v1.3c0,0.3-0.1,0.6-0.3,0.7c-0.5,3.4-1,6.7-2.2,10c0,0,0.1,0,0.1,0
		c-0.1,0.1-0.1,0.1-0.2,0.2c-0.2,0.5-0.4,0.9-0.6,1.4c-0.2,0.5-0.9,0.6-1.3,0.3c-1,1.9-2.1,3.7-3.6,5.4c-0.5,0.5-1.5,0.3-1.7-0.4
		c-0.2-1.3-0.3-2.5-0.3-3.7c-0.3,0.3-0.7,0.6-1,0.9c-0.7,0.6-1.6,0.2-1.7-0.7c-0.2-1.6,0-3,0.1-4.5c-0.4,0.1-0.8,0.3-1.6,0.7
		c-0.9,0.4-1.9-0.4-1.4-1.4c0.9-1.6,2-3.1,2.7-4.8c-0.8-0.1-1-1.1-0.6-1.7c1.2-1.5,2.4-2.8,3.1-4.4c-0.3,0.1-0.6,0.2-0.9,0.3
		c-0.7,0.3-1.5-0.5-1.2-1.2c0.6-1.5,3.5-6.4,1.5-6.8c-0.6-0.1-1.3-0.9-1.4-1.5c-0.4-2.8,1-5.4,1.3-8.2c-0.1,0-0.1,0-0.2,0
		c-0.8,0.1-1.4-0.4-1.2-1.2c0.3-1.4,0.8-2.7,1-4.1c0,0,0,0-0.1,0c-1,0.4-1.8-0.4-1.4-1.4c1.4-3.4-0.5-7.8-0.7-11.5
		c-0.2-2.9-0.3-5.6,0.1-8.4l-0.5,0.4c-0.2,0.2-0.2,0.4-0.1,0.5c-1.2,5-3.7,9.6-7.2,13.4c-0.3,0.4,0.1,0.9,0.5,0.7
		c0.4-0.2,0.8-0.4,1.3-0.6c-0.9,2.4-2.4,4.4-3.4,6.8c-0.2,0.4,0.2,0.8,0.6,0.6c0.8-0.4,2-1.2,3-1.3c-0.4,1.7-0.9,3.4-1.5,5.1
		c-0.1-0.1-0.2-0.2-0.4-0.2c-0.6,1.3-1.4,2.5-2.2,3.7c0.5-0.2,0.9-0.4,1.4-0.6c1-0.4,1.5,1,1,1.7c-1.5,1.8-2.3,3.9-3,6.1
		c1.1-0.4,2.2-0.8,3.4-1.2c1-0.3,1.6,0.9,1,1.7c-1.6,1.8-3.1,3.7-4.5,5.6c0.2,0.3,0.2,0.7,0,1c-1.6,2.3-3.3,4.5-4.8,6.9
		c1.2-0.7,2.4-1.4,3.6-1.9c0.9-0.4,1.9,0.4,1.4,1.4c-1.3,2.4-5.5,6.9-5.4,10.1c1.2-0.7,2.5-1.5,3.8-2.1c0.6-0.3,1.5,0.1,1.5,0.9
		c-0.1,3.3-0.5,7.2-2.6,9.8c-0.5,0.6-1.4,0.2-1.7-0.4c-0.1-0.3-0.2-0.7-0.3-1c-0.5,1-1,1.9-1.7,2.8c-0.5,0.6-1.4,0.2-1.7-0.4
		c-0.1-0.2-0.1-0.4-0.2-0.6c-0.8,0.8-1.7,1.5-2.6,2.2c-0.8,0.6-1.8,0.1-1.7-0.9c-0.1,0.1-0.3,0.3-0.4,0.4c-0.8,0.8-1.8,0-1.7-1
		c0.2-1,0.3-1.9,0.3-2.9c-1.7,1-2.9,2.5-4.2,4.1c-0.7,0.8-1.9-0.1-1.7-1c0.2-0.8,0.4-1.6,0.6-2.5c-0.6,0.7-1.3,1.4-2,2
		c-0.7,0.6-1.6,0.2-1.7-0.7c-0.2-3.1,0.9-5.9,1.5-8.8c-0.7,0.8-1.3,1.7-2.1,2.4c-0.8,0.8-1.8,0-1.7-1c0.4-3,1.7-5.8,2-8.8
		c-1.3,0.8-2.1,1.9-3.1,3.2c-0.6,0.8-2-0.1-1.7-1c0.6-1.6,1.2-3.1,1.8-4.7c-0.7,0.2-1.4,0.4-2.2,0.5c-0.8,0.1-1.4-0.4-1.2-1.2
		c0.3-1.5,0.8-2.9,1.3-4.3c-0.2,0-0.4,0.1-0.6,0.1c-0.9,0.2-1.5-0.6-1.1-1.5c1.3-2.8,3.7-5,4.9-7.8c-1,0.3-2,0.7-2.9,1.2
		c-0.7,0.3-1.8-0.2-1.5-1.1c1.4-3.3,4.2-5.9,5.4-9.3h-1.7c-0.8,0-1.2-0.8-0.9-1.5c0.7-1.5,1.4-2.8,1.9-4.3c-0.7-0.1-1.3-0.2-2-0.3
		c-0.8,0-1.2-0.8-0.9-1.5c1-2,2.5-3.8,3.4-5.8c-0.2-0.1-0.5-0.1-0.7-0.2c-0.5-0.2-0.8-0.7-0.7-1.2c0.4-2.1,1.7-4,2.6-5.9
		c0.7-1.4,1.6-2.8,1.9-4.3c0.4-1.5-2.7-1.7-3.4-1.9c-0.5-0.2-0.9-0.7-0.7-1.2c1.6-5.4,4-11,4.1-16.7c0.1-4.8-0.6-9.7-0.4-14.5
		c0.1-1.3-0.2-6.3,0.6-9.3c-0.2,0-0.4,0.2-0.5,0.5c-0.4,6.6-2.1,12.9-5,18.8c-0.3,0.6,0.5,1.3,1,0.7c0,0,0.1-0.1,0.1-0.1l0,0
		c0,0,0,0,0,0c0.4-0.5,0.8-0.9,1.4-1.1c-1.1,2.4-2.1,4.8-3.2,7.3c-0.2,0.5,0.3,1.2,0.8,0.8c0.4-0.1,0.7-0.3,1.1-0.4
		c-2.5,6.2-5.9,11.9-10.1,17.1c-0.3,0.4-0.2,1.2,0.5,1.1c1.9-0.2,3.9-0.4,5.8-0.6c-1.9,2.9-3.8,5.9-5.7,8.8c-0.3,0.5,0.2,1.1,0.7,1
		l0.5-0.1c-0.4,0.9-0.9,1.6-1.6,2.4c-0.4,0.5,0,1.2,0.6,1.1c0.1,0-1.9,3.4-2.1,3.7l-1.9,2.8c-1.5,2.2-2.9,4.4-4.4,6.6
		c-0.3,0.4,0.1,1,0.6,1c2.3-0.1,4.5-0.2,6.8-0.3c-1.8,4.6-4.1,8.9-6.9,13c-0.3,0.4,0.1,1,0.5,1c1.4-0.2,2.8-0.3,4.2-0.5
		c-0.9,2.6-2,5-3.4,7.3c0.2,0.2,0.3,0.4,0.3,0.7v1.7c0.2-0.1,0.4-0.3,0.6-0.4c0.5,0.1,0.9,0.2,1.4,0.3c-0.7,1.4-1.5,2.8-2.2,4.2
		c-0.7,1.5-1,3.2-2,4.7c-0.2,0.4-0.5,0.7-0.8,1.1c0.4,0.2,0.6,0.7,0.5,1.1c-0.4,1.2-0.9,2.5-1.5,3.6c-0.1,0.2-0.4,0.6-0.5,0.9
		c0.1,0.4-0.1,0.7-0.5,0.9c-0.1,0-0.1,0.1-0.2,0.1c-0.7,0.3-1.5-0.1-1.5-0.9c0,0,0,0,0-0.1c-0.2-0.2-0.3-0.3-0.5-0.5
		c-0.1,0.3-0.3,0.6-0.4,1c-0.3,0.7-1.4,1.1-1.8,0.2c-0.4-0.7-0.7-1.4-1.1-2c-0.5,1-1,1.9-1.8,2.7c-0.5,0.6-1.5,0.3-1.7-0.4
		c-0.3-1-0.5-2.1-0.8-3.1c-0.3,0.3-0.7,0.7-1,1c-0.8,0.7-1.8,0-1.7-1c0.2-1.4,0.4-2.8,0.6-4.2c-0.4,0.1-0.7,0.3-1.1,0.4
		c-0.9,0.3-1.5-0.7-1.1-1.5c0.6-1.2,1.4-2.3,2.1-3.5c1-1.5,2.9-3.3,0-3.3c-0.7,0-1.1-0.6-1-1.3c0.4-1.4,4.2-10.5,3-10.5
		c-0.5,0-1.1-0.5-1-1c0.2-2.1,2.1-5.9,0.9-7.7c-1-1.4,0.5-4.3,0.6-6c0.2-4.9,0-9.7,0.4-14.5c-0.3-0.4-1-0.3-1.2,0.3
		c-0.4,1-0.6,1.9-0.6,2.9c-0.1,0.1-0.2,0.2-0.2,0.3c-1,4.8-3,9.1-5.9,13c-0.2,0.3,0,0.9,0.4,0.9c0.5,0.1,1,0.1,1.5,0
		c0,1.7-1.4,4.8-3.8,8.7c-0.2,0.4,0.1,1,0.6,1c0.6-0.1,1.1-0.2,1.5-0.3c-0.6,2.4-1.8,4.4-3.6,6.1c-0.3,0.3-0.2,0.7,0,0.9
		c0.5,0.6,1,0.9,1.7,1.1c-0.2,0.7-0.5,1.4-1.1,2c-0.2,0.2-0.3,0.7,0,0.9c0.5,0.4,0.9,0.7,1.5,0.9c-1.9,3.6-3.9,7.1-6.2,10.4
		c-0.4,0.5,0.2,1.1,0.8,1c1.5-0.3,3-0.6,4.4-0.9c-2,4.5-5.7,8.1-10.3,10c-0.6,0.2-0.7,1.1,0,1.3c1.4,0.5,2.7,0.7,4,0.8
		c-0.6,0.8-1.3,1.4-2.2,2c-0.5,0.3-0.4,1,0.2,1.2c0.4,0.1,0.8,0.2,1.2,0.3c-1,0.9-2.1,1.7-3.3,2.3c-0.6,0.3-0.3,1.1,0.3,1.2
		c4.2,0.4,8.2-0.3,11.9-2.1c0.1,0.4,0.2,0.9,0.3,1.3c0.1,0.5,0.9,0.6,1.2,0.2c0.3-0.5,0.6-1,0.9-1.5c0.3,0.7,0.6,1.4,0.9,2.1
		c0.2,0.5,0.9,0.7,1.2,0.2c0.4-0.8,0.7-1.6,1.1-2.4c0.9,1,2,1.7,3.5,2.1c0.4,0.1,0.8-0.1,0.9-0.5c0.2-1,0.4-2,0.4-3
		c3.7,1.3,7.5,2.4,11.3,3.3c0.7,0.2,1.2-0.7,0.7-1.2c-0.8-0.9-1.6-1.8-2.3-2.7c0.9-0.2,1.8-0.5,2.7-0.8c0.2,0,0.3,0,0.5,0
		c-0.1,0.2-0.2,0.5-0.3,0.7c-0.3,0.7,0.7,1,1.1,0.6c0.2-0.2,1.1-0.8,2-1.3c0.8,0,1.7,0,2.5,0c0.5,1,1.1,2,1.8,3
		c0.2,0.3,0.8,0.5,1,0.1c0.3-0.5,0.7-0.8,1.1-1c0.2,1.3,0.6,2.5,1.2,3.7c0.3,0.5,0.9,0.4,1.2,0c0.6-0.8,1.1-1.6,1.7-2.4
		c0.5,2.4,1.1,4.8,1.6,7.1c0.1,0.4,0.6,0.6,1,0.4c1.6-1,2.8-2.2,3.7-3.7c0.3,0.5,0.5,1,0.8,1.5c0.2,0.5,1,0.5,1.2,0
		c0.5-1.2,1.1-2.4,1.6-3.6c0.8,0.7,1.6,1.4,2.3,2.1c0.4,0.3,0.8,0.2,1.1-0.1c0.9-1.2,1.6-2.5,2.1-3.9c1.5,1.1,3.1,2,5,2.5
		c0.5,0.2,1-0.4,0.9-0.9c-0.7-2.9,2.2-4.9,4.5-3.3c-1.3,1.9-3,3.6-4.9,4.9c-0.5,0.3-0.2,0.9,0.4,0.9c1.7-0.3,3.2-0.8,4.7-1.6
		c-0.1,0.4-0.2,0.9-0.2,1.3c-0.1,0.4,0.5,0.8,0.8,0.5c0.7-0.8,1.4-1.3,2.3-1.8l0.5,1.9c0.1,0.3,0.5,0.5,0.8,0.2
		c0.6-0.6,1.3-1.2,2-1.7c0.5-0.4,1.1-0.6,1.8-0.6c0.3,0,1.7,0.2,1.7,0.4c0,0.3,0.4,0.6,0.7,0.4c1.3-0.9,3.3,2.1,4.1,2.9
		c0.2,0.2,0.6,0.2,0.8-0.1c0.4-0.8,0.9-1.5,1.5-2.2c0.9,0.5,2,1.1,3,0.8c0.8-0.3,1.4-0.7,1.7-1.5c1.5,0.4,3,0.5,4.6,0.4
		c0,0.3,0,0.5,0,0.8c0,0.6,0.9,1.1,1.3,0.5c0.4-0.5,0.8-0.9,1.2-1.3c1.1-1.1,1.7,0.5,2.2,1.1c0.2,0.3,0.8,0.3,1,0
		c0.5-0.6,1.1-1.2,1.6-1.9c1.4,2.2,3.3,3.9,5.7,5.1c0.4,0.2,0.9,0,1.1-0.4c0.4-1.3,1-2.4,1.7-3.4c0.6,0.8,1.2,1.6,1.8,2.4
		c0.3,0.4,0.9,0.5,1.2,0c0.3-0.5,0.6-0.9,0.9-1.4c1.7,0.7,3.3,1,5.2,0.8c0.4,0,0.8-0.3,0.7-0.7c-0.2-1.4-0.4-2.7-0.8-4
		c3.6,0.8,7.3,1,11,0.8c0.8-0.1,1.1-1,0.4-1.4c-0.5-0.3-1-0.7-1.4-1.1c0.9,0.1,1.8-0.2,2.5-0.8c0.4-0.3,0.9-0.5,1.3-0.6
		c0.2,0.3,0.6,0.5,1,0.3c0.2-0.1,0.4-0.2,0.6-0.4c0.4,0,0.8,0,1.2-0.1c1.8-0.2,3.4-0.9,4.9-1.8c0.6-0.4,0.5-1.3-0.2-1.5
		c-0.5-0.1-1-0.3-1.5-0.5c0.2-0.3,0.4-0.6,0.6-0.9c0.5,0.6,1.1,1.2,1.6,1.9c0.2,0.3,0.8,0.3,1,0c0.5-0.7,1.2-2.2,2.2-1.1
		c0,0,0.1,0.1,0.1,0.1c-1.4,2.4-3.3,4.5-5.7,6.1c-0.5,0.3-0.2,0.9,0.4,0.9c1.7-0.3,3.2-0.8,4.7-1.6c-0.1,0.4-0.2,0.9-0.2,1.3
		c-0.1,0.4,0.5,0.8,0.8,0.5c0.7-0.8,1.4-1.3,2.3-1.8c0.2,0.6,0.3,1.3,0.5,1.9c0.1,0.3,0.5,0.5,0.8,0.2c0.6-0.6,1.3-1.2,2-1.7
		c0.5-0.4,1.1-0.6,1.8-0.6c0.2,0,0.9,0.1,1.3,0.2c-0.8,0.6-1.7,1.2-2.6,1.7c-0.6,0.3-0.3,1.1,0.3,1.2c2.3,0.2,4.5,0.1,6.6-0.3
		c0.3,0.4,0.6,0.8,0.8,1c0.2,0.2,0.6,0.2,0.8-0.1c0.3-0.6,0.7-1.1,1.1-1.6c0.3-0.1,0.5-0.2,0.8-0.3c0.7,0.4,1.5,0.7,2.2,0.7
		c0.2,0.4,0.9,0.5,1.1,0c0.2-0.3,0.3-0.6,0.5-0.9c0.2-0.2,0.3-0.4,0.4-0.6c0.3,0.7,0.6,1.4,0.9,2.1c0.2,0.5,0.9,0.7,1.2,0.2
		c0.3-0.6,0.6-1.3,0.9-1.9c0.2,0,0.5,0,0.7,0c0.8,0.7,1.8,1.3,3,1.6c0.4,0.1,0.8-0.1,0.9-0.5c0.2-1,0.4-2,0.4-3
		c2.5,0.9,5.1,1.7,7.6,2.4c-0.8,0.7-1.6,1.4-2.5,2c-0.5,0.3-0.2,1,0.4,0.9c1.8-0.3,3.4-0.9,5-1.7c-0.1,0.5-0.2,0.9-0.3,1.4
		c-0.1,0.5,0.5,0.9,0.8,0.5c0.7-0.8,1.5-1.4,2.5-1.9c0.2,0.7,0.3,1.3,0.5,2c0.1,0.4,0.6,0.5,0.8,0.2c0.7-0.7,1.4-1.3,2.2-1.9
		c0.6-0.4,1.2-0.6,1.9-0.7c0.3,0,1.9,0.2,1.9,0.4c0,0.4,0.4,0.7,0.8,0.4c1.4-0.9,3.5,2.2,4.4,3.2c0.2,0.2,0.7,0.2,0.8-0.1
		c0.4-0.9,1-1.6,1.6-2.3c0.8,0.5,1.8,1,2.7,0.9c-0.8,0.8-1.9,1.4-3.1,1.6c-0.7,0.1-0.4,1,0.1,1.1c5.1,0.6,10.1-0.4,14.6-2.9
		c0,0.6,0,1.2,0,1.8c0,0.5,0.6,0.7,0.9,0.4c0.9-0.9,1.8-1.9,2.7-2.8c1.3,1.3,2.5,2.6,3.8,3.9c0.2,0.2,0.5,0.2,0.7,0.1
		c0.5-0.4,1-0.7,1.4-1.1c0.6,0.5,1.2,1,1.7,1.6c0.4,0.3,0.9,0.1,0.9-0.4c0.1-3.3,4.9-0.2,5.9,0.3c1.2,0.5,2.4,0.4,3.4-0.3
		c2.3-1.7,1.4-5.4,3.3-7.2c1,1.2,2.1,2.2,3.2,3.2c-0.7,0.7-1.5,1.3-2.3,1.8c-0.8,0.5-0.3,1.6,0.6,1.4c1.8-0.2,3.7-0.5,5.5-0.7
		c0.2,0.1,0.4,0.2,0.5,0.3c0.3,0.2,0.9,0,0.9-0.5c0,0,0,0,0,0c2.1-0.3,4.2-0.6,6.3-0.9c0.7,1.1,1.5,2.3,2.2,3.4
		c0.3,0.5,1.3,0.6,1.4-0.2c0.4-2,1.4-3.6,2.9-4.7c0.7,1.8,2.2,3,4.2,3.4c0.5,0.1,1-0.2,1-0.7c0-1.4,0.4-2.5,1-3.6
		c1,0.6,2.1,1.2,3.1,1.8c0.3,0.2,0.7,0.1,1-0.1l1-0.8c0.5,1,1.1,2.1,1.6,3.1c0.2,0.4,0.8,0.4,1,0c0.4-0.8,0.9-1.7,1.3-2.5
		c0.2,0.3,0.7,0.5,1.1,0.3c0.2-0.1,0.4-0.2,0.7-0.3c0.1,0.4,0.2,0.8,0.2,1.2c0.1,0.7,1,0.9,1.2,0.2c0.2-0.7,0.4-1.4,0.6-2.1
		c1.6-0.2,2.4,1.1,2.5,4c-0.4,0.7,0.4,1.6,1.1,1.1c0.4-0.2,0.8-0.5,1.2-0.7c0.1,0.2,0.3,0.4,0.4,0.5c0.1,0.1,0.2,0.2,0.3,0.3
		c0.1,0.4,0.6,0.8,1,0.6c1.1-0.5,1.3-0.8,2.4-0.1c0.4,0.2,0.9,0.1,1.2-0.3c2.8-4.2,8-2.8,11.9-1.6c0.5,0.2,1.2-0.3,1.1-0.9
		c0.1-0.6,0.3-1.2,0.4-1.7c2,0.7,4.1,1.1,6.2,1.5c0.8,0.1,1.3-0.4,1.1-1.1c0-0.4,0-0.8,0-1.2c2,0,4-0.1,6-0.4
		c0.3,0.4,0.4,0.9,0.3,1.5c-0.1,0.3,0.2,0.6,0.5,0.5c1-0.3,1.9-0.8,2.8-1.4c0.3,0.8,0.6,1.5,1.1,2.2c0.2,0.2,0.4,0.3,0.6,0.1
		c0.4-0.4,0.9-0.8,1.3-1.2c0.3,0.7,0.6,1.3,0.9,2c0.1,0.3,0.6,0.3,0.7,0c0.1-0.3,0.3-0.6,0.4-0.8c0.5,0.9,1.2,1.5,2.1,2.1
		c0.2,0.1,0.5,0,0.6-0.2c0.3-1.3,0.6-2.6,0.9-4c0.3,0.4,0.6,0.9,0.9,1.3c0.2,0.2,0.5,0.3,0.6,0c0.4-0.7,0.6-1.3,0.7-2
		c0.3,0.1,0.5,0.3,0.6,0.6c0.2,0.2,0.5,0.1,0.6-0.1c0.4-0.6,0.7-1.1,1-1.7c0.4-0.8,2.2,0.6,2.5,0.8c0.3,0.2,0.8,0,0.6-0.4l-0.2-0.5
		c1.3,0.5,2.6,0.8,3.9,0.8C363.5,221.4,363.6,221,363.4,220.8z M204.4,217c-0.4-0.5-0.8-0.9-1.2-1.4c0.7,0.1,1.4,0.1,2,0.2
		C205,216.2,204.7,216.6,204.4,217z M229.6,196.1C229.6,196.1,229.6,196.1,229.6,196.1c-0.8-0.7-1.4-1.6-1.9-2.5
		c1,0.2,1.9,0.4,2.8,0.7C230.2,194.9,229.9,195.5,229.6,196.1z M232,182.7c-0.7-0.9-1.4-1.9-2-2.8c1.2,0,2.4,0,3.5,0
		C233.1,180.9,232.6,181.8,232,182.7z M259.5,222.3c0.3-1.2,0.6-2.4,1.2-3.3C260.2,219.9,259.9,221.1,259.5,222.3z"/>
	<path opacity="0.1" d="M272.1,149.7c0,0,0,0.1,0.1,0.1C272.1,149.8,272.1,149.7,272.1,149.7z"/>
	<path opacity="0.1" d="M272.5,150.4c0,0,0,0.1,0.1,0.1C272.5,150.4,272.5,150.4,272.5,150.4z"/>
</g>
<g id="Layer_30">
	<g>
		<path fill="#68775F" d="M150.4,51.1c-0.6-6.2-0.7-12.5-0.4-18.7c0.2-3.7,0.6-7.6,2.4-11c1.7-3.1,1.7-3.2,4.5-5.6
			c3.4-3.1,8.7-8.6,12-11.7c1.2-1.1,2.5-2.3,4.2-2.9c1.1-0.4,2.3-0.6,3.6-0.7c7.7-0.8,16.3-0.7,23.9,0.4c1,0.1,1.9,0.3,2.8,0.7
			c1,0.5,1.8,1.4,2.4,2.2c4.9,6.1,9.9,12.1,14.8,18.2c0.9,1.1,1.8,2.2,2.3,3.5c0.5,1.4,0.5,2.9,0.5,4.4c0,6.6-0.1,13.1-0.1,19.7"/>
	</g>
	<g>
		<path fill="#A8AD47" d="M186.7,25.6c-14.3,0-34.9,3.8-36.4,4.1c-0.1,0.9-0.2,1.9-0.2,2.8c-0.3,6.2-0.2,12.5,0.4,18.7l73-1.5
			c0-6.6,0.1-19.7,0.1-20C211.3,27.5,204.3,25.6,186.7,25.6z"/>
	</g>
	<g>
		<path fill="#617259" d="M149.1,87.3c-32.8-1.9-61.7-26.3-20.7-44.5c38.3-17,91.6-14.1,123.6,3.6c22,12.2,3.9,30.8-19.6,36.9
			S181.8,89.2,149.1,87.3z"/>
	</g>
	<g>
		<path fill="#68775F" d="M149.1,87.3c-32.8-1.9-61.7-26.3-20.7-44.5c38.3-17,91.6-14.1,123.6,3.6c22,12.2,3.9,30.8-19.6,36.9
			S181.8,89.2,149.1,87.3z"/>
	</g>
	<g opacity="0.15">
		<path d="M207.1,66.2c-6.9-6.4-15.7-8.1-24.9-7.6c-9.6,0.5-19,2.8-26.3,9.4c-3.7,3.4-7.6,7.1-10.5,11.2c-1.6,2.3-2.8,4.8-3.9,7.3
			c2.5,0.4,5,0.7,7.5,0.8c26.3,1.5,48.8,1.9,68.9-1.1C215.6,78.9,213,71.7,207.1,66.2z"/>
	</g>
	<g opacity="0.15">
		<path d="M179.6,4.5c-0.5,3.4-1.1,6.8-1.6,10.1c-0.1,0.7-0.2,1.4-0.6,2c-0.4,0.6-1,1-1.6,1.4c-3.7,2.2-7.7,3.8-11.9,4.7
			c-0.5-0.4-0.6-1.1-0.3-1.7c0.2-0.6,0.7-1,1.2-1.3c2.9-2.1,6.9-3,8.7-6c0.9-1.5,1.1-3.2,1.5-4.8s1.1-3.4,2.5-4.3
			C178,4.1,179.6,3.8,179.6,4.5"/>
	</g>
	<g opacity="0.15">
		<path d="M195.3,4.6c0.3,3.6,0.8,7.3,1.4,10.9c0.1,0.8,0.3,1.6,0.8,2.1c0.3,0.3,0.8,0.5,1.2,0.7c2.9,1.2,5.8,2.5,8.7,3.7
			c0.6,0.3,1.2,0.5,1.9,0.5c0.7,0,1.4-0.4,1.5-1c0.2-0.8-0.8-1.1-1.5-1.6c-2-1.7-3.8-2.6-6.3-3.5c-0.6-0.2-1.3-1.3-1.7-1.7
			c-0.4-0.4-0.6-1-0.8-1.5c-0.7-2.2-1.3-4.5-1.9-6.8c-0.1-0.6-0.3-1.3-0.6-1.8s-1-0.9-1.6-0.8C195.9,3.9,195,4,195.3,4.6"/>
	</g>
</g>
<g id="Layer_27">
	<g>
		<g>
			<path fill="#E7168E" d="M201.5,138l39.1,47.3l1.3-1.3c4.2-4.5,8.2-9,11.9-13.5c3.7-4.5,13.5-14.8,16.9-19.5l15.3,28
				c-2.6,3.7-6.1,8.2-10.3,13.2s-9.2,10.8-15.3,17.2l40.4,49.9h-40.9l-21.7-26.7c-19.8,20.6-40.7,30.9-62.1,30.9
				c-19.3,0-35.6-6.1-49.1-18.5c-13.2-12.4-19.8-27.7-19.8-45.9c0-21.7,10.3-39.9,31.4-54.1l14.3-9.8c0.3,0,0.5-0.3,1.1-0.8
				c0.5-0.3,1.1-0.8,1.8-1.6c-14.3-15.3-21.7-30.4-21.7-45.2s4.8-26.7,14.3-35.9c9.8-9.2,22.4-13.7,38-13.7c15.1,0,27.2,4.5,37,13.5
				c9.8,9,14.8,20.3,14.8,33.8c0,9.5-2.6,18-7.9,25.6C224.8,118.2,215.2,127.5,201.5,138z M175.4,156.5l-1.8,1.3
				c-13.5,9.2-22.7,16.9-27.5,22.4c-4.8,5.5-7.1,11.6-7.1,18c0,9,3.7,17.4,10.8,24.8c7.4,7.1,15.8,10.8,24.8,10.8
				c12.7,0,27.2-8.2,43.8-24.8L175.4,156.5z M182.5,115.1l2.6-2.1c4.5-3.4,8.5-6.6,11.4-9c2.9-2.6,5.3-4.8,6.6-6.6
				c2.9-3.4,4.2-7.7,4.2-12.9c0-5.8-1.8-10.3-5.8-14c-4-3.7-9-5.3-15.6-5.3c-5.8,0-10.8,1.8-15.1,5.5c-4,3.4-6.1,7.9-6.1,13.5
				c0,6.3,2.6,12.7,7.7,19l8.2,9.8C180.9,113.2,181.4,114,182.5,115.1z"/>
		</g>
	</g>
	<g opacity="0.2">
		<g>
			<path d="M138.8,75.5c3.5-4.1,7.9-7.2,12.7-9.6c10.2-5.3,23.6-8.8,35.2-8.9c11.5-0.1,39.3,9.2,43.2,13.4c1.8,2,6.5,6.2,7.6,8.7
				c0.2,0.5,0.4,1,0.5,1.6c-1-11.5-5.9-21.3-14.6-29.2c-9.8-9-21.9-13.5-37-13.5c-15.6,0-28.3,4.5-38,13.7
				c-9.4,9.1-14.1,20.8-14.2,35.3C135.4,83,136,78.8,138.8,75.5z"/>
		</g>
	</g>
	<g opacity="0.1">
		<path d="M173.6,40.1c-8.7,4.5-7.6,4.2-13.6,12c-31.7,41.7-0.7,70.2,12.2,85.5c-4.1,2.8-8.2,5.6-12.3,8.4
			c-7.6,5.2-15.3,10.4-21.7,17c-6.5,6.6-11.7,14.6-13.5,23.6c-1.5,7.5-0.9,15.4,1.1,22.7c11.4,42.4,47.6,40.3,59.3,48.8
			c-3.6,6.3-11.9,1.9-19.1,3.2c-7.2,1.3-8.9-0.8-15.9-2.9c-20.9-6.3-36-21.2-40.8-42.5c-7.3-31.9,8.6-49.9,8.6-49.9
			s3.5-7.2,16.5-17.9c0.8-0.7,21-13.6,21.3-14.6c0.5-1.3-9.9-11-11.8-15.3c-2.5-5.6-9.9-15.9-9.9-28.8c0.1-18.8,7.3-42.7,39.1-50"/>
	</g>
	<g opacity="0.1">
		<path d="M175.8,158c2.9-2.7,4.1-3.7,7.7-5.5c14.7,16.5,27.2,32.1,41,50.2c-3.4,2.4-6.2,6.9-6.2,6.9"/>
	</g>
	<g opacity="0.1">
		<path d="M201.1,255.1c13.8-7.8,25.7-19.1,34.3-32.4c0.5-0.8,1.2-1.8,2.2-1.9c1-0.1,1.9,0.8,2.6,1.5c9.9,11.4,15.9,19.4,24.2,32.1
			c-4.1,2.3-2,2.1-6.7,1.8c-2.3-0.1-18.6-23.7-19.8-22.7c-6.6,6-22.3,24.5-37,21.7"/>
	</g>
	<g opacity="0.1">
		<path d="M281.9,172.1c-8.2,9.7-16,19.3-23.9,29.3c-0.3,0.4-0.7,0.9-0.8,1.5c-0.1,0.9,2.2,5.3,3.4,6.7c6.2-6.7,12.7-13.6,17.8-20.2
			c2.4-3,7.1-9.7,7.6-10C285.7,179.2,282.1,172.3,281.9,172.1z"/>
	</g>
	<g opacity="0.1">
		<path d="M181.5,115.3c3.1,3.4,6.2,6.7,9.3,10.1c11.5-6.7,19.9-18.6,22.4-31.7c0.6-3,0.8-6.2,0.4-9.2c-1.2-8.6-8.6-15.5-17.1-16.8
			c5.1,2.8,8.3,6.2,10,11s1.2,10.6-1.1,15.2c-1.3,2.7-3.3,4.9-5.3,7.2c-5.1,5.6-10.5,9-17.3,14.7"/>
	</g>
	<g opacity="0.2">
		<path d="M159.4,168.1c-0.1-0.2-0.3-0.4-0.4-0.7c-2.8-7.2-4.9-14.5-6.5-22c-0.2-2.2-0.5-4.9-1.3-6.6c0-0.1,0.1-0.1,0.1-0.2l0.1-2.3
			c0-0.3-0.5-0.3-0.9-0.1c0,0.1,0,0.1-0.1,0.2c0,0.2-0.1,0.3-0.2,0.4c-0.7,0.7-1.6,1.2-2.5,1.7c-0.1,5.4,1.1,10.4,2.9,15.6
			c1.8,5.3,3.8,10.9,7.1,15.5C158.1,169,158.7,168.5,159.4,168.1z"/>
	</g>
	<path opacity="0.2" d="M203.9,161.3C203.9,161.3,203.9,161.3,203.9,161.3c0-0.4,0.1-0.7,0.1-1c0.1-0.5-0.7-0.5-1.3-0.2
		c0.5-3.9,0.8-7.8,1.1-11.8c0-0.3-0.4-0.4-0.8-0.4c0.2-3.6,0.3-7.2,0.3-10.7c0-0.5-1.9-0.2-1.9,0.5c-0.2,12.4-0.6,24.8-4.4,36.7
		c0,0.2,0,0.2,0.2,0.3c-0.3,0.3-0.5,0.7-0.3,1.4c0.1,0.4,0.9,0.3,1.5,0c0,0.2-0.1,0.3-0.1,0.5c-0.1,0.7,1.7,0.2,1.9-0.3
		c0.1-0.2,0.1-0.3,0.2-0.5c0-0.1,0.1-0.1,0.1-0.2c0.5,0.1,1.5-0.2,1.6-0.6c0.2-0.9,0.2-1,0.2-1.5c0.1-0.5,0.1-1,0.2-1.4
		c0-0.1,0-0.2,0-0.2c0.5-3.5,1-6.9,1.5-10.4C203.8,161.5,203.8,161.4,203.9,161.3z"/>
	<g opacity="0.1">
		<path d="M159.7,230c-2.6-1.6-4.9-2.7-7.8-5.3c-0.1-0.1-0.3-0.1-0.4-0.2c0.3,1.9,0.5,3.8,0.5,5.7c0,1.4-0.1,2.9,0.3,4.2
			c0.8,2.7,3.3,4.5,6,5.2c2.7,0.7,5.5,0.5,8.3,0.2c0-2.3,0-4.5,0-6.8C164.2,232.5,161.8,231.3,159.7,230z"/>
	</g>
	<g opacity="0.1">
		<path d="M193.8,228.6c-3.5,1.5-5.6,2.7-9.2,3.5c-1.6,0.6-3.3,1.1-5.1,1.4c-0.1,0.9-0.2,1.8-0.3,2.7c-0.2,1.5-0.1,3.5,1.3,4.1
			c0.9,0.4,1.9,0.1,2.7-0.2c2.8-1,5.6-1.9,8.4-2.9c0.6-0.2,1.2-0.4,1.6-0.8c1.1-1,1-2.7,0.8-4.2C194.1,231,194,229.8,193.8,228.6z"
			/>
	</g>
	<g>
		<path fill="#916D52" d="M77,189.3c2.6,33.7,5.1,67.4,7.7,101c5.9-0.4,13.1-1.2,18.9-2.2c-2.3-35.1-5.8-67.7-8.1-102.9
			c0,0-10.4-16.5-11.3-16.5L77,189.3z"/>
	</g>
	<g opacity="0.1">
		<path d="M87.3,267.2c-0.7-10.7-1.6-21.7-1.7-32.4c0-0.4,0.3-0.9,0.7-1c4.3-0.6,8.6-0.5,12.8-1.6c-0.8-9.5-1.6-19-2.3-28.7
			c-3.5,0.7-7.5,0.4-10.3-0.2c-4.2-0.9-4.1-4.9-4.5-8.5c-0.5-5.4-1-10.8-1.3-16.2L77,189.3c2.6,33.7,5.1,67.4,7.7,101
			c1.3-0.1,2.6-0.2,4-0.3C86.9,282.8,87.8,274.4,87.3,267.2z"/>
	</g>
	<g>
		<path fill="#968563" d="M56.4,201.3c-0.9,1.1-1.7,2.9-1.8,3.4c-0.2,0.5,0.8,18.3,1.1,26.4c7,0,58.1-2.9,58.7-3.4
			c0.9-0.7,14.6-13.3,14.6-13.3s1.1-2.3,1.9-4.1"/>
	</g>
	<g>
		<path fill="#D8C28B" d="M111.1,198.5c-33.8,1.8-20.9,1-54.7,2.8c0,8.5,0.5,19.2,1,27.7c35.3-1.3,20.9-2.1,56.2-3.4
			c0,0,17.3-14.1,17.4-15.4L111.1,198.5z"/>
	</g>
</g>
<g id="Layer_31">
	<g opacity="0.15">
		<path d="M237,74.4c0.7,1.6,0.8,3.4,0.8,5.2c0.1,0.1,0.1,0.3,0.1,0.4c0,0.5,0.1,1,0.1,1.5c1.6-0.6,3.1-1.2,4.5-1.8
			C240.8,77.9,238.9,76.1,237,74.4z"/>
	</g>
	<g opacity="0.15">
		<path d="M129.4,83.4c1.6,0.6,3.2,1.1,4.8,1.5c-0.2-2.2,0-4.7,0.8-6.6c0.2-0.6,0.4-1.3,0.6-1.9c0-0.1,0-0.3,0.1-0.4
			c0.1-0.1,0.1-0.3,0.2-0.4C133.2,77.6,131.1,80.5,129.4,83.4z"/>
	</g>
	<g>
		<path fill="#68775F" d="M134.8,78.8c5.4-17.5,24.7-28.5,52.8-28.4c24.4,0.1,45,9.5,49.6,24.8c0.2,0.8-0.5-7.4,0.2-7.8
			c0.4-0.2,0.7-0.6,0.9-1c1.6-3.1,0.8-7-0.9-10.1c-2.6-4.8-7.2-8.3-11.7-11.4c-5.2-3.6-10.7-7-16.7-9.1c-4.3-1.5-8.9-2.3-13.5-3
			c-6.5-1-13-1.8-19.5-1.2c-9.6,0.8-19,4.7-26.4,10.8c-7.4,6.2-13,14.6-15.6,23.9"/>
	</g>
	<g opacity="0.2">
		<path d="M206.8,48.5c-9.6-2.7-19-3.3-28.9-2.1c-9.5,1.2-17.2,3.3-25,8.8c-14.4,10.1-17.9,21.6-18.1,22.5l0.1,1.1
			c5.4-17.5,24.7-28.5,52.8-28.4c20.8,0.1,38.9,7,46.6,18.5C228.1,57.1,212.9,50.2,206.8,48.5z"/>
	</g>
</g>
<g id="Layer_28">
	<g>
		<path fill="#524841" d="M168.7,164.4c-0.1,1.6-0.1,3.2-0.2,4.9c0,0.8-0.1,1.7,0.4,2.5c0.2,0.3,0.4,0.6,0.5,0.9
			c0.2,0.7-0.1,1.8,0.1,2.5c2,0.3,3.9,0.1,5.9,0.4c0.6,0.1,1.2,0.2,1.8-0.1c0.1-0.1,0.2-0.1,0.2-0.2c0.1-0.1,0-0.3,0-0.4
			c-0.2-0.9-0.4-2,0.1-2.8c0.2-0.4,0.6-0.8,0.7-1.2c0.1-0.3,0.1-0.6,0.1-0.9c-0.1-1.5-0.1-3-0.2-4.5c0-0.2,0-0.4-0.1-0.6
			c-0.1-0.1-0.3-0.2-0.4-0.3C174.9,163.1,171.7,163.2,168.7,164.4"/>
	</g>
	<g>
		<path fill="#524841" d="M185.4,164.4c-0.1,1.6-0.1,3.2-0.2,4.9c0,0.8-0.1,1.7,0.4,2.5c0.2,0.3,0.4,0.6,0.5,0.9
			c0.2,0.7-0.1,1.8,0.1,2.5c2,0.3,3.9,0.1,5.9,0.4c0.6,0.1,1.2,0.2,1.8-0.1c0.1-0.1,0.2-0.1,0.2-0.2c0.1-0.1,0-0.3,0-0.4
			c-0.2-0.9-0.4-2,0.1-2.8c0.2-0.4,0.6-0.8,0.7-1.2c0.1-0.3,0.1-0.6,0.1-0.9c-0.1-1.5-0.1-3-0.2-4.5c0-0.2,0-0.4-0.1-0.6
			c-0.1-0.1-0.3-0.2-0.4-0.3C191.6,163.1,188.4,163.2,185.4,164.4"/>
	</g>
	<g>
		<path fill="#C9B17D" d="M135.3,273.6c5.1-2.5-3.2,1.2,1.6-0.7c-0.2,0.1-7.7,1.7-3.4,1c-6.1,1,2.3,0.3-2,0.2
			c2.1,0.1,4.2,0.4,6.3,0.6c4.5,0.6,8.9,1.7,13.6,1.3c7.4-0.6,14.3-2.1,21.2-4.7c0.7-0.3,5.3-1.7,1.1-0.6c-0.7,0.2-5.6,0.7-1.1,0.4
			c5.3-0.3-2.3-0.2,3.1,0.1c2.4,0.1,4.9,0.4,7.3,0.7c8.3,0.9,16.7,2.1,25,3.1c8.9,1.1,20.1-2.3,27.3-7.3c1.8-1.2,5.1-3.7,4.3-6.4
			c-0.7-2.8-4.8-3.1-7-3.4c-11.3-1.4-22.7-3.3-34.1-3.9c-7.2-0.4-14.5,0-21.6,1.3c-4.7,0.9-9.2,2.1-13.7,3.6c-1,0.3-2.1,0.7-3.1,1.1
			c-4.7,1.9,4.4-0.8-0.6,0.2c3.3-0.6,6.7-1.1,10-1.7c-1.7,0.1-7.2-1.1-10.3-1.5c-4.2-0.5-8.6-0.5-12.9-0.1
			c-11.9,1-23.1,4.6-33.7,9.8c-3.8,1.8-12.9,8.8-4.4,11.4C116.8,280.7,127.5,277.3,135.3,273.6L135.3,273.6z"/>
	</g>
	<g>
		<path fill="#C9B17D" d="M262.7,268.2c1.6-1.1,1.8-1.3,0.6-0.6c-2.4,1.1-4.8,1.9-7.4,2.4c-3,0.1-6,0.3-9,0.4
			c-3.7-0.4-1.2,0.2,0.4,1.3c1.6,1.1,3.5,1.9,5.3,2.4c6.6,1.8,14.5,0.8,21-1.1c2.9-0.8,5.7-1.7,8.5-2.7c0.7-0.3,6.1-2,1.3-0.6
			c-1.4,0.4-2.9,0.6-4.3,0.5c-0.7,0,2.8,1,2.9,1c7.8,3.3,20.2-0.9,27.1-4.5c4.5-2.3,12.3-8.4,4.3-11.8c-7.4-3.1-15.9-3-23.7-1.9
			c-4,0.6-7.9,1.4-11.8,2.6c-2.2,0.7-4.4,1.4-6.7,2.2c-3,1-7.2,1.3,2-0.1c3-0.1,6-0.3,9-0.4c1.6,1,1.7,0.9,0.1-0.2
			c-1.5-1.1-3-2.2-4.8-2.9c-5.3-2-10.9-1.3-16.4-0.8c-9.8,1-20.7,5.8-28.4,11.9c-1.8,1.4-5,3.8-4.3,6.7c0.7,2.8,4.8,3.4,7,3.6
			C244.2,276.4,255.7,273.7,262.7,268.2L262.7,268.2z"/>
	</g>
	<g>
		<path fill="#73675C" d="M157.3,175.1c-0.2,12.8-4,26.2-3.6,39.1c0,0.3,0.1,0.6,0.3,0.9c0.3,0.4,0.8,0.5,1.2,0.5
			c4.2,0.7,10.8,1.3,14.6-0.7c0.4-0.2,0.9-0.5,1.1-0.9c0.2-0.4,0.3-0.9,0.3-1.3c0.8-11.3-3.2-23.6-3.4-35c-2.7-0.8-5.5-1.2-8.2-1.1"
			/>
	</g>
	<g>
		<path fill="#73675C" d="M196,177.7c0.3,7.3-1.2,13.2-2.7,20.4c-0.8,4.1-2.1,9.7-1.7,13.9c0,0.3,0.1,0.6,0.2,0.8
			c0.2,0.3,0.5,0.6,0.8,0.8c2.2,1.5,5.3,1.4,7.9,1.5c3.5,0,5.2,0.1,8.8-1.8c0.7-4.2-4.2-26.8-3.9-35.3c0-0.6-0.6-1.6-1-2.1
			s-1.4-0.5-1.5,0.1"/>
	</g>
	<g>
		<path fill="#524841" d="M165,210.8c-3.9,0.3-7.4-0.6-11.2-1.1c-0.1,1.5-0.1,3,0,4.6c0,0.3,0.1,0.6,0.3,0.9
			c0.3,0.4,0.8,0.5,1.2,0.5c4.2,0.7,10.8,1.3,14.6-0.7c0.4-0.2,0.9-0.5,1.1-0.9c0.2-0.4,0.3-0.9,0.3-1.3c0.1-1.2,0.1-2.4,0.1-3.6
			C169.2,209.6,167.2,210.6,165,210.8z"/>
	</g>
	<g>
		<path fill="#524841" d="M205.5,209.3c-1.6,0.3-3.2,0.6-4.8,0.5c-3.1,0-6.1-0.4-9-1.3c-0.1,1.2-0.1,2.4,0,3.5
			c0,0.3,0.1,0.6,0.2,0.8c0.2,0.3,0.5,0.6,0.8,0.8c2.2,1.5,5.3,1.4,7.9,1.5c3.5,0,5.2,0.1,8.8-1.8c0.2-1,0-2.9-0.2-5.3
			C207.9,208.4,206.7,209,205.5,209.3z"/>
	</g>
	<g opacity="0.2">
		<path d="M167.8,177.7c-2.7-0.8-5.5-1.2-8.2-1.1l-2.2-1.4c-0.1,8-1.7,16.3-2.7,24.6c2.5,1.2,5.8,1.2,8.5,1.3c1.6,0,3.6,0,4.2,1.9
			c0.8,2.3,0.5,4.9,0.2,7.3c-0.3,1.9-1.1,3.9-1.4,5.9c1.3-0.2,2.6-0.6,3.6-1.1c0.4-0.2,0.9-0.5,1.1-0.9c0.2-0.4,0.3-0.9,0.3-1.3
			C172.1,201.3,168.1,189,167.8,177.7z"/>
	</g>
	<g opacity="0.2">
		<path d="M205.4,178c0-0.6-0.6-1.6-1-2.1c-0.4-0.5-1.4-0.5-1.5,0.1l-6.9,1.8c0.3,7.3-1.2,13.2-2.7,20.4c-0.2,0.8-0.3,1.7-0.5,2.6
			c2.6,0.6,5.4,0.1,8,0c1.4,0,3.3-0.2,3.8,1.5c0.8,2.5,0.3,5.3-0.4,7.8c-0.4,1.4-1.5,3.4-1.8,5.1c2.3,0,4-0.3,6.9-1.8
			C210,209.1,205.1,186.6,205.4,178z"/>
	</g>
	<g>
		<path fill="#73675C" d="M157.3,175.1c-0.7,7.5-1.2,15-2.4,22.5c-0.1,0.5-0.1,1,0.2,1.4c0.2,0.2,0.6,0.3,0.9,0.4
			c7.2,1.5,14.7,1.2,21.7-0.9c0.1-1.6,0.2-3.2,0.3-4.8c0.4-6.2,0.9-12.6-0.5-18.7C171.2,173.3,163.7,173.7,157.3,175.1"/>
	</g>
	<g>
		<path fill="#73675C" d="M185,175.2c0.5,7.7,0,15.8,0,23.5c7,1.6,15.7,1.6,22.7,0c-1-7.5-1.6-15-2.5-22.5c0-0.2-0.1-0.4-0.2-0.6
			c-0.2-0.4-0.7-0.5-1.1-0.5c-5.9-0.8-12.8-1.1-18.7-0.1"/>
	</g>
	<g opacity="0.2">
		<path fill="#FFFFFF" d="M170.1,188.5c-0.2-4.9-0.1-9.7-0.3-14.6c-2.4-0.1-4.8,0.1-7.2,0.3c0.3,5.1-0.1,10.2-0.4,15.4
			c-0.2,3.5-0.8,7-0.6,10.5c2.8,0.2,5.6,0.2,8.4-0.2C169.7,196.2,170.2,192.3,170.1,188.5z"/>
	</g>
	<g opacity="0.2">
		<path fill="#FFFFFF" d="M199,191.5c0.1-5.7-0.5-11.3-0.5-16.9c-1.9-0.1-3.8-0.2-5.6-0.2c-0.1,4.4,0.5,8.7,0.6,13.1
			c0.1,4.1-0.6,8.2-0.2,12.3c1.9,0.1,3.8,0.1,5.7,0C198.6,197,199,193.8,199,191.5z"/>
	</g>
	<g opacity="0.2">
		<path d="M177.5,175c-1.6-0.4-3.2-0.7-4.9-0.9c0.2,5.2,0.4,10.3,0.3,15.5c-0.1,3.1-1,6.9-1.1,10.2c2-0.3,4-0.8,6-1.4l0.3-4.8
			C178.5,187.4,178.9,181.1,177.5,175z"/>
	</g>
	<g opacity="0.2">
		<path d="M190.3,199.6c-0.3-4.6,0-9.2-0.1-13.8c-0.1-3.8-0.2-7.5,0-11.3c-1.7,0.1-3.4,0.3-5,0.6l-0.3,0.1c0.5,7.7,0,15.8,0,23.5
			C186.7,199.1,188.5,199.4,190.3,199.6z"/>
	</g>
	<g>
		<path fill="#524841" d="M166.9,198.4c-4.1,0-7.9-1.1-11.9-1.6c0,0.3-0.1,0.5-0.1,0.8c-0.1,0.5-0.1,1,0.2,1.4
			c0.2,0.2,0.6,0.3,0.9,0.4c7.2,1.5,14.7,1.2,21.7-0.9l0.1-1.8C174.2,197.4,170.6,198.4,166.9,198.4z"/>
	</g>
	<g>
		<path fill="#524841" d="M167.5,175.8c3.5,0,7-0.5,10.3,0.6c-0.1-0.5-0.2-1-0.3-1.5c-6.3-1.7-13.8-1.2-20.2,0.2
			c0,0.5-0.1,1.1-0.1,1.6C160.5,175.9,164.3,175.9,167.5,175.8z"/>
	</g>
	<g>
		<path fill="#524841" d="M205.3,177.3c0-0.3-0.1-0.7-0.1-1c0-0.2-0.1-0.4-0.2-0.6c-0.2-0.4-0.7-0.5-1.1-0.5
			c-5.9-0.8-12.8-1.1-18.7-0.1l-0.3,0.1c0,0.5,0,0.9,0.1,1.4C191.8,175.3,198.5,176.4,205.3,177.3z"/>
	</g>
	<g>
		<path fill="#524841" d="M185,196.5c0,0.7,0,1.5,0,2.2c7,1.6,15.7,1.6,22.7,0c-0.1-0.7-0.2-1.5-0.3-2.2
			C200.1,198.5,192.4,198.3,185,196.5z"/>
	</g>
	<g>
		<path fill="#73675C" d="M179.7,175.9c0.2,2.8,0.1,18.6,0.4,21.7c0,0.1,0,0.3,0.1,0.4c0.1,0.1,0.2,0.1,0.3,0.1c1,0,2.1,0,3.1,0
			c0.1-7.4,0.2-14.9-0.2-22.3c-1.1-0.2-2.5,0-3.6,0.1"/>
	</g>
	<g opacity="0.2">
		<path d="M182.9,195.5c-0.7,0.4-1.5-0.2-1.5-0.9c-0.1-2.5,0-4.9-0.1-7.4c-0.1-1.9,0.3-4-0.2-5.9c0,0,0,0,0,0c0-0.1,0-0.1,0-0.2
			v-0.1c0-0.7,0.7-1.1,1.3-1c0.4,0,0.9-0.1,1.3-0.1c0-1.1,0-2.3-0.1-3.4c-0.1,0.1-0.1,0.2-0.2,0.2c-0.1,0.1-0.3,0.2-0.4,0.3
			c-0.1,0.1-0.1,0.2-0.2,0.3c-0.3,0.4-0.7,0.6-1.1,0.5c-0.4-0.1-0.7-0.5-0.7-1c0-0.4,0-0.7,0-1.1c0,0,0,0,0,0c-0.4,0-0.7,0.1-1,0.1
			l-0.2,0c0.2,2.8,0.1,18.6,0.4,21.7c0,0.1,0,0.3,0.1,0.4c0.1,0.1,0.2,0.1,0.3,0.1c1,0,2.1,0,3.1,0c0-1.1,0-2.3,0-3.4
			C183.5,194.9,183.2,195.2,182.9,195.5z"/>
	</g>
	<g>
		<path fill="#685D52" d="M171.4,176.3c-0.1,1,0,2,0.1,2.9c3.3,0.3,17.1,0.2,21,0.1c0.2,0,0.4,0,0.5-0.2c0.1-0.1,0.1-0.3,0.1-0.4
			c0-0.8,0-1.6,0-2.4c-7.1,0-14.3,0-21.4-0.2"/>
	</g>
	<g>
		<path fill="#685D52" d="M171.4,194.3c-0.1,1,0,2,0.1,2.9c3.3,0.3,17.1,0.2,21,0.1c0.2,0,0.4,0,0.5-0.2c0.1-0.1,0.1-0.3,0.1-0.4
			c0-0.8,0-1.6,0-2.4c-7.1,0-14.3,0-21.4-0.2"/>
	</g>
	<g opacity="0.2">
		<path d="M177.4,179.4c0.7,0,1.5,0,2.2,0c-0.1-1-0.2-2.1-0.2-3.1c-0.7,0-1.3,0-2,0C177.3,177.3,177.3,178.4,177.4,179.4z"/>
	</g>
	<g opacity="0.2">
		<path d="M175.4,176.2c-0.9,0-1.7,0-2.6,0c-0.1,1-0.1,2.1-0.1,3.1c0.7,0,1.6,0,2.6,0.1C175.3,178.3,175.3,177.3,175.4,176.2z"/>
	</g>
	<g opacity="0.2">
		<path d="M190.7,176.4c-0.8,0-1.7,0-2.5,0c0,1,0,2,0,3c0.8,0,1.6,0,2.3,0C190.7,178.3,190.6,177.3,190.7,176.4z"/>
	</g>
	<g opacity="0.2">
		<path d="M186.2,176.3c-0.8,0-1.6,0-2.4,0c0,1-0.1,2-0.1,3.1c0.8,0,1.7,0,2.5,0C186.2,178.4,186.2,177.4,186.2,176.3z"/>
	</g>
	<g opacity="0.2">
		<path d="M186.2,194.3c-0.7,0-1.5,0-2.2,0c0,0.9,0,1.7,0,2.6c0,0.1,0,0.2-0.1,0.2c0,0.1,0,0.1,0,0.2c0.8,0,1.6,0,2.4,0
			C186.2,196.3,186.2,195.3,186.2,194.3z"/>
	</g>
	<g opacity="0.2">
		<path d="M190.9,194.3c-0.9,0-1.9,0-2.8,0c0,1,0,2,0.1,3c1.1,0,2,0,2.8,0C191,196.3,191,195.3,190.9,194.3z"/>
	</g>
	<g opacity="0.2">
		<path d="M177.5,197.3c0.7,0,1.5,0,2.2,0c-0.1-0.6-0.1-1.2-0.1-1.9c0-0.4-0.1-0.8-0.1-1.3c-0.7,0-1.4,0-2.1,0
			C177.4,195.3,177.3,196.3,177.5,197.3z"/>
	</g>
	<g opacity="0.2">
		<path d="M175.4,194.2c-0.8,0-1.7,0-2.5,0c0,1,0,2.1,0,3.1c0.7,0,1.6,0,2.5,0.1C175.4,196.3,175.4,195.2,175.4,194.2z"/>
	</g>
	<g>
		<path fill="#73675C" d="M168.2,167.5c0,1.2,0,2.3,0,3.5c1.5-0.8,3.9-0.6,5.6-0.6c1.8,0,3.2,0,4.8,0.4c0.1-1.1-0.1-2-0.1-3.2
			c-0.8-0.6-1.9-0.7-3-0.7C173.1,166.8,170.5,166.7,168.2,167.5"/>
	</g>
	<g>
		<path fill="#73675C" d="M184.9,167.5c0,1.2,0,2.3,0,3.5c1.5-0.8,3.9-0.6,5.6-0.6c1.8,0,3.2,0,4.8,0.4c0.1-1.1-0.1-2-0.1-3.2
			c-0.8-0.6-1.9-0.7-3-0.7C189.8,166.8,187.3,166.7,184.9,167.5"/>
	</g>
	<g>
		<path fill="#845324" d="M155.8,132.9c0-0.1,0.1-0.2,0.1-0.3c-1.7-1.6-3.4-3.3-4.8-5.2c0,0,0,0,0,0c-0.3,0.1-0.5,0.3-0.5,0.5
			c-0.7,8.1,1,16.1,2.6,24c1.6,8.1,4.2,16,9,22.9c0.2,0.3,0.9,0.2,1.4,0c0,0.1,0.1,0.1,0.1,0.2c0.3,0.5,2.1-0.2,1.9-0.5
			C157.9,162.4,155.2,147.1,155.8,132.9z"/>
	</g>
	<g>
		<path fill="#845324" d="M206.5,143.9c-0.1-3-0.4-6-1-9c0,0,0,0,0,0l0,0c0,0,0,0,0,0c-0.7,0.6-1.5,1.1-2.3,1.5
			c-0.1,0.1-0.3,0.2-0.6,0.3c-0.4,0.2-0.8,0.4-1.1,0.6c1.9,12.8,1.9,25.6-0.1,38.3c-0.1,0.6,0.7,0.5,1.3,0.3c0,0,0.1,0.1,0.1,0.1
			l0.1,0.1c0.6,0.4,2.3-0.5,1.5-1c-0.1-0.1,0.8-4.5,1.2-7.1c0.9-4.3,1.2-8.6,1.2-13.1C206.8,151.4,206.8,147.6,206.5,143.9z"/>
	</g>
	<g>
		<path fill="#C9B17D" d="M90.1,294.7c0.3-0.2,0.5-0.5,0.8-0.7c-1.3,0.9-2.5,1.9-3.8,2.8c-4.5,0-5.8,0.3-4.1,1.1
			c1.2,0.4,2.3,1,3.5,1.6c3.1,1.6,6.9,2.2,10.3,1.2c3.2-1,5.7-2.3,8.3-4.4c1-0.8,2.1-1.6,3.2-2.2c2.9-1.6,0-0.6,1.4-0.5
			c4.6,0.3,10.4-1.4,12.6-5.8c2.1-4.2-1.8-7.6-5.8-7.8c-5.5-0.4-10.1,0.7-15.2,2.5c-2.2,0.8-4.3,2.3-6.3,3.5
			c-1.4,0.9-6.8,3.5-1.6,1.9c2.4,0,4.9,0,7.3,0c-3.7-0.8-7.3-3.1-11.3-3.8c-5.7-1.1-11.4,1.5-15.4,5.3c-3.3,3.1-1.5,7.7,2.4,9
			C81.3,300,86.6,298.1,90.1,294.7L90.1,294.7z"/>
	</g>
	<g>
		<g>
			<path fill="#876242" d="M74.5,288.7c0.8,0,2-1.2,0.7-1.2C74.5,287.5,73.2,288.7,74.5,288.7L74.5,288.7z"/>
		</g>
	</g>
	<g>
		<g>
			<path fill="#876242" d="M90.5,291.5c0.7,0,2.1-1,0.8-1C90.6,290.5,89.2,291.5,90.5,291.5L90.5,291.5z"/>
		</g>
	</g>
	<g>
		<g>
			<path fill="#876242" d="M83.7,301.3c0.9,0,2-1.3,0.7-1.3C83.6,300,82.4,301.3,83.7,301.3L83.7,301.3z"/>
		</g>
	</g>
	<g>
		<g>
			<path fill="#876242" d="M113.7,302.2c0.7,0,2.1-1.1,0.8-1.1C113.8,301.1,112.4,302.2,113.7,302.2L113.7,302.2z"/>
		</g>
	</g>
	<g>
		<g>
			<path fill="#876242" d="M114.7,284.3c0.7,0,2.1-1,0.8-1C114.8,283.2,113.4,284.3,114.7,284.3L114.7,284.3z"/>
		</g>
	</g>
	<g>
		<g>
			<path fill="#876242" d="M148.9,265.2c0.4,0,2.2-0.8,1.3-0.8C149.7,264.4,147.9,265.2,148.9,265.2L148.9,265.2z"/>
		</g>
	</g>
	<g>
		<g>
			<path fill="#876242" d="M177.6,266.8c0.7,0.3,1.8-0.2,1.7-1c-0.2-1-1.5-0.6-2-0.2c-0.3,0.3-0.1,0.8,0.2,0.9c0.5,0.2,1,0,1.4-0.4
				c0,0,0,0,0,0c-0.2,0.1-0.4,0.2-0.6,0.4c0,0,0,0,0,0c-0.2,0-0.5,0-0.7,0c0,0,0,0,0,0c-0.1-0.1-0.2-0.1-0.3-0.2c0,0.1,0-0.1,0-0.1
				c0.1-0.1,0.2-0.2,0.3-0.3c0,0,0,0,0,0c0.2-0.1,0.5-0.2,0.7-0.3c0,0,0,0,0,0c0.2,0,0.3,0,0.5,0c0,0,0,0-0.1,0
				C178,265.2,176.5,266.3,177.6,266.8L177.6,266.8z"/>
		</g>
	</g>
	<g>
		<g>
			<path fill="#876242" d="M196.9,258.7c-0.2-0.2-0.3-0.3-0.5-0.5c-0.4-0.4-2.1,0.4-1.8,0.7c0.2,0.2,0.3,0.3,0.5,0.5
				C195.5,259.7,197.2,259,196.9,258.7L196.9,258.7z"/>
		</g>
	</g>
	<g>
		<g>
			<path fill="#876242" d="M193.8,278.7c-0.2,0.2-0.3,0.3-0.5,0.5c-0.3,0.3-0.2,0.6,0.2,0.7c0.4,0.1,1,0,1.4-0.4
				c0.2-0.2,0.3-0.3,0.5-0.5c0.3-0.3,0.2-0.6-0.2-0.7C194.7,278.2,194.1,278.4,193.8,278.7L193.8,278.7z"/>
		</g>
	</g>
	<g>
		<g>
			<path fill="#876242" d="M219.2,263.2c0,0,0,0.1,0.1,0.1c0.2-0.1,0.4-0.2,0.7-0.3c0,0-0.1,0-0.1,0c0.2,0,0.5-0.1,0.7-0.1
				c0,0-0.1,0-0.1,0c0.1,0,0.2,0.1,0.3,0.1c0,0-0.1,0-0.1,0c-0.4-0.2-0.9,0-1.2,0.1c-0.1,0-0.9,0.4-0.6,0.6c0.5,0.3,1.2,0.1,1.7-0.2
				c0.3-0.1,0.8-0.5,0.6-0.9C220.9,262.2,219,262.9,219.2,263.2L219.2,263.2z"/>
		</g>
	</g>
	<g>
		<g>
			<path fill="#876242" d="M251.3,257.1c0.6,0,2.1-0.9,0.8-0.9C251.5,256.1,250,257.1,251.3,257.1L251.3,257.1z"/>
		</g>
	</g>
	<g>
		<g>
			<path fill="#876242" d="M267.1,262.3c0.4,0,2.2-0.8,1.3-0.8C267.9,261.5,266.1,262.3,267.1,262.3L267.1,262.3z"/>
		</g>
	</g>
	<g>
		<g>
			<path fill="#876242" d="M236.3,261.2c-0.2,0-0.3,0-0.5,0c-0.4,0-1,0.3-1.1,0.8c-0.1,0.5,0.5,0.6,0.9,0.6c0.2,0,0.3,0,0.5,0
				c0.4,0,1-0.3,1.1-0.8C237.3,261.4,236.7,261.2,236.3,261.2L236.3,261.2z"/>
		</g>
	</g>
	<g>
		<g>
			<path fill="#876242" d="M224.7,277.5c0.7,0,2.1-1.1,0.8-1.1C224.8,276.4,223.4,277.5,224.7,277.5L224.7,277.5z"/>
		</g>
	</g>
	<g>
		<g>
			<path fill="#876242" d="M282.1,260.4c0.4,0,2.2-0.8,1.2-0.8C282.9,259.6,281.1,260.4,282.1,260.4L282.1,260.4z"/>
		</g>
	</g>
	<g>
		<g>
			<path fill="#876242" d="M142.6,278.5c-0.2-0.2-0.3-0.3-0.5-0.5c-0.3-0.3-0.9-0.3-1.3-0.1c-0.3,0.1-0.8,0.6-0.5,0.9
				c0.2,0.2,0.3,0.3,0.5,0.5c0.3,0.3,0.9,0.3,1.3,0.1C142.4,279.3,143,278.8,142.6,278.5L142.6,278.5z"/>
		</g>
	</g>
</g>
<g id="Layer_9">
</g>
</svg>
