<?xml version="1.0" encoding="utf-8"?>
<!-- Generator: Adobe Illustrator 17.1.0, SVG Export Plug-In . SVG Version: 6.00 Build 0)  -->
<!DOCTYPE svg PUBLIC "-//W3C//DTD SVG 1.1//EN" "http://www.w3.org/Graphics/SVG/1.1/DTD/svg11.dtd">
<svg version="1.1" xmlns="http://www.w3.org/2000/svg" xmlns:xlink="http://www.w3.org/1999/xlink" x="0px" y="0px"
	 viewBox="0 0 397.2 305.9" enable-background="new 0 0 397.2 305.9" xml:space="preserve">
<g id="Layer_16">
</g>
<g id="Layer_17">
</g>
<g id="Layer_12">
</g>
<g id="Layer_18">
</g>
<g id="Layer_10">
</g>
<g id="Layer_11">
</g>
<g id="_x2D_----">
</g>
<g id="Layer_13">
</g>
<g id="Layer_23">
</g>
<g id="Layer_15">
</g>
<g id="Layer_14">
</g>
<g id="Layer_21">
</g>
<g id="Layer_19">
</g>
<g id="Layer_22">
</g>
<g id="Layer_25">
</g>
<g id="Layer_20">
</g>
<g id="Layer_24">
</g>
<g id="_x2D_----_1_">
</g>
<g id="Layer_26">
</g>
<g id="Layer_29">
</g>
<g id="Layer_30">
</g>
<g id="Layer_27">
</g>
<g id="Layer_31">
</g>
<g id="Layer_28">
</g>
<g id="_x2D_----_2_">
</g>
<g id="Layer_32">
</g>
<g id="Layer_40">
</g>
<g id="Layer_33">
</g>
<g id="Layer_39">
</g>
<g id="Layer_37">
</g>
<g id="Layer_38" display="none">
</g>
<g id="Layer_36">
</g>
<g id="Layer_35">
</g>
<g id="Layer_34">
</g>
<g id="_x2D_----_3_">
</g>
<g id="Layer_43">
	<path fill="#A4CEE9" d="M13.3,203.7c0-3.7,0-12.5,0-12.5c15.9,1.2,28.9-0.1,43-3.5c4.8-1.1,9.6-2.7,14.6-3.1
		c8.4-0.6,16.5,2.4,24.7,4.2c9.6,2.2,19.7,2.8,29.4,1c7.9-1.5,15.5-4.6,23.6-4.8c6.4-0.2,12.7,1.5,19,2.6c19.9,3.7,40.6,2.7,60-2.9
		c3.5-1,7.1-2.2,10.7-1.8c4.1,0.4,7.8,2.7,11.5,4.5c9.3,4.6,20,6.3,30.2,4.9c11.2-1.5,21.8-6.5,33-7c7.4-0.3,14.6,1.4,21.9,2.5
		c16.3,2.6,29.7,4.7,49.1,3.1c0,0-0.3,8.6-0.3,12.5"/>
</g>
<g id="Layer_44">
	<path fill="#D6AB7F" d="M384.2,209.9c-60.3-4.5-120.9-4.5-181.3-4c-29.8,0.3-59.5,0.7-89.3,0.7c-14.5,0-29.1-0.1-43.6-0.3
		c-7.3-0.1-14.5-0.3-21.8-0.5c0.1,0-3-0.1-3.8-0.1c-1.7-0.1-3.4-0.1-5.1-0.2c-4-0.1-7.9-0.3-11.9-0.5c-9.5-0.4-20.8,2.5-25.1,12
		c-3.3,7.4,1.8,14.6,8.9,16.5c-3.1,2-5.7,4.6-7.3,8c-4,8.8,3.6,16.1,12,17c8,0.9,16,1.7,23.9,2.5c-1,1.6-1.6,3.4-1.8,5.2
		c-0.9,8.2,6.5,11.6,13.1,13.2c2.1,0.5,4.2,1,6.3,1.4c-0.5,1.2-0.8,2.4-1,3.7c-1.1,10.4,10.2,13.1,18,13.3c15.8,0.5,31.7,0.8,47.5,1
		c1.3,0.1,2.6,0.3,4,0.4c6,0.5,11.9,0.8,17.9,1c45.2,6.5,91.9,6.4,137.3,3.6c6.6-0.4,13.9-3.5,18.1-8.9c0.5,0,1-0.1,1.6-0.1
		c7.1-0.4,16-4.3,19.6-11.1c4.4-1.7,8.3-4.5,10.7-8.5c2.7-1.4,5.3-3.4,7.5-5.8c7.2-1.7,14.3-3.9,21.2-6.7
		c5.2-2.1,10.3-7.5,10.9-13.2c0.3-2.8-0.4-5-1.7-6.9c1.8-1.1,3.4-2.4,4.7-3.9c0.8,0,1.5,0,2.3,0c7.7,0,16.9-5,20.1-12.2
		C400,218.4,392.7,210.5,384.2,209.9z"/>
</g>
<g id="Layer_45">
	<g>
		<path fill="#C1946B" d="M5.4,223.8c55.1-0.8,110.2,0,165.3,0.4c64.8,0.4,129.7,0.8,194.5,2.5c8.7,0.2,17.6,0.2,26.3,1.1
			c0.4,0,2.2-0.7,1.3-0.8c-16.9-1.8-34.1-1.4-51-1.7c-32.4-0.6-64.8-1-97.2-1.3c-67.7-0.7-135.5-1.2-203.2-1.1
			c-11.5,0-23.1,0-34.6,0.2C6.2,223.1,4.4,223.9,5.4,223.8L5.4,223.8z"/>
	</g>
	<g>
		<path fill="#C1946B" d="M11.5,246.9c60.2-1.3,120.4,0.1,180.6,0.6c56.2,0.5,112.4,0.7,168.6,1.9c0.6,0,2.1-0.9,0.8-1
			c-60.5-1.3-121-1.6-181.5-2c-55.9-0.4-111.8-1.6-167.7-0.5C11.7,246,10.2,246.9,11.5,246.9L11.5,246.9z"/>
	</g>
	<g>
		<path fill="#C1946B" d="M43.7,269.1c52.6,0,105.2,0.7,157.8,1c45.1,0.3,90.1,0.9,135.2,0.9c0.8,0,2-1.3,0.7-1.3
			c-52.6,0-105.2-0.7-157.8-1c-45.1-0.3-90.1-0.9-135.2-0.9C43.6,267.8,42.4,269.1,43.7,269.1L43.7,269.1z"/>
	</g>
	<g>
		<path fill="#C1946B" d="M64.1,292.4c64.4-0.4,128.8,1.3,193.1,1.9c10.9,0.1,21.7,0.2,32.6,0.2c0.8,0,2-1.2,0.7-1.2
			c-64.4,0.4-128.8-1.3-193.1-1.9c-10.9-0.1-21.7-0.2-32.6-0.2C64,291.2,62.8,292.4,64.1,292.4L64.1,292.4z"/>
	</g>
	<g>
		<path fill="#C1946B" d="M40.5,209.7c3.3,4.3,6.4,8.6,9.3,13.2c0.3,0.4,1.4,0,1.1-0.5c-2.9-4.5-6-8.9-9.3-13.2
			C41.3,208.8,40.2,209.2,40.5,209.7L40.5,209.7z"/>
	</g>
	<g>
		<path fill="#C1946B" d="M163.3,210.3c3.7,4.2,7.2,8.5,10.4,13.1c0.2,0.3,1.2-0.2,1.2-0.3c-3.2-4.6-6.7-8.9-10.4-13.1
			C164.2,209.7,163.2,210.2,163.3,210.3L163.3,210.3z"/>
	</g>
	<g>
		<path fill="#C1946B" d="M295.9,209.8c3.7,5,7.4,10,10.9,15.1c0.2,0.3,1.3-0.2,1.2-0.3c-3.6-5.1-7.2-10.1-10.9-15.1
			C296.8,209.2,295.8,209.7,295.9,209.8L295.9,209.8z"/>
	</g>
	<g>
		<path fill="#C1946B" d="M76.7,224.3c3.5,7.9,9.7,14.2,12.9,22.3c0.1,0.3,1.3,0,1.2-0.3c-3.2-8.1-9.4-14.4-12.9-22.3
			C77.7,223.7,76.6,224,76.7,224.3L76.7,224.3z"/>
	</g>
	<g>
		<path fill="#C1946B" d="M339.5,226.4c4.8,7.2,9.2,14.6,13.3,22.2c0.2,0.3,1.3-0.1,1.2-0.3c-4.1-7.7-8.6-15.1-13.4-22.4
			C340.4,225.7,339.3,226.1,339.5,226.4L339.5,226.4z"/>
	</g>
	<g>
		<path fill="#C1946B" d="M218.3,224.5c4.5,8.1,11.3,14.8,15,23.3c0.2,0.4,1.3,0,1.2-0.3c-3.7-8.5-10.5-15.2-15-23.3
			C219.2,223.8,218.1,224.2,218.3,224.5L218.3,224.5z"/>
	</g>
	<g>
		<path fill="#C1946B" d="M44.4,246.4c5,7,9.4,14.4,13.5,22c0.2,0.3,1.3-0.1,1.2-0.3c-4-7.6-8.5-14.9-13.5-22
			C45.3,245.8,44.3,246.2,44.4,246.4L44.4,246.4z"/>
	</g>
	<g>
		<path fill="#C1946B" d="M168.3,247.5c3,1.8,4.9,6.9,6.9,9.8c2.7,4,5.6,7.8,8.6,11.5c0.4,0.4,1.4,0,1.1-0.5
			c-3-3.7-5.9-7.5-8.6-11.5c-2.1-3-3.9-8-7-10C168.8,246.5,167.8,247.1,168.3,247.5L168.3,247.5z"/>
	</g>
	<g>
		<path fill="#C1946B" d="M301.5,249.2c5.3,7,10.4,14.3,15.3,21.6c0.3,0.4,1.4,0,1.1-0.5c-4.9-7.4-10-14.6-15.3-21.6
			C302.2,248.3,301.1,248.8,301.5,249.2L301.5,249.2z"/>
	</g>
	<g>
		<path fill="#C1946B" d="M117.9,269.7c4.7,7.4,9.9,14.6,14.2,22.2c0.2,0.3,1.2-0.2,1.2-0.3c-4.4-7.6-9.5-14.8-14.2-22.2
			C118.9,269.1,117.8,269.6,117.9,269.7L117.9,269.7z"/>
	</g>
	<g>
		<path fill="#C1946B" d="M253.5,270.5c6.4,7.5,12.4,15.3,17.7,23.6c0.3,0.5,1.4,0,1.1-0.5c-5.3-8.3-11.3-16.1-17.7-23.6
			C254.2,269.6,253.1,270.1,253.5,270.5L253.5,270.5z"/>
	</g>
	<g>
		<path fill="#C1946B" d="M172.1,293.1c0.5,0.3,1,1.2,1.3,1.6c0.8,1.1,1.6,2.1,2.4,3.2c1.2,1.6,2.3,3.2,3.5,4.8
			c0.3,0.4,1.4,0,1.1-0.5c-1.1-1.6-2.3-3.2-3.5-4.8c-0.8-1.2-1.7-2.3-2.6-3.5c-0.4-0.5-0.8-1.2-1.3-1.5
			C172.6,292.2,171.6,292.8,172.1,293.1L172.1,293.1z"/>
	</g>
	<rect x="8.9" y="197.7" fill="#E2E2E2" width="377.4" height="12.5"/>
	<g opacity="0.1">
		<path d="M163.9,258.6c-12.5-2.4-24.9-5.6-36.2-11.3c-11.3-5.7-21.6-14.2-27.9-25.2c-2.3-4-4.1-7.6-5.9-11.9c2.5,0.1,5,0.2,7.5,0.2
			c9.4,0,18.9-0.7,28.3-0.2"/>
	</g>
	<g opacity="0.1">
		<path d="M228.1,236.2c11.9,6.8,21.1,11.4,33.3,19.2c-7.6-11.1-13.6-23.8-19.1-36.1c-0.5-1.1-1.2-2.5-2.5-2.6
			c-5.7,5.4-10.1,12.1-12.7,19.5"/>
	</g>
	<path fill="#E2E2E2" d="M58.4,210.4c0,0-1.9,1.8-6.4,1.8s-6.4-1.8-6.4-1.8v-127h12.7V210.4z"/>
	<path opacity="3.000000e-02" d="M49,211.9c-1.2,0.1-3.4-1.5-3.4-1.5v-127H49V211.9z"/>
	<rect x="42.3" y="197.7" opacity="7.000000e-02" width="3.4" height="12.5"/>
	<path fill="#E2E2E2" d="M327.7,210.4c0,0-1.9,1.8-6.4,1.8c-4.5,0-6.4-1.8-6.4-1.8v-127h12.7V210.4z"/>
	<path opacity="3.000000e-02" d="M318.3,211.9c-1.2,0.1-3.4-1.5-3.4-1.5v-127h3.4V211.9z"/>
	<rect x="311.6" y="197.7" opacity="7.000000e-02" width="3.4" height="12.5"/>
	<path opacity="7.000000e-02" d="M58.4,99.3V83.4H45.7v16.2C49.9,99.6,54.2,99.4,58.4,99.3z"/>
	<path opacity="7.000000e-02" d="M45.7,145.8v13.8h12.7V148C54.1,147.7,49.8,147,45.7,145.8z"/>
	<path opacity="7.000000e-02" d="M327.7,100.6V83.4H315v17C319.2,100.4,323.5,100.3,327.7,100.6z"/>
	<path opacity="7.000000e-02" d="M315,146.3v13.4h12.7V146C323.5,146.1,319.2,146.3,315,146.3z"/>
	<path fill="#E2E2E2" d="M386.3,95.9H8.9c-4-2.8-3.1-11.4,0-12.5h377.4C388.6,84.5,389.7,93,386.3,95.9z"/>
	<path fill="#E2E2E2" d="M386.3,154.9H8.9c-4-2.8-3.1-11.4,0-12.5h377.4C388.6,143.5,389.7,152,386.3,154.9z"/>
	<path opacity="7.000000e-02" d="M163.1,84.2c0-0.3,0-0.5,0.1-0.8h-41.2c-0.1,4.2,0.4,8.4,1.4,12.5H163
		C162.6,92.1,163,88.2,163.1,84.2z"/>
	<path opacity="7.000000e-02" d="M182.8,95.9h16.4c2-3.9,2.5-8.1,2.6-12.5h-18.7c0.8,2.3,1.2,4.6,0.9,7.5
		C183.8,92.7,183.4,94.3,182.8,95.9z"/>
	<path opacity="3.000000e-02" d="M386.3,154.9H8.9c-1.4-1-2.2-2.6-2.5-4.4l382-0.5C388.1,152,387.6,153.7,386.3,154.9z"/>
	<path opacity="7.000000e-02" d="M200.7,144.9c-1.1-0.7-1.7-1.5-2.1-2.5h-83.5c-3.6,3.7-6.6,7.9-9,12.5h105
		C208,151.2,204.9,147.5,200.7,144.9z"/>
	<path opacity="3.000000e-02" d="M386.3,95.8H8.9c-1.3-0.9-2.1-2.5-2.5-4.2l381.9-0.6C388.1,92.9,387.6,94.6,386.3,95.8z"/>
	<rect x="93.9" y="197.7" opacity="8.000000e-02" width="16.4" height="12.5"/>
	<polygon opacity="8.000000e-02" points="199.2,210.2 174.2,210.2 167.5,197.7 191.1,197.7 	"/>
	<g opacity="0.1">
		<path d="M174.2,210.4c2.5,0.5,4.8,1.7,7,2.9c6.5,3.5,12.8,7.2,19.1,11c0.5,0.3,1,0.6,1.6,0.6c0.7,0,1.4-0.5,2-1
			c2.9-2.3,5.7-4.7,8.6-7c-3.5-1.1-11.6-6.3-12.7-6.6c-0.8-0.2-1.6-0.2-2.4-0.1C190.5,210.5,181.1,210.1,174.2,210.4"/>
	</g>
</g>
<g id="Layer_41">
	<g>
		<g>
			<path fill="#E7168E" d="M203,134.3l39.1,47.3l1.3-1.3c4.2-4.5,8.2-9,11.9-13.5c3.7-4.5,13.5-14.8,16.9-19.5l15.3,28
				c-2.6,3.7-6.1,8.2-10.3,13.2s-9.2,10.8-15.3,17.2l40.4,49.9h-40.9l-21.7-26.7c-19.8,20.6-40.7,30.9-62.1,30.9
				c-19.3,0-35.6-6.1-49.1-18.5c-13.2-12.4-19.8-27.7-19.8-45.9c0-21.7,10.3-39.9,31.4-54.1l14.3-9.8c0.3,0,0.5-0.3,1.1-0.8
				c0.5-0.3,1.1-0.8,1.8-1.6c-14.3-15.3-21.7-30.4-21.7-45.2s4.8-26.7,14.3-35.9c9.8-9.2,22.4-13.7,38-13.7c15.1,0,27.2,4.5,37,13.5
				c9.8,9,14.8,20.3,14.8,33.8c0,9.5-2.6,18-7.9,25.6C226.2,114.4,216.7,123.7,203,134.3z M176.9,152.7l-1.8,1.3
				c-13.5,9.2-22.7,16.9-27.5,22.4s-7.1,11.6-7.1,18c0,9,3.7,17.4,10.8,24.8c7.4,7.1,15.8,10.8,24.8,10.8c12.7,0,27.2-8.2,43.8-24.8
				L176.9,152.7z M184,111.3l2.6-2.1c4.5-3.4,8.5-6.6,11.4-9c2.9-2.6,5.3-4.8,6.6-6.6c2.9-3.4,4.2-7.7,4.2-12.9
				c0-5.8-1.8-10.3-5.8-14c-4-3.7-9-5.3-15.6-5.3c-5.8,0-10.8,1.8-15.1,5.5c-4,3.4-6.1,7.9-6.1,13.5c0,6.3,2.6,12.7,7.7,19l8.2,9.8
				C182.4,109.4,182.9,110.2,184,111.3z"/>
		</g>
	</g>
	<g opacity="0.1">
		<g>
			<path fill="#060506" d="M188.2,57c18.5,0.5,51.4,18.9,51.2,17.9c-0.9-4.9-4.5-23-14.1-31.5c-9.9-8.8-21.9-13.5-37-13.5
				c-15.6,0-28.3,4.5-38,13.7c-8,7.8-11.2,17.3-13.4,29C136.6,73.4,172.1,57.4,188.2,57z"/>
		</g>
	</g>
	<g opacity="0.1">
		<path d="M177.3,154.2c2.9-2.7,4.1-3.7,7.7-5.5c14.7,16.5,27.2,32.1,41,50.2c-3.4,2.4-6.2,6.9-6.2,6.9"/>
	</g>
	<g opacity="0.1">
		<path d="M237.9,214.9c-1,0.1-1.7,1-2.2,1.9c-8.3,12.9-81.3,60.9-108.6-11.2c-2.7-7.1-2.6-15.2-1.1-22.7c1.8-9,7.1-17.1,13.5-23.6
			c6.5-6.6,14.1-11.8,21.7-17c4.1-2.8,8.2-5.6,12.3-8.4c-12.9-15.3-43.9-43.8-12.2-85.5c5.9-7.8,4.9-7.4,13.6-12l-0.6-0.5
			c-31.8,7.3-39,31.1-39.1,50c-0.1,12.9,7.4,23.2,9.9,28.8c1.9,4.3,12.3,13.9,11.8,15.3c-0.4,1-20.5,14-21.3,14.6
			c-13,10.7-16.3,16.3-16.3,16.3s-16.6,20.6-8.9,51.4c4.8,19,20.9,36.4,41.7,43.1c49.8,15.8,76-16.7,87.4-26.5l21.7,26.7h11.1
			C262.4,243.4,239,214.8,237.9,214.9z"/>
	</g>
	<g opacity="0.1">
		<path d="M283.4,168.3c-8.2,9.7-16,19.3-23.9,29.3c-0.3,0.4-0.7,0.9-0.8,1.5c-0.1,0.9,2.2,5.3,3.4,6.7c6.2-6.7,12.7-13.6,17.8-20.2
			c2.4-3,7.1-9.7,7.6-10C287.2,175.4,283.6,168.5,283.4,168.3z"/>
	</g>
	<g opacity="0.1">
		<path d="M183,111.5c3.1,3.4,6.2,6.7,9.3,10.1c11.5-6.7,19.9-18.6,22.4-31.7c0.6-3,0.8-6.2,0.4-9.2c-1.2-8.6-8.6-15.5-17.1-16.8
			c5.1,2.8,8.3,6.2,10,11c1.8,4.8,1.2,10.6-1.1,15.2c-1.3,2.7-3.3,4.9-5.3,7.2c-5.1,5.6-10.5,9-17.3,14.7"/>
	</g>
</g>
<g id="Layer_46" display="none">
	<g display="inline" opacity="0.7">
		<path fill="#8E5E25" d="M161.9,73.1c-1.9,0.4-3.9,0.8-5.5,2.1c-1.1,0.9-1.8,2.2-2.4,3.5c-1.4,3.4-1.6,7.2-0.6,10.7
			c0.7,2.4,1.9,4.7,3.5,6.7c1.4,1.8,3,3.4,5,4.3c3.8,1.8,8.5,0.8,12-1.5s6-5.9,8.1-9.5c1-1.7,5.7-7.7,3-11.6
			C182.4,74.1,167.7,72,161.9,73.1z"/>
	</g>
	<g display="inline" opacity="0.5">
		<path fill="#5B3C1D" d="M161.9,73.1c-1.9,0.4-3.9,0.8-5.5,2.1c-1.1,0.9-1.8,2.2-2.4,3.5c-1.4,3.4,5.8,10.9,11.8,12.2
			c6,1.3,14,2.1,16.1-1.6c1-1.7,5.7-7.7,3-11.6C182.4,74.1,167.7,72,161.9,73.1z"/>
	</g>
	<g display="inline" opacity="0.7">
		<path fill="#8E5E25" d="M216.1,73.1c1.9,0.4,3.9,0.8,5.5,2.1c1.1,0.9,1.8,2.2,2.4,3.5c1.4,3.4,1.6,7.2,0.6,10.7
			c-0.7,2.4-1.9,4.7-3.5,6.7c-1.4,1.8-3,3.4-5,4.3c-3.8,1.8-8.5,0.8-12-1.5s-6-5.9-8.1-9.5c-1-1.7-5.7-7.7-3-11.6
			C195.6,74.1,210.3,72,216.1,73.1z"/>
	</g>
	<g display="inline" opacity="0.5">
		<path fill="#5B3C1D" d="M215.7,73.1c1.9,0.4,3.9,0.8,5.5,2.1c1.1,0.9,1.8,2.2,2.4,3.5c1.4,3.4-5.8,10.9-11.8,12.2
			c-6,1.3-14,2.1-16.1-1.6c-1-1.7-5.7-7.7-3-11.6C195.2,74.1,209.8,72,215.7,73.1z"/>
	</g>
	<g display="inline">
		<path fill="#D8B237" d="M167.3,73.1c7,0.9,13.6,3.7,20.6,4.5c6.7,0.7,12.8-4.3,19.5-4.3c0.6,0,2.1-0.9,0.8-0.9
			c-5.9,0.1-10.8,2.9-16.5,4.1c-4.3,0.9-9.5-1.5-13.7-2.6c-3.1-0.8-6.2-1.3-9.4-1.7C168.1,72.2,166.3,73,167.3,73.1L167.3,73.1z"/>
	</g>
	<g display="inline">
		<path fill="#D8B237" d="M182.1,76.6c8.2,4.7-2.6,15.7-6.6,20c-7.4,8-19.8,3.6-21.4-6.9c-0.4-2.7-0.4-5.6-0.4-8.3
			c0-5.8,6.6-8.1,11.4-8.2c8.6-0.1,17.1,0.1,25.7,0.2c8.1,0,16.2,0,24.3,0.8c4.3,0.4,6.1,1.5,7.9,5.9c1.6,3.7,1.4,7.5,0.1,11.2
			c-2.1,6.4-8.6,10.9-15.3,8.2c-3.3-1.3-5.5-2.7-7.8-5.3c-3.7-4.1-10-12.3-5.1-17.6c0.5-0.5-1.4-0.3-1.8,0.1
			c-5.5,6,1.8,14.5,5.8,19.1c4.8,5.4,12.6,7.1,19,4c8.3-4.1,9.8-15.5,5.8-22.8c-1.5-2.7-3.7-3.1-6.4-3.5c-4.9-0.7-9.9-0.7-14.9-0.8
			c-11.8-0.2-23.6-0.3-35.4-0.2c-5.7,0-15.2,1.8-15.2,9.4c-0.1,7.3,0.8,18.5,10.2,19.9c7.4,1.1,12.8-2.2,17.4-7.5
			c3.8-4.3,12.2-13.8,4.5-18.2C183.4,75.6,181.8,76.4,182.1,76.6L182.1,76.6z"/>
	</g>
	<g display="inline">
		<path fill="#D8B237" d="M186.5,84.3c0.6-0.7,1.5-1.4,2.4-1.3c0.8,0.1,1.9,0.8,2.4,1.4c0.6,0.7,2.4-0.1,1.8-0.9
			c-2.3-2.7-5.9-2.5-8.2,0.1C184.1,84.6,185.9,85,186.5,84.3L186.5,84.3z"/>
	</g>
</g>
<g id="Layer_49">
	<path fill="#B72037" d="M142,48.9c0.1-3.3,1.7-6.2,3.5-8.8c6.1-8.4,10-13.2,18.4-18.4c2.3-1.5,6.8-3,8.3-5.6c1.4-2.2,1.9-5,3.4-7.1
		c1.2-1.7,5.9-2.8,7.6-3.9c2.9-1.9,7.2-5.9,10.4-5c2.7,0.7,5.7,5.3,7.2,7.9s7.1,9.5,9.2,11.4c1.4,1.3,9.3,8.5,13.9,14.2
		c3.9,4.8,7.9,10.1,8.5,16.5"/>
	<path opacity="0.15" d="M191.3,15.9c-2.1,0.8-3.2,0.5-0.9,1.6c1.4,0.7,2.8,1.2,4.3,1.5c2.5,0.4,5,0.3,7.5,0.5
		c4,0.2,7.8,0.9,11.3,3.1c0.2,0.1,0.4,0.3,0.6,0.4c-1.9-1.8-3.4-3.2-3.9-3.7c-1.4-1.3-4.3-4.7-6.5-7.6
		C199.3,12.4,195.4,14.4,191.3,15.9z"/>
	<path opacity="0.1" d="M176.5,47.7c-0.3-0.7-0.3-1.5,0.1-2.2c-2-5.1,0.4-10.8,2.4-15.6c0.7-1.8,4-6.8,1.9-8.3
		c-1.1-0.8-2-1.6-2.8-2.7c-2.5-3.7,1.2-7.9,3.6-10.4c2-2,3.5-4.2,5.3-6.1c-1.4,0.9-2.7,2-3.8,2.7c-1.6,1.1-6.4,2.2-7.6,3.9
		c-1.5,2.1-2,4.9-3.4,7.1c-1.5,2.5-6,4.1-8.3,5.6c-8.4,5.2-12.2,10-18.4,18.4c-1.8,2.5-3.4,5.5-3.5,8.8l35.1,0.5
		C176.9,48.8,176.7,48.2,176.5,47.7z"/>
</g>
<g id="Layer_48">
	<g opacity="7.000000e-02">
		<path fill="none" d="M223.9,33.6c-0.8-1-1.7-2.1-2.7-3.2c2.8,5.1,5.5,10.2,6.1,16.2c0.1,0.9-1.8,1.4-1.9,0.5
			c-0.8-8.2-5.6-14.8-9.2-21.9c-2.9-2.9-5.4-5.2-6.2-5.8c-1.6-1.4-4.9-5.5-7.2-8.6c0.1,2.1,0.3,4,1,5.3c2.2,4,5.7,6.5,8.9,9.6
			c5.7,5.6,6.9,12.5,7.7,20.2c0.1,0.8-1.9,1.2-1.9,0.5c-0.4-4.2-0.7-8.7-2.4-12.6c-1.9-4.5-5-7.2-8.5-10.4c-2.3-2.1-5.5-4.9-6.2-8.2
			C201,13,201,10.6,201,8.2c-0.1-0.1-0.1-0.2-0.2-0.3c-0.4-0.7-1-1.6-1.6-2.5c0.3,1.5,0.5,3,0.6,4.5c0.1,1.8-0.5,4.5,0.1,6.2
			c0.8,2.4,2.7,3.5,4.3,5.3c5.3,6.2,8.4,13.6,8.9,21.8c0,0.6-1.9,0.9-1.9,0.5c-0.6-9.2-4.3-17.5-11-23.9c-2.9-2.8-1.9-5.7-2.2-9.4
			c-0.3-3.1-0.8-6-1.8-8.8c-0.8-0.8-1.7-1.3-2.5-1.6c-0.1,0-0.2,0-0.3,0c1.5,3.3,2.9,7.1,2.4,10.2c-0.4,2.7-2.1,6.4,0.6,8.5
			c1.4,1.1,2.8,2.3,3.8,3.8c4.3,6.6,5.5,14.2,3.5,21.8c-0.2,0.7-2.1,1-1.9,0.2c2.6-9.8-0.3-18-7.1-25.1c-2.9-3-0.7-5.4-0.8-9.1
			c-0.1-3.5-1.3-7-2.6-10.3c-0.5,0.1-1,0.3-1.5,0.6c0.9,3.5,1.7,7.1,1.4,10.6c-0.2,2.2-1,4.1-1.3,6.2c-0.4,2.8,1.8,3.2,3.3,4.4
			c6.2,4.8,5.6,12.5,4.7,19.6c-0.1,0.5-2,0.9-1.9,0.3c0.6-4.3,1.4-9.2-0.3-13.3c-1.7-4.3-4.6-5.2-7.4-8.3c-1.5-1.6,0.7-5.2,0.8-6.8
			c0.3-4-0.3-7.8-1.1-11.6c-0.1,0.1-0.3,0.2-0.4,0.3c0.2,3.4,0,6.8-1.3,10c-0.8,2.1-2.7,5.4-1.5,7.6c0.7,1.5,1.8,2.8,2.6,4.2
			c3.2,5.1,2.3,12.2,1.6,17.9c-0.1,0.7-2,1-1.9,0.2c1-7.7,0.9-14-3.7-20.6c-1.6-2.4-0.6-5.2,0.3-7.6c1.4-3.5,2.1-6.8,2-10.5
			c-0.6,0.4-1.1,0.8-1.6,1.2c-0.4,2.1-1,4-2,5.9c-2.1,4.1-2.6,7-1,11.4c2.3,6.5,2.5,12.7,0.5,19.3c-0.3,0.9-2.2,0.8-1.9-0.3
			c1.3-4.3,1.9-9,0.9-13.5c-0.8-3.3-2.2-6.4-2.7-9.8c-0.3-2.1,0.7-4.2,1.7-6.1c1-1.9,1.7-3.7,2.2-5.7c-0.6,0.3-1.3,0.5-2,0.8
			c-2.2,5.2-5.7,10.6-3.4,15.8c2.6,5.7,1.6,11.5,0.2,17.4c-0.2,0.8-2.2,1.1-2,0.2c0.7-3.1,1.6-6.4,1.5-9.7c-0.1-2-0.2-4.2-1.1-6.1
			c-0.5-1.2-1.5-2.6-1.6-3.9c-0.4-4.5,2.1-8.6,4-12.7c-0.7,0.4-1.3,0.8-1.7,1.3c-1.5,2.1-2,4.9-3.4,7.1c-0.1,0.2-0.2,0.3-0.3,0.5
			c-0.8,4.5-0.7,8.5-1,13.1c-0.3,4.2-1.1,8.3-2,12.4c-0.1,0.5-2,0.7-1.9,0.4c1.2-5.2,2.2-10.3,2-15.6c-0.1-2.9,0.1-5.6,0.7-8.3
			c-0.7,0.4-1.4,0.8-2.1,1.2c-2.3,7.8-3.9,15.7-4.9,23.8c-0.1,0.8-2.1,1.1-1.9,0.2c1-7.7,2.5-15.3,4.6-22.8c-0.5,0.3-1,0.5-1.4,0.8
			c-0.4,0.3-0.8,0.5-1.2,0.8c-4,7.3-6.9,14.9-8.9,23c-0.2,0.9-2.2,1.1-2,0.1c1.8-7.3,4.3-14.3,7.7-21c-1.5,1.1-2.8,2.2-4.1,3.4
			c-2.6,6-5.8,12.2-7.2,18.5c-0.2,0.9-2.2,1.1-2,0.1c1.1-5.1,3.3-10,5.5-14.8c-2,2.3-4,5-6.3,8.1c-1.8,2.5-3.4,5.5-3.5,8.8l90.5,1.3
			C231.8,43.6,227.8,38.4,223.9,33.6z"/>
		<path d="M194.6,19.6c6.8,7,9.7,15.2,7.1,25.1c-0.2,0.8,1.7,0.5,1.9-0.2c2.1-7.6,0.8-15.2-3.5-21.8c-1-1.5-2.3-2.7-3.8-3.8
			c-2.8-2.1-1.1-5.8-0.6-8.5c0.5-3.2-0.9-6.9-2.4-10.2c-0.7-0.1-1.4-0.1-2.2,0.2c1.4,3.3,2.6,6.8,2.6,10.3
			C193.8,14.2,191.6,16.6,194.6,19.6z"/>
		<path d="M200.1,19.9c6.7,6.4,10.4,14.7,11,23.9c0,0.4,2,0,1.9-0.5c-0.5-8.2-3.6-15.5-8.9-21.8c-1.6-1.8-3.5-2.9-4.3-5.3
			c-0.6-1.7,0-4.4-0.1-6.2c-0.1-1.5-0.3-3-0.6-4.5c-0.9-1.4-2-2.8-3.2-3.8c0.9,2.8,1.5,5.8,1.8,8.8
			C198.2,14.3,197.2,17.1,200.1,19.9z"/>
		<path d="M207.6,23.5c3.5,3.2,6.6,5.9,8.5,10.4c1.7,3.9,2,8.4,2.4,12.6c0.1,0.7,2,0.3,1.9-0.5c-0.7-7.7-2-14.6-7.7-20.2
			c-3.2-3.1-6.7-5.6-8.9-9.6c-0.7-1.4-1-3.3-1-5.3c-0.8-1-1.4-1.9-1.8-2.6c0,2.4,0,4.8,0.4,7.1C202.1,18.7,205.3,21.4,207.6,23.5z"
			/>
		<path d="M227.3,46.6c-0.6-6-3.3-11.1-6.1-16.2c-1.6-1.8-3.4-3.6-5-5.2c3.6,7.1,8.4,13.8,9.2,21.9C225.5,48,227.4,47.6,227.3,46.6z
			"/>
		<path d="M188.9,13.5c-0.1,1.7-2.3,5.2-0.8,6.8c2.9,3,5.7,4,7.4,8.3c1.7,4.1,0.8,9.1,0.3,13.3c-0.1,0.6,1.8,0.2,1.9-0.3
			c1-7,1.5-14.8-4.7-19.6c-1.6-1.2-3.7-1.6-3.3-4.4c0.3-2.1,1.1-4.1,1.3-6.2c0.3-3.5-0.5-7.2-1.4-10.6c-0.6,0.3-1.2,0.7-1.8,1.1
			C188.7,5.7,189.3,9.5,188.9,13.5z"/>
		<path d="M183.5,14c-1,2.4-2,5.2-0.3,7.6c4.5,6.6,4.6,12.8,3.7,20.6c-0.1,0.8,1.9,0.4,1.9-0.2c0.7-5.7,1.6-12.7-1.6-17.9
			c-0.9-1.4-1.9-2.7-2.6-4.2c-1.1-2.3,0.7-5.6,1.5-7.6c1.3-3.2,1.5-6.6,1.3-10c-0.6,0.4-1.3,0.9-1.9,1.3
			C185.6,7.2,184.9,10.5,183.5,14z"/>
		<path d="M177.7,17.7c0.5,3.4,2,6.5,2.7,9.8c1,4.5,0.4,9.2-0.9,13.5c-0.3,1.1,1.6,1.1,1.9,0.3c2-6.6,1.8-12.8-0.5-19.3
			c-1.6-4.4-1.1-7.3,1-11.4c1-1.9,1.6-3.9,2-5.9c-0.2,0.2-0.5,0.3-0.7,0.5c-0.4,0.3-1,0.5-1.6,0.8c-0.5,1.9-1.2,3.8-2.2,5.7
			C178.4,13.5,177.4,15.6,177.7,17.7z"/>
		<path d="M173.3,20.5c0.1,1.3,1,2.7,1.6,3.9c0.9,1.9,1,4,1.1,6.1c0.1,3.2-0.8,6.6-1.5,9.7c-0.2,0.9,1.8,0.7,2-0.2
			c1.4-5.9,2.4-11.7-0.2-17.4c-2.4-5.2,1.2-10.7,3.4-15.8c-0.8,0.3-1.6,0.7-2.3,1.1C175.4,11.9,172.9,16,173.3,20.5z"/>
		<path d="M168.9,26.9c0.2,5.3-0.8,10.5-2,15.6c-0.1,0.4,1.8,0.1,1.9-0.4c0.9-4.1,1.8-8.2,2-12.4c0.3-4.6,0.1-8.7,1-13.1
			c-0.6,0.7-1.4,1.4-2.3,1.9C169.1,21.3,168.8,24,168.9,26.9z"/>
		<path d="M162.5,43.6c1-8.1,2.7-16,4.9-23.8c-0.8,0.4-1.5,0.8-2.2,1.2c-2.1,7.5-3.7,15.1-4.6,22.8
			C160.5,44.7,162.4,44.4,162.5,43.6z"/>
		<path d="M153.8,45.5c1.9-8.1,4.9-15.7,8.9-23c-1.1,0.7-2.1,1.4-3.1,2.2c-3.4,6.7-6,13.7-7.7,21C151.6,46.6,153.6,46.4,153.8,45.5z
			"/>
		<path d="M148.3,46.7c1.4-6.4,4.6-12.5,7.2-18.5c-1.3,1.2-2.5,2.5-3.7,3.9c-2.2,4.8-4.4,9.7-5.5,14.8
			C146.1,47.8,148.1,47.6,148.3,46.7z"/>
	</g>
</g>
<g id="Layer_42">
	<path fill="#D3202C" d="M136,68.2c0,0.4-0.2,0.9,0,1.3c0.4,0.6,1.4,0.4,2.1,0.1c3.5-1.5,46.8-32.9,99.6,1.8
		c0.5,0.3,1.1,0.4,1.6,0.1c0.3-0.2,0.4-0.5,0.6-0.8c2.3-5.8-4.8-20.1-5.5-21.1c-0.6-0.8-1.4-1.4-2.2-2C226,43.2,184,34,146.9,45.9
		c-2.9,0.9-6.7,1.5-7.1,4.5C139.7,50.4,135.9,62.5,136,68.2z"/>
	<path opacity="0.1" d="M173.5,41.7c0-0.2,0-0.4,0-0.6c0-0.2,0.1-0.3,0.1-0.5c-8.8,0.8-17.9,2.4-26.8,5.2c-2.9,0.9-6.7,1.5-7.1,4.5
		c0,0-3.8,12.2-3.7,17.9c0,0.4-0.2,0.9,0,1.3c0.4,0.6,1.4,0.4,2.1,0.1c1.9-0.8,15-10.1,34.9-13.3C172.1,51.5,172.8,46.6,173.5,41.7z
		"/>
</g>
<g id="Layer_47">
	<g opacity="7.000000e-02">
		<path fill="none" d="M148.2,45.5c-0.5,0.1-0.9,0.3-1.4,0.4c-0.9,0.3-2,0.6-3,0.9c-2.1,7-3.1,14.1-3.1,21.4c1.4-0.8,3.2-1.8,5.4-3
			C145.9,58.5,146.8,52,148.2,45.5z"/>
		<path fill="none" d="M177.6,47.3c0.1-2.3,0.5-4.7,0.8-7.1c-1.6,0.1-3.1,0.2-4.7,0.4c-0.7,5.2-1.1,10.4-0.6,15.7
			c1.7-0.3,3.4-0.5,5.2-0.7C177.8,52.9,177.5,50.1,177.6,47.3z"/>
		<path fill="none" d="M180.3,40.2c-0.3,2.3-0.7,4.7-0.7,7c0,2.8,0.2,5.5,0.7,8.3c1.9-0.2,4-0.2,6-0.2c0.1-5.1,0.2-10.1,0.3-15.2
			C184.5,40.1,182.4,40.1,180.3,40.2z"/>
		<path fill="none" d="M192.6,40.2c-1.3,0-2.7-0.1-4.1-0.1c-0.1,5-0.2,10-0.3,15c0,0.1,0,0.1-0.1,0.2c1.3,0,2.6,0.1,4,0.2
			C192.4,50.3,192.6,45.2,192.6,40.2z"/>
		<path fill="none" d="M206.3,41.2c-1.5-0.2-3.1-0.3-4.6-0.5c0.4,5.3,0.5,10.6,0.2,15.9c1.6,0.3,3.2,0.6,4.8,1
			C207.6,52.1,207.1,46.7,206.3,41.2z"/>
		<path fill="none" d="M199.6,40.5c-1.7-0.1-3.4-0.2-5.1-0.3c0,5.1-0.2,10.2-0.5,15.3c1.9,0.2,3.9,0.4,5.9,0.7
			C200.1,51,200,45.8,199.6,40.5z"/>
		<path fill="none" d="M164.2,41.8c-2.4,0.4-4.7,0.8-7.1,1.3c-0.5,2.2-1,4.4-1.1,6.6c-0.2,3.7,0.1,7.3,0.4,11c2.2-0.8,4.5-1.6,7-2.3
			C162.9,52.9,163.2,47.3,164.2,41.8z"/>
		<path fill="none" d="M141.7,47.7c-1,0.6-1.8,1.4-2,2.7c0,0-3.8,12.2-3.7,17.9c0,0.4-0.2,0.9,0,1.3c0.4,0.6,1.4,0.4,2.1,0.1
			c0.2-0.1,0.4-0.2,0.8-0.4C138.8,61.9,139.7,54.8,141.7,47.7z"/>
		<path fill="none" d="M171.7,40.8c-1.9,0.2-3.7,0.4-5.6,0.7c-1,5.4-1.3,10.9-0.8,16.4c1.8-0.5,3.7-0.9,5.7-1.3
			C170.5,51.4,171,46.1,171.7,40.8z"/>
		<path fill="none" d="M221.5,43.9c-1.7-0.4-3.6-0.8-5.6-1.2c0.9,5.9,1.3,11.9,0.2,17.8c2,0.7,4,1.5,6,2.4
			C223,56.6,222.5,50.2,221.5,43.9z"/>
		<path fill="none" d="M235.1,50.9c1.5,6.6,2.2,13.3,2,20.2c0.2,0.1,0.4,0.3,0.7,0.4c0.5,0.3,1.1,0.4,1.6,0.1
			c0.3-0.2,0.4-0.5,0.6-0.8C241.9,65.8,236.9,54.6,235.1,50.9z"/>
		<path fill="none" d="M232.2,47.7C232.2,47.7,232.2,47.7,232.2,47.7c-0.5-0.4-1.4-0.8-2.4-1.3c1.2,6.9,1.6,13.9,1.1,20.9
			c1.4,0.8,2.8,1.6,4.2,2.5C235.2,62.3,234.2,55,232.2,47.7z"/>
		<path fill="none" d="M227.6,45.6c-1.2-0.4-2.5-0.8-4-1.2c0.9,6.4,1.4,12.9,0.4,19.4c1.7,0.8,3.4,1.6,5.1,2.6
			C229.4,59.4,228.9,52.5,227.6,45.6z"/>
		<path fill="none" d="M213.9,42.3c-1.8-0.3-3.7-0.6-5.6-0.9c0.8,5.3,1.2,10.7,0.3,16.1c0,0.2-0.3,0.4-0.5,0.5
			c2.1,0.5,4.2,1.2,6.4,1.9C215.3,54,214.8,48.2,213.9,42.3z"/>
		<path fill="none" d="M154,51.6c0.1-2.7,0.7-5.4,1.2-8c-1.6,0.4-3.3,0.8-4.9,1.3c-1.4,6.4-2.4,12.8-2.1,19.4c1.9-0.9,4-1.8,6.3-2.7
			C154.2,58.2,153.9,54.9,154,51.6z"/>
		<path d="M188.5,40.1c-0.6,0-1.3,0-1.9,0c-0.1,5.1-0.2,10.1-0.3,15.2c0.6,0,1.3,0,1.9,0c0-0.1,0.1-0.1,0.1-0.2
			C188.3,50.1,188.4,45.1,188.5,40.1z"/>
		<path d="M194.5,40.2c-0.6,0-1.3-0.1-1.9-0.1c0,5.1-0.1,10.2-0.4,15.3c0.6,0,1.3,0.1,1.9,0.1C194.3,50.4,194.5,45.3,194.5,40.2z"/>
		<path d="M201.6,40.7c-0.7-0.1-1.3-0.1-2-0.2c0.4,5.2,0.5,10.5,0.3,15.7c0.6,0.1,1.3,0.2,1.9,0.3C202.1,51.3,202,46,201.6,40.7z"/>
		<path d="M208.6,57.5c1-5.4,0.5-10.7-0.3-16.1c-0.7-0.1-1.4-0.2-2-0.3c0.8,5.5,1.3,10.9,0.4,16.4c0.5,0.1,0.9,0.2,1.4,0.4
			C208.3,57.9,208.5,57.7,208.6,57.5z"/>
		<path d="M216,42.7c-0.7-0.1-1.4-0.3-2.1-0.4c0.9,5.9,1.4,11.7,0.5,17.6c0.6,0.2,1.2,0.4,1.8,0.6C217.3,54.6,216.8,48.6,216,42.7z"
			/>
		<path d="M223.6,44.4c-0.7-0.2-1.4-0.4-2.1-0.5c0.9,6.4,1.5,12.7,0.6,19.1c0.6,0.3,1.2,0.5,1.8,0.8C225,57.3,224.5,50.9,223.6,44.4
			z"/>
		<path d="M229.8,46.5c-0.6-0.3-1.4-0.5-2.2-0.8c1.3,6.9,1.8,13.7,1.5,20.7c0.6,0.3,1.2,0.7,1.8,1C231.3,60.3,231,53.4,229.8,46.5z"
			/>
		<path d="M235.1,50.9c-0.3-0.6-0.5-1-0.6-1.1c-0.6-0.8-1.4-1.4-2.2-2c2,7.3,3,14.6,3,22.1c0.6,0.4,1.3,0.8,1.9,1.2
			C237.2,64.2,236.6,57.5,235.1,50.9z"/>
		<path d="M180.3,40.2c-0.6,0-1.3,0.1-1.9,0.1c-0.3,2.3-0.7,4.7-0.8,7.1c-0.1,2.8,0.2,5.6,0.6,8.3c0.7-0.1,1.3-0.1,2-0.2
			c-0.4-2.7-0.6-5.5-0.7-8.3C179.5,44.9,180,42.5,180.3,40.2z"/>
		<path d="M173.6,40.6c-0.6,0.1-1.3,0.1-1.9,0.2c-0.7,5.3-1.2,10.5-0.6,15.9c0.6-0.1,1.3-0.2,2-0.3
			C172.5,51.1,172.9,45.9,173.6,40.6z"/>
		<path d="M166.1,41.5c-0.6,0.1-1.3,0.2-1.9,0.3c-1,5.5-1.3,11.1-0.8,16.7c0.6-0.2,1.3-0.3,1.9-0.5C164.9,52.4,165.1,47,166.1,41.5z
			"/>
		<path d="M156,49.8c0.1-2.2,0.6-4.4,1.1-6.6c-0.6,0.1-1.3,0.3-1.9,0.4c-0.5,2.7-1.1,5.3-1.2,8c-0.1,3.3,0.2,6.6,0.5,9.9
			c0.6-0.2,1.3-0.5,1.9-0.7C156.1,57.1,155.8,53.4,156,49.8z"/>
		<path d="M150.3,44.8c-0.7,0.2-1.4,0.4-2.1,0.6c-1.4,6.5-2.4,13.1-1.9,19.7c0.6-0.3,1.2-0.6,1.9-0.9
			C147.8,57.7,148.9,51.3,150.3,44.8z"/>
		<path d="M143.9,46.8c-0.8,0.3-1.5,0.6-2.2,0.9c-2,7.1-2.9,14.2-2.8,21.5c0.5-0.3,1.1-0.7,1.9-1.1
			C140.8,60.9,141.8,53.8,143.9,46.8z"/>
	</g>
</g>
<g id="Layer_50">
</g>
<g id="Layer_9">
</g>
</svg>
