<?xml version="1.0" encoding="utf-8"?>
<!-- Generator: Adobe Illustrator 17.1.0, SVG Export Plug-In . SVG Version: 6.00 Build 0)  -->
<!DOCTYPE svg PUBLIC "-//W3C//DTD SVG 1.1//EN" "http://www.w3.org/Graphics/SVG/1.1/DTD/svg11.dtd">
<svg version="1.1" xmlns="http://www.w3.org/2000/svg" xmlns:xlink="http://www.w3.org/1999/xlink" x="0px" y="0px"
	 viewBox="0 0 400.4 294.8" enable-background="new 0 0 400.4 294.8" xml:space="preserve">
<g id="content" display="none">
	<g id="GO8ck2.tif" display="inline">
		
			<image overflow="visible" width="1263" height="873" id="Layer_0_1_" xlink:href="80CF4A052E9B4FAC.png"  transform="matrix(1 0 0 1 -427.0469 -235.8273)">
		</image>
	</g>
	<rect x="-155.4" y="42.5" display="inline" fill="#FFFFFF" width="716" height="264"/>
</g>
<g id="Layer_16">
	<path fill="#DFB994" d="M391.7,231c-0.4-0.1-0.8-0.1-1.2-0.2c-1.6-2-5.1-3.6-8.4-4.1c-2-0.3-4-0.5-6-0.6
		c-1.3-6.2-19.2-6.2-26.2-4.7c-4-2.5-10.2-4-13.6-4.7c-0.9-0.2-4.3-1-0.1,0.2c-2.2-0.6-4.5-1.2-6.8-1.7c-3.6-0.8-7.5-1.1-11.1-1.4
		c-3.2-0.2-6.5-0.3-9.8-0.1c-1.3-0.5-2.8-1-4.3-1.2c-6.3-1-13-0.6-19.2,0.8c-4-0.4-8.3-0.3-12.1-0.1c-12.7-0.8-25.1,0.5-36.8,3.8
		c-5.9-0.6-12.8,0.3-16.7,0.9c-2.5,0.4-5.1,1-7.7,1.6c-8.4-0.1-16.8,0.6-24.9,1.8c-0.5-1.4-1.8-2.6-4.5-3.3
		c-12.7-3.4-25.3-4.1-37.4-2.6c-4-0.5-8.4-0.2-12.5,0.4c-7.9-1.9-18.8-0.2-25,1.9c-2,0.7-4.1,1.4-6.1,2.1
		c-5.7-0.9-12.4-0.3-16.9,0.7c-5,1.2-10,2.3-15.1,3.3c-3.2-1.7-8.1-2.4-11.3-2.4c-3.8,0-7.6,0.1-11.4,0.3
		c-12.8-2.7-26.4,0.7-37.6,5.5c-4.2,1.8-10.5,5.4-9,9.7c0.5,1.5,1.9,2.6,3.6,3.4c-0.3,0.9-0.4,1.9,0,2.9c0.7,2.2,2.9,3.5,5.7,4.3
		c-2.3,1.7-4.3,4-3.4,6.5c1.4,4.2,9.4,5.4,14.2,5.4c2.8,0,5.5-0.1,8.3-0.2c0.2,0.3,0.5,0.6,0.9,0.9c5.8,4.6,17.6,3.6,24.8,2.2
		c0.9-0.2,1.8-0.4,2.7-0.5c0.9,0.9,2,1.6,3.4,2.1c3.3,1.2,6.9,1.7,10.7,1.7c-1,1-2,2-3,3.1c-3.1,3.3-1.9,7,3,8.8
		c4.4,1.6,9.5,1.9,14.4,1.5c-0.4,2.4,1.6,4.8,4.8,5.9c4.8,1.8,10.7,2,16.4,1.5c-3.5,9.1,17.2,9.5,25.7,7.5c7.1-1.7,13.9-3.7,20.3-6
		c6,1.9,12.8,1.6,19.2,0.5c0.8,0.2,1.5,0.4,2.3,0.5c9.6,1.6,20.4-0.3,28.8-3.9c1.8-0.7,3.5-1.5,5.2-2.3c1.6,0.6,3.3,1.1,4.7,1.3
		c7.7,1.3,16.3,0.2,23.5-2c2.9-0.9,5.7-1.9,8.4-2.9c4.4,2.2,12,2.8,16.7,2.2c6.6-0.9,12.9-2.1,18.9-3.7c1.8,2.1,6.1,3.5,8.7,3.9
		c7.4,1.2,16.7,0.4,23.5-2c2-0.7,4-1.5,6-2.2c0.2,0,0.5,0.1,0.7,0.1c9.8,1.6,20.3-0.4,28.8-3.9c18.9-7.5,32.4-19.9,48.2-30.3
		C403.2,238.6,401.5,232.7,391.7,231z"/>
	<g opacity="0.5">
		<path fill="#A57B55" d="M143.5,245.9c-2.1,0.1-4.2-0.6-6.2-1.3c-7.5-2.7-15.1-5.4-21.4-10.2c-3.4-2.6-8.7-10.9-9.9-15
			c6.1-4.2,14-1.8,20-3.7c5.9,9.6,14,22,22.7,29.2"/>
	</g>
	<g opacity="0.5">
		<path fill="#A57B55" d="M261.5,247c-4.8-1.3-9-3.8-13.3-6.4c-3.3-2-6.6-3.9-9.9-5.9c-1-0.6-2.2-1.5-2.1-2.8c0.1-0.5,0.4-1,0.8-1.4
			c2.6-2.7,6.8-3.4,10.4-2.3c3.6,1.1,6.5,3.9,8.4,7c1.9,3.2,3,6.8,3.9,10.4c0.1,0.3-0.2,0.7-0.4,0.5"/>
	</g>
	<g opacity="0.5">
		<path fill="#A57B55" d="M316.2,224.5c0.1,0.2,0.3,0.3,0.5,0.3c-4.7-3.8-5.1-6.5-9.7-11.5c4.5,0.5,8,0,12.3,1.3
			c1.1,0.3,1.3,0,2,0.9"/>
	</g>
	<g opacity="0.5">
		<path fill="#A57B55" d="M38.4,241.5c-5.6-5.1-12.3-12.5-17.5-18.1c0.9-1.3,15.3-2.9,21-2.3"/>
	</g>
</g>
<g id="Layer_17">
	<g>
		<path fill="#918B86" d="M126.3,42.2c11.4-2.7,24.4-1.7,34.9,3.5c2.6-3.3,5.1-6.6,7.7-9.9c0.6-0.8,1.2-1.7,0.9-2.7
			c-0.3-0.9-1.4-1.3-2.3-1.6c-2.2-0.6-4.3-1.3-6.6-1.5c-4-0.4-8.1,0.7-11.9,1.9c-7.6,2.4-15.2,6.3-22.3,9.9"/>
	</g>
	<g>
		<path fill="#918B86" d="M224.9,45.9c7.6-7.5,20.9-10.5,31.2-7.8c-6.1-5-15.8-7.7-23.6-7.2c-7.9,0.5-15.5,4.1-20.9,9.8"/>
	</g>
</g>
<g id="Layer_12">
	<g>
		<g>
			<path fill="#E7168E" d="M207.6,132.8l39.1,47.3l1.3-1.3c4.2-4.5,8.2-9,11.9-13.5c3.7-4.5,13.5-14.8,16.9-19.5l15.3,28
				c-2.6,3.7-6.1,8.2-10.3,13.2s-9.2,10.8-15.3,17.2l40.4,49.9H266l-21.7-26.7c-19.8,20.6-40.7,30.9-62.1,30.9
				c-19.3,0-35.6-6.1-49.1-18.5c-13.2-12.4-19.8-27.7-19.8-45.9c0-21.7,10.3-39.9,31.4-54.1l14.3-9.8c0.3,0,0.5-0.3,1.1-0.8
				c0.5-0.3,1.1-0.8,1.8-1.6c-14.3-15.3-21.7-30.4-21.7-45.2s4.8-26.7,14.3-35.9c9.8-9.2,22.4-13.7,38-13.7c15.1,0,27.2,4.5,37,13.5
				c9.8,9,14.8,20.3,14.8,33.8c0,9.5-2.6,18-7.9,25.6C230.8,113,221.3,122.3,207.6,132.8z M181.5,151.3l-1.8,1.3
				c-13.5,9.2-22.7,16.9-27.5,22.4c-4.8,5.5-7.1,11.6-7.1,18c0,9,3.7,17.4,10.8,24.8c7.4,7.1,15.8,10.8,24.8,10.8
				c12.7,0,27.2-8.2,43.8-24.8L181.5,151.3z M188.6,109.9l2.6-2.1c4.5-3.4,8.5-6.6,11.4-9c2.9-2.6,5.3-4.8,6.6-6.6
				c2.9-3.4,4.2-7.7,4.2-12.9c0-5.8-1.8-10.3-5.8-14c-4-3.7-9-5.3-15.6-5.3c-5.8,0-10.8,1.8-15.1,5.5c-4,3.4-6.1,7.9-6.1,13.5
				c0,6.3,2.6,12.7,7.7,19l8.2,9.8C187,108,187.5,108.8,188.6,109.9z"/>
		</g>
	</g>
	<g opacity="0.1">
		<path d="M179.7,34.4c-8.7,4.5-7.6,4.2-13.6,12c-31.7,41.7-0.7,70.2,12.2,85.5c-4.1,2.8-8.2,5.6-12.3,8.4
			c-7.6,5.2-15.3,10.4-21.7,17c-6.5,6.6-11.7,14.6-13.5,23.6c-1.5,7.5-0.9,15.4,1.1,22.7c11.4,42.4,47.6,40.3,59.3,48.8
			c-3.6,6.3-11.9,1.9-19.1,3.2c-7.2,1.3-8.9-0.8-15.9-2.9c-20.9-6.3-36-21.2-40.8-42.5c-7.3-31.9,8.6-49.9,8.6-49.9
			s3.5-7.2,16.5-17.9c0.8-0.7,21-13.6,21.3-14.6c0.5-1.3-9.9-11-11.8-15.3c-2.5-5.6-9.9-15.9-9.9-28.8c0.1-18.8,7.3-42.7,39.1-50"/>
	</g>
	<g opacity="0.1">
		<path d="M182,152.2c2.9-2.7,4.1-3.7,7.7-5.5c14.7,16.5,27.2,32.1,41,50.2c-3.4,2.4-6.2,6.9-6.2,6.9"/>
	</g>
	<g opacity="0.1">
		<path d="M207.2,249.4c13.8-7.8,25.7-19.1,34.3-32.4c0.5-0.8,1.2-1.8,2.2-1.9c1-0.1,1.9,0.8,2.6,1.5c9.9,11.4,15.9,19.4,24.2,32.1
			c-4.1,2.3-2,2.1-6.7,1.8c-2.3-0.1-18.6-23.7-19.8-22.7c-6.6,6-22.3,24.5-37,21.7"/>
	</g>
	<g opacity="0.1">
		<path d="M288.1,166.4c-8.2,9.7-16,19.3-23.9,29.3c-0.3,0.4-0.7,0.9-0.8,1.5c-0.1,0.9,2.2,5.3,3.4,6.7c6.2-6.7,12.7-13.6,17.8-20.2
			c2.4-3,7.1-9.7,7.6-10C291.9,173.5,288.3,166.6,288.1,166.4z"/>
	</g>
	<g opacity="0.1">
		<path d="M187.7,109.5c3.1,3.4,6.2,6.7,9.3,10.1c11.5-6.7,19.9-18.6,22.4-31.7c0.6-3,0.8-6.2,0.4-9.2c-1.2-8.6-8.6-15.5-17.1-16.8
			c5.1,2.8,8.3,6.2,10,11c1.8,4.8,1.2,10.6-1.1,15.2c-1.3,2.7-3.3,4.9-5.3,7.2c-5.1,5.6-10.5,9-17.3,14.7"/>
	</g>
	<g opacity="0.15">
		<path d="M220.8,40.1c2.6,4.5,5,10,6.6,15c0.2,0.5,2.1,0,1.9-0.5c-1.6-5-2.9-8.4-5.5-12.9c-0.3-0.5-2.9-1.9-2.7-1.6H220.8z"/>
	</g>
	<g opacity="0.15">
		<path d="M186.4,35.2c-0.8,4.1-1,8.2-0.6,12.4c0.1,0.7,2,0.3,1.9-0.5c-0.4-4.1-0.2-8.1,0.6-12.1C188.5,34.2,186.5,34.5,186.4,35.2
			L186.4,35.2z"/>
	</g>
	<g opacity="0.15">
		<path d="M226.1,43.9c-3.4,0.2-7.7-3.8-18.4,6.7c-7.8-6.5-18.4-10.4-30.6-4.4c-3.7,1.8-5,4.8-8.2,7.4c-3.4-2-7.8-2-11.3-0.2
			c-2.8,1.5-5,4-8,5c-0.9,0.3-2.3,0.2-2.4-0.8c0-0.3,0.1-0.6,0.2-0.9c2.7-6.7,8.2-11.6,14.2-15.6c3-2,6.8-3.6,10.2-4.7
			c6.8-2.2,14.2-2.4,21.3-2.3c2.9,0,5.8,1.6,8.7,1.7c8.9,0.1,16.7,1.4,24.5,7.9"/>
	</g>
</g>
<g id="Layer_18">
	<g>
		<path fill="#DFB994" d="M217.1,256.3c3.9-0.3,7.9-1.3,11.5-2.4c5.5-1.4,11.2-3.5,15.4-6.9c1.1-0.9,1.6-1.6,1.8-2.3
			c0.6-0.9,0.4-1.7-0.9-2.2c-4.4-1.7-8.6-3.2-13.4-3c-6.5,0.2-13,1.6-19.2,3.6c-0.3-0.1-0.7-0.2-1-0.3c-5.3-1-10.7-0.2-16,0.8
			c-3.7,0.7-7.3,1.6-10.8,2.9c-5.2-2-10.2-4.1-16-4.5c-11.8-0.8-23.5,1.6-34.7,5.5c-1.1,0.4-17.4,6.8-11.8,9.8
			c2.7,1.5,6.9,1,9.7,0.6c2.9-0.3,5.8-0.9,8.7-1.6c0.9,0.1,1.8,0.3,2.6,0.6c3.8,1.2,7.3,3,11,4.2c1.8,0.6,3.6,1,5.4,1.2
			c-2.8,5.2,14.1,2.6,15.2,2.4c6-1,12-2.3,17.9-3.8C200.8,259.5,209,257.9,217.1,256.3z"/>
		<path fill="#DFB994" d="M329.1,246.6c-4.9-9.1-21.3-5.1-29-3.1c-2.8,0.8-5.6,1.6-8.3,2.6c-3-1.3-6.3-2.2-9.5-2.6
			c-11.6-1.5-23.3,0.8-34.2,4.7c-1.7,0.6-17.4,7.1-11.6,10.9c4.4,2.9,11.8,1.7,17.9,0c1.2,0.4,2.4,0.8,3.6,1.4
			c1.7,0.9,3.2,2.1,4.6,3.3c3.2,2.6,8.2,2.4,11.9,2.2c5-0.3,10.1-1.2,15-2.9c2.7,0.3,5.6,0.1,8.2-0.2c8.6-0.9,19.3-3.1,25.9-9.2
			c0.7-0.6,1.1-1.1,1.4-1.6C327.9,250.4,330.1,248.4,329.1,246.6z M270.7,257.3c0.1-0.1,0.2-0.1,0.4-0.2
			C269.9,258,269.8,258,270.7,257.3z"/>
	</g>
</g>
<g id="Layer_10">
	<g>
		<path fill="#845324" d="M108.3,240.1c0.2,0,0.2,0,0.3,0.1c0,0.1,0.1,0.2,0.1,0.2c0,0.2,0-0.1,0,0c0,1,2,0.8,2-0.1
			c0-0.9-0.7-1.6-1.6-1.6c-0.5,0-1,0.1-1.3,0.6C107.5,239.7,107.9,240.1,108.3,240.1L108.3,240.1z"/>
	</g>
	<g>
		<path fill="#845324" d="M128.6,258.9c0.1,0.8,0.8,1.3,1.6,1.4c0.5,0,1-0.1,1.3-0.6c0.2-0.4-0.2-0.7-0.6-0.8
			c-0.3,0-0.3-0.4-0.4-0.6c0-0.5-0.8-0.5-1.1-0.4C129,258.1,128.6,258.4,128.6,258.9L128.6,258.9z"/>
	</g>
	<g>
		<path fill="#845324" d="M99.9,260.9c0.2,0.2,0.3,0.3,0.5,0.5c0.3,0.3,2.1-0.4,1.8-0.6c-0.2-0.2-0.3-0.3-0.5-0.5
			C101.4,259.9,99.7,260.7,99.9,260.9L99.9,260.9z"/>
	</g>
	<g>
		<path fill="#845324" d="M88.8,244.2c0.9,0,2-1.3,0.7-1.3C88.6,242.9,87.5,244.2,88.8,244.2L88.8,244.2z"/>
	</g>
	<g>
		<path fill="#845324" d="M73.5,256c0,0.2,0,0.3,0,0.5c0,0.3,1.9,0,1.9-0.5c0-0.2,0-0.3,0-0.5C75.5,255.1,73.5,255.4,73.5,256
			L73.5,256z"/>
	</g>
	<g>
		<path fill="#845324" d="M133.5,278.7c0,0.8,0.2,1.3,1.1,1.4c0.4,0,1-0.2,1.3-0.5c0.3-0.4-0.2-0.6-0.5-0.6c0.3,0,0.2,0.1,0.1-0.2
			c0-0.1,0-0.2,0-0.4C135.4,277.7,133.5,278.1,133.5,278.7L133.5,278.7z"/>
	</g>
	<g>
		<path fill="#845324" d="M154.9,263.5c0.2-0.2,0.3-0.3,0.5-0.5c0.3-0.3-0.3-0.5-0.5-0.5c-0.5,0-1,0.2-1.3,0.5
			c-0.2,0.2-0.3,0.3-0.5,0.5c-0.3,0.3,0.3,0.5,0.5,0.5C154,264,154.5,263.8,154.9,263.5L154.9,263.5z"/>
	</g>
	<g>
		<path fill="#845324" d="M166.2,277.7c0,0.8,0,1.7,0.6,2.3c0.5,0.6,2.4-0.1,1.8-0.8c-0.4-0.4-0.4-1.1-0.4-1.6
			C168.1,276.6,166.2,276.9,166.2,277.7L166.2,277.7z"/>
	</g>
	<g>
		<path fill="#845324" d="M181.3,277.4c0,0.4,0.3,0.8,0.6,1.1c0.3,0.3,0.9,0.3,1.3,0.1c0.3-0.1,0.8-0.6,0.5-1
			c-0.2-0.2-0.4-0.5-0.4-0.8c0-0.5-0.8-0.4-1.1-0.4C181.7,276.6,181.2,276.9,181.3,277.4L181.3,277.4z"/>
	</g>
	<g>
		<path fill="#845324" d="M201.7,277.9C201.6,277.9,201.8,278,201.7,277.9c-0.2-0.1-0.3-0.2-0.4-0.2c-0.1-0.1,0-0.1,0,0.1
			c0,1,2,0.7,2-0.2c0-0.3,0-0.6-0.2-0.8c-0.3-0.3-0.8-0.3-1.2-0.3c-0.4,0-1,0.3-1.1,0.8C200.7,277.7,201.3,277.9,201.7,277.9
			L201.7,277.9z"/>
	</g>
	<g>
		<path fill="#845324" d="M203,259.3c0.4-0.4,0.7-0.7,0.7-1.3c0-0.9-1.9-0.5-1.9,0.2c0,0.4,0,0.4-0.3,0.7c-0.3,0.3-0.2,0.7,0.2,0.8
			C202.1,259.8,202.7,259.7,203,259.3L203,259.3z"/>
	</g>
	<g>
		<path fill="#845324" d="M209.5,248c0,0.4,0,0.7,0.3,0.9c0.3,0.3,0.8,0.3,1.1,0.3c0.4,0,1-0.3,1.1-0.8c0-0.5-0.5-0.7-0.9-0.7
			c-0.1,0-0.2,0,0,0c0.5,0,0.5,0.5,0.5,0.2C211.5,246.8,209.5,247,209.5,248L209.5,248z"/>
	</g>
	<g>
		<path fill="#845324" d="M230.1,256.6c0.2,0.2,0.4,0.3,0.4,0.7c0,0.9,1.9,0.5,1.9-0.2c0-0.6-0.2-0.9-0.6-1.3
			C231.4,255.3,229.5,256,230.1,256.6L230.1,256.6z"/>
	</g>
	<g>
		<path fill="#845324" d="M264.2,267c0,0.4-0.2-0.1,0.6-0.2c-0.4,0-1,0.3-1.1,0.7c-0.1,0.5,0.6,0.5,0.9,0.5c0.6-0.1,1.5-0.4,1.6-1.2
			C266.1,265.9,264.2,266.3,264.2,267L264.2,267z"/>
	</g>
	<g>
		<path fill="#845324" d="M242.9,270.2c-0.3,0.3-0.6,0.6-1,1c-0.3,0.3-0.2,0.6,0.2,0.7c0.4,0.1,1,0,1.4-0.4c0.3-0.3,0.6-0.6,1-1
			c0.3-0.3,0.2-0.6-0.2-0.7C243.8,269.7,243.2,269.8,242.9,270.2L242.9,270.2z"/>
	</g>
	<g>
		<path fill="#845324" d="M304,234.2c0.2-0.2,0.3-0.3,0.5-0.5c0.3-0.3-0.3-0.4-0.5-0.4c-0.4,0-1,0.2-1.3,0.5
			c-0.2,0.2-0.3,0.3-0.5,0.5c-0.3,0.3,0.3,0.4,0.5,0.4C303.2,234.6,303.7,234.5,304,234.2L304,234.2z"/>
	</g>
	<g>
		<path fill="#845324" d="M319.8,233.8c-0.4,0,0,0-0.2,0c0.1,0,0.1,0.2,0.1,0.3c0.1,0.6,2,0.2,1.9-0.5c-0.1-0.6-0.6-0.7-1.1-0.7
			c-0.4,0-1,0.2-1.3,0.5C319,233.7,319.6,233.8,319.8,233.8L319.8,233.8z"/>
	</g>
	<g>
		<path fill="#845324" d="M336.5,242.2c0.4,0,0,0.1-0.2-0.3c0,0,0,0.2,0,0.2c0,0.9,1.9,0.6,1.9-0.2c0-0.3,0-0.6-0.2-0.8
			c-0.3-0.3-0.6-0.3-0.9-0.3c-0.5,0-1,0.1-1.3,0.6C335.7,241.9,336.1,242.2,336.5,242.2L336.5,242.2z"/>
	</g>
	<g>
		<path fill="#845324" d="M327.5,254.3c-0.5,0.1-1,0.2-1.5,0.5c-0.4,0.2-0.5,0.7-0.8,1c-0.3,0.3,0.3,0.3,0.5,0.3
			c0.4,0,1-0.2,1.3-0.5c0.1-0.2,0.3-0.3,0.4-0.5c0-0.1,0.1-0.2,0.1-0.2c0.1-0.2,0.1-0.1-0.2,0c-0.3,0.1-0.5,0.1-0.8,0.2
			c0,0,0.1,0,0.1,0c0.4,0,1-0.2,1.3-0.5C328.2,254.4,327.6,254.3,327.5,254.3L327.5,254.3z"/>
	</g>
	<g>
		<path fill="#845324" d="M309.5,253.3c0,0.8,0.2,1.6,1.1,1.7c0.5,0,1-0.1,1.3-0.6c0.2-0.4-0.2-0.8-0.6-0.9c0.2,0,0.2,0.3,0.2,0
			c0-0.1,0-0.2,0-0.3C311.5,252.1,309.5,252.4,309.5,253.3L309.5,253.3z"/>
	</g>
	<g>
		<path fill="#845324" d="M292.5,270.2c0.1,0.1,0.2,0.2,0.2,0.3c0.2,0.3-0.2,0.2,0.4,0c0.3-0.1,0.5-0.1,0.8-0.2c0,0-0.1,0-0.1,0
			c-0.4,0-1,0.1-1.3,0.5c-0.3,0.3,0.3,0.4,0.5,0.4c0.5-0.1,1.3-0.2,1.6-0.7c0.3-0.4,0-0.8-0.3-1.1
			C293.9,269.1,292.1,269.8,292.5,270.2L292.5,270.2z"/>
	</g>
	<g>
		<path fill="#845324" d="M281.7,259.5c0-0.7-0.1-1.2-0.6-1.8c-0.5-0.6-2.4,0.2-1.8,0.8c0.3,0.3,0.4,0.7,0.4,1.2
			C279.8,260.6,281.7,260.3,281.7,259.5L281.7,259.5z"/>
	</g>
	<g>
		<path fill="#845324" d="M243.6,234.3c-0.4,0-0.8,0.1-1.2,0.3c-0.1,0.1-0.2,0.1-0.3,0.2c-0.1,0.1-0.1,0.1-0.2,0.2
			c-0.3,0.3,0,0.2,0.8-0.2c-0.4,0-1,0.1-1.3,0.5c-0.3,0.3,0.2,0.5,0.5,0.4c0.4,0,0.8-0.1,1.2-0.3c0.1-0.1,0.2-0.1,0.3-0.2
			c0.1-0.1,0.1-0.1,0.2-0.2c0.3-0.3,0-0.2-0.8,0.2c0.4,0,1-0.1,1.3-0.5C244.4,234.4,243.8,234.3,243.6,234.3L243.6,234.3z"/>
	</g>
	<g>
		<path fill="#845324" d="M185.3,222.8c-0.3,0-0.6,0.1-0.9,0.2c-0.2,0.1-0.4,0.2-0.6,0.3c-0.4,0-1,0.3-1.1,0.8
			c-0.1,0.5,0.5,0.7,0.9,0.7c0.3,0,0.6-0.1,0.9-0.2c0.2-0.1,0.4-0.2,0.6-0.3c0.4,0,1-0.3,1.1-0.8C186.2,223,185.6,222.8,185.3,222.8
			L185.3,222.8z"/>
	</g>
	<g>
		<path fill="#845324" d="M191.1,251.2c0.5,0.5,0.8,0.6,1.5,0.6c0.4,0,1-0.2,1.3-0.5c0.3-0.3-0.3-0.4-0.5-0.4c-0.3,0,0,0-0.1,0
			c-0.1-0.1-0.3-0.2-0.4-0.4C192.5,250.1,190.7,250.8,191.1,251.2L191.1,251.2z"/>
	</g>
	<g>
		<path fill="#845324" d="M149.7,247.3c0.2,0.2,0.3,0.3,0.5,0.5c0.5,0.5,2.4-0.2,1.8-0.8c-0.2-0.2-0.3-0.3-0.5-0.5
			C150.9,246,149.1,246.8,149.7,247.3L149.7,247.3z"/>
	</g>
	<g>
		<path fill="#845324" d="M221.7,245.2c0,0.5,0.2,0.7,0.5,1.1c0.4,0.4,2.2-0.3,1.8-0.7c-0.3-0.3-0.4-0.4-0.4-0.9
			C223.7,244.3,221.7,244.6,221.7,245.2L221.7,245.2z"/>
	</g>
	<g>
		<path fill="#845324" d="M220.2,264c-0.4,0-0.8,0.1-1.2,0.3c-0.1,0.1-0.2,0.1-0.3,0.2c-0.1,0.1-0.1,0.1-0.2,0.2
			c-0.3,0.3,0,0.2,0.8-0.2c-0.4,0-1,0.1-1.3,0.5c-0.3,0.3,0.2,0.4,0.5,0.4c0.4,0,0.8-0.1,1.2-0.3c0.1-0.1,0.2-0.1,0.3-0.2
			c0.1-0.1,0.1-0.1,0.2-0.2c0.3-0.3,0-0.2-0.8,0.2c0.4,0,1-0.1,1.3-0.5C221,264.1,220.4,264,220.2,264L220.2,264z"/>
	</g>
	<g>
		<path fill="#845324" d="M220.8,279.5c0.1,0.1,0.2,0.2,0.3,0.3c0-0.1,0-0.1,0-0.2c-0.1,0.1-0.1,0.2-0.2,0.2
			c-0.3,0.3-0.2,0.7,0.2,0.8c0.5,0.1,1,0,1.4-0.4c0.2-0.2,0.4-0.5,0.5-0.8c0.1-0.3-0.3-0.6-0.4-0.8
			C222.1,278.2,220.2,278.9,220.8,279.5L220.8,279.5z"/>
	</g>
	<g>
		<path fill="#845324" d="M188.2,264.8c0.2,0.2,0.3,0.3,0.5,0.5c0.4,0.4,2.3-0.3,1.8-0.7c-0.2-0.2-0.3-0.3-0.5-0.5
			C189.5,263.7,187.7,264.4,188.2,264.8L188.2,264.8z"/>
	</g>
	<g>
		<path fill="#845324" d="M175.4,255.6c0-0.2,0-0.3,0-0.5c0-0.9-1.9-0.6-1.9,0.2c0,0.2,0,0.3,0,0.5
			C173.5,256.7,175.4,256.4,175.4,255.6L175.4,255.6z"/>
	</g>
	<g>
		<path fill="#845324" d="M166.2,270.4c0,0.3,0,0.6,0,1c0,0.8,1.9,0.4,1.9-0.2c0-0.3,0-0.6,0-1C168.1,269.4,166.2,269.8,166.2,270.4
			L166.2,270.4z"/>
	</g>
	<g>
		<path fill="#845324" d="M143.4,258.4c-0.3,0.3-0.6,0.7-1,1c-0.3,0.3-0.2,0.6,0.2,0.7c0.4,0.1,1,0,1.4-0.4c0.3-0.3,0.6-0.7,1-1
			c0.3-0.3,0.2-0.6-0.2-0.7C144.4,258,143.8,258.1,143.4,258.4L143.4,258.4z"/>
	</g>
	<g>
		<path fill="#845324" d="M126.7,244.8c-0.5-0.2-1.2-0.4-1.6-0.8c-0.4-0.3-0.9-0.4-1.3-0.1c-0.3,0.1-0.8,0.6-0.5,1
			c0.7,0.6,1.5,0.8,2.3,1.2C126.4,246.5,127.8,245.4,126.7,244.8L126.7,244.8z"/>
	</g>
	<g>
		<path fill="#845324" d="M119.2,231.7c0.2-0.2,0.5-0.4,0.5-0.6c0-0.2-0.3-0.4-0.4-0.6c-0.3-0.3-2.1,0.4-1.8,0.6
			c0.3,0.3,0.4,0.4,0,0.7c-0.3,0.3,0.3,0.3,0.4,0.3C118.3,232.1,118.9,232,119.2,231.7L119.2,231.7z"/>
	</g>
	<g>
		<path fill="#845324" d="M100.5,251.6c-0.4,0.4-1,0.6-1.5,1c-0.3,0.3-0.2,0.6,0.2,0.7c0.5,0.1,1-0.1,1.4-0.4c0.4-0.4,1-0.6,1.5-1
			c0.3-0.3,0.2-0.6-0.2-0.7C101.4,251.2,100.9,251.3,100.5,251.6L100.5,251.6z"/>
	</g>
	<g>
		<path fill="#845324" d="M99.8,233.2c0-0.2,0-0.3,0-0.5c0-1-2-0.6-2,0.2c0,0.2,0,0.3,0,0.5C97.9,234.3,99.8,234,99.8,233.2
			L99.8,233.2z"/>
	</g>
	<g>
		<path fill="#845324" d="M75.8,235.1c-1.5,0-2.9,0-4.4,0c-0.5,0-1,0.1-1.3,0.6c-0.2,0.4,0.2,0.7,0.6,0.7c1.5,0,2.9,0,4.4,0
			c0.5,0,1-0.1,1.3-0.6C76.6,235.4,76.2,235.1,75.8,235.1L75.8,235.1z"/>
	</g>
	<g>
		<path fill="#845324" d="M61.8,246.5c0,0.1,0,0.3,0,0.4c0,0.5-0.2-0.1,0.6-0.2c-0.4,0-1,0.3-1.1,0.7c-0.1,0.5,0.5,0.6,0.9,0.6
			c0.5,0,0.9-0.2,1.3-0.6c0.3-0.3,0.3-0.7,0.3-1.1C63.8,245.4,61.8,245.8,61.8,246.5L61.8,246.5z"/>
	</g>
	<g>
		<path fill="#845324" d="M73,247.1c0,0.1,0,0.1,0,0.2c0.1-0.1,0.1-0.1-0.1,0c-0.2,0.2-0.5,0.3-0.7,0.5c-0.3,0.3-0.2,0.6,0.2,0.6
			c0.4,0.1,1-0.1,1.4-0.4c0.4-0.4,1.1-0.6,1.2-1.2C75,246.1,73.1,246.5,73,247.1L73,247.1z"/>
	</g>
	<g>
		<path fill="#845324" d="M75,239.8c0,0.1,0,0.2,0,0.3c-0.1,0.3-0.4,0.2,0.2,0.1c-0.3,0-1,0.2-1.1,0.6c-0.1,0.4,0.6,0.3,0.8,0.3
			c0.9-0.1,2-0.6,2.1-1.6C77,238.8,75,239.2,75,239.8L75,239.8z"/>
	</g>
	<g>
		<path fill="#845324" d="M62,237.4c-0.5,0.5-1,1-1.5,1.5c-0.3,0.3-0.1,0.8,0.3,0.9c0.5,0.2,1,0,1.4-0.4c0.5-0.5,1-1,1.5-1.5
			c0.3-0.3,0.1-0.8-0.3-0.9C62.9,236.8,62.3,237,62,237.4L62,237.4z"/>
	</g>
	<g>
		<path fill="#845324" d="M66.7,231.2c0-0.1,0-0.2,0-0.3c0.1-0.3,0.4-0.2-0.2-0.1c0.3,0,1-0.2,1.1-0.6c0.1-0.4-0.6-0.3-0.8-0.3
			c-0.8,0.1-2,0.6-2.1,1.6C64.7,232.1,66.6,231.8,66.7,231.2L66.7,231.2z"/>
	</g>
	<g>
		<path fill="#845324" d="M97,232.3c-0.2,0.2-0.4,0.3-0.6,0.4c-0.3,0.2-0.6,0.4-0.8,0.6c-0.3,0.3,0.3,0.4,0.5,0.4
			c0.5,0,0.9-0.2,1.3-0.5c0.2-0.2,0.4-0.3,0.6-0.4c0.3-0.2,0.6-0.4,0.8-0.6c0.3-0.3-0.3-0.4-0.5-0.4C97.8,231.9,97.4,232,97,232.3
			L97,232.3z"/>
	</g>
	<g>
		<path fill="#845324" d="M80.3,258.4C80.6,258.4,80.2,258.4,80.3,258.4c-0.2-0.1-0.3-0.2-0.4-0.3c0,0,0-0.2,0,0.1
			c0,1.1,2,0.8,2-0.1c0-0.3,0-0.6-0.2-0.8c-0.3-0.3-0.8-0.4-1.2-0.4c-0.4,0-1,0.3-1.1,0.8C79.3,258.2,79.9,258.4,80.3,258.4
			L80.3,258.4z"/>
	</g>
	<g>
		<path fill="#845324" d="M95,262.8c0.1,0.8,0.8,1.2,1.6,1.3c0.4,0,1-0.2,1.3-0.5c0.2-0.4-0.2-0.6-0.5-0.6c-0.2,0-0.4-0.4-0.4-0.6
			C96.8,261.6,94.9,262,95,262.8L95,262.8z"/>
	</g>
	<g>
		<path fill="#845324" d="M103.4,272.3c0.7,0,2.1-1,0.8-1C103.5,271.3,102.1,272.3,103.4,272.3L103.4,272.3z"/>
	</g>
	<g>
		<path fill="#845324" d="M113.4,265.9c0.4,0,2.2-0.8,1.2-0.8C114.2,265,112.4,265.9,113.4,265.9L113.4,265.9z"/>
	</g>
	<g>
		<path fill="#845324" d="M120.2,253.7c0.2,0,0.3,0,0.5,0c0.5,0,1-0.1,1.4-0.4c0.3-0.2,0.3-0.5-0.1-0.5c-0.2,0-0.3,0-0.5,0
			c-0.5,0-1,0.1-1.4,0.4C119.8,253.4,119.8,253.7,120.2,253.7L120.2,253.7z"/>
	</g>
	<g>
		<path fill="#845324" d="M122.3,260.4c0.3,0.3,0.4,0.5,0.4,0.9c0,0.4,1.9,0.1,1.9-0.5c0-0.5-0.2-0.7-0.5-1.1
			C123.8,259.4,122,260.1,122.3,260.4L122.3,260.4z"/>
	</g>
	<g>
		<path fill="#845324" d="M121.3,275.8c0,0.2,0,0.3,0,0.5c0,1,2,0.7,2-0.1c0-0.2,0-0.3,0-0.5C123.3,274.6,121.3,274.9,121.3,275.8
			L121.3,275.8z"/>
	</g>
	<g>
		<path fill="#845324" d="M116.4,283.8c0,0.3,0,0.7,0,1c0,0.3,1.9,0,1.9-0.5c0-0.3,0-0.7,0-1C118.4,282.9,116.4,283.2,116.4,283.8
			L116.4,283.8z"/>
	</g>
	<g>
		<path fill="#845324" d="M129.6,283.8c0,0.7,0.5,1.6,1,2.1c0.5,0.5,2.3-0.2,1.8-0.8c-0.5-0.5-0.9-1.1-0.9-1.8
			C131.5,282.5,129.6,283,129.6,283.8L129.6,283.8z"/>
	</g>
	<g>
		<path fill="#845324" d="M152,282.8c0,0.4-0.1,0.5-0.4,0.8c-0.3,0.3,0.3,0.3,0.4,0.3c0.4,0,1-0.2,1.3-0.4c0.4-0.4,0.6-0.6,0.6-1.1
			C154,282,152,282.3,152,282.8L152,282.8z"/>
	</g>
	<g>
		<path fill="#845324" d="M150.1,277.4c0,0.5,0.4,0.9,0.5,1.5c0,0.5,0.8,0.4,1.1,0.4c0.4-0.1,0.8-0.4,0.8-0.9c0-0.5-0.4-0.9-0.5-1.5
			c0-0.5-0.8-0.4-1.1-0.4C150.5,276.7,150,276.9,150.1,277.4L150.1,277.4z"/>
	</g>
	<g>
		<path fill="#845324" d="M145.6,274.8c-0.5,0-0.9,0.1-1.4,0.3c-0.4,0.2-0.5,0.4-0.5,0.9c0,0.4,1.9,0.1,1.9-0.5c0-0.1,0-0.2,0-0.3
			c-0.1,0.5-1.7,0.5-0.9,0.5c0.4,0,1-0.2,1.3-0.5C146.4,274.8,145.8,274.8,145.6,274.8L145.6,274.8z"/>
	</g>
	<g>
		<path fill="#845324" d="M137.9,269.1c0-0.7,0-1.3,0-2c0-0.3-1.9,0-1.9,0.5c0,0.7,0,1.3,0,2C135.9,269.9,137.9,269.7,137.9,269.1
			L137.9,269.1z"/>
	</g>
	<g>
		<path fill="#845324" d="M138.5,286.5c0.8,0,2-1.2,0.7-1.2C138.5,285.4,137.2,286.5,138.5,286.5L138.5,286.5z"/>
	</g>
	<g>
		<path fill="#845324" d="M188.2,285c0.3,0,0.6,0,1,0c0.4,0,1-0.1,1.3-0.5c0.2-0.4-0.2-0.6-0.5-0.6c-0.3,0-0.6,0-1,0
			c-0.4,0-1,0.1-1.3,0.5C187.4,284.8,187.9,285,188.2,285L188.2,285z"/>
	</g>
	<g>
		<path fill="#845324" d="M193.1,272.9c-0.2,0-0.2-0.1-0.1,0.1c0,0.1,0,0.2,0,0.4c0,0.9,1.9,0.5,1.9-0.2c0-0.8-0.2-1.4-1.1-1.5
			c-0.4,0-1,0.2-1.3,0.6C192.3,272.6,192.8,272.9,193.1,272.9L193.1,272.9z"/>
	</g>
	<g>
		<path fill="#845324" d="M178,258.2c-0.1,0-0.2,0-0.4,0c-0.4,0-2.2,0.8-1.2,0.8c0.1,0,0.2,0,0.4,0C177.2,259,179,258.2,178,258.2
			c-0.1,0-0.2,0-0.4,0c-0.4,0-2.2,0.8-1.2,0.8c0.1,0,0.2,0,0.4,0C177.2,259,179,258.2,178,258.2L178,258.2z"/>
	</g>
	<g>
		<path fill="#845324" d="M237.8,246.1c0,0.4,0,0.4-0.3,0.7c-0.3,0.3-0.2,0.7,0.2,0.8c0.5,0.1,1,0,1.4-0.4c0.4-0.4,0.7-0.7,0.7-1.3
			C239.8,244.9,237.8,245.3,237.8,246.1L237.8,246.1z"/>
	</g>
	<g>
		<path fill="#845324" d="M254,252.2c0.2,0.2,0.3,0.3,0.5,0.5c0.4,0.4,0.9,0.4,1.3,0.2c0.3-0.1,0.8-0.7,0.5-1
			c-0.2-0.2-0.3-0.3-0.5-0.5c-0.4-0.4-0.9-0.4-1.3-0.2C254.2,251.4,253.7,251.9,254,252.2L254,252.2z"/>
	</g>
	<g>
		<path fill="#845324" d="M314.4,223.8c0.1,0.6,0.6,0.7,1.1,0.7c0.4,0,1-0.2,1.3-0.5c0.3-0.4-0.2-0.5-0.5-0.5c0.4,0,0,0,0.2,0
			c-0.1,0-0.1-0.2-0.1-0.3C316.3,222.7,314.3,223.1,314.4,223.8L314.4,223.8z"/>
	</g>
	<g>
		<path fill="#845324" d="M337.9,227.2c-0.3,0-0.6,0.1-0.8,0.2c-0.1,0.1-0.2,0.1-0.4,0.3c-0.3,0.3-0.1,0,0.2,0c-0.4,0-1,0.3-1.1,0.8
			c-0.1,0.5,0.5,0.7,0.9,0.6c0.3,0,0.6-0.1,0.8-0.2c0.1-0.1,0.2-0.1,0.4-0.3c0.3-0.3,0.1,0-0.2,0c0.4,0,1-0.3,1.1-0.8
			C338.8,227.4,338.2,227.2,337.9,227.2L337.9,227.2z"/>
	</g>
	<g>
		<path fill="#845324" d="M347,235.3c0,0.3,0,0.6,0,1c0,1,2,0.6,2-0.2c0-0.3,0-0.6,0-1C349,234.2,347,234.5,347,235.3L347,235.3z"/>
	</g>
	<g>
		<path fill="#845324" d="M348,244.1c0,0.2,0,0.3,0,0.5c0,0.9,1.9,0.5,1.9-0.2c0-0.2,0-0.3,0-0.5C350,243,348,243.4,348,244.1
			L348,244.1z"/>
	</g>
	<g>
		<path fill="#845324" d="M331.4,255.8C331.4,255.9,331.5,255.8,331.4,255.8c0,0-0.1,0-0.1,0.1c-0.2,0.1-0.3,0.2-0.5,0.4
			c-1,0.9,0.6,1.5,1.3,0.9c0.5-0.5,1.2-0.7,1.3-1.5C333.5,254.6,331.5,254.9,331.4,255.8L331.4,255.8z"/>
	</g>
	<g>
		<path fill="#845324" d="M316.2,268.8c0.4-0.5,0.8-1,1-1.6c0.2-0.4-0.7-0.3-0.8-0.3c-0.4,0.1-1,0.2-1.1,0.6
			c-0.2,0.5-0.5,0.9-0.9,1.3c-0.3,0.3,0.3,0.4,0.5,0.4C315.4,269.3,315.9,269.2,316.2,268.8L316.2,268.8z"/>
	</g>
	<g>
		<path fill="#845324" d="M305.3,270.2c-0.3,0.3-0.6,0.7-0.7,1.2c-0.1,0.7,1.9,0.4,1.9-0.3c0-0.2,0.1-0.3,0.1-0.5
			c0-0.1,0.4-0.4,0.2-0.2c0.3-0.3,0.3-0.6-0.2-0.6C306.3,269.8,305.6,269.9,305.3,270.2L305.3,270.2z"/>
	</g>
	<g>
		<path fill="#845324" d="M294.1,275.5c-0.2,0.2-0.3,0.3-0.5,0.5c-0.3,0.3-0.2,0.6,0.2,0.7c0.4,0.1,1,0,1.4-0.4
			c0.2-0.2,0.3-0.3,0.5-0.5c0.3-0.3,0.2-0.6-0.2-0.7C295,275.1,294.4,275.2,294.1,275.5L294.1,275.5z"/>
	</g>
	<g>
		<path fill="#845324" d="M277.5,274c0,0-0.2,0.1-0.1,0.1C277.2,274.2,277.6,274.1,277.5,274c-0.4,0.1-1.1,0.4-1.2,0.8
			c-0.1,0.5,0.6,0.5,0.9,0.5c0.7,0,1.4-0.4,1.9-0.9c0.3-0.3,0.2-0.7-0.2-0.8C278.4,273.6,277.9,273.7,277.5,274L277.5,274z"/>
	</g>
	<g>
		<path fill="#845324" d="M270,272.9c0,0.7-0.1-0.2,0.8-0.2c-0.5,0-1,0.1-1.3,0.6c-0.2,0.4,0.2,0.7,0.6,0.7c0.8,0,1.8-0.2,1.8-1.2
			C272,271.8,270,272.1,270,272.9L270,272.9z"/>
	</g>
	<g>
		<path fill="#845324" d="M258,274.9c-0.3,0.3-0.6,0.6-1,1c-0.3,0.3-0.1,0.8,0.3,1c0.5,0.2,1,0,1.4-0.4c0.3-0.3,0.6-0.6,1-1
			c0.3-0.3,0.1-0.8-0.3-1C258.8,274.3,258.3,274.5,258,274.9L258,274.9z"/>
	</g>
	<g>
		<path fill="#845324" d="M253.7,263.2c0.2-0.2,0.3-0.3,0.5-0.5c0.3-0.3,0.3-0.6-0.2-0.6c-0.4-0.1-1.1,0.1-1.4,0.4
			c-0.2,0.2-0.3,0.3-0.5,0.5c-0.3,0.3-0.3,0.6,0.2,0.6C252.8,263.6,253.4,263.5,253.7,263.2L253.7,263.2z"/>
	</g>
	<g>
		<path fill="#845324" d="M246.3,257c-0.3,0.3-0.7,0.7-0.5,1.2c0.1,0.4,0.6,0.5,1,0.6c0.4,0,1-0.2,1.3-0.5c0.3-0.4-0.2-0.6-0.5-0.6
			c0.2,0.2,0.3,0.2,0.3,0c0-0.1,0.1-0.1,0.2-0.2c0.3-0.3,0.2-0.6-0.2-0.8C247.2,256.5,246.6,256.6,246.3,257L246.3,257z"/>
	</g>
	<g>
		<path fill="#845324" d="M234.8,266c-0.6,0.1-1.4,0.2-1.9,0.7c-0.4,0.4-0.1,0.6,0.4,0.7c0.5,0,1-0.1,1.4-0.4
			c0.3-0.2,0.2-0.5-0.1-0.5c0,0,0,0,0,0c0.1,0.1,0.1,0.1,0.2,0.2c-0.2,0.1-0.5,0.2-0.7,0.3c0.4,0,1-0.1,1.3-0.5
			C235.6,266.1,235.1,266,234.8,266L234.8,266z"/>
	</g>
	<g>
		<path fill="#845324" d="M293.4,260.7c0,0.3,0,0.6,0,1c0,0.9,1.9,0.5,1.9-0.2c0-0.3,0-0.6,0-1C295.4,259.6,293.4,260,293.4,260.7
			L293.4,260.7z"/>
	</g>
	<g>
		<path fill="#845324" d="M265.6,254c0,0.3,0,0.6,0,1c0,0.3,1.9,0,1.9-0.5c0-0.3,0-0.6,0-1C267.6,253.2,265.6,253.5,265.6,254
			L265.6,254z"/>
	</g>
	<g>
		<path fill="#845324" d="M306.7,247c0.2,0,0.4,0.2,0.5,0.2c0.3,0.1,0.6,0.2,0.9,0.2c0.4,0,1-0.2,1.3-0.5c0.2-0.4-0.2-0.6-0.5-0.7
			c-0.2,0-0.4-0.2-0.5-0.2c-0.3-0.1-0.6-0.2-0.9-0.2c-0.4,0-1,0.2-1.3,0.5C305.9,246.8,306.4,247,306.7,247L306.7,247z"/>
	</g>
	<g>
		<path fill="#845324" d="M315.8,245c0,0.7,0.5,1.1,1.1,1.1c0.5,0,1-0.1,1.3-0.6c0.2-0.4-0.2-0.8-0.6-0.8c0,0,0.2,0.1,0.2,0.1
			c0-0.1,0-0.2,0,0C317.8,243.9,315.8,244.2,315.8,245L315.8,245z"/>
	</g>
	<g>
		<path fill="#845324" d="M326.7,248.4c0.6,0,2.1-0.9,0.8-0.9C326.9,247.5,325.4,248.4,326.7,248.4L326.7,248.4z"/>
	</g>
	<g>
		<path fill="#845324" d="M339.4,251.5c-0.2,0-0.2-0.1-0.1,0.1c0,0.1,0,0.2,0,0.3c0,0.9,1.9,0.6,1.9-0.2c0-0.8-0.2-1.4-1.1-1.5
			c-0.4,0-1,0.2-1.3,0.6C338.6,251.2,339,251.4,339.4,251.5L339.4,251.5z"/>
	</g>
	<g>
		<path fill="#845324" d="M347.5,254c0,0.5,0.2,0.7,0.6,1.1c0.5,0.5,2.3-0.2,1.8-0.8c-0.3-0.3-0.4-0.4-0.4-0.9
			C349.5,252.9,347.5,253.3,347.5,254L347.5,254z"/>
	</g>
	<g>
		<path fill="#845324" d="M167.7,220.7c-0.2,0.2-0.5,0.4-0.5,0.6c0,0.2,0.3,0.4,0.4,0.6c0.4,0.4,2.1-0.4,1.8-0.7
			c-0.3-0.3-0.4-0.4,0-0.7c0.3-0.3-0.3-0.3-0.5-0.3C168.6,220.2,168,220.4,167.7,220.7L167.7,220.7z"/>
	</g>
	<g>
		<path fill="#845324" d="M134.1,249.9c0.3,0,0.7,0,1,0c0.4,0,1-0.1,1.3-0.5c0.3-0.4-0.2-0.6-0.5-0.6c-0.3,0-0.7,0-1,0
			c-0.4,0-1,0.1-1.3,0.5C133.3,249.7,133.8,249.9,134.1,249.9L134.1,249.9z"/>
	</g>
	<g>
		<path fill="#845324" d="M161.3,259.2c0,0.2,0,0.3,0,0.5c0,0.8,1.9,0.4,1.9-0.2c0-0.2,0-0.3,0-0.5
			C163.2,258.2,161.3,258.6,161.3,259.2L161.3,259.2z"/>
	</g>
	<g>
		<path fill="#845324" d="M164.8,267.3c0.5,0.5,0.8,0.6,1.5,0.6c0.4,0,1-0.2,1.3-0.5c0.3-0.4-0.2-0.5-0.5-0.5c-0.3,0-0.1,0-0.1,0
			c-0.1-0.1-0.3-0.2-0.4-0.4C166.1,266.1,164.3,266.8,164.8,267.3L164.8,267.3z"/>
	</g>
	<g>
		<path fill="#845324" d="M90.2,251.8c0.2,0.2,0.5,0.5,0.8,0.6c0.3,0.2,0.7,0.1,1,0.1c0.4,0,1-0.3,1.1-0.8c0.1-0.5-0.5-0.7-0.9-0.7
			c-0.3,0,0,0,0,0c0.1,0-0.1-0.2-0.2-0.2c-0.4-0.4-0.9-0.4-1.3-0.2C90.3,250.9,89.8,251.4,90.2,251.8L90.2,251.8z"/>
	</g>
	<g>
		<path fill="#845324" d="M85.3,231.3c0.6,0,2.1-0.9,0.8-0.9C85.5,230.4,84,231.3,85.3,231.3L85.3,231.3z"/>
	</g>
	<g>
		<path fill="#845324" d="M98.9,243.3c0,0.4,0.4,0.6,0.8,0.6c0.5,0,1-0.1,1.4-0.4c0.3-0.2,0.3-0.4-0.1-0.4c0,0,0.1,0,0,0
			c-0.1-0.1-0.1-0.2-0.2-0.3C100.8,242.5,98.8,242.8,98.9,243.3L98.9,243.3z"/>
	</g>
	<g>
		<path fill="#845324" d="M111.2,254.4c-0.2,0.2-0.3,0.3-0.5,0.5c-0.3,0.3-0.1,0.8,0.3,1c0.5,0.2,1,0,1.4-0.4
			c0.2-0.2,0.3-0.3,0.5-0.5c0.3-0.3,0.1-0.8-0.3-1C112.1,253.9,111.6,254.1,111.2,254.4L111.2,254.4z"/>
	</g>
	<g>
		<path fill="#845324" d="M119.9,239.7c0.7,0,2.1-1.1,0.8-1.1C120,238.6,118.6,239.7,119.9,239.7L119.9,239.7z"/>
	</g>
	<g>
		<path fill="#845324" d="M67.6,258.3c0.8,0,2-0.3,2-1.2c0.1-0.9-1.9-0.6-2,0.2c0,0,0,0.1,0,0.1c0.1-0.1,0.2-0.2,0.3-0.3
			c0.1,0,0.2-0.1,0.2-0.1c-0.1,0-0.3,0-0.4,0c-0.4,0-1,0.3-1.1,0.8C66.6,258.2,67.2,258.3,67.6,258.3L67.6,258.3z"/>
	</g>
	<g>
		<path fill="#845324" d="M56.1,260.1c0.5,0,1-0.1,1.4-0.3c0.4-0.2,0.5-0.5,0.5-1c0-0.5-1.9-0.2-1.9,0.5c0,0.1,0,0.2,0,0.3
			c0.1-0.1,0.1-0.2,0.2-0.3c0.9-0.2,1.1-0.3,0.7-0.3c-0.4,0-1,0.1-1.3,0.5C55.3,260,55.8,260.1,56.1,260.1L56.1,260.1z"/>
	</g>
	<g>
		<path fill="#845324" d="M55.3,240.4c0.2-0.2,0.3-0.3,0.5-0.5c0.3-0.3,0.2-0.8-0.2-0.9c-0.5-0.2-1,0-1.4,0.4
			c-0.2,0.2-0.3,0.3-0.5,0.5c-0.3,0.3-0.2,0.8,0.2,0.9C54.4,240.9,55,240.7,55.3,240.4L55.3,240.4z"/>
	</g>
	<g>
		<path fill="#845324" d="M60.2,232.4c0.6-0.1,1.5-0.4,1.6-1.2c0-0.9-1.9-0.6-1.9,0.2c0,0.4-0.2-0.2,0.6-0.2c-0.4,0-1,0.3-1.1,0.7
			C59.3,232.4,59.9,232.5,60.2,232.4L60.2,232.4z"/>
	</g>
	<g>
		<path fill="#845324" d="M358.8,243.6c-0.1,0.1-0.2,0.2-0.3,0.2c0.5-0.4,1.1-0.2,0.6-0.2c-0.4,0-1,0.2-1.3,0.5
			c-0.3,0.3,0.3,0.4,0.5,0.4c0.9,0,1.6-0.3,2.3-1c0.3-0.3-0.3-0.4-0.5-0.4C359.7,243.1,359.2,243.2,358.8,243.6L358.8,243.6z"/>
	</g>
	<g>
		<path fill="#845324" d="M323.9,267c0.5,0.5,0.9,0.7,1.6,0.7c0.4,0,1-0.3,1.1-0.8c0-0.5-0.5-0.7-0.9-0.7c-0.3,0,0,0,0.1,0
			c-0.1-0.1-0.3-0.2-0.4-0.4C324.7,265.2,323.1,266.2,323.9,267L323.9,267z"/>
	</g>
	<g>
		<path fill="#B78D63" d="M216.8,246.9c0.1,0.1,0.3,0.3,0.4,0.4c0.5,0.5,2.3-0.2,1.8-0.7c-0.1-0.1-0.3-0.3-0.4-0.4
			C218.1,245.7,216.3,246.4,216.8,246.9L216.8,246.9z"/>
	</g>
	<g>
		<path fill="#845324" d="M278,246.7c-0.1,0.1-0.1,0.2-0.2,0.2c-0.2,0.1-0.3,0.1-0.5,0.2c0,0-0.1,0-0.1,0c-0.2,0-0.3,0-0.5-0.1
			c0,0,0,0,0,0c0.7,0.6,2.3-0.4,1.5-1.1c-0.7-0.6-2.3-0.1-2.2,0.9C276.1,247.8,278.1,247.6,278,246.7L278,246.7z"/>
	</g>
	<g>
		<path fill="#845324" d="M290.4,250c0.6,0,2.1-0.9,0.8-0.9C290.6,249.1,289.1,250,290.4,250L290.4,250z"/>
	</g>
	<g>
		<path fill="#845324" d="M289.3,224c0.8,0,2-1.2,0.7-1.2C289.3,222.8,288,224,289.3,224L289.3,224z"/>
	</g>
	<g>
		<path fill="#845324" d="M292.7,232.3c1.1,0,1.5-1.5,0.1-1.5C291.7,230.8,291.4,232.3,292.7,232.3L292.7,232.3z"/>
	</g>
	<g>
		<path fill="#845324" d="M300.5,226c0-0.2,0-0.4,0-0.6c0-0.3-1.9,0-1.9,0.5c0,0.2,0,0.4,0,0.6C298.6,226.8,300.5,226.5,300.5,226
			L300.5,226z"/>
	</g>
	<g>
		<path fill="#845324" d="M310.6,217.4c-0.1-0.1-0.2-0.2-0.3-0.3c-0.5-0.5-2.3,0.2-1.8,0.8c0.1,0.1,0.2,0.2,0.3,0.3
			C309.3,218.6,311.1,217.9,310.6,217.4L310.6,217.4z"/>
	</g>
	<g>
		<path fill="#845324" d="M294.3,212.9c-0.1,0-0.2,0-0.3,0c-0.5,0-1,0.1-1.4,0.4c-0.3,0.2-0.3,0.5,0.1,0.5c0.1,0,0.2,0,0.3,0
			c0.5,0,1-0.1,1.4-0.4C294.7,213.1,294.7,212.9,294.3,212.9L294.3,212.9z"/>
	</g>
	<g>
		<path fill="#845324" d="M282.9,215.6c0.8,0,2-1.2,0.7-1.2C282.8,214.4,281.6,215.6,282.9,215.6L282.9,215.6z"/>
	</g>
	<g>
		<path fill="#845324" d="M169.8,245.3C169.8,245.3,169.7,245.3,169.8,245.3c0.3,0.1,0.6,0.1,1,0.1c0,0.1,0,0.1,0,0.2
			c-0.3,0.2-0.5,0.3-0.8,0.5c0,0,0,0,0,0c-0.3,0-0.7-0.1-1-0.1c0,0,0,0,0,0c0.4,0.3,0.9,0.2,1.3,0c0.2-0.1,0.9-0.5,0.5-0.8
			c-0.5-0.4-1.5-0.2-1.9,0.4c-0.5,0.7,0.7,0.8,1.1,0.7c0.3-0.1,0.9-0.3,0.8-0.7C170.8,245.2,170,245.2,169.8,245.3L169.8,245.3z"/>
	</g>
	<g>
		<path fill="#845324" d="M159.5,251.2c0.7,0,2.1-1.1,0.7-1.1C159.5,250.1,158.2,251.2,159.5,251.2L159.5,251.2z"/>
	</g>
	<g>
		<path fill="#845324" d="M178.8,219.4c0.2-0.1,0.4-0.2,0.6-0.3c0.3-0.2,0.8-0.5,0.5-0.9c-0.3-0.4-0.9-0.3-1.3-0.1
			c-0.2,0.1-0.4,0.2-0.6,0.3c-0.3,0.2-0.8,0.5-0.5,0.9C177.8,219.6,178.4,219.6,178.8,219.4L178.8,219.4z"/>
	</g>
	<g>
		<path fill="#845324" d="M329.7,221.8c-0.1,0-0.2,0-0.3,0c-0.4,0-1,0.2-1.3,0.5c-0.3,0.4,0.2,0.5,0.5,0.5c0.1,0,0.2,0,0.3,0
			c0.4,0,1-0.2,1.3-0.5C330.5,221.9,330,221.8,329.7,221.8L329.7,221.8z"/>
	</g>
	<g>
		<path fill="#845324" d="M362.9,234.4c-0.1,0-0.2,0-0.3,0c-0.4,0-1,0.2-1.3,0.5c-0.3,0.4,0.2,0.5,0.5,0.5c0.1,0,0.2,0,0.3,0
			c0.4,0,1-0.2,1.3-0.5C363.7,234.6,363.2,234.4,362.9,234.4L362.9,234.4z"/>
	</g>
	<g>
		<g>
			<path fill="#8DD3D9" d="M315.7,225.2l-0.2-0.1C315.6,225.2,315.7,225.2,315.7,225.2z"/>
		</g>
		<g>
			<g>
				<path fill="#8DD3D9" d="M345.2,219.9c0.6-2.7,0.8-5.8,0.8-8.5c0-1.1-0.2-2.3-1-3.1c-0.6-0.7-1.6-1-2.5-1.3
					c-2.1-0.6-4.2-1.2-6.4-1.6c1.7-9.2,3.2-18.5,4.6-27.7c1.1,0.1,2.3,0,3.4-0.2c3.6-0.9,6.3-3.5,8.4-6.5c0.9-1.3,1.2-2.7,0.7-3.6
					c-0.2-0.4-22.3-5.2-22.7-4.9c-1.2,1-1.2,1.9-1,3.3c0.6,3.5,2.2,6.9,4.8,9.3c0.9,0.8,1.9,1.4,2.9,1.9c-1.9,9.2-4,18.4-6.3,27.6
					c-1.8-0.3-3.6-0.6-5.4-0.8c-1.5-0.2-3.2-0.3-4.4,0.6c-1.5,1-2,2.9-2.4,4.7c-1.2,5.4-2.4,10.8-3.6,16.2l0.2,0.1
					c0-0.1,0-0.1,0-0.2c0.1-0.1,0.3-0.1,0.4-0.1c5.2,0.9,10.4,1.8,15.6,2.7c3,0.5,8.3,1.7,11.1,3
					C343.6,226.9,344.4,223.5,345.2,219.9z M335.7,171.4c-1.1-1.6-1.7-5.3-1.7-5.3c1.4,0.1,14.4,3,14.5,3.1c0.1,0.1-1.4,4.7-5.6,5
					C341.2,174.3,337.5,174.2,335.7,171.4z"/>
			</g>
		</g>
	</g>
	<g opacity="0.1">
		<path d="M320,221.7c0.7-3.9,1.5-7.8,2.6-11.6c0.2-0.6,0.4-1.3,0.8-1.8c0.6-0.8,1.7-1,2.7-1c1,0.1,13.6,2.3,14.6,2.6
			c1,0.3,2,1.1,2.2,2.2c0.2,0.7,0,1.3-0.1,2c-0.7,3.6-1.5,7.2-2.2,10.7c-1.5-2.5-0.1-6.1-2-8.4c-1-1.2-2.6-1.7-4.1-2.1
			c-1.8-0.5-3.7-0.9-5.6-1c-0.9,0-1.7,0-2.5,0.4c-1,0.5-1.7,1.5-2.3,2.5c-1.3,2-2.6,4-3.9,6"/>
	</g>
	<path fill="#DFB994" d="M346.4,230.5c-2-2.1-5.1-1.1-7.4-2.2c-0.2-0.4-0.4-0.6-0.7-0.7c-2.5-2.6-6.1-2.9-9.7-1.7
		c-2.3,0.8-4.9-1.4-7.4-1.6c-2.7-0.2-5,0.2-7.6,1c-0.6,0.2-2,1-1.8,1.5c-0.9,0.7-1,1.4,1.4,0.9c1.1-0.2,2.3-0.4,3.4-0.6
		c0.2,0,0.8-0.2,1.4-0.5c2.4,0.5,5.1,2.1,7.5,2c3-0.1,4.6-1.7,6.8,0.5c-0.1,0.2-0.1,0.3,0.1,0.5c0.3,0.3,0.6,0.5,1,0.7
		c0.2,0.2,0.4,0.3,0.8,0.3c2.2,0.7,4.9,0.1,6.7,1.9C341.9,233.5,347.2,231.3,346.4,230.5z"/>
	<g>
		<path fill="#DFB994" d="M338.4,263.3C338.4,263.3,338.2,263.5,338.4,263.3c-0.1,0.1-0.3,0.2-0.4,0.3c0,0,0,0-0.1,0
			c-0.2,0-0.3,0-0.5,0c0,0,0.1,0,0.1,0c0.5,0,1-0.1,1.3-0.6c0.2-0.4-0.2-0.8-0.6-0.8c-0.6,0-1.2,0.1-1.6,0.6c-0.3,0.4-0.4,0.9,0,1.3
			c0.3,0.4,0.9,0.3,1.3,0.1C338.3,264.1,338.7,263.7,338.4,263.3L338.4,263.3z"/>
	</g>
	<g>
		<path fill="#DFB994" d="M345.6,264c0.8,0,2-1.3,0.7-1.3C345.4,262.7,344.3,264,345.6,264L345.6,264z"/>
	</g>
	<g>
		<path fill="#DFB994" d="M343,261.8c-0.4-0.4-0.8-0.8-1.2-1.3c0,0.1,0,0.1,0.1,0.2c0.1-0.4-1.2,0.1-0.8,0.3
			c0.1,0.1,0.2,0.2,0.1,0.4c-0.2,0.6,1.8,0.3,1.9-0.3c0.4-1.5-2.8-1.3-3.2-0.1c0,0.1,0,0.2,0.1,0.2c0.4,0.4,0.8,0.8,1.2,1.3
			C341.6,262.9,343.4,262.2,343,261.8L343,261.8z"/>
	</g>
	<g>
		<path fill="#DFB994" d="M350.2,261c0.1,0,0.3,0,0.4,0c0.4,0,1-0.1,1.3-0.5c0.3-0.4-0.2-0.6-0.5-0.6c-0.1,0-0.3,0-0.4,0
			c-0.4,0-1,0.1-1.3,0.5C349.4,260.8,349.9,261,350.2,261L350.2,261z"/>
	</g>
	<g>
		<path fill="#845324" d="M340,264.6c0.1-0.1,0.3-0.3,0.4-0.4c0.3-0.3-0.3-0.3-0.4-0.3c-0.4,0-1,0.2-1.3,0.4
			c-0.1,0.1-0.3,0.3-0.4,0.4c-0.3,0.3,0.3,0.3,0.4,0.3C339.1,265,339.7,264.9,340,264.6L340,264.6z"/>
	</g>
	<g>
		<path fill="#845324" d="M348.4,264c0.1-0.1,0.3-0.3,0.4-0.4c0.3-0.3,0.2-0.6-0.2-0.7c-0.4-0.1-1,0-1.4,0.4
			c-0.1,0.1-0.3,0.3-0.4,0.4c-0.3,0.3-0.2,0.6,0.2,0.7C347.5,264.5,348.1,264.3,348.4,264L348.4,264z"/>
	</g>
	<g>
		<path fill="#845324" d="M335.9,271.3c0-0.1,0-0.3,0-0.4c0-0.9-1.9-0.5-1.9,0.2c0,0.1,0,0.3,0,0.4
			C333.9,272.4,335.9,272,335.9,271.3L335.9,271.3z"/>
	</g>
	<g>
		<path fill="#845324" d="M308,276.1c-0.3,0.6-0.6,1.1-0.8,1.7c-0.2,0.4,0.2,0.8,0.6,0.8c0.5,0.1,1-0.2,1.3-0.6
			c0.3-0.6,0.6-1.1,0.8-1.7c0.2-0.4-0.2-0.8-0.6-0.8C308.8,275.4,308.3,275.6,308,276.1L308,276.1z"/>
	</g>
	<g>
		<path fill="#845324" d="M360.7,264.6c0.3,0.3,0.6,0.6,0.8,0.8c0.4,0.4,2.3-0.3,1.8-0.7c-0.3-0.3-0.6-0.6-0.8-0.8
			C362,263.4,360.2,264.1,360.7,264.6L360.7,264.6z"/>
	</g>
	<g>
		<path fill="#845324" d="M367.1,254.6c-0.1-0.1-0.3-0.3-0.4-0.4c-0.4-0.4-2.2,0.3-1.8,0.7c0.1,0.1,0.3,0.3,0.4,0.4
			C365.7,255.7,367.5,255,367.1,254.6L367.1,254.6z"/>
	</g>
	<g>
		<path fill="#845324" d="M377.7,248.8c0.8,0,2-1.2,0.7-1.2C377.6,247.6,376.4,248.8,377.7,248.8L377.7,248.8z"/>
	</g>
	<g>
		<path fill="#845324" d="M389,244.7c1.1,0,1.5-1.5,0.1-1.5C388,243.2,387.7,244.7,389,244.7L389,244.7z"/>
	</g>
	<g>
		<path fill="#845324" d="M378.6,228.9c0.3-0.2,0.6-0.3,0.8-0.5c0.3-0.1,0.6-0.5,0.2-0.7c-0.4-0.2-1,0-1.4,0.2
			c-0.3,0.2-0.6,0.3-0.8,0.5c-0.3,0.1-0.6,0.5-0.2,0.7C377.7,229.3,378.2,229.1,378.6,228.9L378.6,228.9z"/>
	</g>
	<g>
		<path fill="#845324" d="M372.6,239.5c-0.1,0.1-0.3,0.3-0.4,0.4c-0.3,0.3-0.2,0.6,0.2,0.7c0.4,0.1,1,0,1.4-0.4
			c0.1-0.1,0.3-0.3,0.4-0.4c0.3-0.3,0.2-0.6-0.2-0.7C373.5,239,373,239.2,372.6,239.5L372.6,239.5z"/>
	</g>
	<g>
		<path fill="#845324" d="M365.4,226.3c0.7,0,2.1-1.1,0.7-1.1C365.4,225.2,364.1,226.3,365.4,226.3L365.4,226.3z"/>
	</g>
	<g>
		<path fill="#845324" d="M331.4,233.2c1.1,0,1.5-1.3,0.2-1.3C330.6,231.8,330.1,233.2,331.4,233.2L331.4,233.2z"/>
	</g>
	<g>
		<path fill="#845324" d="M349.3,224.7c0.2-0.5-0.7-0.5-1-0.5c-0.4,0.1-1.6,0.4-1.1,1c0.4,0.5,2.2-0.2,1.8-0.7c0,0,0,0,0,0
			c0,0.1-0.1,0.2-0.1,0.2c-0.5,0.1-1,0.1-1.5,0.2c-0.2,0.4,0.7,0.4,0.8,0.3C348.6,225.2,349.1,225.1,349.3,224.7L349.3,224.7z"/>
	</g>
	<g>
		<path fill="#845324" d="M104,285.8c0.6,0,2.1-0.8,0.8-0.8C104.2,285,102.7,285.8,104,285.8L104,285.8z"/>
	</g>
	<g>
		<path fill="#845324" d="M93.2,285.4c0.4,0,2.2-0.8,1.2-0.8C94,284.6,92.2,285.4,93.2,285.4L93.2,285.4z"/>
	</g>
	<g>
		<path fill="#845324" d="M102.5,278.6c0.4,0,2.2-0.8,1.3-0.8C103.4,277.8,101.6,278.6,102.5,278.6L102.5,278.6z"/>
	</g>
	<g>
		<path fill="#845324" d="M111.5,275.1c-0.2,0.3-0.3,0.6-0.5,0.8c-0.2,0.4,0.2,0.6,0.6,0.7c0.4,0,1-0.1,1.3-0.6
			c0.2-0.3,0.3-0.6,0.5-0.8c0.2-0.4-0.2-0.6-0.6-0.7C112.3,274.6,111.7,274.7,111.5,275.1L111.5,275.1z"/>
	</g>
	<g>
		<path fill="#845324" d="M90.8,272.5c-0.6,0-1.3,0.2-1.6,0.7c-0.2,0.3-0.3,0.8,0,1.1c0.5,0.5,2.3-0.2,1.8-0.8c0,0-0.1,0-0.1-0.1
			c0.1-0.3-0.2-0.2-0.8,0.3c0.4,0,1-0.2,1.3-0.5C91.6,272.8,91.1,272.6,90.8,272.5L90.8,272.5z"/>
	</g>
	<g>
		<path fill="#845324" d="M81.6,271.2c0.8,0,2-1.3,0.7-1.3C81.5,269.9,80.3,271.2,81.6,271.2L81.6,271.2z"/>
	</g>
	<g>
		<path fill="#845324" d="M85.8,265.1c0.6,0,2.1-0.8,0.8-0.8C86.1,264.2,84.5,265.1,85.8,265.1L85.8,265.1z"/>
	</g>
	<g>
		<path fill="#845324" d="M69.6,266.1c0.2-0.2,0.5-0.4,0.7-0.6c0.3-0.3,0.5-0.8,0.1-1.1c-0.4-0.3-1-0.2-1.4,0.1
			c-0.2,0.2-0.5,0.4-0.7,0.6c-0.3,0.3-0.5,0.8-0.1,1.1C68.6,266.5,69.2,266.4,69.6,266.1L69.6,266.1z"/>
	</g>
	<g>
		<path fill="#845324" d="M42.8,263.1c0-0.1,0-0.2,0-0.3c0.2-0.4-0.1-0.4-0.9,0.1c0.5,0.1,0.9-0.1,1.3-0.2c0.1-0.1,0.7-0.4,0.2-0.5
			c-0.9-0.1-2.7,0.3-2.6,1.5C40.9,264,42.8,263.6,42.8,263.1L42.8,263.1z"/>
	</g>
	<g>
		<path fill="#845324" d="M44.4,254.6c0.7,0,2.1-1.1,0.7-1.1C44.4,253.5,43.1,254.6,44.4,254.6L44.4,254.6z"/>
	</g>
	<g>
		<path fill="#845324" d="M31.7,245.3c0.1,0,0.3,0,0.4,0c0.4,0,1-0.1,1.3-0.5c0.3-0.4-0.2-0.5-0.5-0.5c-0.1,0-0.3,0-0.4,0
			c-0.4,0-1,0.1-1.3,0.5C30.9,245.1,31.4,245.3,31.7,245.3L31.7,245.3z"/>
	</g>
	<g>
		<path fill="#845324" d="M30.8,254.8c0.3,0.1,0.6,0.3,0.8,0.4c0.4,0.2,0.9,0.1,1.3-0.1c0.1,0,0.9-0.4,0.6-0.6
			c-0.3-0.1-0.6-0.3-0.8-0.4c-0.4-0.2-0.9-0.1-1.3,0.1C31.3,254.2,30.4,254.6,30.8,254.8L30.8,254.8z"/>
	</g>
	<g>
		<path fill="#845324" d="M20.3,256.3c0.7,0,2.1-1,0.8-1C20.4,255.3,19,256.3,20.3,256.3L20.3,256.3z"/>
	</g>
	<g>
		<path fill="#845324" d="M22.7,243.4c-0.1,0-0.3,0-0.4,0c-0.4,0-1,0.1-1.3,0.5c-0.3,0.4,0.2,0.5,0.5,0.5c0.1,0,0.3,0,0.4,0
			c0.4,0,1-0.1,1.3-0.5C23.5,243.6,23,243.4,22.7,243.4L22.7,243.4z"/>
	</g>
	<g>
		<path fill="#845324" d="M12.4,241.4c0.4,0,2.2-0.8,1.3-0.8C13.2,240.6,11.5,241.4,12.4,241.4L12.4,241.4z"/>
	</g>
	<g>
		<path fill="#845324" d="M19.4,231.4c0.1,0,0.3,0,0.4,0c0.5,0,1-0.1,1.3-0.6c0.2-0.4-0.2-0.7-0.6-0.7c-0.1,0-0.3,0-0.4,0
			c-0.5,0-1,0.1-1.3,0.6C18.7,231.1,19.1,231.4,19.4,231.4L19.4,231.4z"/>
	</g>
	<g>
		<path fill="#845324" d="M31.6,228.3c0.1,0.3,0.3,0.6,0.4,0.8c0.2,0.4,1,0.3,1.3,0.2c0.4-0.2,0.7-0.6,0.4-1
			c-0.1-0.3-0.3-0.6-0.4-0.8c-0.2-0.4-1-0.3-1.3-0.2C31.6,227.5,31.4,227.9,31.6,228.3L31.6,228.3z"/>
	</g>
	<g>
		<path fill="#845324" d="M28.3,236c0.7,0,2.1-1.1,0.8-1.1C28.4,234.9,27,236,28.3,236L28.3,236z"/>
	</g>
	<g>
		<path fill="#845324" d="M39.6,240c0,0.1,0,0.3,0,0.4c0,0.5,1.9,0.2,1.9-0.5c0-0.1,0-0.3,0-0.4C41.5,238.9,39.6,239.3,39.6,240
			L39.6,240z"/>
	</g>
	<g>
		<path fill="#845324" d="M45.3,228.6c0-0.1,0-0.3,0-0.4c0-0.9-1.9-0.5-1.9,0.2c0,0.1,0,0.3,0,0.4C43.4,229.7,45.3,229.3,45.3,228.6
			L45.3,228.6z"/>
	</g>
	<g>
		<path fill="#845324" d="M110.1,221.1c0.4,0,2.2-0.8,1.2-0.8C111,220.3,109.2,221.1,110.1,221.1L110.1,221.1z"/>
	</g>
	<g>
		<path fill="#845324" d="M211.8,271.3c1.1,0,1.5-1.5,0.2-1.5C210.8,269.8,210.4,271.3,211.8,271.3L211.8,271.3z"/>
	</g>
	<g>
		<path fill="#DDD8D3" d="M214.6,42.2c0.4,1.3,0.6,2.6,0.5,3.9c0,0.5,1.9,0.2,1.9-0.5c0-1.3-0.1-2.6-0.5-3.9
			C216.4,41.1,214.5,41.6,214.6,42.2L214.6,42.2z"/>
	</g>
	<g>
		<path fill="#DDD8D3" d="M167.3,40.3c-0.4,1.9-0.5,3.8-0.3,5.7c0.1,0.7,2,0.3,1.9-0.5c-0.2-1.8-0.1-3.6,0.3-5.4
			C169.4,39.3,167.5,39.6,167.3,40.3L167.3,40.3z"/>
	</g>
	<g>
		<path fill="#DDD8D3" d="M129,39.2c-1.4,1.2-2.5,2.6-3.5,4.1c-0.3,0.4,0.2,0.8,0.6,0.8c0.5,0.1,1-0.2,1.3-0.6
			c0.8-1.3,1.8-2.5,2.9-3.5C131.3,39.2,129.8,38.5,129,39.2L129,39.2z"/>
	</g>
	<g>
		<path fill="#DDD8D3" d="M252.9,36.8c0.7,0.9,1.5,1.7,2.2,2.6c0.3,0.4,2.1-0.3,1.8-0.7c-0.7-0.9-1.5-1.7-2.2-2.6
			C254.4,35.8,252.6,36.4,252.9,36.8L252.9,36.8z"/>
	</g>
</g>
<g id="Layer_11">
	<g>
		<path fill="#B7B7B7" d="M61.5,169.9c-0.1,9.2-0.2,18.4-0.4,27.6c0,0.3,1.9,0,1.9-0.5c0.1-9.2,0.2-18.4,0.4-27.6
			C63.4,169.1,61.5,169.4,61.5,169.9L61.5,169.9z"/>
	</g>
	<g>
		<path fill="#AF8C79" d="M59.9,201.5c-1.3,0.2-2.6,0.3-4,0.2c-0.1-1.5-0.3-3.1-0.4-4.6c0-0.3-0.3-0.4-0.5-0.4
			c-1.3-0.4-2.5-0.5-3.9-0.3c-1,0.2-1.5,1.6-0.2,1.4c0.3-0.1,0.6-0.1,0.9-0.1c-0.1,0.4-0.1,0.9-0.2,1.3c-0.2,1.2-0.4,2.5-0.2,3.7
			c0.3,1.3,1.4,0.7,2.2,0.9c0.4,0.1,1.3,0,1.5-0.5c1.5,0.1,3,0.1,4.5-0.2C60.7,202.7,61.2,201.2,59.9,201.5z"/>
		<path fill="#AF8C79" d="M74,195.2c-1.3,0.3-2.5,0.4-3.8,0.5c-0.3,0-1.1,0.3-1.1,0.7c0,2,0.1,3.9,0.4,5.9c0.1,0.7,1.5,0.5,1.8-0.1
			c0.2,0,0.4,0,0.6-0.1c0.5,0.1,1.1-0.2,1.3-0.4c0.9-1.2,1.3-2.4,1.1-3.8c0-0.4-0.6-0.5-1.1-0.3c0-0.2,0-0.4,0.1-0.6
			c0-0.1,0-0.1,0-0.2c0.5-0.1,0.9-0.2,1.1-0.3C75.6,196.1,75.2,194.9,74,195.2z"/>
	</g>
	<g>
		<path fill="#DFB994" d="M36.9,244.3c2.3-15.6,4.7-31.2,7-46.8c0.1-0.7,0.2-1.4,0.7-1.8c0.4-0.4,1.1-0.4,1.6-0.5
			c1.8-0.2,3.6-0.3,5.5-0.5c0.1,2.6,0.2,5.2,0.4,7.8c2.2,0.6,4.5,0.6,6.8,0.2c-0.3-2.3-0.3-4.6,0-6.9c2.4-0.3,4.9-0.2,7.4,0.2
			c0.2,1.8,0.5,3.6,0.7,5.5c0,0.3,0.1,0.5,0.3,0.7c0.3,0.3,0.8,0.2,1.2,0.2c1.7-0.3,3-0.5,4.3-0.7c0-2.3,0-4.5,0.1-6.8
			c2.4-0.3,4.7-0.5,7.1-0.8c0.4,0,0.9-0.1,1.2,0.2c0.4,0.3,0.5,0.7,0.6,1.2c3.5,15.3,6.3,30.8,8.4,46.3
			c-15.7,10.2-36.8,11.3-53.5,2.7"/>
	</g>
	<g opacity="0.1">
		<path d="M36.9,244.3c2.3-15.6,4.7-31.2,7-46.8c0.1-0.7,0.2-1.4,0.7-1.8c0.4-0.4,1.1-0.4,1.6-0.5c1.8-0.2,3.6-0.3,5.5-0.5
			c0.1,2.6,0.2,5.2,0.4,7.8c2.2,0.6,4.5,0.6,6.8,0.2c-0.3-2.3-0.3-4.6,0-6.9c1.1-0.1,2.1-0.2,3.2-0.2c0,0-1.2,53.3,1.7,54.4
			c1.6,0.6-20.5-2.3-27.1-5.6"/>
	</g>
	<g>
		<path fill="#DFB994" d="M38,248c2.7-1.6,6.9,1.3,9.6,1.9c3.8,0.9,7.4-0.3,11.3,1.3c2.2,0.9,2.5-0.6,4.5-1.9c1.2-0.8,5.4-2.1,3.1-3
			c-6.2-2.5-12.7-1.9-19-3.9c-5.2-1.7-9.1-0.1-13.6,2.6c-1.4,0.9-4.8,2.8-2.8,3.9C33.2,250,36,249.2,38,248L38,248z"/>
	</g>
	<g>
		<g>
			<path fill="#845324" d="M32.5,240.9c-0.1,0-0.1,0-0.2,0c-0.4,0-1,0.3-1.1,0.8c0,0.5,0.5,0.7,0.9,0.7c0.1,0,0.1,0,0.2,0
				c0.4,0,1-0.3,1.1-0.8C33.5,241.1,32.9,240.9,32.5,240.9L32.5,240.9z"/>
		</g>
	</g>
	<g>
		<g>
			<path fill="#845324" d="M34.2,250c0.8,0,2-1.3,0.7-1.3C34,248.7,32.9,250,34.2,250L34.2,250z"/>
		</g>
	</g>
	<g>
		<g>
			<path fill="#845324" d="M43.3,245.6c0.8,0,2-1.3,0.7-1.3C43.2,244.3,42,245.6,43.3,245.6L43.3,245.6z"/>
		</g>
	</g>
	<g>
		<g>
			<path fill="#845324" d="M56.1,246.7c0.6,0,2.1-1,0.8-1C56.3,245.7,54.9,246.7,56.1,246.7L56.1,246.7z"/>
		</g>
	</g>
	<g>
		<g>
			<path fill="#845324" d="M63.4,251.8c0.4,0,2.2-0.8,1.3-0.8C64.3,251,62.5,251.8,63.4,251.8L63.4,251.8z"/>
		</g>
	</g>
	<g>
		<g>
			<path fill="#845324" d="M68.4,235.7c0.6,0,2.1-1,0.8-1C68.5,234.7,67.1,235.7,68.4,235.7L68.4,235.7z"/>
		</g>
	</g>
	<g>
		<g>
			<path fill="#845324" d="M71.6,240.1c1.1,0,1.5-1.5,0.1-1.5C70.6,238.6,70.3,240.1,71.6,240.1L71.6,240.1z"/>
		</g>
	</g>
	<g>
		<g>
			<path fill="#845324" d="M77.7,236c0.4,0,2.2-0.7,1.3-0.7C78.6,235.3,76.8,236,77.7,236L77.7,236z"/>
		</g>
	</g>
	<g>
		<g>
			<path fill="#845324" d="M76.3,225.2c0.8,0,2-1.2,0.7-1.2C76.3,224,75,225.2,76.3,225.2L76.3,225.2z"/>
		</g>
	</g>
	<g>
		<g>
			<path fill="#845324" d="M80.2,218c0.6,0,2.1-0.9,0.8-0.9C80.4,217.1,79,218,80.2,218L80.2,218z"/>
		</g>
	</g>
	<g>
		<g>
			<path fill="#845324" d="M68.1,213.9c1.1,0,1.5-1.4,0.2-1.4C67.2,212.5,66.8,213.9,68.1,213.9L68.1,213.9z"/>
		</g>
	</g>
	<g>
		<g>
			<path fill="#845324" d="M71.2,207.3c0.1,0.1,0.1,0.1,0.2,0.2c0.5,0.5,2.3-0.2,1.8-0.8c-0.1-0.1-0.1-0.1-0.2-0.2
				C72.5,206.1,70.7,206.8,71.2,207.3L71.2,207.3z"/>
		</g>
	</g>
	<g>
		<g>
			<path fill="#845324" d="M77.1,206.9c0.4,0,2.2-0.8,1.3-0.8C78,206.1,76.2,206.9,77.1,206.9L77.1,206.9z"/>
		</g>
	</g>
	<g>
		<g>
			<path fill="#845324" d="M77.8,199.7c1.1,0,1.5-1.3,0.2-1.3C77,198.4,76.5,199.7,77.8,199.7L77.8,199.7z"/>
		</g>
	</g>
	<g>
		<g>
			<path fill="#845324" d="M65.3,201.8c0.6,0,2.1-0.9,0.8-0.9C65.5,200.9,64,201.8,65.3,201.8L65.3,201.8z"/>
		</g>
	</g>
	<g>
		<g>
			<path fill="#845324" d="M66.7,206.9c0-0.1,0-0.1,0-0.2c0-0.5-1.9-0.2-1.9,0.5c0,0.1,0,0.1,0,0.2
				C64.7,207.9,66.7,207.6,66.7,206.9L66.7,206.9z"/>
		</g>
	</g>
	<g>
		<g>
			<path fill="#845324" d="M66.8,223c1.1,0,1.5-1.4,0.2-1.4C65.9,221.6,65.5,223,66.8,223L66.8,223z"/>
		</g>
	</g>
	<g>
		<g>
			<path fill="#845324" d="M74.4,216.1c-0.1,0.1-0.1,0.1-0.2,0.2c-0.3,0.3-0.2,0.7,0.2,0.8c0.5,0.1,1,0,1.4-0.4
				c0.1-0.1,0.1-0.1,0.2-0.2c0.3-0.3,0.2-0.7-0.2-0.8C75.4,215.6,74.8,215.7,74.4,216.1L74.4,216.1z"/>
		</g>
	</g>
	<g>
		<g>
			<path fill="#845324" d="M84.1,228.4c1.1,0,1.5-1.4,0.2-1.4C83.2,227,82.8,228.4,84.1,228.4L84.1,228.4z"/>
		</g>
	</g>
	<g>
		<g>
			<path fill="#845324" d="M84.5,239.4c1.1,0,1.5-1.4,0.2-1.4C83.6,238.1,83.2,239.4,84.5,239.4L84.5,239.4z"/>
		</g>
	</g>
	<g>
		<g>
			<path fill="#845324" d="M41.6,232.2c0.1,0,0.3,0,0.4,0c0.4,0,1-0.1,1.3-0.5c0.3-0.4-0.2-0.5-0.5-0.5c-0.1,0-0.3,0-0.4,0
				c-0.4,0-1,0.1-1.3,0.5C40.8,232,41.3,232.2,41.6,232.2L41.6,232.2z"/>
		</g>
	</g>
	<g>
		<g>
			<path fill="#845324" d="M45.5,236.6c0.4,0,2.2-0.7,1.3-0.7C46.4,235.9,44.6,236.6,45.5,236.6L45.5,236.6z"/>
		</g>
	</g>
	<g>
		<g>
			<path fill="#845324" d="M52.9,231.8c-0.1,0.2-0.3,0.4-0.4,0.6c-0.3,0.4,0.2,0.7,0.6,0.8c0.5,0.1,1-0.2,1.3-0.6
				c0.1-0.2,0.3-0.4,0.4-0.6c0.3-0.4-0.2-0.7-0.6-0.8C53.7,231.2,53.2,231.4,52.9,231.8L52.9,231.8z"/>
		</g>
	</g>
	<g>
		<g>
			<path fill="#845324" d="M54.1,219.3c-0.1,0.1-0.1,0.1-0.2,0.2c-0.3,0.3-0.2,0.8,0.2,0.9c0.5,0.2,1,0,1.4-0.4
				c0.1-0.1,0.1-0.1,0.2-0.2c0.3-0.3,0.2-0.8-0.2-0.9C55,218.8,54.4,219,54.1,219.3L54.1,219.3z"/>
		</g>
	</g>
	<g>
		<g>
			<path fill="#845324" d="M44.7,218.9c0.1,0.2,0.1,0.4,0.2,0.6c0.2,0.5,2.1,0,1.9-0.5c-0.1-0.2-0.1-0.4-0.2-0.6
				C46.5,217.8,44.6,218.4,44.7,218.9L44.7,218.9z"/>
		</g>
	</g>
	<g>
		<g>
			<path fill="#845324" d="M47.8,224.4c0.6,0,2.1-0.9,0.8-0.9C48.1,223.5,46.5,224.4,47.8,224.4L47.8,224.4z"/>
		</g>
	</g>
	<g>
		<g>
			<path fill="#845324" d="M53.5,209.5c0,0.1,0,0.3,0,0.4c0,1.1,2,0.8,2-0.1c0-0.1,0-0.3,0-0.4C55.4,208.3,53.5,208.6,53.5,209.5
				L53.5,209.5z"/>
		</g>
	</g>
	<g>
		<g>
			<path fill="#845324" d="M46.5,204.7c-0.1,0.1-0.1,0.1-0.2,0.2c-0.3,0.3,0.3,0.5,0.5,0.5c0.5,0,1-0.2,1.3-0.5
				c0.1-0.1,0.1-0.1,0.2-0.2c0.3-0.3-0.3-0.5-0.5-0.5C47.3,204.2,46.8,204.4,46.5,204.7L46.5,204.7z"/>
		</g>
	</g>
	<g>
		<g>
			<path fill="#845324" d="M46.4,198.6c0.7,0,2.1-1.1,0.8-1.1C46.4,197.5,45.1,198.6,46.4,198.6L46.4,198.6z"/>
		</g>
	</g>
	<g>
		<g>
			<path fill="#845324" d="M43.1,211.4c0.3,0.1,0.6,0.3,0.8,0.4c0.4,0.2,1,0.1,1.4-0.2c0.3-0.2,0.6-0.6,0.2-0.8
				c-0.3-0.1-0.6-0.3-0.8-0.4c-0.4-0.2-1-0.1-1.4,0.2C43,210.7,42.7,211.2,43.1,211.4L43.1,211.4z"/>
		</g>
	</g>
	<g>
		<g>
			<path fill="#845324" d="M60.6,215.2c0.1,0.1,0.3,0.3,0.4,0.4c0.5,0.5,2.4-0.2,1.8-0.8c-0.1-0.1-0.3-0.3-0.4-0.4
				C61.9,213.9,60.1,214.7,60.6,215.2L60.6,215.2z"/>
		</g>
	</g>
	<g>
		<g>
			<path fill="#845324" d="M59.3,223.1c0.7,0,2.1-1,0.8-1C59.4,222,58,223.1,59.3,223.1L59.3,223.1z"/>
		</g>
	</g>
	<g>
		<g>
			<path fill="#845324" d="M61.4,230.1c0.7,0,2.1-1,0.8-1C61.4,229.1,60,230.1,61.4,230.1L61.4,230.1z"/>
		</g>
	</g>
	<g>
		<g>
			<path fill="#845324" d="M57.8,238.5c0.1,0,0.3,0,0.4,0c0.5,0,1-0.1,1.4-0.4c0.3-0.2,0.3-0.4-0.1-0.4c-0.1,0-0.3,0-0.4,0
				c-0.5,0-1,0.1-1.4,0.4C57.4,238.3,57.4,238.5,57.8,238.5L57.8,238.5z"/>
		</g>
	</g>
	<g>
		<g>
			<path fill="#845324" d="M61.9,241c0.1,0.1,0.1,0.1,0.2,0.2c0.5,0.5,2.4-0.2,1.8-0.8c-0.1-0.1-0.1-0.1-0.2-0.2
				C63.1,239.7,61.3,240.4,61.9,241L61.9,241z"/>
		</g>
	</g>
	<g>
		<path fill="#DD7227" d="M60.7,171.2c0.1,4,0.2,8,0.3,12c1.1-0.9,2.5-1.6,3.8-2.3c4-2.1,8.1-4.2,12.1-6.3c-3.2-0.9-6.6-1.2-9.8-2
			c-1.9-0.5-3.2-0.9-5.8-1.2"/>
	</g>
	<g opacity="0.15">
		<path d="M142.6,67.9c-0.4,1.6-1.5,5.6-1.9,7.2c10.7-7.9,24.6-14.1,37.7-16.3c13.1-2.2,26.7-1.6,39.4,2.4c9,2.9,18.1,7.6,26.1,12.5
			c-2.3-13.8-2.3-7.9-5.1-10.5c-2.7-2.7-6.3-4.4-9.9-5.7c-6.3-2.3-13-3.6-19.6-4.9c-4.9-0.9-9.8-1.9-14.8-2
			c-4.8-0.1-9.5,0.6-14.2,1.4c-13.3,2.2-27.2,5.4-36.9,14.8"/>
	</g>
	<g>
		<path fill="#F4F0EA" d="M145.1,58.2c22.8-11.3,49.1-14.9,74.9-7.7c4.2,1.2,16.9,6,20.3,8.7c0,0,2.6,5.7,3.2,10.4
			C229,60.6,213.1,54,193.6,54.1c-18.7,0.1-38.2,3.6-52.4,15.8C142.2,64.4,143.3,61.3,145.1,58.2"/>
	</g>
	<g>
		<path fill="#DDD8D3" d="M145.8,60.7c5.3-11.4,11.2-22.4,17.9-33.1c0.6-0.9-1.4-0.9-1.8-0.2c-6.7,10.6-12.6,21.7-17.9,33.1
			C143.5,61.5,145.5,61.5,145.8,60.7L145.8,60.7z"/>
	</g>
	<g>
		<path fill="#DDD8D3" d="M191.4,24.4c0.2,8,0.3,16,0.5,24c0,0.4,1.9,0.1,1.9-0.5c-0.2-8-0.3-16-0.5-24
			C193.3,23.5,191.4,23.8,191.4,24.4L191.4,24.4z"/>
	</g>
	<g>
		<path fill="#DDD8D3" d="M223.1,24.8c4.5,11.9,9.4,23.7,14.6,35.3c0.3,0.7,2.2,0.1,1.9-0.5c-5.2-11.6-10.1-23.4-14.6-35.3
			C224.8,23.6,222.9,24.1,223.1,24.8L223.1,24.8z"/>
	</g>
	<g>
		<path fill="#ECE6E2" d="M149.8,17c-10.7,6.8-18,15.8-23.6,25.3c13.9-7.3,33.1-6.2,41.8,2.4c17.9-14.7,37.8-7,47.7,0
			c11.3-6.3,23.9-13.8,40.4-6.5c-11.3-18.5-45-35.6-63.8-35S160.5,10.2,149.8,17z"/>
	</g>
	<g opacity="4.000000e-02">
		<path d="M168.1,44.6c1.2-1,2.5-1.9,3.7-2.7c2.2-1.4,6.6-3.4,6.6-3.4c-0.6-17.6,14-35.4,14-35.4C173.6,3.7,159.4,36,168.1,44.6z"/>
	</g>
	<g>
		<path fill="#F3EF8A" d="M149.8,17c-10.7,6.8-18,15.8-23.6,25.3c13.9-7.3,33.1-6.2,41.8,2.4C167.4,18,192.4,3.1,192.4,3.1
			C173.6,3.7,160.5,10.2,149.8,17z"/>
	</g>
	<g opacity="5.000000e-02">
		<path d="M149.8,17c-10.7,6.8-18,15.8-23.6,25.3c8.4-4.4,17.9-4.8,17.9-4.8c3.9-24.4,48.2-34.4,48.2-34.4
			C173.6,3.7,160.5,10.2,149.8,17z"/>
	</g>
	<g>
		<path fill="#A8D6A5" d="M215.7,44.7c11.3-6.3,24-13.9,40.4-6.6c-11.3-18.5-45-35.6-63.8-35C192.4,3.1,214.5,14.6,215.7,44.7z"/>
	</g>
	<g opacity="5.000000e-02">
		<path d="M215.7,44.7c2.7-1.5,12.3-6.9,15.7-7.7c0,0-17.5-27.4-39-33.9C192.4,3.1,214.5,14.6,215.7,44.7z"/>
	</g>
	<g>
		<path fill="#DDD8D3" d="M192.5,0.9c0,1.6,0,3.3,0,4.9c0,0.3,1.9,0,1.9-0.5c0-1.6,0-3.3,0-4.9C194.4,0.1,192.5,0.4,192.5,0.9
			L192.5,0.9z"/>
	</g>
</g>
<g id="Layer_15">
</g>
</svg>
