<?xml version="1.0" encoding="utf-8"?>
<!-- Generator: Adobe Illustrator 17.1.0, SVG Export Plug-In . SVG Version: 6.00 Build 0)  -->
<!DOCTYPE svg PUBLIC "-//W3C//DTD SVG 1.1//EN" "http://www.w3.org/Graphics/SVG/1.1/DTD/svg11.dtd">
<svg version="1.1" id="Layer_1" xmlns="http://www.w3.org/2000/svg" xmlns:xlink="http://www.w3.org/1999/xlink" x="0px" y="0px"
	 viewBox="0 0 202.1 269.4" enable-background="new 0 0 202.1 269.4" xml:space="preserve">
<path fill="#DEDDDD" d="M175.6,246.9c-3.8-3.6-9.5-4.8-14.8-4.1c-3.8,0.5-7.4,2.2-11.2,2.6c-4.6,0.5-9.5-0.6-14.1-0.7
	c-0.2,0-0.4,0-0.6,0c0.4-2.5-0.7-5.1-3.8-5.6c-11.3-1.8-22.7-2-34.1-1.1c-6.7,0.5-16.8,0.3-22.6,4.9c-0.9-0.2-1.7-0.4-2.6-0.6
	c-19.9-4.8-38.7-12.9-58.7-4c-7.2,3.2-16.8,12.3-11.5,20.9c5.2,8.6,17,7.8,25.8,8.1c11,0.4,22.1-0.1,33.1-0.4
	c3.9-0.1,7.8-0.1,11.8-0.2c6.6,1.3,13.3,2.4,20.1,2.7c4.7,0.2,9.6-0.2,14.1-1.7c4.8-1.5,9-4,13.6-5.9c1.9-0.4,3.8-1,5.6-1.9
	c0.7-0.2,1.4-0.3,2.1-0.4c14.5,4,32.3,10.6,45.6,2c0.3-0.1,0.7-0.1,1-0.2c3.1-0.7,4.7-3.2,5-5.9C180.4,252,178.5,248.5,175.6,246.9z
	"/>
<path opacity="0.4" fill="#A09F9F" d="M125.3,249.7c-0.6-1.5-2.2-2.5-4.2-1.8c-1.4,0.4-2.2,2.2-1.8,3.5c-0.3-0.1-0.6-0.1-0.9-0.1
	c-3.2,0.4-5.9,1.8-8.7,3.2c-1.9,0.2-3.8,0.3-5.7,0.4c-3.3,0.2-6.6,0.3-10,0.5c-0.1,0-0.2,0-0.3,0c-0.3-0.2-0.6-0.3-0.9-0.5
	c-0.1-0.6-0.4-1.1-0.9-1.6c0.3-0.2,0.6-0.5,0.9-0.7c0.3-0.2,0.5-0.5,0.6-0.7c1.6,0.3,2.6-1.8,1.1-2.9c-2.9-2.1-8-1.7-11.4,0.5
	c-1.9,0.3-3.7,0.7-5.6,1c-3,0.5-7,0.3-8.5,3.4c-0.6,1.2-0.4,2.8,0.9,3.6c1.5,0.8,2.9,1.4,4.4,1.8c1.1,0.9,2.5,1.3,4.2,1.5
	c5.1,0.5,10.3,1.1,15.4,1.6c4.3,0.4,8.3,0.6,12.5-0.4c0.5-0.1,1-0.3,1.4-0.4c5.9-0.7,11.9-2.2,17.2-4.8
	C128.5,255,127.3,251.7,125.3,249.7z"/>
<path fill="#D1E0D1" d="M116.2,133c7.5-1.5,15.4-2.8,23.2-0.4c1.4,0.4,2.8,1,4.2,1.2c1.6,0.2,3.2,0,4.8-0.3c5-0.8,10.1-1.7,14.3-4.4
	c0-1-0.7-2-1.5-2.5c-0.8-0.5-1.7-0.6-2.6-0.6c-4.3-0.2-8.5,1-12.8-0.1c-0.6-0.2-1.4-0.5-1.5-1.2c1.7-0.6,4.9-1.6,5.8-3.3
	c-1.9-0.9-5.6-2-7.6-1.8c-3.2,0.3-5.3,3.2-8.1,4.7c-2.6,1.4-5.8,1.6-8.8,1.7c-4.1,0.2-8.1,0.3-12.2,0.5"/>
<path opacity="0.5" fill="#93BA85" d="M154.2,128.9c-5.7,1.1-10.3,1.1-15.7-0.9c-2.8-1-5.3-1.5-7.9-1.6c-0.3-0.6-1.1-1.1-1.9-1
	c-1.6,0.2-1.6,0.3-3,1c-0.4,0.2-0.5,0.5-0.6,0.9c-1,1.2-0.5,3.4,1.4,3.3c5.7-0.2,9.9,1.8,15.2,3.3c4.4,1.2,9.4,0.6,13.7-0.7
	C158.2,132.5,157,128.4,154.2,128.9z"/>
<g>
	<path fill="#739973" d="M128.8,125c0.2,0.9,0.7,1.8,0.9,2.7c0.3,1,0.3,2,0.4,3.1c0.1,0.9,1.4,0.9,1.4,0c0-2-0.6-4.7-2-6.2
		C129.3,124.2,128.7,124.6,128.8,125L128.8,125z"/>
</g>
<g>
	<path fill="#8DB28E" d="M116.2,133.9c4.1-0.5,8.2-1.2,12.4-1.5c5.2-0.3,9.7,1.3,14.6,2.4c2.7,0.6,6.1-0.4,8.8-0.8
		c4-0.7,7.8-1.9,11.3-3.9c0.4-0.2,0.8-0.9,0.6-1.4c-0.8-1.8-2.4-2.8-4.1-3.7c-3.4-1.7-11.9,2.3-14.5-1.1c-0.3,0.6-0.5,1.3-0.8,1.9
		c1.5-0.5,6.6-1.5,7-3.6c0.5-2.7-3.7-3.1-5.5-3.6c-4.7-1.3-7.5,1-11.2,3.7c-5.2,3.9-15.3,2.5-21.5,2.7c-1.7,0.1-1.7,2.7,0,2.6
		c7-0.3,15.2,0.6,21.7-2.4c4.4-2,6-5.3,11.6-3.8c0.8,0.2,1.5,0.5,2.2,0.7c-0.1-1-0.6-1-1.6,0c-1.1,0.4-2.2,0.8-3.3,1.1
		c-0.7,0.2-1.3,1.2-0.8,1.9c2.2,3,6.7,2.5,10,2.2c1.2-0.2,2.4-0.3,3.7-0.3c-1.2,0.1,6.1,0.5,3.9,1.8c-2.8,1.6-6.1,2.3-9.3,2.9
		c-3.5,0.7-6.8,1.2-10.3,0.1c-2.3-0.7-4.6-1.4-7.1-1.6c-6.1-0.5-12.1,0.3-18,1.8C115,132.3,115.2,134.1,116.2,133.9L116.2,133.9z"/>
</g>
<path fill="#D1E0D1" d="M154.9,99.8c7.7-0.4,15.6-1,22.5-5.3c1.2-0.8,2.4-1.6,3.7-2.2c1.5-0.6,3.1-0.8,4.7-0.9
	c5-0.5,10.2-0.9,15,0.7c0.3,1-0.2,2.1-0.8,2.8c-0.7,0.7-1.5,1-2.4,1.3c-4.1,1.2-8.5,1.1-12.4,3.3c-0.6,0.3-1.2,0.8-1.2,1.6
	c1.8,0.2,5.1,0.4,6.5,1.8c-1.7,1.3-5,3.3-6.9,3.6c-3.1,0.5-6-1.8-9-2.6c-2.9-0.8-6-0.1-9,0.5c-4,0.8-8,1.7-12,2.5"/>
<path opacity="0.5" fill="#93BA85" d="M187.4,101.1c-3.9-0.6-7.8-1.1-11.7-1.7c0.2-0.2,0.4-0.3,0.6-0.5c2-1.7-0.6-4.7-2.7-3.5
	c-3.5,2-7.2,3.3-10.8,5c-1.4,0.7-0.7,2.9,0.8,2.9c2-0.1,3.8-0.5,5.6-1.1c0.1,0.1,0.2,0.1,0.3,0.1c0.6,0.2,1.1,0.4,1.7,0.6
	c0,0,0,0,0,0c0.5,0.5,1.2,0.7,1.9,0.6c4.3,0.7,8.6,1.3,13,2C189.1,106,190.4,101.6,187.4,101.1z"/>
<g>
	<path fill="#739973" d="M169.4,97.1c0.5,2.3,1.1,4.5,1.5,6.9c0.1,0.7,1.2,0.5,1.2-0.2c-0.1-2.4-0.7-5.1-1.9-7.1
		C170,96.3,169.3,96.6,169.4,97.1L169.4,97.1z"/>
</g>
<g>
	<path fill="#8DB28E" d="M154.9,100.7c6.9,0,13.7-0.9,20.1-3.6c4.6-1.9,7.3-4.3,12.6-4.7c4.4-0.4,8.7-0.4,13,0.9
		c-0.3-0.5-0.6-1-0.8-1.5c-1,7-14.4,2.2-16.9,8.9c-0.3,0.8,0.5,1.6,1.3,1.7c0.8,0.1,1.7,0.1,2.5,0.2c0.9,0.1,1.7,0.2,2.5,0.4
		c0.2-0.9-0.1-0.9-0.9,0c-4.4,2.9-7,1.8-11.7,0.3c-7.3-2.4-15.9,1-23.1,2.5c-1.6,0.3-1,2.9,0.7,2.5c7.1-1.5,16-5,22.9-2.1
		c4.5,1.9,7.2,2,11.5-0.4c1.6-0.9,4.3-2.1,3.3-4.3c-0.9-1.9-6-1.6-7.7-1.8c0.4,0.6,0.8,1.1,1.3,1.7c1.4-3.5,10.1-2.5,12.9-4.2
		c1.7-1,3.5-2.8,3.8-4.8c0.1-0.7-0.2-1.3-0.8-1.5c-3.4-1-6.7-1.2-10.2-1.1c-3.1,0.1-7.5,0-10.4,1.5c-3.8,1.9-7.1,4.1-11.2,5.3
		c-4.7,1.4-9.6,1.6-14.5,2.2C153.8,99,153.7,100.7,154.9,100.7L154.9,100.7z"/>
</g>
<path fill="#D1E0D1" d="M138.9,203.8c5,6.7,10,13.4,12.9,21.2c1,2.8,0.5,7.3,3.4,7.4c2.8,0.1,6.5-4,8.9-5.4c1.8-1.1,4.1-1.2,6.2-1.5
	c4-0.4,8.1-1.3,11.3-3.7s5.3-6.7,4.1-10.5c-0.5-1.6-1.9-3.2-3.6-3.1c-2.1,0.2-3.1,2.7-5,3.6c-0.7,0.3-1.4,0.5-2.2,0.6
	c-5.5,0.9-11,1.7-16.4,2.6c-1.1,0.2-2.2,0.3-3.2-0.2c-0.7-0.4-1.2-1.1-1.7-1.7c-3.3-4.6-6.2-9.5-8.8-14.5"/>
<path opacity="0.5" fill="#93BA85" d="M182.2,216.3c-3.7,3.3-7.9,3.6-12.6,4.4c-4.1,0.7-7.7,1.9-11.2,4c-1.4,0.9-1.4,1.2-2.1-0.3
	c-0.9-1.9-1.9-3.6-2.9-5.4c-1.9-3.1-3.9-6.1-5.6-9.3c0.5-0.5,1-1.1,1.5-1.7c0.8-1.1,0-2.5-1.1-2.9c-0.4-0.9-1.6-1.5-2.5-0.6
	c-1,1-1.9,2.1-2.9,3.1c-1.1,1.2-0.4,2.8,0.8,3.2c1.8,4.2,4.3,7.9,6.6,11.8c1.3,2.1,2.6,9.6,6.8,8.2c1.9-0.6,3.4-1.8,5.1-2.8
	c3.2-1.9,7-2.3,10.6-2.8c5.2-0.7,9.7-1.9,12.8-6.3C187,216.8,183.9,214.8,182.2,216.3z"/>
<g>
	<path fill="#739973" d="M150.8,224.2c4.7,0.1,8.9-5.3,10.1-9.3c0.3-0.8-1-1.1-1.3-0.4c-1.6,4-4.6,7.8-9,8.8
		C150.2,223.4,150.3,224.2,150.8,224.2L150.8,224.2z"/>
</g>
<g>
	<path fill="#8DB28E" d="M138.2,204.3c4,5.9,8.2,11.6,11.3,18.1c1,2.2,1.4,10.3,4.6,11c3.9,0.8,6.9-2.6,9.8-4.8
		c2.7-2.1,6.6-1.8,9.8-2.2c3.1-0.5,6-1.6,8.6-3.3c3.4-2.3,5.2-6.4,5-10.4c-0.2-3.3-2.9-6.2-6.3-5.4c-1.8,0.4-3.5,2-5,3
		c-2.8,2-7.2,1.9-10.5,2.4c-1.8,0.3-3.7,0.6-5.5,0.9c-5,0.8-5.1-0.8-7.4-4.1c-2.5-3.6-4.6-7.5-6.7-11.4c-0.8-1.5-3.1-0.2-2.3,1.3
		c2.6,5,5.5,9.8,8.8,14.5c2.2,3.1,4.8,2.7,8.2,2.2c4.7-0.7,11-0.7,15.3-2.6c1.5-0.7,2.8-2,4.2-2.9c1.9-1.5,3.5-0.4,4.6,3.4
		c0.1,2.4-1.6,4.5-3,6.1c-4.2,4.5-11.1,3.7-16.5,5.1c-2.6,0.7-10.2,9-11.5,3.8c-2.4-9.9-7.9-17.8-14.3-25.7
		C138.9,202.6,137.6,203.5,138.2,204.3L138.2,204.3z"/>
</g>
<path fill="#D1E0D1" d="M86.7,220.5c1.2,8.2,2.4,16.6,1.2,24.8c-0.4,2.9-1.8,8.7,0.7,10.2c2.4,1.4,6.4-0.5,9.1-0.6
	c2.1-0.1,4.2-1.1,6.2-0.3c3.7,1.6,7.7,2.8,11.7,2.2s7.8-3.3,8.6-7.3c0.3-1.7-0.1-3.7-1.7-4.4c-1.9-0.8-4,1.9-6.1,1.8
	c-0.8,0-1.5-0.3-2.2-0.5c-5.2-1.9-10.4-3.7-15.7-5.6c-1-0.4-2.1-0.8-2.7-1.7c-0.5-0.7-0.6-1.5-0.7-2.3c-0.7-5.6-0.9-12.3-0.8-17.9"
	/>
<path opacity="0.5" fill="#93BA85" d="M94.2,226.1c-0.1-1.7-1.8-2.5-3.1-1.8c-0.5,0-1,0.1-1.4,0.5c-1.1-0.3-2.6,0.7-2.1,1.9
	c0,1.7,0.3,3.4,0.6,5.1c0,0.1,0.1,0.2,0.1,0.3c-0.3,3.6,0.1,7.3-0.3,10.8c-0.6,4.4-2.5,10.6,1.7,13.7c1.5,1.1,3.7-0.7,3.1-2.4
	c-1.5-4.3-0.5-8.1,0-12.4c0.4-3.2-0.4-6.8-0.2-10.1c0.7-0.1,1.2-0.6,1.4-1.4C94.3,228.4,94.4,228,94.2,226.1z"/>
<g opacity="0.5">
	<path fill="#93BA85" d="M95.8,242.4c4.2,2.5,8.6,4.4,13.1,6.1c4.4,1.6,7.4,0.2,11.7-0.3c2.8-0.4,2.9-4.7,0-4.5
		c-3.7,0.3-6.7,1.5-10.5,0.4c-4.4-1.4-8.8-2.9-13.3-4.1C95.4,239.5,94.5,241.6,95.8,242.4L95.8,242.4z"/>
</g>
<g>
	<path fill="#739973" d="M88,248c5,0.6,9.4-2.1,11.5-6.6c0.4-0.8-0.8-1.4-1.1-0.7c-1.8,4.3-5.8,6.5-10.4,6.3
		C87.4,247.1,87.5,247.9,88,248L88,248z"/>
</g>
<g>
	<path fill="#8DB28E" d="M85.9,220.5c0.8,7.6,1.8,15.2,1.1,22.9c-0.3,3-2.7,9.8,0.2,12.3c3.2,2.8,8.8,0.8,12.5,0.1
		c6.5-1.2,12.4,4.5,19.2,1.4c3.9-1.8,6.4-4.7,6.8-9c0.2-3.5-3-5-5.9-4.4c-2.4,0.5-4.4,1.5-6.8,0.7c-4.1-1.5-8.1-2.9-12.2-4.4
		c-2.8-1-4-1.8-4.3-4.9c-0.2-1.6-0.3-3.3-0.4-4.9c-0.3-3.8-0.3-7.7-0.2-11.5c0-1.7-2.6-1.7-2.6,0c-0.1,5.5,0.1,10.9,0.6,16.4
		c0.3,2.8,0.6,5.3,3.5,6.4c5.5,2.1,11.1,4,16.7,5.9c0.7,0.3,1.8-0.1,2.4-0.3c2.2-0.6,9.5-3.3,5.8,4c-3.8,7.7-13.6,3-19.4,1.8
		c-3.1-0.6-13.9,4.5-14.5-1c-0.5-4.5,1.2-9.8,1.2-14.4c0-5.8-1-11.7-2-17.4C87.3,219.4,85.8,219.6,85.9,220.5L85.9,220.5z"/>
</g>
<path fill="#A7ABAF" d="M108.9,86.7c6.3,3.8,14.8,7.6,21.8,9.7c0.9,0.3,4.1,1.7,5.1,1.9c0.9,0.2,18-0.9,25.5-1.2
	c0.6,2.7,1.1,7.6,1.4,10.3c-9.7,1.8-29.8,5.6-30.5,5.4c-0.6-0.1-11.6-3.1-16.2-4.6"/>
<path opacity="0.3" fill="#64696E" d="M129.5,95.2c-0.3,0.1-0.5,0.1-0.7,0.2c-4.2-1.2-8.6-2.5-12.1-5.3c-0.7-0.5-1.6-0.9-2.4-0.5
	c-0.7-1.8-3.5-1.1-3,0.9c1.5,5.8,3.2,11.5,5.5,17c0,0,0,0,0,0c0,0,0,0,0,0c0.1,0.2,0.1,0.3,0.2,0.5c0.6,1.3,2,1.3,3,0.7
	c1.2-0.2,2.1-0.9,3.2-1.9c1.9-1.7,3.7-3.3,5.5-5c0.6-0.3,1-0.7,1.4-1.4c0.3-0.1,0.5-0.2,0.8-0.3C133.9,98.9,132.8,94.5,129.5,95.2z"
	/>
<g>
	<path fill="#777C82" d="M108.5,87.4c7.2,4.8,15.9,8,24,11.1c6.5,2.5,14.4,0.7,21.2,0.3c2.2-0.1,4.5-0.2,6.7-0.4
		c-0.2,0,0.9,7.9,1,7.9c-5.7,1.1-11.4,2.1-17.1,3.2c-3.9,0.7-7.8,1.6-11.7,2c-0.5,0.1-2.6-1-3.1-1.2c-2.1-0.8-4.2-1.3-6.4-1.9
		c-3.2-0.8-6.4-1.4-9.6-2.4c-1.6-0.5-2.3,2-0.7,2.5c5.3,1.6,10.7,2.5,15.9,4.2c3.4,1.1,4.2,1.3,7.6,0.7c8.9-1.5,17.8-3.3,26.6-4.9
		c0.5-0.1,1-0.7,1-1.3c-0.5-3.6-0.8-7.1-1.5-10.7c-0.1-0.5-0.7-1-1.3-1c-5.5,0.3-10.9,0.6-16.4,0.8c-2.8,0.1-6.9,1.1-9.5,0.2
		c-8.9-3-17.7-6.6-26.1-10.8C108.4,85.6,107.7,86.9,108.5,87.4L108.5,87.4z"/>
</g>
<path fill="#A7ABAF" d="M79.5,160.2c1.3,20.9,2.6,41.7,4.1,62.6c0,0.7,0.1,1.5,0.7,2c0.6,0.5,1.5,0.5,2.3,0.4
	c4-0.5,8.1-0.9,12.1-1.4c-1.1-19.6-1.1-39.3,0-59"/>
<path fill="#A7ABAF" d="M107.6,164.2c10.1,12.7,22.7,31.5,31.5,45.2c3.6-2.6,7.1-5.1,10.7-7.7c-8.6-15-18.3-34.7-27-49.7"/>
<path opacity="0.3" fill="#64696E" d="M98.5,173.7c0.6-0.7,0.9-1.5,0.9-2.5c0-5.6-10-4.4-13.8-4.4c0-0.1-0.1-0.1-0.1-0.2
	c-0.7-1.6-2.3-1.5-3.3-0.6c-1-0.4-2.4,0.2-2.3,1.4c1.5,18.5,1,37.2,3.3,55.6c0.4,3,4.6,3.2,4.8,0c0.5-10.3-0.7-20.6-0.5-30.9
	c0.1-5,0.6-9.9,0.4-14.8c2.5,0.4,4.9,0.7,7.4,1.1c2.5,0.4,3.9-2.5,3-4.1C98.4,174.2,98.5,173.9,98.5,173.7z"/>
<g>
	<path fill="#777C82" d="M78.7,160.2c0.6,15.7,1.7,31.3,2.7,46.9c0.3,3.9,0.5,7.8,0.8,11.7c0.1,2.2,0,4.5,1.1,6.4
		c0.6,1,2.2,0.9,3.2,0.9c4-0.1,8.1-0.9,12.1-1.4c0.6-0.1,1.1-0.5,1.1-1.1c-0.7-19.7-1-39.3,0.1-59c0.1-1.6-2.3-1.5-2.4,0
		c-1,19.6-1.3,39.4,0.1,59c0.4-0.4,0.7-0.7,1.1-1.1c-2.3,0.3-4.6,0.6-6.9,0.8c-1.2,0.1-2.3,0.3-3.5,0.4c-3.2,0.4-3.7-2.3-3.9-5
		c-0.5-6.5-0.9-13-1.3-19.6c-0.9-13-1.7-26.1-2.7-39.1C80.2,159.2,78.6,159.1,78.7,160.2L78.7,160.2z"/>
</g>
<path opacity="0.3" fill="#64696E" d="M142.1,205.4c-4.6-6.2-9.1-12.4-12.4-19.4c-2.9-6.1-6-12.1-9.3-18c0.8-0.2,1.5-0.4,2.1-0.7
	c0.1,0,0.3,0,0.4,0c1.8-0.4,3.5-0.5,5.1-1.4c0.7-0.4,1.4-1.4,1.3-2.2c-0.2-2-1-4.4-2.2-6c-0.7-0.9-1.7-1.5-2.9-1.2
	c-2.8,0.8-4.7,3.2-6.3,5.5c-0.4,0.5-0.5,1-0.4,1.5c-0.4,0-0.8,0-1.2-0.1c-1-0.1-1.7,0.5-2.2,1.2c-0.5-0.3-1-0.5-1.7-0.3
	c-0.1,0-0.2,0.1-0.3,0.1c-0.9,0.3-1.5,1.1-1.5,2c-0.2,2.8,3.1,5.6,4.4,7.9c2.1,3.8,5.3,7.7,7.7,11.3c5.2,7.8,9.4,15.2,15.1,22.6
	C139.7,210.5,144.1,208,142.1,205.4z"/>
<g>
	<path fill="#777C82" d="M106.9,164.6c11.2,14.5,21.4,29.8,31.1,45.4c0.3,0.5,1.1,0.8,1.6,0.4c3.6-2.5,7.2-5.1,10.8-7.6
		c0.6-0.4,0.8-1.1,0.4-1.7c-9.3-16.4-17.6-33.3-27-49.7c-0.8-1.4-3-0.1-2.2,1.3c9.4,16.4,17.6,33.3,27,49.7c0.1-0.6,0.3-1.1,0.4-1.7
		c-3.6,2.6-7.1,5.2-10.7,7.8c0.5,0.1,1.1,0.3,1.6,0.4c-10.1-15.4-20.2-30.9-31.9-45.1C107.6,163,106.4,163.9,106.9,164.6
		L106.9,164.6z"/>
</g>
<path fill="#D1E0D1" d="M76.6,82.8c1-13-3.4-31.5-8.1-43.3c-1.8-4.5-3.7-9-4.1-13.8s0.8-10,4.4-13.3c2.7-2.4,6.4-3.4,9.9-4.3
	c12.6-3,25.4-4.9,38.4-5.7c3.4,20.5,4.9,40.8,8.3,61.4c-10.4,4-21.1,7.5-31.8,10.5c-0.6,7.6,7.3,12.7,9.4,14.7l0.5,23.2L76.6,82.8z"
	/>
<path opacity="0.5" fill="#93BA85" d="M103.8,92.4c0-0.1,0.1-0.3,0.1-0.4c0.2-3.2,0.4-5.8-3-7.1c-1.1-0.4-2.1,1-1.5,1.9
	c0.4,0.5,0.5,1,0.6,1.5c-0.5,0.3-1,0.7-1.2,1.4c-1.4,3.3-1.8,6.7-1.4,10.3c0.1,1,0.8,1.8,1.7,2.2c-0.1,1.7-0.3,3.4-0.4,5.1
	c-0.3,3.2,4.9,3.3,5,0c0.1-4.5,0.3-9.1,0.6-13.6C104.3,93.3,104.1,92.8,103.8,92.4z"/>
<path fill="#A7ABAF" d="M103.7,113.8c0-7.5,0-15,0-22.5c0-0.8,0-1.7-0.3-2.4c-0.4-1.1-1.4-1.8-2.3-2.5c-2.3-1.9-4.4-4.1-6.1-6.6
	c2.8,1.2,13.8,4.7,13.8,4.7c7,23.9,14.3,45.6,21.4,67c-4.3,2.9-8.2,6.2-11.9,9.8"/>
<g>
	<path fill="#777C82" d="M104,115.8c0.5-7.6,0.6-15.3,0.7-22.9c0-1.8,0.3-4.1-1.2-5.6c-2.6-2.7-5.4-4.9-7.5-8
		c-0.4,0.5-0.8,1-1.2,1.6c4.4,1.8,8.9,3.2,13.4,4.6c0.7,0.2,3,10.7,3.4,12.3c1.5,4.8,3,9.6,4.5,14.4c3,9.3,6,18.5,9.1,27.7
		c1.1,3.4,5.1,10,1.7,12.5c-3.3,2.4-6.4,5.1-9.3,8c-1.2,1.1,0.6,2.9,1.8,1.8c3.6-3.6,7.4-6.8,11.6-9.6c0.4-0.3,0.7-0.8,0.6-1.4
		c-5.8-17.4-11.6-34.7-17-52.2c-1.3-4.3-2.6-8.6-3.9-12.9c-0.6-2-0.5-2.4-2.2-2.9c-4.3-1.4-8.7-2.7-13-4.3c-0.8-0.3-1.7,0.8-1.2,1.6
		c1.6,2.1,3.2,4,5.1,5.8c3.2,3,3.5,5.7,3.5,9.9c-0.1,6.6-0.4,13.2-0.1,19.7C102.7,116.6,103.9,116.6,104,115.8L104,115.8z"/>
</g>
<path opacity="0.5" fill="#93BA85" d="M85.9,60.8c2-2.1-1.2-5.3-3.2-3.2c-1.2-0.3-2.4-0.5-3.6-0.8c0.1-0.3,0.1-0.7,0-1.1
	c-0.4-2-0.9-4-1.4-6c-0.3-1.1-1.1-1.5-1.9-1.5c-4.2-10-7.8-19.8-8.1-31c0-1.5-2.5-2-2.8-0.4c-2.4,13.3,4.4,26.6,9.5,38.6
	c0.1,0.5,0.1,0.9,0.2,1.4c-0.2,0.3-0.4,0.8-0.3,1.3c0.2,2.5,0.6,5,1.2,7.4c0.4,5.1,0.8,10.3,1.3,15.4c0.3,2.8,4.2,2.8,4.4,0
	c0.1-0.9-0.6-5.4,0.4-5.6c0.6-0.1,1.3-0.8,1.5-1.5c0.3-1.9,0.3-3.4-0.2-5.3c-0.3-1.1-1.4-1.7-2.5-1.5c-0.2-0.9-0.5-1.9-0.7-2.8
	c0.1-0.3,0.1-0.6,0-1c0-0.3-0.1-0.6-0.1-0.9C81.7,63.1,83.9,62.8,85.9,60.8z"/>
<path opacity="0.5" fill="#93BA85" d="M93,10.4c-0.2-0.8-0.7-1.6-1.1-2.3c-0.4-0.7-0.8-1.3-1.4-1.9c-1.1-1.3-3.5-0.4-3,1.4
	c0.1,0.3,0.3,0.6,0.6,0.7c0,0.1,0,0.1,0.1,0.2c0.1,0.4,0.3,0.7,0.4,1.1c0.3,0.8,0.5,1.6,0.9,2.3C90.7,13.7,93.5,12.6,93,10.4z"/>
<g opacity="0.5">
	<path fill="#93BA85" d="M110.2,3.9c0,0.6,0.1,1.1,0.2,1.7c0.1,0.7,0.1,1.1,0.3,1.7c0.3,1,1.3,1.6,2.3,1.3c0.9-0.3,1.7-1.4,1.3-2.3
		c-0.2-0.6-0.4-0.9-0.7-1.4c-0.3-0.6-0.5-1.2-0.8-1.7C112.1,2,110.2,2.4,110.2,3.9L110.2,3.9z"/>
</g>
<g>
	<path fill="#739973" d="M98.1,18.9c6.7-1.5,13.4-3.1,19.9-5.2c0.7-0.2,0.4-1.3-0.3-1.1C111,14,104.4,16,97.9,18
		C97.3,18.2,97.5,19.1,98.1,18.9L98.1,18.9z"/>
</g>
<g>
	<path fill="#739973" d="M66.8,35.2c10.9-2.5,16-17.2,15-27.1c-0.1-0.9-1.5-0.9-1.4,0c1,9.5-3.7,23-13.9,26.1
		C65.9,34.4,66.1,35.3,66.8,35.2L66.8,35.2z"/>
</g>
<path opacity="0.5" fill="#93BA85" d="M115.8,27.1c-6.8,2.8-13.2,5-20.3,6.6c-2-2.1-5.1-4.5-7.6-2.8c-1.1,0.7-1.6,2.2-0.9,3.3
	c0,0,0.1,0.1,0.1,0.1c0.5,0.8,1.2,1.1,1.8,1.2c-0.4,0.4,1.6,2.7,1.8,3.1c0.5,1.4,1.8,2.8,3.5,2.7c8.4-0.7,17.1-3.1,24.5-7.2
	C122.4,32,119.8,25.4,115.8,27.1z"/>
<g>
	<path fill="#8DB28E" d="M77.2,82.8c1.1-12-1.4-24-4.9-35.5c-1.9-6.2-4.8-12.1-6.4-18.4c-1.1-4.3-0.8-8.7,1.1-12.7
		c2.2-4.6,7.4-6.1,11.9-7.2c8.1-2,16.3-3.4,24.6-4.4c3.9-0.5,7.7-0.8,11.6-1.1c2.1-0.1,2.9,12.7,3.1,14.1c2,15.4,3.5,30.9,6,46.3
		c0.3-0.5,0.5-1,0.8-1.5C114.5,66.5,103.9,70,93.1,73c-0.5,0.2-0.9,0.6-0.9,1.2c0,3.1,0.5,6,1.6,8.9c0.6,1.5,3,0.8,2.4-0.7
		c-0.6-1.5-2.9-6.9-0.7-7.5c3.6-1,7.1-2.1,10.7-3.2c6.5-2.1,12.9-4.4,19.3-6.8c0.7-0.2,0.9-0.8,0.8-1.5c-3.4-20.4-5-41-8.4-61.4
		c-0.1-0.5-0.6-0.8-1.1-0.8c-12.4,0.8-24.7,2.6-36.8,5.4c-8.2,1.9-16,5.2-16.9,14.6c-0.9,10.3,5,19.9,7.8,29.5
		c3,10.2,5.2,21.3,4.7,32C75.9,83.6,77.1,83.6,77.2,82.8L77.2,82.8z"/>
</g>
<g>
	<path fill="#8DB28E" d="M106.7,41.6c-1.6,0.6-3.3,2.2-2.4,4.1c1.1,2.3,4.1,1.8,6.2,1.5c2.5-0.4,5-1.6,5.9-4.1
		c0.8-2.2-1.4-4-3.4-3.6c-1.6,0.3-0.9,2.7,0.7,2.4c0.2,1.1-0.1,1.7-0.9,2c-0.7,0.4-1.5,0.6-2.2,0.8c-0.8,0.2-1.6,0.3-2.4,0.3
		c-1.1,0.1-1.6-1.1-0.6-1.7C108.4,42.8,107.7,41.2,106.7,41.6L106.7,41.6z"/>
</g>
<g>
	<path fill="#5D705D" d="M102.5,34.5c-0.4,0.2-0.7,0.5-0.9,1c-0.1,0.3-0.1,0.5,0.1,0.7c0.5,0.6,1.4,0.7,2.1,0.4
		c0.6-0.3,1.3-1.6,0.6-2.2c-1.2-1-3.3-0.4-3.5,1.2c-0.1,0.5,0.1,0.9,0.6,1c1.1,0.3,2.1,0.3,3-0.4c0.8-0.6,0.8-1.9,0.1-2.6
		c-0.6-0.7-1.7-0.6-2.5-0.3c-0.9,0.4-1.3,1.5-1.6,2.4c-0.1,0.4,0.1,0.9,0.4,1c1.1,0.6,2.7,0.8,3.5-0.4c0.7-1,0.4-2.5-0.9-2.8
		c-1.2-0.3-2.4,0.7-2.2,2c0.2,1.2,2,2.1,2.8,1c0.4-0.5,0.2-1.6-0.6-1.5c-0.1,0-0.3,0.1-0.4,0c0.1,0.1,0.1,0.4,0,0.4
		c-0.2,0-0.2-0.2-0.2-0.3c0,0.1,0,0.1-0.1,0.2c-0.3,0.2-0.7,0-1-0.2c0.1,0.3,0.3,0.7,0.4,1c0.2-0.5,0.4-1.3,1-1.3c0.1,0,0,0-0.1,0.1
		c-0.3,0.3-1,0.1-1.3,0c0.2,0.3,0.4,0.5,0.6,0.8c0-0.4,0.7-0.4,1-0.3c-0.1-0.2-0.2-0.3-0.4-0.5c0,0.3-0.4,0.3-0.6,0.2
		c0.1,0.2,0.1,0.4,0.2,0.6c0.1-0.2,0.1-0.4,0.3-0.5C103.5,35,103.1,34.2,102.5,34.5L102.5,34.5z"/>
</g>
<g>
	<path fill="#5D705D" d="M113.4,30c-0.9,0.5-1.1,1.5-0.7,2.3c0.1,0.2,0.4,0.3,0.6,0.4c0.9,0,1.7-0.4,2.2-1.2c0.1-0.2,0.2-0.6,0-0.8
		c-0.3-0.4-0.5-0.8-1.1-0.8c-0.4,0-0.8,0.2-1.2,0.4c-0.8,0.4-1.2,1.3-1.2,2.1c0,0.3,0.2,0.6,0.4,0.8c0.8,0.5,1.8,0.4,2.6,0
		c0.8-0.4,1.6-1.7,0.9-2.6c-1.3-1.9-3.9-0.1-4.2,1.7c-0.1,0.4,0,0.9,0.4,1.1c1.3,0.6,2.5-0.1,3.3-1.1c0.4-0.5,0.4-1.2-0.2-1.5
		c-1-0.6-2.8-0.1-2.7,1.3c0.1,0.7,1,1.3,1.5,0.6c0.1-0.1,0.5-0.5,0.2-0.3c0.2-0.2,0.1,0,0,0c-0.1-0.5-0.1-1-0.2-1.5
		c-0.2,0.2-0.4,0.4-0.6,0.6c-0.1,0.1-0.2,0.1-0.3,0.2c-0.2,0.1-0.2,0-0.1,0c0.2,0.3,0.3,0.6,0.5,0.8c0-0.4,0.5-0.9,0.9-0.8
		c-0.2,0-0.2-0.3-0.3-0.3c-0.1,0.1-0.2,0.2-0.3,0.2c-0.2,0.1-0.5,0.1-0.7,0c0.1,0.3,0.3,0.5,0.4,0.8c0-0.4,0.3-0.9,0.8-0.9
		c-0.2-0.1-0.4-0.2-0.6-0.2c0.1,0.1,0.2,0.3,0.4,0.4c0-0.3-0.1-0.6-0.1-0.9c-0.2,0.3-0.5,0.5-0.9,0.5c0.2,0.1,0.4,0.2,0.6,0.4
		c-0.1-0.2-0.1-0.4,0.1-0.5C114.8,30.7,114.2,29.6,113.4,30L113.4,30z"/>
</g>
<g>
	<path fill="#5D705D" d="M96.2,33.5c7.8-1.2,16.1-3.6,22.7-8c1.1-0.7,0.2-2.2-1-1.7c-7.3,3.2-14.3,6.3-22.1,8.3
		C94.9,32.4,95.3,33.7,96.2,33.5L96.2,33.5z"/>
</g>
<g>
	<path fill="#414641" d="M117.4,50.7c-4.7,1.4-9.4,2.8-14,4.5c-0.3,0.1-0.7,0.3-0.9,0.5c-0.3,0.4-0.2,1-0.1,1.6
		c0.3,0.9,0.6,1.9,1.4,2.5c1.1,0.9,2.8,0.6,4.2,0.3c2-0.4,4.1-0.9,6.1-1.3c1.5-0.3,3.1-0.7,4.1-1.8c1.5-1.6,1.1-4.2,0-6.1
		c-0.8,0.1-1.5,0.4-2.1,0.9"/>
	<g>
		<path fill="#414741" d="M117.2,49.9c-2.8,0.6-5.5,1.4-8.3,2.3c-2,0.6-5.1,1.1-6.8,2.4c-2.1,1.7-0.3,6.1,2.1,6.6
			c1.8,0.4,3.5,0,5.3-0.4c2.5-0.5,5.6-0.7,7.9-2c3.4-1.9,3.4-5.4,1.8-8.6c-0.2-0.5-0.8-0.6-1.3-0.5c-1.1,0.2-1.7,0.6-2.6,1.2
			c-1,0.8,0.3,2.1,1.3,1.6c0.6-0.3,1.2-0.6,1.9-0.7c-0.4-0.2-0.8-0.3-1.3-0.5c1.1,2.3,1.4,4.6-1.6,5.8c-1,0.4-2.1,0.5-3,0.7
			c-2.5,0.5-7.9,2.9-9.1-0.9c-0.4-1.2,12.6-4.9,14.1-5.5C118.6,51.1,118.3,49.7,117.2,49.9L117.2,49.9z"/>
	</g>
</g>
<path fill="#EBECAE" d="M110.6,53.8c-0.1-0.4-0.5-0.7-0.8-0.8c0,0,0,0,0.1,0c-0.5-0.3-1-0.2-1.4,0.2c-0.2,0-0.3,0.1-0.4,0.3
	c-0.3,0.5-0.2,1.2-0.3,1.8c0,0.4,0.3,0.9,0.8,1c0.6,0.1,1.5,0.1,2-0.4C111.1,55.2,110.7,54.6,110.6,53.8z"/>
<path fill="#EBECAE" d="M113.5,53.4c-0.3-0.3-0.6-0.7-0.9-1c-0.4-0.5-0.9-0.4-1.3-0.2c-0.1-0.1-0.2-0.1-0.4-0.1
	c-0.3,0-0.6,0.2-0.7,0.5c0,0,0,0,0,0c0,0.1,0,0.3,0,0.4c0,0.3,0.1,0.7,0.2,1c0.1,0.5,0.2,1,0.6,1.4c0.7,0.7,2,0.2,2.5-0.5
	C113.9,54.5,113.9,53.9,113.5,53.4z"/>
<path fill="#EBECAE" d="M115.8,51.8c-0.2-0.6-0.8-1-1.4-0.8c-0.2,0.1-0.3,0.1-0.5,0.3c0,0,0,0,0,0c-0.5,0-0.9,0.5-0.7,0.9
	c0.1,0.4,0.1,0.8,0.1,1.2c0.1,0.8,0.7,1.4,1.5,1.2c0.6-0.1,1.2-0.4,1.4-1C116.5,53,116,52.3,115.8,51.8z"/>
<path fill="#EBECAE" d="M118.4,51.3c-0.1-0.1-0.1-0.1-0.2-0.3c-0.1-0.2-0.3-0.4-0.5-0.5c-0.3-0.2-0.7-0.2-1,0
	c-0.4,0-0.7,0.3-0.8,0.8c-0.1,0.6-0.1,1.4,0.1,2c0.2,0.5,0.8,0.6,1.2,0.5c0.8-0.2,1.7-0.4,1.7-1.4C118.9,51.9,118.7,51.6,118.4,51.3
	z M117.7,51.9C117.7,51.9,117.7,51.9,117.7,51.9C117.8,52,117.8,51.9,117.7,51.9z"/>
<path fill="#EBECAE" d="M105.5,55c-0.4-0.7-1.2-0.6-1.6-0.2c-0.2,0-0.4,0.1-0.5,0.3c-0.3,0.4-0.4,0.8-0.5,1.2
	c-0.3,0.7,0.5,1.4,1.2,1.2c0.6-0.2,1.2-0.3,1.6-0.8C106.1,56.3,105.8,55.6,105.5,55z"/>
<path fill="#EBECAE" d="M111.6,57.3c-0.1-0.8-0.8-1.3-1.6-0.9c-0.3,0.1-0.5,0.2-0.8,0.2c-0.7,0.1-0.9,1-0.6,1.5
	c0.2,0.4,0.6,0.9,0.9,1.2c0.1,0.1,0.2,0.2,0.4,0.2c0.5,0.7,1.7,0.4,1.8-0.4C111.9,58.6,111.7,57.9,111.6,57.3z"/>
<path fill="#EBECAE" d="M114.3,56.6c0-0.8-0.9-1.3-1.6-0.9c-0.6,0.3-1.5,0.7-1.5,1.5c0,0.6,0.4,1.6,1,1.9c0.2,0.1,0.4,0.1,0.6,0
	c0.7,0.2,1.6-0.1,1.5-1C114.3,57.5,114.3,57,114.3,56.6z"/>
<path fill="#EBECAE" d="M119.2,54.5c0-0.5-0.4-1.1-1-1c-0.8,0.1-1.6,0.5-1.9,1.3c-0.2,0.5,0.2,1,0.4,1.4c0.2,0.4,0.4,0.8,0.9,0.9
	c0.2,0.1,0.4,0,0.6-0.1c0.6,0.1,1.2-0.4,1.1-1C119.3,55.5,119.3,55,119.2,54.5z"/>
<path fill="#EBECAE" d="M109.2,59.1c-0.2-0.6-0.1-1.3-0.4-1.8c-0.3-0.5-1-0.7-1.5-0.5c-0.6,0.2-1.2,0.7-1.1,1.3c0,0.6,0.6,1.4,1,1.9
	c0.2,0.3,0.6,0.4,0.9,0.3C108.6,60.4,109.5,59.9,109.2,59.1z"/>
<path fill="#EBECAE" d="M107.1,59.4c-0.2-0.6-0.4-1.7-1-2c-0.7-0.4-1.7,0.1-2.2,0.7c-0.3,0.4-0.3,0.9,0,1.3c0.3,0.4,0.7,0.7,1,1
	c0.2,0.2,0.4,0.2,0.7,0.1C106.2,60.9,107.4,60.4,107.1,59.4z"/>
<g>
	<path fill="#8DB28E" d="M83.3,47.9c-1.1-1.5-2.9-1.3-4.2-0.2c-1.8,1.6-1.7,5.3-1.2,7.4c1.3,5,9.1,6,9.7,0.2c0.1-1.2-2-1.5-2.1-0.3
		C85,58.7,81,57,80.1,54.6c-0.3-0.9-0.2-7.4,2-5.7C82.7,49.4,83.9,48.7,83.3,47.9L83.3,47.9z"/>
</g>
<g>
	<path fill="#739973" d="M69.9,30.2c-0.5,0.1-0.6,0.3-0.2,0.6c0.2,0.2,0.3,0.5,0.5,0.7c0.3,0.5,0.6,0.9,1,1.4c0.7,1,1.3,2,2,2.9
		c0.5,0.7,1.6-0.2,1.2-0.9c-0.8-1.3-1.8-2.5-2.7-3.8c-0.5-0.7-1.1-2.1-2.1-2.1c-0.3,0-0.6,0.3-0.6,0.6c0,0,0,0,0,0.1
		C68.9,30.2,69.5,30.6,69.9,30.2L69.9,30.2z"/>
</g>
<g>
	<path fill="#739973" d="M73.4,25.7c1.4,1.3,2.9,2.6,4.3,4c0.7,0.7,1.7-0.4,1.1-1.1c-1.4-1.4-3-2.7-4.7-3.8
		C73.5,24.5,72.9,25.3,73.4,25.7L73.4,25.7z"/>
</g>
<g>
	<path fill="#739973" d="M75.7,20.5c2,0.9,4.1,1.6,6.2,2.3c0.9,0.3,1.3-1.1,0.4-1.4c-2-0.7-4.1-1.3-6.1-2
		C75.5,19.2,75,20.2,75.7,20.5L75.7,20.5z"/>
</g>
<g>
	<path fill="#739973" d="M78.1,14.5c2-0.3,3.9-0.4,5.9,0c1.1,0.3,1.3-1.4,0.2-1.5c-2.1-0.2-4.3-0.2-6.4,0.4
		C77.1,13.7,77.4,14.7,78.1,14.5L78.1,14.5z"/>
</g>
<g>
	<path fill="#739973" d="M101.5,14.6c0.2,1.8,0.6,3.6,0.9,5.3c0.1,0.8,1.5,0.5,1.3-0.4c-0.4-1.7-0.7-3.5-1.2-5.1
		C102.3,13.9,101.4,14,101.5,14.6L101.5,14.6z"/>
</g>
<g>
	<path fill="#739973" d="M107.6,12.9c0.2,1.9,0.6,3.8,0.8,5.7c0.1,0.9,1.4,0.7,1.2-0.2c-0.4-1.9-0.7-3.8-1.1-5.6
		C108.3,12.3,107.5,12.4,107.6,12.9L107.6,12.9z"/>
</g>
<g>
	<path fill="#739973" d="M113.2,11.3c0,2,0.3,4.1,0.5,6.1c0.1,1,1.6,0.8,1.3-0.2c-0.5-1.9-0.7-3.9-1-5.9
		C114,10.7,113.2,10.7,113.2,11.3L113.2,11.3z"/>
</g>
<path fill="#A09F9F" d="M82.5,72.9c-0.1-1-0.3-1.9-0.4-2.9c-0.1-0.6-0.7-0.7-1.2-0.5c-0.1,0-0.1,0-0.2,0c-3.6,0.6-7.2,1.4-10.9,1.8
	c-0.5,0-1,0.5-0.8,1c0.4,1.1,0.6,2.2,0.5,3.4c0,0.5,0.5,0.9,1,0.8c3.7-0.9,7.5-1.8,11.2-2.6C82.4,73.8,82.6,73.3,82.5,72.9z"/>
<g>
	<path fill="#A09F9F" d="M70.8,72.6c0.5-2.3-3-4-3.8-1.3c-0.5,1.5,0,3,0.7,4.4c0.6,1.2,1.4,2.5,2.9,2.2c1.3-0.3,1.2-2.5,1.1-3.4
		c-0.2-1.4-0.7-2.8-2.1-3.4c-1.2-0.5-2,1.1-2.1,2c-0.1,1.1,0.9,3,2.2,2.5c1.4-0.5,1.6-1.7,1.4-3c-0.2-1.1-0.9-2.9-2.2-2.9
		c-1.4,0-2.1,1.2-2.5,2.4c-0.5,1.5,0.1,3.2,1,4.4c0.8,1.1,2,2,3.4,1.5c1.3-0.5,1.7-2,1.5-3.3c-0.2-1.5-0.5-3.4-1.6-4.6
		c-0.4-0.5-1-0.6-1.6-0.7c-0.9-0.1-1.4,0.8-1.7,1.4c-0.5,0.9,0.8,2,1.5,1.1c0.3-0.3,0.5-0.6,0.8-1c-0.2,0.2-0.4,0.3-0.6,0.5
		c0.7-0.1,0.9,1.9,1,2.3c0.1,0.6,0.3,1.2,0.2,1.9c-0.3,0.1-0.5,0.1-0.8,0.2c-0.2-0.2-0.4-0.4-0.6-0.7c-0.6-0.7-0.8-1.6-0.6-2.5
		c0,0,0.4-1.1,0.5-1c0.4,0.3,0.5,1,0.6,1.4c0.2,0.7,0.2,0.7,0,0c0,0.4,0.3,0.7,0.4,1.1c0.1,0.5,0.1,0.9,0.1,1.4c0,1.1,0.1,0.3-0.1,0
		c-0.5-0.9-1-1.8-1.2-2.8c0-0.1,0.1-1.2,0.2-1.1c0.3,0.1,0.9,0.7,1,1C70.1,73,70.7,73.1,70.8,72.6L70.8,72.6z"/>
</g>
<g>
	<path fill="#A09F9F" d="M89.8,4C89.8,4,89.8,4,89.8,4c0,0.2,0,0.5,0,0.8c0,0,0,0,0.1-0.1c-0.3,0-0.6,0-0.9,0
		c0.8,0.8,1.2,2.7,1.6,3.8c0.5,1.3,0.8,2.7,1.1,4.1c0.1,0.5,0.6,0.7,1,0.6c1.1-0.2,2.1-0.6,3.1-1.1c0.4-0.2,0.5-0.6,0.4-1
		c-0.5-2.2-1.4-4.4-2.5-6.4c-1-1.9-1.7-1.9-3.7-1.4c-0.7,0.2-0.9,1.1-0.4,1.6c0.9,1,1.5,2.1,1.9,3.4c0.3,1.2,2.2,0.7,1.8-0.5
		c-0.2-0.6-0.3-1.2-0.4-1.8c-0.6,0.2-1.2,0.3-1.8,0.5c0.6,1.5,1,3.1,1.3,4.7c0.6-0.2,1.2-0.3,1.8-0.5c-0.1-0.2-0.1-0.5-0.2-0.7
		c-0.6,0.2-1.2,0.3-1.8,0.5c0.1,0.2,0.2,0.5,0.2,0.7c0.3,1.2,2.1,0.7,1.8-0.5c-0.1-0.5-0.2-0.7-0.4-1.2c-0.4-0.8-1.9-0.5-1.8,0.5
		c0.1,0.4,0.1,0.8,0.2,1.2c0.3,1.2,2.1,0.7,1.8-0.5C93.9,9,93.5,7.5,92.9,6c-0.4-1.2-2.1-0.7-1.8,0.5c0.1,0.6,0.2,1.2,0.4,1.8
		c0.6-0.2,1.2-0.3,1.8-0.5c-0.5-1.6-1.2-3-2.3-4.2c-0.1,0.5-0.3,1.1-0.4,1.6c0.4-0.1,1-0.4,1.3,0c0.4,0.7,0.8,1.4,1.1,2.1
		c0.7,1.4,1.1,2.8,1.5,4.3c0.1-0.3,0.3-0.7,0.4-1c-0.9,0.5-1.7,0.8-2.7,1.1c0.3,0.2,0.7,0.4,1,0.6c-0.4-1.8-1-3.5-1.7-5.2
		c-0.4-1-0.9-2.5-1.9-3.2C89.5,3.6,89,3.7,88.9,4c0,0,0,0,0,0.1c-0.1,0.2-0.1,0.6,0.1,0.7c0,0,0,0,0.1,0C89.6,5.3,90.4,4.6,89.8,4
		L89.8,4z"/>
</g>
<g>
	<path fill="#A09F9F" d="M112,1.6c0.7,2,1.1,3.9,1,6c0,0.6,0.6,0.9,1.1,0.8c0.7-0.1,1.5-0.3,2.2-0.4c0.4-0.1,0.7-0.5,0.6-0.8
		c-0.1-2-0.2-4-0.9-5.9c-0.5-1.5-2.3-1.2-3.5-0.8c-0.6,0.2-1,1.1-0.4,1.6c0.5,0.4,0.9,0.7,1.6,0.8c-0.2-0.2-0.4-0.4-0.7-0.7
		c0.3,1.5,0.5,2.9,0.8,4.4c0.2,1,1.9,0.8,1.9-0.3c-0.1-1.6-0.5-3.1-0.8-4.6c-0.1-0.3-0.4-0.6-0.7-0.7c-0.2-0.1-0.5-0.2-0.7-0.3
		c-0.1,0.5-0.3,1-0.4,1.6c0.6-0.2,1.2-0.3,1.9-0.2c-0.2-0.1-0.4-0.2-0.6-0.3c0.5,0.4,0.6,1.7,0.7,2.3c0.2,1,0.2,2.1,0.3,3.1
		c0.2-0.3,0.4-0.6,0.6-0.8c-0.7,0.2-1.5,0.3-2.2,0.5c0.4,0.3,0.7,0.5,1.1,0.8c0-2.3-0.5-4.5-1.7-6.4C112.7,0.6,111.8,1,112,1.6
		L112,1.6z"/>
</g>
<g>
	<path fill="#D6D6D6" d="M90.3,4.5C90.5,4,92,5.2,92.2,5.4c0.4,0.6,0.7,1.2,1,1.8c0.4,0.7,0.6,1.5,0.9,2.2c0.1,0.4,0.6,1.4,0.5,1.7
		c0.3-0.2,0.5-0.4,0.8-0.6c0,0,0,0,0,0c0.3,0.3,0.5,0.7,0.8,1c0,0,0,0,0,0c0.1-0.4-0.2-1-0.7-1c0,0,0,0,0,0c-0.5,0.1-0.9,0.5-0.8,1
		c0,0,0,0,0,0.1c0.1,0.8,1.4,0.8,1.6,0c0.2-0.8-0.3-1.8-0.5-2.6c-0.4-1.2-1-2.4-1.6-3.5C93.8,4.9,93,3.1,92.2,3
		c-0.9-0.1-2-0.1-2.8,0.5C89.2,3.6,89,3.8,89,4.1c0,0,0,0.1,0,0.1C89.1,4.7,90,5.2,90.3,4.5L90.3,4.5z"/>
</g>
<g>
	<path fill="#D6D6D6" d="M112.6,1.7c0.4-0.1,0.7-0.2,1.1-0.3c1-0.4,1.2,1.2,1.4,1.7c0.4,1.4,0.7,2.7,0.6,4.1c0,1.1,1.7,1.1,1.7,0
		c0-2-0.5-4.2-1.3-6c-0.9-1.9-2.1-1.3-3.7-0.8C111.4,0.7,111.8,1.8,112.6,1.7L112.6,1.7z"/>
</g>
<g>
	<path fill="#D6D6D6" d="M71.8,72.1c3.1-0.4,6.1-0.9,9.2-1.2c1.3-0.1,1-2-0.2-1.7c-1.9,0.4-3.8,0.6-5.7,1c-1.2,0.2-2.6,0.2-3.6,1.1
		C71.2,71.5,71.4,72.1,71.8,72.1L71.8,72.1z"/>
</g>
<g>
	<path fill="#D6D6D6" d="M67.6,71.3c0.3-0.2,0.7-0.4,1-0.5c1-0.4,1.8,1.2,2,1.9c0.2,0.7,0.8,4.3-0.8,4.2c-0.9,0-1.1,1.4-0.2,1.6
		c5.8,1.1,1.9-13.4-2.6-7.8C66.8,71,67.1,71.5,67.6,71.3L67.6,71.3z"/>
</g>
<path fill="#A7ABAF" d="M96.2,89.7c6.4,25.1,13.9,50,22.6,74.4c-0.7-0.4-1.6-0.1-2.4,0.2c-19.1,6.2-37.5,4.9-55.7-3.5
	c2.7-18.1,1.1-36.4,1.2-54.7c0-1.9,0-3.8,0.7-5.6c0.5-1.3,1.3-2.4,2.1-3.4c4-5.4,8.1-10.8,12.1-16.1c6.1,3,12.3,5.9,18.4,8.9"/>
<path opacity="0.3" fill="#64696E" d="M108.1,136.5c-5.6,0.9-10.9,2.4-16.1,4.4c-3.3,1.3-6.4,2.3-9.8,0.6c-0.7-0.3-1.3-0.8-2-1.3
	c0.2-0.6,0.2-1.4-0.1-2c-5.4-10.6-10.5-21.9-11.8-33.8c1.2-5.1,3.9-9.8,6.9-14.3c0.5,1.3,1.1,2.5,1.7,3.7c0.9,1.8,3,5.9,5.2,6.5
	c0.3,0.1,0.6,0.1,1,0.1c0.7,0.5,1.6,0.6,2.4,0.1c1-0.5,2.1-1.1,3.1-1.6c2.7,1.9,7.2,9.7,7.9,10.8c1.6,2.5,4.3,1.9,2.9-0.7
	c-2.3-4.6-3.9-10.6-6.9-14.8c-0.7-1-2-1.5-3.1-0.8c-0.2,0.1-2.8,3.7-3,3.8c-1.5-0.5-0.7-3.2-1.9-2.4c-1.4-2.2-2.6-4.5-3.6-6.9
	c-0.7-1.7-1-3.8-2.5-5c-0.7-0.5-1.3-0.7-2.1-0.3c-0.8,0-1.7,0.3-2.2,1.1c-3.1,4.5-6.1,9.1-8.2,13.9c-1.2-0.2-2.3,0.3-2.6,1.8
	c0,0.2-0.1,0.4-0.1,0.7c0,0,0,0,0,0c0,0,0,0,0,0c-0.5,3.8-0.5,7.6-0.1,11.4c-1.2,0.4-2.1,1.5-1.6,3c0.7,2.4,1.3,4.8,1.8,7.3
	c-0.1,0.2-0.2,0.4-0.2,0.6c-1.3,7-1,14.4-0.6,21.8c-0.1,1.2-0.3,2.5-0.4,3.8c-0.2,2.9-1.1,7.8,0,10.6c2.2,5.3,11.3,5.4,16.2,6.6
	c1.6,0.4,3.5-0.8,3.4-2.6c-0.5-5.7-1.2-11.3-2.1-16.9c2.1,1.2,4.4,2,7.1,2.1c3.5,0.1,7.1-1.8,10.3-3c4.1-1.5,8.5-2.5,12.8-3.2
	C112.9,141.1,111.4,135.9,108.1,136.5z"/>
<g>
	<path fill="#777C82" d="M95.5,89.9c5.8,25.2,14,49.7,22.3,74.2c0.3-0.5,0.7-0.9,1-1.4c-5.7,0.8-11.1,2.8-17,3.4
		c-6.4,0.7-12.9,0.1-19.3-0.9c-6.1-1-12.1-2.6-17.9-4.4c-3.5-1.1-2.6-2.7-2.4-5.8c0.2-2.6,0.3-5.2,0.4-7.8
		c0.4-11.4,0.3-22.9,0.4-34.4c0-2.7,0-5.5,0.1-8.2c0.1-3.6,1.8-5.8,3.8-8.5c3.7-4.9,7.3-9.8,11-14.7c-0.5,0.1-1,0.3-1.5,0.4
		c6.4,3,13,5.7,19.4,8.8c1.3,0.6,2.4-1.3,1.1-1.9c-6.4-3-13-5.7-19.4-8.7c-0.6-0.3-1.1-0.1-1.5,0.4c-4.6,6.1-9.5,12-13.7,18.4
		c-3,4.6-1.5,12.5-1.5,17.6c0,14.8,0.1,29.7-1.2,44.4c0,0.5,0.4,0.9,0.8,1.1c9.5,3,19.1,5.5,29,6.5c5.4,0.5,10.7,0.3,16.1-0.4
		c4.7-0.6,9-2.4,13.6-3c0.5-0.1,0.9-0.8,0.7-1.3c-9-24.3-15.9-49.2-22.9-74.1C96.7,88.6,95.3,89,95.5,89.9L95.5,89.9z"/>
</g>
<path fill="#A7ABAF" d="M68.8,100.8C67.2,114.6,71,129,79.4,140c0.4,0.5,0.8,1.1,1.4,1.4c0.8,0.5,1.8,0.4,2.7,0.4
	c8.8-0.2,35.7-4.6,42.3-7.6c-0.6-3.7-1.1-7.4-1.7-11.2c-12.7,1.7-25.4,3.4-38,5c-2.9-5.9-2.8-13.1,0.2-18.9"/>
<g>
	<path fill="#777C82" d="M68.1,100.6c-1.5,9.6,0.1,19.2,3.7,28.1c1.7,4.2,4,8.4,6.9,12c1.9,2.4,4.2,2.3,7.1,2.1
		c6.9-0.4,13.9-1.6,20.7-2.8c6.5-1.1,13.6-2.1,19.7-4.7c0.7-0.3,0.9-0.7,0.8-1.4c-0.5-3.7-1.1-7.4-1.7-11.2
		c-0.1-0.5-0.7-0.9-1.1-0.9c-7.7,1-15.4,1.8-23.1,2.6c-3.2,0.3-11.3,3-12.9-0.8c-1.8-4.5-2.4-9.4-1.6-14.1c0.3-1.6-2.1-2.2-2.4-0.7
		c-1.2,6.7,0.3,12.9,3.1,19c0.2,0.3,0.7,0.7,1.1,0.6c7.1-0.9,14.2-1.7,21.3-2.5c3.6-0.4,7.1-0.8,10.7-1.3c2.5-0.3,2.8-0.2,3.1,2.4
		c0.4,2.5,0.7,5,1.1,7.4c0.3-0.5,0.5-1,0.8-1.4c-10.7,4.5-23.7,5.6-35.1,7c-2.3,0.3-4.6,0.5-6.9,0.6c-4.5,0.2-7.6-7.8-9.2-11.2
		c-4.3-9-5.3-18.9-4.8-28.7C69.6,100,68.3,99.8,68.1,100.6L68.1,100.6z"/>
</g>
<path fill="#777C82" d="M105.5,119.4c-2.5-5.3-5.2-10.5-7.9-15.7c-2.1-4-3.4-9.2-7.6-11.5c-0.6-0.3-1.4-0.2-1.7,0.4
	c-0.6,1.1-1.3,2.1-2.1,3c-2.7-4.7-5.2-9.6-8-14.3c-0.4-0.7-1.6-0.2-1.3,0.6c1.9,5.7,5,11.1,8.1,16.3c0.4,0.7,1.3,0.8,1.9,0.2
	c1.2-1.1,2.1-2.1,2.9-3.4c3.2,2.6,4.8,8.2,6.5,11.5c2.4,4.7,4.9,9.3,7.2,14C104.2,121.9,106.2,120.7,105.5,119.4z"/>
<g>
	<path fill="#777C82" d="M97.2,81.8c1.8,1.5,3.6,2.9,5.4,4.4c0.5,0.4,4.3,3.3,4.3,3.7c-0.1,2.4-0.7,4.8-1,7.1
		c-0.9,6.5-1.5,13.2-3.2,19.6c-0.3,1.2,1.5,1.7,1.9,0.5c2-7.3,2.6-15.1,3.6-22.5c0.2-1.2,1.1-4.2,0.3-5.4c-2.5-3.3-7-6.1-10.5-8.4
		C97.4,80.5,96.7,81.4,97.2,81.8L97.2,81.8z"/>
</g>
<g>
	<path fill="#739973" d="M90.2,245.7c0.4,1.3,0.8,2.6,1.1,3.9c0.2,0.6,1.1,0.4,1-0.3c-0.3-1.3-0.8-2.6-1.3-3.9
		C90.8,245,90,245.2,90.2,245.7L90.2,245.7z"/>
</g>
<g>
	<path fill="#739973" d="M93.3,244.4c0.7,1.2,1.4,2.6,2.2,3.7c0.4,0.6,1.3,0,0.9-0.6c-0.8-1.2-1.7-2.3-2.5-3.6
		C93.8,243.6,93.1,244,93.3,244.4L93.3,244.4z"/>
</g>
<g>
	<path fill="#739973" d="M95.7,243.1c1.1,0.9,2.3,1.9,3.4,2.8c0.6,0.5,1.2-0.6,0.6-1c-1.2-0.7-2.3-1.5-3.4-2.4
		C95.9,242.2,95.2,242.8,95.7,243.1L95.7,243.1z"/>
</g>
<g>
	<path fill="#739973" d="M168.4,101.2c1.7-0.2,3.3-0.2,5-0.5c0.7-0.1,0.5-1.2-0.2-1.2c-1.7,0.1-3.3,0.4-5,0.7
		C167.7,100.4,167.9,101.3,168.4,101.2L168.4,101.2z"/>
</g>
<g>
	<path fill="#739973" d="M152.9,220.3c1,1.4,2.2,2.7,3.5,3.9c0.6,0.6,1.6-0.4,0.9-0.9c-1.3-1.1-2.5-2.3-3.5-3.7
		C153.4,219.1,152.5,219.7,152.9,220.3L152.9,220.3z"/>
</g>
<g>
	<path fill="#739973" d="M155.6,218.1c1.2,1.2,2.4,2.3,3.6,3.4c0.7,0.6,1.6-0.4,1-1c-1.2-1.1-2.5-2.2-3.8-3.2
		C155.9,216.8,155.1,217.5,155.6,218.1L155.6,218.1z"/>
</g>
</svg>
